<svg xmlns="http://www.w3.org/2000/svg" xmlns:xlink="http://www.w3.org/1999/xlink" width="100%" height="100%" viewBox="0 0 3046 3046" fill-rule="evenodd" stroke-linecap="round" stroke-linejoin="round" stroke-miterlimit="1.5" xmlns:v="https://vecta.io/nano"><circle cx="3519.79" cy="5325.73" r="1729.87" fill="#237fa8" transform="matrix(.72294 0 0 .72294 -1021.687149 -2327.27136)"/><circle cx="3519.79" cy="5325.73" r="1729.87" fill="#fff" transform="matrix(.48168 0 0 .48168 -172.50341 -1042.39044)"/><path d="M1494.957 869.494c-332.131 0-602.553 235.413-610.667 528.03-5.277 4.654-8.245 10.979-8.249 17.577v279.388c.002 13.705 12.539 24.815 28.004 24.816h42.169v132.75c0 17.087 13.811 30.957 30.821 30.957h7.698c28.176 144.896 164.723 255.586 358.41 291.023v6.668c0 11.58 9.401 20.979 20.979 20.979h126.378c11.578 0 20.977-9.399 20.977-20.979v-41.96c0-11.573-9.399-20.972-20.977-20.972h-126.378c-11.578 0-20.979 9.4-20.979 20.972v3.517c-170.5-33.422-287.956-130.015-314.321-259.249h9.853a30.7 30.7 0 0 0 8.781-1.278v4.721c0 42.144 34.065 76.359 76.023 76.359s76.022-34.215 76.022-76.359v-383.892c0-42.154-34.065-76.367-76.022-76.367s-76.023 34.213-76.023 76.367v4.711a30.7 30.7 0 0 0-8.781-1.276h-61.64c-17.01 0-30.821 13.879-30.821 30.957v132.719h-14.167v-254.571c-.023-6.244-2.701-12.25-7.5-16.821 3.271-117.24 51.518-224.455 129.917-308.8 12.885 10.889 30.95 17.013 49.289 17.392 18.864.396 37.661-5.251 50.927-16.009 22.945-18.615 41.586-41.049 66.328-57.975 75.293-51.513 176.702-75.811 270.799-75.811 3.35 0 6.47-.87 9.272-2.282 1.173.115 2.364.078 3.519-.11l205.693-33.618.01.281 8.645-.186c138.77-2.965 205.504 40.55 238.742 83.712s32.992 86.275 32.992 86.275l-.036 8.646 17.295.071.036-8.647s.13-49.224-36.584-96.899c-34.419-44.695-101.213-87.761-226.886-90.459h0c-8.378-.18-17.019-.179-25.928.012l-7.878.167L1504.6 870.35c-1.159-.189-2.356-.227-3.534-.11a12.79 12.79 0 0 0-1.49.352c-1.484-.526-3.034-.894-4.617-1.096z"/><g transform="matrix(-.894345 0 0 -.840319 4171.8367 6597.5182)"><path d="M2095.87 6150.319c0 33.17 16.15 60.101 36.05 60.101h918.26c19.9 0 36.05-26.931 36.05-60.101v-480.79c0-33.17-16.15-60.098-36.05-60.098h-498.997c3.924-54.609 31.41-96.958 65.239-96.958h403.184 8.082v-.012h.726c44.411 0 80.754-59.227 82.132-132.731h.066v-13.476-4.315h-.066c-1.378-73.503-37.72-132.731-82.132-132.731h-6.641v-.522h-3.052-151.49-3.05v27.998h3.05 151.49 3.052v-.52h6.641c36.528 0 66.031 49.189 66.031 110.09v9.163c0 60.902-29.503 110.088-66.031 110.088h-8.082v.012h-.726-403.184c-42.621 0-77.811 54.549-81.798 123.914H2131.92c-19.9 0-36.05 26.928-36.05 60.098z" transform="matrix(0 -1.23296 .739509 0 -1447.41 9231.9)"/><g fill-rule="nonzero" fill="#fff"><use xlink:href="#B" transform="matrix(0 -.812714 .812714 0 -2005.96 8058.51)"/><use xlink:href="#B" transform="matrix(0 -.812714 .812714 0 -1882.76 8058.51)"/><use xlink:href="#B" transform="matrix(0 -.812714 .812714 0 -1761.22 8058.51)"/><use xlink:href="#B" transform="matrix(0 -.812714 .812714 0 -1761.22 7935.79)"/><use xlink:href="#B" transform="matrix(0 -.812714 .812714 0 -1882.76 7935.79)"/><use xlink:href="#B" transform="matrix(0 -.812714 .812714 0 -2005.96 7935.79)"/><use xlink:href="#B" transform="matrix(0 -.812714 .812714 0 -2005.96 7813.07)"/><use xlink:href="#B" transform="matrix(0 -.812714 .812714 0 -1882.76 7813.07)"/><use xlink:href="#B" transform="matrix(0 -.812714 .812714 0 -1882.76 7690.35)"/><use xlink:href="#B" transform="matrix(0 -.812714 .812714 0 -2005.96 7690.35)"/><use xlink:href="#B" transform="matrix(0 -.812714 .812714 0 -2005.96 7567.63)"/><use xlink:href="#B" transform="matrix(0 -.812714 .812714 0 -1882.76 7567.63)"/><use xlink:href="#B" transform="matrix(0 -.812714 .812714 0 -1882.76 7444.91)"/><use xlink:href="#B" transform="matrix(0 -.812714 .812714 0 -1882.76 7321.52)"/><use xlink:href="#B" transform="matrix(0 -.812714 .812714 0 -1761.22 7321.52)"/><use xlink:href="#B" transform="matrix(0 -.812714 .812714 0 -1761.22 7198.8)"/><use xlink:href="#B" transform="matrix(0 -.812714 .812714 0 -1882.76 7198.8)"/><use xlink:href="#B" transform="matrix(0 -.812714 .812714 0 -2005.96 7198.8)"/><use xlink:href="#B" transform="matrix(0 -.812714 .812714 0 -2005.13 7076.07)"/><use xlink:href="#B" transform="matrix(0 -.812714 .812714 0 -1881.92 7076.07)"/><use xlink:href="#B" transform="matrix(0 -.812714 .812714 0 -1760.39 7076.07)"/><use xlink:href="#B" transform="matrix(0 -.812714 .812714 0 -2005.96 7321.52)"/><use xlink:href="#B" transform="matrix(0 -.812714 .812714 0 -2005.96 7444.91)"/><path d="M1826.914 5858.555v3.285 107.52h110.807v-110.805zm6.57 6.57h97.666v97.664h-97.666z" transform="matrix(0 -4.34471 .812714 0 -1761.22 14277.4)"/></g></g><path d="M1522.909 675.825c-224.655 0-440.123 89.25-598.978 248.105s-248.105 374.323-248.105 598.978 89.25 440.123 248.105 598.978 374.323 248.105 598.978 248.105 440.124-89.25 598.978-248.105a847.11 847.11 0 0 0 248.105-598.978c0-224.655-89.25-440.123-248.105-598.978s-374.324-248.105-598.978-248.105zm0 27.677a819.39 819.39 0 1 1-.001 1638.809 819.39 819.39 0 1 1 .001-1638.809zm0-445.019c-335.342 0-656.964 133.219-894.086 370.342S258.48 1187.57 258.48 1522.912s133.22 656.964 370.343 894.086 558.744 370.343 894.086 370.343 656.965-133.22 894.088-370.343a1264.45 1264.45 0 0 0 370.343-894.086c0-335.342-133.22-656.965-370.343-894.088s-558.746-370.342-894.088-370.342zm0 27.674a1236.74 1236.74 0 0 1 874.517 362.237c231.94 231.94 362.237 546.506 362.237 874.519a1236.74 1236.74 0 0 1-362.237 874.517c-231.94 231.94-546.506 362.238-874.519 362.238A1236.74 1236.74 0 0 1 286.154 1522.912c0-328.013 130.297-642.579 362.237-874.519a1236.75 1236.75 0 0 1 874.52-362.237z" fill-rule="nonzero"/><defs ><path id="B" d="M1817.936 5849.574v12.266 116.5h128.764v-128.766zm24.529 24.531h79.705v79.705h-79.705z"/></defs></svg>