<svg xmlns="http://www.w3.org/2000/svg" xmlns:xlink="http://www.w3.org/1999/xlink" width="100%" height="100%" viewBox="0 0 3046 3046" fill-rule="evenodd" stroke-linecap="round" stroke-linejoin="round" stroke-miterlimit="1.5" xmlns:v="https://vecta.io/nano"><circle cx="3519.79" cy="5325.73" r="1729.87" fill="#237fa8" transform="matrix(.870726 0 0 .870726 -1541.863 -3114.34)"/><circle cx="3519.79" cy="5325.73" r="1729.87" fill="#fff" transform="matrix(.580147 0 0 .580147 -519.086 -1566.799)"/><path d="M504.784 2063.736l-14.51 8.617 21.93 36.916-105.266 62.531 11.299 19.021 105.266-62.531 21.881 36.836 14.51-8.619-55.109-92.772zm30.603 117.61l-85.197 60.078 12.426 17.621 63.537-44.803c1.629.38 3.429.944 5.406 1.693 2.61.989 5.232 2.43 7.865 4.32 2.72 1.906 5.197 4.441 7.43 7.607 2.449 3.473 3.985 6.14 4.605 7.996.657 1.908 1.052 3.387 1.184 4.441l16.549-11.67c-.06-.952-.518-2.196-1.373-3.734-.819-1.487-1.913-3.202-3.281-5.143-2.449-3.473-5.552-6.41-9.309-8.809-3.72-2.348-7.416-4.061-11.086-5.145-2.959-.915-5.41-1.331-7.369-1.264l9.203-8.176-10.59-15.016zm35.176 63.511l-8.924 13.719c2.102.712 4.691 2.075 7.766 4.09 3.123 1.976 6.293 4.357 9.508 7.143 3.264 2.746 6.133 5.652 8.607 8.715 3.732 4.618 5.82 8.795 6.267 12.531.536 3.746-1.578 7.543-6.342 11.393l-7.656 6.188c-2.514-3.111-5.415-6.354-8.701-9.725a108.98 108.98 0 0 0-10.441-9.641c-3.675-3.057-7.402-5.631-11.18-7.721-5.852-3.066-11.742-4.537-17.666-4.41-5.836.136-11.355 2.305-16.557 6.508-4.813 3.889-8.129 8.337-9.949 13.344-1.733 5.016-2.059 10.182-.978 15.496 1.168 5.324 3.715 10.416 7.643 15.277 3.889 4.813 8.314 8.549 13.275 11.209s9.28 4.274 12.953 4.842l-6.855 5.539 12.846 15.896 55.93-45.191c7.243-5.853 11.78-11.527 13.607-17.021 1.916-5.485 1.772-11.033-.432-16.645-2.165-5.563-5.703-11.384-10.613-17.461-3.378-4.181-7.306-7.998-11.783-11.451-4.39-3.444-8.489-6.277-12.297-8.504-3.769-2.178-6.443-3.551-8.027-4.119zm-32.535 51.24a10.4 10.4 0 0 1 1.158.025c3.086.239 6.189 1.145 9.31 2.721 2.328 1.092 4.801 2.711 7.418 4.855a77.89 77.89 0 0 1 7.543 6.801c2.452 2.438 4.445 4.604 5.977 6.5l-22.168 17.912c-1.064-.024-2.74-.556-5.029-1.6-2.25-.994-4.659-2.384-7.225-4.168s-4.771-3.817-6.617-6.102c-3.614-4.472-5.299-8.696-5.055-12.67.284-3.925 2.467-7.538 6.551-10.838 2.722-2.2 5.434-3.345 8.137-3.438zm185.836 37.741l-30.793 29.922-4.439 4.641-.389-.863c-1.928-4.227-5.135-8.649-9.621-13.266-7.361-7.575-15.535-12.488-24.52-14.738-8.896-2.249-17.961-1.938-27.195.936-9.19 2.83-17.84 8.187-25.953 16.07s-13.485 15.763-16.117 23.637c-2.589 7.919-3.006 15.382-1.25 22.391 1.799 7.053 5.248 13.203 10.344 18.447 4.399 4.527 8.663 7.66 12.793 9.398s7.873 2.72 11.229 2.945c1.798.121 3.395.202 4.852.254l-7.479 7.266 14.242 14.658 109.324-106.234-15.027-15.463zm-74.688 22.469a24.79 24.79 0 0 1 3.885.449c5.112 1.046 9.518 3.473 13.221 7.283 2.962 3.048 5.287 5.888 6.973 8.52 1.73 2.677 2.665 5.253 2.807 7.73l-44.645 43.383c-2.691-.348-6.037-1.279-10.037-2.795-3.957-1.471-7.634-3.955-11.031-7.451-5.575-5.737-7.869-12.18-6.883-19.326s5.938-14.92 14.853-23.322c6.184-5.922 12.253-9.99 18.207-12.203 4.466-1.66 8.683-2.416 12.65-2.268zm81.668 61.634c-6.735-.06-13.329 1.435-19.781 4.484-7.893 3.793-15.116 9.549-21.668 17.268-10.921 12.865-16.359 25.548-16.312 38.049s5.787 23.605 17.223 33.313c3.335 2.831 7.028 5.433 11.08 7.807s8.044 4.286 11.977 5.738c3.98 1.493 7.457 2.273 10.434 2.34l4.863-12.103c-1.934-.33-4.423-1.212-7.467-2.648-2.956-1.443-5.926-3.064-8.91-4.859-2.944-1.843-5.322-3.533-7.133-5.07-4.288-3.64-7.543-7.676-9.768-12.105s-2.934-9.293-2.125-14.592 3.619-11.07 8.43-17.316l.828-1.018 48.764 41.395c1.918-1.487 3.892-3.378 5.922-5.672l6.928-8.016c4.185-5.22 7.085-10.422 8.701-15.609 1.663-5.146 2.189-10.111 1.576-14.894a34.77 34.77 0 0 0-4.57-13.596c-2.474-4.232-5.753-7.998-9.836-11.301-7.895-6.538-16.051-10.306-24.469-11.303a44.78 44.78 0 0 0-4.686-.289zm3.885 17.158c.604-.005 1.198.021 1.785.078 4.734.411 8.959 2.195 12.676 5.35 4.431 3.762 6.856 7.664 7.275 11.709.507 4.038-.36 8.056-2.605 12.053-2.157 3.99-4.973 7.789-8.447 11.398l-33.734-28.637c3.185-3.076 6.224-5.497 9.117-7.264 5.063-3.091 9.707-4.653 13.934-4.688zm100.166 55.094l-33.74 50.969c-3.691 5.576-6.744 10.865-9.154 15.865-2.358 5.035-3.729 9.822-4.113 14.365-.349 4.491.636 8.778 2.955 12.861s6.317 8.005 11.998 11.766c3.127 2.07 6.686 3.826 10.678 5.27 4.026 1.391 8.052 2.445 12.076 3.16 3.936.668 7.527 1.001 10.793 1.019l-1.629 2.461c-1.897 2.866-2.367 5.104-1.408 6.713.924 1.661 2.583 3.284 4.981 4.871l8.287 5.486 58.477-88.336-17.98-11.902-44.814 67.697c-1.803.006-4.082-.229-6.84-.705-2.723-.529-5.534-1.265-8.432-2.209-2.811-.962-5.285-2.15-7.422-3.565-3.648-2.415-6.308-4.851-7.98-7.307-1.62-2.422-1.908-5.609-.863-9.564 1.097-3.921 3.921-9.322 8.475-16.201l33.637-50.812-17.979-11.902zm98.644 63.553l-48.494 92.283 19.088 10.031 36.545-69.545c3.338-.576 6.613-.761 9.824-.557 3.295.178 6.347.617 9.156 1.316 2.894.673 5.324 1.493 7.289 2.455 7.119 3.247 10.816 7.094 11.09 11.545.329 4.48-1.541 10.592-5.611 18.338l-29.787 56.682 19.254 10.119 30.309-57.678c7.123-13.555 9.937-24.151 8.441-31.785-1.466-7.69-7.223-13.998-17.271-18.926-4.042-1.983-8.402-3.425-13.08-4.33-4.623-.876-9.129-1.374-13.516-1.49-4.331-.087-8.039.047-11.121.404l5.064-9.836-17.18-9.027zm130.534 14.615a16.45 16.45 0 0 0-2.01.107 17.29 17.29 0 0 0-7.553 2.531c-2.25 1.404-3.926 3.367-5.027 5.887-1.601 3.665-1.633 7.096-.096 10.291 1.594 3.22 4.053 5.555 7.375 7.006 3.723 1.626 7.538 1.794 11.445.5 3.99-1.326 6.846-3.966 8.572-7.918 1.451-3.322 1.647-6.578.586-9.77s-3.625-5.677-7.691-7.453c-1.761-.769-3.627-1.163-5.602-1.182zm-23.467 38.92l-41.736 95.531 19.76 8.631 41.734-95.531-19.758-8.631zm72.365 30.889c-2.585-.014-5.151.183-7.697.59-8.126 1.244-15.461 4.755-22.004 10.533s-11.762 13.912-15.658 24.4c-2.532 6.994-4.154 13.943-4.865 20.85-.632 6.868-.071 13.362 1.682 19.48s4.931 11.579 9.533 16.383 10.911 8.618 18.928 11.443c8.665 3.055 17.041 3.92 25.129 2.596 8.147-1.303 15.463-4.853 21.947-10.652 6.564-5.837 11.795-14.002 15.691-24.49 3.401-9.272 5.06-18.395 4.977-27.371-.003-9.014-2.396-17.08-7.176-24.199-4.7-7.157-12.415-12.626-23.143-16.408-5.876-2.071-11.657-3.123-17.344-3.154zm3.1 15.764c2.731.068 5.587.665 8.57 1.791 5.461 1.991 9.34 5.281 11.633 9.867 2.352 4.607 3.367 10 3.043 16.182-.303 6.123-1.66 12.602-4.07 19.439-3.886 11.023-8.994 18.931-15.322 23.725-6.249 4.755-13.39 5.652-21.424 2.687-5.381-2.03-9.197-5.396-11.449-10.1s-3.195-10.206-2.83-16.506 1.754-12.867 4.164-19.705c3.886-11.023 8.91-18.795 15.076-23.314 3.854-2.825 8.057-4.18 12.609-4.066zm82.332 11.416l-24.738 101.273 20.947 5.115 18.643-76.318c3.1-1.366 6.233-2.336 9.398-2.914 3.241-.624 6.308-.937 9.203-.937 2.971-.046 5.526.161 7.666.619 7.693 1.429 12.211 4.269 13.553 8.522 1.402 4.267 1.065 10.65-1.012 19.15l-15.195 62.203 21.129 5.16 15.463-63.295c3.634-14.875 3.801-25.835.504-32.881-3.282-7.107-10.394-11.836-21.336-14.187-4.401-.946-8.98-1.294-13.738-1.041-4.698.268-9.19.876-13.475 1.824-4.224.963-7.789 1.99-10.693 3.082l2.535-10.77-18.854-4.605zm183.931 34.781c-6.499.004-12.617 1.166-18.354 3.486-7.641 3.031-14.004 8.095-19.088 15.191s-8.351 16.19-9.801 27.285c-.902 7.383-.927 14.52-.074 21.41.921 6.835 2.92 13.039 5.998 18.609s7.398 10.183 12.959 13.834 12.564 5.956 21.01 6.916c9.129 1.038 17.486.007 25.072-3.094 7.648-3.093 13.982-8.192 19.004-15.295 5.091-7.158 8.363-16.284 9.812-27.379 1.239-9.798.815-19.062-1.275-27.791-2.021-8.784-6.158-16.112-12.41-21.981-6.183-5.924-14.926-9.528-26.229-10.812a58.28 58.28 0 0 0-6.625-.381zm-.238 15.408a29.5 29.5 0 0 1 4.559.279c5.768.719 10.281 3.056 13.543 7.012 3.324 3.963 5.52 8.993 6.588 15.09 1.075 6.035 1.204 12.656.385 19.859-1.32 11.613-4.528 20.462-9.623 26.551-5.026 6.033-11.786 8.505-20.279 7.414-5.699-.774-10.172-3.201-13.42-7.281s-5.397-9.232-6.451-15.453-1.172-12.933-.354-20.137c1.32-11.613 4.479-20.313 9.477-26.098 4.061-4.7 9.253-7.112 15.576-7.236zm119.342-55.729c-3.749.013-7.611.525-11.586 1.535-4.481 1.157-8.679 3.199-12.596 6.127-3.855 2.93-7.028 6.945-9.52 12.049s-3.872 11.528-4.143 19.273l-.32 9.184-15.598 3.395-.422 12.086 15.459.541-3.082 88.352 21.736.758 3.084-88.351 25.391.885.559-16.021-25.391-.885.451-12.93c.231-6.621 1.777-11.508 4.639-14.66 2.926-3.212 6.544-4.742 10.854-4.592 3.997.139 7.116.404 9.353.795s4.253.898 6.045 1.523l.582-16.678c-.988-.347-2.788-.784-5.396-1.312-2.606-.591-5.439-.94-8.5-1.047a41.78 41.78 0 0 0-1.6-.025zm198.037 38.816l-21.018 1.795-10.309 62.226-2.869 20.754-6.34-20.627-22.049-58.807-21.111 1.801-11.75 61.881-2.563 20.562-6.326-19.992-21.303-58.871-21.578 1.842 40.768 102.844 20.365-1.738 12.322-67.291 2.277-17.668 5.008 17.045 23.922 64.199 19.709-1.682 22.844-108.273zm68.73-14.89c-3.697-.008-7.637.405-11.82 1.238-8.888 1.77-16.502 5.293-22.844 10.57-6.354 5.216-10.87 11.979-13.549 20.287s-3.017 17.968-1.016 28.977c1.391 7.306 3.541 14.109 6.453 20.412 2.961 6.229 6.757 11.529 11.387 15.897s10.15 7.442 16.559 9.225 13.781 1.844 22.117.184c9.011-1.794 16.657-5.324 22.937-10.59 6.341-5.278 10.82-12.065 13.438-20.361 2.667-8.37 2.999-18.058.998-29.066-1.806-9.709-5.034-18.403-9.686-26.08-4.602-7.75-10.776-13.467-18.52-17.15-4.809-2.348-10.294-3.528-16.455-3.541zm-5.197 16.074c4.022-.084 7.651.914 10.885 2.994 4.374 2.761 7.997 6.882 10.873 12.363 2.864 5.42 5.004 11.686 6.42 18.797 2.283 11.462 1.926 20.869-1.07 28.221-2.948 7.278-8.633 11.692-17.055 13.242-5.664 1-10.665.053-15.002-2.844s-7.955-7.146-10.855-12.75-5.059-11.962-6.475-19.072c-2.283-11.462-1.924-20.709 1.072-27.742s8.682-11.289 17.055-12.766a25.33 25.33 0 0 1 4.152-.443zm116.014-45.494c-.663.013-1.428.096-2.295.25-1.673.29-3.651.764-5.932 1.426-4.082 1.184-7.867 3.16-11.359 5.93-3.432 2.752-6.259 5.686-8.478 8.803-1.829 2.499-3.019 4.681-3.594 6.555l-4.73-11.363-17.649 5.117 29.031 100.125 20.711-6.004-21.652-74.67c.891-1.416 2.012-2.934 3.365-4.559 1.786-2.145 4.001-4.154 6.646-6.027 2.688-1.951 5.894-3.466 9.615-4.545 4.082-1.184 7.101-1.766 9.059-1.748 2.018.001 3.546.111 4.586.33l-5.641-19.449c-.46-.127-1.02-.183-1.684-.17zm23.502-57.253l-19.645 7.424 31.811 84.19 21.936 58.057 19.645-7.422-7.156-18.943-5.58-13.883 7.35-17.258 48.359 33.848 22.977-8.682-63.32-43.986 22.197-52.119-23.678 8.945-22.471 56.889-4.324-12.689-28.1-74.369zm150.273-9.702c-1.204.006-2.416.075-3.635.205-4.875.519-9.654 1.962-14.342 4.33-9.203 4.515-15.987 10.405-20.352 17.672-4.308 7.24-6.381 15.25-6.219 24.031.219 8.755 2.503 17.704 6.851 26.848 7.248 15.239 16.58 25.403 27.998 30.492s23.899 4.413 37.445-2.029c3.951-1.879 7.84-4.178 11.668-6.898s7.21-5.575 10.149-8.564c2.995-3.016 5.135-5.866 6.418-8.553l-9.041-9.404c-1.094 1.628-2.921 3.535-5.48 5.721a116.03 116.03 0 0 1-8.088 6.131c-2.89 1.928-5.408 3.402-7.553 4.422-5.08 2.416-10.094 3.73-15.047 3.94s-9.678-1.142-14.178-4.055-8.611-7.844-12.332-14.795l-.588-1.174 57.766-27.471c-.569-2.36-1.483-4.936-2.742-7.729l-4.465-9.607c-3.042-5.959-6.596-10.739-10.662-14.342-4.01-3.63-8.322-6.148-12.936-7.553a34.63 34.63 0 0 0-10.637-1.617zm-3.361 16.434c1.643-.051 3.189.161 4.637.641 3.89 1.195 7.197 3.636 9.92 7.324 2.753 3.605 5.061 7.733 6.926 12.383l-39.961 19.004c-1.497-4.167-2.458-7.932-2.881-11.295-.846-6.726-.095-12.135 2.25-16.227 2.318-4.148 5.678-7.268 10.08-9.361 3.281-1.56 6.291-2.383 9.029-2.469zm92.197-68.422c-.954-.025-2.236.323-3.844 1.039-1.554.685-3.356 1.622-5.41 2.814-3.676 2.133-6.875 4.964-9.596 8.494-2.667 3.499-4.701 7.028-6.104 10.588-1.172 2.866-1.802 5.271-1.908 7.228l-7.332-9.887-15.893 9.223 52.326 90.166 18.65-10.822-39.021-67.24c.523-1.589 1.241-3.335 2.162-5.238 1.216-2.512 2.883-4.997 4.998-7.453 2.138-2.542 4.883-4.783 8.234-6.728 3.676-2.133 6.465-3.428 8.369-3.883 1.958-.486 3.469-.747 4.531-.785l-10.164-17.516zm68.822-40.18c-1.82.092-5.145.969-9.977 2.629-4.866 1.608-10.026 4.239-15.476 7.895-5.866 3.934-10.628 8.332-14.289 13.195s-5.797 9.984-6.406 15.359c-.592 5.289.783 10.538 4.125 15.746 3.116 4.758 6.792 8.164 11.027 10.215 4.287 2.016 9.056 3.069 14.309 3.158s10.928-.368 17.027-1.373c4.522-.775 8.621-1.34 12.295-1.697 3.691-.444 6.872-.357 9.543.26s4.755 2.039 6.252 4.271c2.124 3.166 2.48 6.502 1.068 10.008s-4.627 6.903-9.645 10.193c-3.72 2.42-7.582 4.407-11.582 5.961-3.983 1.467-7.532 2.568-10.65 3.305-3.101.65-5.233.951-6.395.902l6.385 14.908c2.098.098 4.906-.318 8.422-1.246 3.568-.963 7.431-2.386 11.586-4.269 4.207-1.918 8.308-4.218 12.305-6.898 9.655-6.475 15.85-13.678 18.584-21.607s1.386-15.941-4.045-24.039c-3.203-4.776-7.154-7.921-11.856-9.434-4.685-1.599-10.017-2.199-15.996-1.801-6.014.346-12.565 1.014-19.652 2.004-4.956.69-9.409 1.006-13.361.947-3.901-.093-7.097-2.053-9.586-5.877-1.741-2.821-1.766-5.889-.076-9.205 1.655-3.367 5.129-6.826 10.424-10.377a51.78 51.78 0 0 1 8.256-4.519c2.857-1.239 5.506-2.114 7.949-2.623 2.46-.596 4.418-.818 5.875-.666l-6.439-15.324zm38.977-89.744c-2.92-.102-5.891 1.067-8.912 3.506-1.994 1.61-3.483 3.696-4.467 6.258-1.023 2.513-1.436 5.135-1.238 7.867.207 2.644 1.175 5.036 2.902 7.176 2.513 3.112 5.54 4.725 9.084 4.836 3.592.072 6.799-1.031 9.619-3.309 3.161-2.552 5.069-5.86 5.725-9.924.665-4.151-.357-7.904-3.066-11.26-2.277-2.82-5.077-4.496-8.398-5.027a10.12 10.12 0 0 0-1.248-.123zm27.928 33.166l-16.777 13.545 65.49 81.111 16.775-13.545-65.488-81.111zm86.008-70.797c-6.8.003-13.672 3.457-20.617 10.361-3.193 3.173-5.981 6.822-8.363 10.949-2.337 4.084-4.276 8.18-5.818 12.289-1.496 4.066-2.58 7.614-3.248 10.645l-7.645-7.996-14.141 13.291 71.404 75.959 15.711-14.77-53.811-57.242c.545-3.344 1.44-6.499 2.682-9.467 1.244-3.057 2.654-5.799 4.232-8.227 1.581-2.516 3.148-4.544 4.699-6.088 5.393-5.67 10.237-7.909 14.533-6.715 4.342 1.151 9.509 4.916 15.502 11.291l43.855 46.652 15.848-14.897-44.627-47.473c-10.488-11.157-19.585-17.275-27.289-18.353a20.16 20.16 0 0 0-2.908-.211zm37.767-100.298l-14.506 16.707 105.191 91.338 14.506-16.705-105.191-91.34zm80.983-98.838l-5.916 4.834c-2.476 1.977-5.423 4.697-8.84 8.154-3.43 3.37-7.228 7.867-11.395 13.492-5.171 6.981-8.845 14.564-11.021 22.752-2.139 8.138-2.553 16.467-1.24 24.984s4.493 16.823 9.541 24.918c5.085 8.045 12.273 15.508 21.564 22.391 11.3 8.371 22.837 13.535 34.611 15.49 11.724 1.918 22.911.676 33.56-3.725 10.599-4.438 19.859-12.004 27.783-22.701 3.423-4.62 6.055-8.855 7.895-12.703 1.927-3.861 3.407-7.434 4.437-10.715a220.57 220.57 0 0 0 2.664-9.109l-14.916-11.049c.138 2.124-.344 5.032-1.447 8.727-1.066 3.644-2.624 7.585-4.674 11.822a73.02 73.02 0 0 1-7.15 11.855c-5.543 7.483-12.206 12.54-19.99 15.174s-16.046 2.971-24.783 1.01c-8.75-2.048-17.392-6.234-25.93-12.559-8.688-6.436-15.119-13.456-19.289-21.057-4.183-7.688-5.991-15.483-5.426-23.387.515-7.941 3.453-15.526 8.811-22.758 4.092-5.524 7.842-9.748 11.25-12.668 3.358-2.957 6.213-5.08 8.568-6.369s4.08-2.149 5.178-2.58l-13.846-14.225zm58.945-104.912l-55.18 92.73 14.502 8.631 21.957-36.9 105.219 62.611 11.313-19.014-105.217-62.609 21.908-36.818-14.502-8.631zM292.26 1199.462c-5.507.032-10.774.635-15.801 1.809-11.478 2.62-21.011 7.825-28.598 15.611-7.648 7.774-12.721 17.719-15.219 29.84-2.408 11.692-2.082 22.845.977 33.457 3.072 10.551 9.074 19.774 18.01 27.668 8.949 7.833 21.005 13.511 36.166 17.035 13.755 3.227 26.53 3.531 38.326.914 11.735-2.63 21.606-7.921 29.611-15.875 7.944-7.967 13.131-18.304 15.562-31.014 2.224-11.731 1.684-22.77-1.623-33.115s-9.491-19.317-18.553-26.918c-9.123-7.614-21.264-13.183-36.426-16.707-7.875-1.844-15.353-2.747-22.434-2.705zm-.215 22.482c5.526-.005 11.232.613 17.117 1.857 17.794 3.762 30.522 10.19 38.182 19.283 7.599 9.08 10.118 19.674 7.559 31.781-1.848 8.744-5.84 15.535-11.973 20.371s-13.52 7.906-22.164 9.209c-8.692 1.229-17.717.855-27.072-1.123-12.352-2.611-22.078-6.616-29.178-12.014-7.087-5.459-11.867-11.708-14.34-18.746s-2.925-14.257-1.361-21.656c1.784-8.439 5.685-14.96 11.705-19.564 5.972-4.679 13.23-7.584 21.773-8.717a69.79 69.79 0 0 1 9.752-.682zm-20.351-155.631l-6.687 20.498 40.821 13.317 6.172 1.768-.584.746c-2.842 3.675-5.261 8.571-7.258 14.691-3.276 10.042-3.817 19.562-1.625 28.561 2.152 8.92 6.65 16.796 13.492 23.631 6.783 6.815 15.552 11.978 26.307 15.486s20.228 4.593 28.422 3.256c8.213-1.397 15.014-4.503 20.398-9.32 5.404-4.877 9.24-10.79 11.508-17.742 1.958-6.001 2.744-11.235 2.359-15.699s-1.257-8.234-2.621-11.309l-2.037-4.412 9.915 3.234 6.339-19.43zm56.682 41.171l59.18 19.306c.945 2.544 1.678 5.939 2.199 10.185.541 4.187.055 8.598-1.457 13.232-2.481 7.606-7.113 12.635-13.896 15.09s-15.969 1.693-27.557-2.285c-8.121-2.715-14.546-6.191-19.277-10.43s-7.834-8.836-9.309-13.787c-1.455-5.011-1.359-10.041.289-15.092 1.318-4.04 2.749-7.419 4.293-10.137 1.563-2.777 3.409-4.805 5.535-6.084zm60.978-135.419a41.16 41.16 0 0 0-3.135.066c-8.289.468-15.336 2.828-21.141 7.078-5.861 4.225-10.297 9.703-13.309 16.435-2.578 5.762-3.911 10.883-3.998 15.363-.144 4.454.301 8.282 1.334 11.482a134.69 134.69 0 0 0 1.307 4.033l-13.551-6.738-38.853-17.382-8.806 19.683 133.499 59.725c.953-.601 2.352-1.891 4.197-3.873 1.814-2.064 3.831-4.585 6.053-7.562s4.379-6.188 6.469-9.635c2.172-3.479 4.037-6.959 5.594-10.439 4.339-9.699 5.904-19.166 4.696-28.402-1.24-9.319-4.931-17.748-11.074-25.289-6.118-7.598-14.34-13.709-24.666-18.328-8.985-4.02-17.191-6.093-24.617-6.217zm-3.746 21.676c6.048-.003 13.289 1.933 21.723 5.809 7.765 3.611 13.807 7.785 18.123 12.524 4.342 4.681 7.03 9.616 8.064 14.803 1.003 5.105.406 10.111-1.789 15.018-1.838 4.108-3.679 7.459-5.525 10.057-1.878 2.515-3.705 4.3-5.478 5.355l-57.849-25.881c-.622-2.743-.981-6.225-1.078-10.445-.155-4.246.763-8.593 2.754-13.043 3.267-7.303 8.403-11.817 15.406-13.545 1.751-.432 3.634-.649 5.65-.65zm54.968-123.794c-5.881.012-11.516 1.215-16.904 3.606-7.862 3.393-14.583 10.044-20.162 19.957-4.445 7.898-6.729 15.972-6.853 24.221-.179 8.219 2.012 16.051 6.572 23.494s11.671 13.99 21.328 19.64c6.451 3.702 13.016 6.5 19.695 8.394 6.656 1.809 13.147 2.38 19.477 1.711s12.259-2.856 17.785-6.559 10.374-9.259 14.543-16.666c4.506-8.007 6.805-16.108 6.898-24.303.124-8.249-2.108-16.068-6.699-23.457-4.615-7.474-11.753-14.037-21.41-19.687-8.544-4.952-17.243-8.161-26.098-9.631-2.775-.486-5.499-.726-8.172-.721zm-4.309 20.697c2.744-.033 5.624.297 8.641.99 5.978 1.356 12.125 3.813 18.443 7.369 10.185 5.732 17.093 12.129 20.721 19.191 3.604 6.977 3.25 14.166-1.058 21.566-2.929 4.95-6.904 8.126-11.926 9.531s-10.604 1.384-16.746-.064-12.371-3.95-18.69-7.506c-10.185-5.732-16.971-12.026-20.358-18.881s-2.912-13.938 1.42-21.254c2.905-5.035 6.815-8.286 11.728-9.752 2.472-.76 5.08-1.158 7.824-1.191zm41.236-111.912c-.871.39-1.876 1.255-3.016 2.596-1.105 1.289-2.326 2.916-3.662 4.879-2.392 3.513-4.05 7.451-4.977 11.811-.891 4.308-1.199 8.369-.924 12.186.183 3.092.655 5.531 1.406 7.342l-10.887-5.744-10.34 15.19 86.177 58.665 12.135-17.824-64.266-43.75c-.216-1.659-.322-3.542-.314-5.656.01-2.791.436-5.751 1.281-8.881.829-3.216 2.333-6.428 4.514-9.631 2.392-3.513 4.349-5.886 5.869-7.119 1.555-1.285 2.803-2.174 3.744-2.668zm73.197-71.381c-3.671-.018-7.32.456-10.945 1.42-8.297 2.116-15.979 7.631-23.045 16.545-5.63 7.102-9.152 14.716-10.57 22.844-1.467 8.089-.533 16.167 2.803 24.234s9.328 15.65 17.978 22.746c5.79 4.669 11.834 8.463 18.133 11.383 6.289 2.832 12.611 4.413 18.967 4.746s12.554-.894 18.594-3.684 11.698-7.515 16.979-14.176c5.707-7.2 9.25-14.839 10.629-22.918 1.418-8.127.441-16.201-2.933-24.219-3.384-8.106-9.402-15.708-18.053-22.805-7.661-6.232-15.747-10.768-24.262-13.609-4.795-1.648-9.554-2.484-14.273-2.508zm-5.205 19.967c3.957.026 8.088.909 12.393 2.647 5.691 2.278 11.379 5.668 17.061 10.172 9.159 7.26 14.975 14.663 17.449 22.207 2.464 7.456.987 14.5-4.43 21.133-3.67 4.428-8.095 6.942-13.275 7.541s-10.691-.299-16.529-2.693-11.598-5.844-17.279-10.348c-9.159-7.26-14.871-14.541-17.139-21.842s-.689-14.223 4.738-20.768c3.659-4.516 8.031-7.112 13.113-7.789a26.51 26.51 0 0 1 3.898-.26zm82.801-124.858l-15.836 16.639 28.853 53.86 13.512 22.469-23.529-11.941-55.674-25.678-16.094 16.91 105.049 43.288 12.861-13.514zm36.143-97.266l-18.236.619c.748 5.181 1.303 10.617 1.666 16.307a367.27 367.27 0 0 1 .691 17.043 359.46 359.46 0 0 1-.047 16.068l12.777-.418c.657-1.333 1.235-3.557 1.734-6.67.546-3.155 1.009-6.779 1.391-10.873a292.89 292.89 0 0 0 .756-12.439c.122-4.199.134-8.051.037-11.555s-.353-6.197-.77-8.082zm36.848 40.598c-3.465-.076-6.918.653-10.359 2.188-5.46 2.413-11.114 6.21-16.963 11.389-4.024 3.563-7.661 7.66-10.908 12.289-3.242 4.54-5.889 8.762-7.941 12.666-2.006 3.863-3.258 6.599-3.754 8.207l14.107 8.295c.617-2.132 1.862-4.779 3.736-7.941 1.833-3.209 4.069-6.483 6.707-9.82 2.597-3.384 5.368-6.382 8.316-8.992 4.445-3.936 8.524-6.21 12.236-6.826 3.718-.704 7.608 1.237 11.668 5.822l6.525 7.369c-2.995 2.652-6.103 5.696-9.322 9.131a108.9 108.9 0 0 0-9.16 10.867c-2.888 3.809-5.291 7.647-7.209 11.516-2.799 5.984-4.001 11.933-3.607 17.846.399 5.824 2.815 11.239 7.248 16.246 4.102 4.633 8.694 7.745 13.777 9.338 5.089 1.505 10.265 1.598 15.525.279 5.266-1.407 10.237-4.181 14.916-8.324 4.633-4.102 8.166-8.691 10.6-13.768s3.852-9.463 4.254-13.158l5.842 6.598 15.301-13.549-47.668-53.834c-6.173-6.972-12.046-11.248-17.617-12.826a23.5 23.5 0 0 0-6.25-1.006zm22.195 44.611l18.895 21.338h0c.023 1.064-.435 2.763-1.373 5.096-.892 2.292-2.17 4.76-3.836 7.404s-3.6 4.939-5.799 6.887c-4.305 3.812-8.447 5.686-12.428 5.621-3.934-.106-7.643-2.126-11.123-6.057-2.652-2.995-3.927-6.038-3.828-9.131s.865-6.235 2.299-9.424c.986-2.375 2.491-4.918 4.516-7.629a77.91 77.91 0 0 1 6.453-7.844c2.325-2.56 4.4-4.648 6.225-6.264zm99.257-135.994c-8.066.012-16.493 3.038-25.281 9.078-7.468 5.133-13.074 11.377-16.818 18.728-3.78 7.3-5.262 15.295-4.445 23.986s4.317 17.7 10.5 27.025c4.162 6.164 8.824 11.569 13.986 16.211 5.179 4.555 10.755 7.925 16.732 10.111s12.263 2.834 18.856 1.943 13.392-3.744 20.397-8.559c7.571-5.204 13.204-11.465 16.897-18.781 3.744-7.352 5.181-15.356 4.313-24.012-.852-8.743-4.368-17.776-10.551-27.101-5.491-8.209-11.888-14.922-19.191-20.141-7.287-5.305-15.215-8.124-23.783-8.453a32.24 32.24 0 0 0-1.609-.037zm-5.93 18.303a18.75 18.75 0 0 1 3.77.252c5.108.812 10.066 3.169 14.871 7.07 4.77 3.85 9.21 8.762 13.316 14.736 6.62 9.632 10.003 18.418 10.15 26.355.163 7.851-3.318 14.149-10.445 18.896-4.809 3.154-9.777 4.257-14.904 3.307s-10.13-3.429-15.006-7.434-9.368-8.994-13.475-14.969c-6.62-9.632-9.943-18.269-9.965-25.914s3.524-13.799 10.635-18.459c3.619-2.431 7.304-3.711 11.053-3.842zm97.594-79.679c-.953-.033-2.238.302-3.852 1.004-1.56.671-3.371 1.593-5.436 2.767-3.694 2.101-6.917 4.906-9.668 8.412-2.697 3.475-4.762 6.986-6.195 10.533-1.197 2.856-1.848 5.254-1.971 7.211l-7.246-9.949-15.973 9.084 51.541 90.618 18.742-10.66-38.435-67.576c.537-1.585 1.269-3.323 2.207-5.219 1.238-2.501 2.926-4.971 5.062-7.408 2.16-2.523 4.925-4.742 8.293-6.658 3.694-2.101 6.494-3.37 8.402-3.809 1.962-.469 3.475-.719 4.537-.748zm109.328-53.783l-9.5 4.474c-4.41 2.077-8.083 4.843-11.016 8.297-1.595 1.901-2.81 3.601-3.674 5.115a36.63 36.63 0 0 0-7.137-.127c-6.863.537-13.76 2.542-20.692 6.014-7.128 3.495-13 7.746-17.619 12.754s-7.451 10.657-8.494 16.951.167 13.118 3.629 20.469c2.876 6.107 7.059 10.734 12.549 13.883 4.941 2.797 10.477 4.313 16.598 4.576-1.74 2.664-3.138 5.398-4.15 8.213-1.107 3.077-1.707 6.056-1.803 8.934-.066 2.794.42 5.293 1.459 7.498 1.358 2.884 3.422 5.436 6.193 7.654 2.107 1.632 4.822 2.555 8.141 2.773-1.193 1.583-2.325 3.351-3.383 5.348-1.609 3.038-2.623 6.313-3.041 9.826-.392 3.569.238 7.108 1.889 10.613 4.42 9.386 11.328 14.664 20.723 15.836s20.312-1.171 32.752-7.029c6.333-2.982 11.964-6.499 16.897-10.549s8.909-8.444 11.928-13.182 4.826-9.629 5.42-14.676c.621-4.99-.228-9.946-2.545-14.865a36.56 36.56 0 0 0-5.994-8.988c-2.369-2.684-5.398-4.713-9.084-6.086-3.713-1.429-8.219-1.83-13.518-1.199s-11.597 2.663-18.891 6.098l-16.963 7.988c-3.902 1.837-6.979 2.562-9.234 2.174-2.226-.472-4.151-2.432-5.775-5.881-1.038-2.205-1.191-4.655-.457-7.35.458-1.664 1.081-3.14 1.861-4.436 3.461-.847 6.944-2.094 10.451-3.746 7.52-3.542 13.622-7.9 18.301-13.074 4.652-5.231 7.528-11.005 8.627-17.326 1.073-6.377-.015-13.016-3.264-19.914-2.859-6.072-6.482-10.651-10.861-13.744l16.907-7.962zm-34.311 33.531c1.923.033 3.736.401 5.439 1.102 4.515 1.812 8.237 5.827 11.166 12.047 3.408 7.238 4.014 12.997 1.816 17.279-2.224 4.225-6.25 7.708-12.074 10.451-6.559 3.089-12.229 3.445-17.01 1.068-4.724-2.404-8.298-6.179-10.721-11.324-2.37-5.032-3.289-9.332-2.758-12.899s2.055-6.563 4.572-8.992 5.53-4.47 9.035-6.121c3.817-1.797 7.328-2.667 10.533-2.611zm49.043 78.473c3.252-.058 5.875.681 7.869 2.221 2.336 1.732 4.288 4.267 5.859 7.604 1.491 3.166 1.485 6.381-.018 9.645-1.476 3.32-4.037 6.462-7.686 9.424-3.622 3.018-7.864 5.671-12.727 7.961-5.259 2.476-9.832 3.767-13.721 3.871-3.806.134-7.069-.781-9.791-2.746-2.695-1.909-4.922-4.729-6.68-8.461-1.544-3.28-2.246-6.162-2.103-8.647.226-2.455.794-4.622 1.705-6.502l.053-.113c.84-.276 1.692-.572 2.572-.916 2.541-1.059 5.423-2.345 8.646-3.863l9.329-4.393c6.333-2.982 11.419-4.653 15.258-5.01.49-.041.969-.064 1.434-.072zm66.723-139.659a27.14 27.14 0 0 0-2.225.016c-5.964.26-12.612 1.736-19.945 4.43-5.045 1.853-9.925 4.344-14.635 7.473-4.673 3.048-8.675 6.017-12.008 8.906-3.275 2.867-5.437 4.96-6.484 6.277l10.117 12.861c1.351-1.761 3.476-3.772 6.373-6.035 2.876-2.321 6.15-4.557 9.822-6.705 3.651-2.206 7.323-3.988 11.02-5.346 5.573-2.047 10.201-2.681 13.883-1.902 3.719.698 6.634 3.921 8.746 9.67l3.394 9.24c-3.755 1.379-7.757 3.082-12.006 5.109a109.02 109.02 0 0 0-12.49 6.785c-4.077 2.496-7.712 5.197-10.906 8.102-4.786 4.554-8.073 9.657-9.859 15.307-1.749 5.57-1.47 11.492.836 17.77 2.133 5.808 5.277 10.38 9.432 13.715 4.192 3.254 8.976 5.225 14.355 5.912 5.416.607 11.059-.167 16.926-2.322 5.808-2.133 10.77-5.121 14.885-8.963s7.033-7.41 8.752-10.705l3.039 8.271 19.184-7.047-24.793-67.496c-3.211-8.741-7.124-14.861-11.738-18.359a22.94 22.94 0 0 0-13.674-4.963zm12.648 51.381l9.826 26.752c-.365 1-1.411 2.416-3.135 4.248-1.665 1.81-3.755 3.644-6.27 5.5s-5.149 3.29-7.906 4.303c-5.397 1.983-9.939 2.219-13.623.709-3.625-1.531-6.342-4.761-8.152-9.689-1.379-3.755-1.461-7.056-.242-9.9s3.078-5.491 5.574-7.94c1.783-1.853 4.11-3.673 6.982-5.461a77.92 77.92 0 0 1 8.867-4.955c3.097-1.537 5.79-2.726 8.078-3.566zm105.3-88.195c-3.4.066-7.116.681-11.148 1.846-4.325 1.248-8.523 3.11-12.596 5.584-4.012 2.459-7.681 5.118-11.008 7.98-3.266 2.847-5.921 5.437-7.963 7.773l-2.861-10.686-18.789 4.862 26.119 100.926 20.875-5.402-19.683-76.057c2.085-2.67 4.385-5.009 6.9-7.016 2.56-2.083 5.115-3.809 7.666-5.18 2.595-1.446 4.945-2.473 7.047-3.082 7.454-2.381 12.777-2.016 15.971 1.096 3.254 3.096 5.978 8.881 8.17 17.352l16.043 61.988 21.057-5.449-16.324-63.078c-3.836-14.824-8.875-24.559-15.113-29.207-3.909-2.943-8.695-4.36-14.361-4.25zm64.742-59.596a19.72 19.72 0 0 0-3.115.332c-2.521.462-4.824 1.583-6.912 3.363-2.099 1.719-3.714 3.827-4.846 6.322-1.081 2.422-1.375 4.985-.879 7.689.721 3.934 2.611 6.798 5.672 8.588 3.122 1.779 6.466 2.341 10.031 1.688 3.996-.732 7.253-2.727 9.77-5.984 2.567-3.33 3.461-7.116 2.684-11.357-.654-3.566-2.313-6.376-4.976-8.43-1.998-1.54-4.473-2.276-7.428-2.211zm15.084 43.984l-21.209 3.887 18.794 102.541 21.209-3.887zm109.278-14.797l-74.875 8.661 1.853 16.017 49.172-5.688-4.518 8.262-40.955 78.35 4.771 6.998 77.857-9.006-1.789-15.459-52.525 6.076 4.52-8.26 40.67-77.563zm73.084-5.16l-2.879.052c-5.372.178-10.785 1.012-16.238 2.506-5.393 1.429-10.126 2.993-14.197 4.691-4.009 1.696-6.715 3.006-8.123 3.928l5.574 15.387c1.835-1.249 4.483-2.494 7.943-3.734 3.459-1.303 7.267-2.397 11.428-3.285 4.158-.951 8.205-1.491 12.141-1.621 5.934-.196 10.527.652 13.779 2.545 3.312 1.829 5.071 5.804 5.273 11.926l.326 9.838c-3.998.132-8.333.496-13.004 1.088-4.673.53-9.334 1.371-13.986 2.525-4.654 1.092-8.953 2.517-12.897 4.273-5.972 2.824-10.692 6.638-14.16 11.443-3.408 4.74-5.001 10.453-4.779 17.137.205 6.184 1.757 11.509 4.656 15.978 2.96 4.404 6.885 7.778 11.777 10.117 4.953 2.275 10.554 3.308 16.801 3.102 6.184-.205 11.831-1.486 16.943-3.844s9.002-4.832 11.668-7.422l.291 8.809 20.426-.676-2.379-71.867c-.308-9.307-2.104-16.346-5.389-21.115-3.224-4.833-7.74-8.06-13.547-9.682-5.026-1.42-10.843-2.12-17.449-2.1zm15.467 55.537l.943 28.484c-.66.835-2.097 1.852-4.309 3.051-2.149 1.197-4.708 2.282-7.678 3.256s-5.921 1.51-8.857 1.607c-5.747.19-10.133-1.009-13.158-3.598-2.962-2.591-4.529-6.511-4.703-11.758-.132-3.998.826-7.156 2.875-9.475s4.643-4.251 7.781-5.793c2.274-1.201 5.056-2.199 8.344-2.996 3.286-.859 6.61-1.5 9.973-1.924 3.423-.489 6.353-.775 8.789-.855zm96.293 53.474c-9.449-.036-17.562-2.01-24.34-5.924-7.743-4.411-13.703-10.637-17.883-18.678s-6.541-17.21-7.084-27.508c-.523-9.924.784-18.945 3.924-27.059 3.205-8.055 8.118-14.572 14.74-19.553s14.895-7.732 24.818-8.256c6.553-.346 12.78.232 18.68 1.736s10.52 3.67 13.861 6.498l-3.457 12.762c-2.319-1.255-5.73-2.419-10.23-3.496-4.438-1.08-9.247-1.484-14.428-1.211-5.492.29-10.406 2.05-14.742 5.283-4.27 3.292-7.53 7.94-9.779 13.941-2.184 6.061-2.923 13.392-2.219 21.992.743 8.16 2.713 14.658 5.91 19.496s7.038 8.265 11.525 10.281c4.491 2.079 9.077 2.995 13.758 2.748 5.243-.277 9.681-.979 13.314-2.109 3.636-1.068 6.716-2.577 9.242-4.525l4.27 16.861c-1.626 1.212-4.686 2.533-9.18 3.959s-10.017 2.311-16.57 2.656c-1.404.074-2.781.109-4.131.104zm94.771-97.714c-7.153-.003-13.589 1.385-19.307 4.164-7.562 3.714-13.671 9.294-18.328 16.74-4.596 7.455-7.566 16.2-8.914 26.234-2.246 16.725.024 30.335 6.813 40.832s17.616 16.744 32.483 18.74c4.336.582 8.851.779 13.543.59s9.084-.736 13.178-1.637c4.156-.892 7.505-2.114 10.047-3.664l-2.442-12.813c-1.806.767-4.377 1.366-7.715 1.801-3.267.381-6.641.621-10.123.721-3.473.038-6.388-.1-8.742-.416-5.575-.749-10.494-2.387-14.758-4.914s-7.486-6.24-9.666-11.137-2.932-11.27-2.256-19.125l.148-1.305 63.395 8.513c.812-2.287 1.452-4.946 1.922-7.973l1.502-10.486c.704-6.653.337-12.6-1.104-17.838-1.379-5.23-3.617-9.692-6.715-13.387-3.09-3.757-6.82-6.748-11.188-8.975s-9.161-3.628-14.381-4.203a61.33 61.33 0 0 0-7.393-.465zm.666 15.336a24.27 24.27 0 0 1 3.564.219c5.761.774 9.91 2.749 12.447 5.928 2.607 3.125 4.046 6.974 4.315 11.551.339 4.523.02 9.242-.955 14.156l-43.858-5.889c1.02-4.309 2.27-7.986 3.752-11.035 2.963-6.097 6.544-10.221 10.742-12.369a21.88 21.88 0 0 1 9.992-2.559zm115.044 5.359l-38.621 145.719 20.844 5.524 8.598-32.443 3.457-13.65.865.637c3.752 2.676 8.74 4.837 14.963 6.486 10.21 2.706 19.715 2.705 28.516-.006 8.861-2.695 16.481-7.658 22.859-14.891 6.455-7.277 11.131-16.383 14.029-27.318 2.882-10.875 3.417-20.334 1.605-28.379-1.796-8.106-5.289-14.689-10.478-19.75-5.113-5.105-11.232-8.603-18.361-10.492-6.041-1.601-11.281-2.084-15.717-1.449-4.42.574-8.126 1.63-11.119 3.164-2.114 1.084-3.812 2.013-5.318 2.871l2.91-10.979zm29.685 24.908c2.732-.034 5.569.34 8.514 1.121 7.733 2.05 13.017 6.391 15.85 13.025 2.909 6.59 2.7 15.912-.623 27.963-2.282 8.124-5.414 14.696-9.396 19.719-3.906 4.978-8.334 8.394-13.287 10.25-4.937 1.795-10.004 2.004-15.199.627-4.108-1.089-7.556-2.358-10.34-3.807-2.708-1.494-4.812-3.311-6.312-5.455l15.924-60.082c2.623-1.115 5.979-2.068 10.068-2.859 1.562-.313 3.164-.482 4.803-.502zm88.217 8.565l-35.038 98.185 20.307 7.246 26.129-73.221c1.551-.627 3.347-1.205 5.395-1.731 2.703-.694 5.677-1.029 8.918-1 3.321-.009 6.806.639 10.455 1.941 4.003 1.428 6.794 2.721 8.371 3.881 1.636 1.181 2.811 2.165 3.525 2.951l6.806-19.072c-.597-.744-1.688-1.497-3.273-2.262-1.526-.744-3.408-1.516-5.645-2.314-4.003-1.428-8.229-2.041-12.682-1.838-4.393.224-8.402.951-12.025 2.18-2.946.957-5.189 2.029-6.752 3.213l2.814-11.984zm73.479 33.739l-3.506.191-1.541 16.293c2.193-.344 5.119-.338 8.777.022 3.684.302 7.596.942 11.736 1.918 4.165.919 8.053 2.161 11.666 3.727 5.448 2.36 9.237 5.091 11.367 8.193 2.212 3.07 2.101 7.415-.334 13.035l-3.913 9.033c-3.67-1.589-7.743-3.116-12.217-4.578-4.45-1.519-9.026-2.752-13.725-3.697-4.674-1.003-9.168-1.555-13.484-1.654-6.606-.001-12.504 1.429-17.693 4.289-5.107 2.828-8.992 7.309-11.65 13.445-2.46 5.678-3.335 11.156-2.625 16.436.792 5.247 2.9 9.975 6.322 14.182 3.504 4.175 8.122 7.504 13.857 9.988 5.678 2.46 11.331 3.719 16.961 3.773s10.203-.518 13.721-1.719l-3.504 8.086 18.754 8.125 28.584-65.98c3.702-8.545 5.09-15.677 4.16-21.393-.847-5.748-3.55-10.596-8.105-14.545-4.498-3.924-10.331-7.439-17.5-10.545-4.932-2.137-10.183-3.696-15.752-4.678-5.486-1.015-10.432-1.624-14.838-1.83-2.174-.091-4.014-.13-5.518-.117zm3.986 58.246c2.066.065 4.342.355 6.826.869a77.9 77.9 0 0 1 9.838 2.525c3.303 1.022 6.074 2.017 8.31 2.986l-11.33 26.152c-.954.472-2.685.776-5.197.914-2.454.163-5.233.05-8.334-.34s-5.998-1.168-8.693-2.336c-5.276-2.286-8.728-5.245-10.355-8.879-1.57-3.609-1.31-7.823.777-12.641 1.59-3.67 3.806-6.116 6.65-7.336s6.016-1.854 9.512-1.906a26.5 26.5 0 0 1 1.996-.01zm114.003-5.874a40.05 40.05 0 0 0-3.367.125c-8.887.66-16.942 3.725-24.168 9.193s-13.296 12.739-18.207 21.807c-4.732 8.738-7.421 17.445-8.068 26.121-.563 8.651 1.077 16.647 4.92 23.988s10.133 13.377 18.871 18.109c5.771 3.125 11.643 5.275 17.617 6.449s11.077 1.2 15.309.08l2.355-13.01c-2.633.138-6.213-.273-10.74-1.232-4.472-.929-8.989-2.629-13.551-5.1-4.836-2.619-8.519-6.319-11.047-11.1-2.444-4.806-3.392-10.403-2.848-16.789.629-6.412 3.106-13.351 7.434-20.816 4.174-7.051 8.743-12.074 13.707-15.072s9.906-4.443 14.824-4.338c4.948.05 9.484 1.19 13.606 3.422 4.616 2.5 8.323 5.041 11.119 7.621 2.826 2.525 4.961 5.211 6.406 8.055l11.092-13.397c-.948-1.793-3.145-4.299-6.592-7.516s-8.054-6.387-13.824-9.512c-8.656-4.688-16.939-7.051-24.848-7.09zm72.842 35.75l-33.481 51.139c-3.663 5.595-6.687 10.9-9.072 15.912-2.333 5.047-3.68 9.842-4.041 14.387-.327 4.492.68 8.774 3.019 12.846s6.359 7.974 12.059 11.705c3.137 2.054 6.706 3.792 10.705 5.215a79.59 79.59 0 0 0 12.092 3.098c3.939.648 7.531.963 10.797.965l-1.617 2.469c-1.883 2.876-2.34 5.117-1.373 6.721.933 1.656 2.6 3.273 5.006 4.848l8.314 5.443 58.027-88.633-18.039-11.811-44.471 67.924c-1.803.015-4.084-.208-6.844-.67-2.726-.515-5.541-1.237-8.443-2.166-2.816-.947-5.296-2.124-7.44-3.527-3.66-2.396-6.333-4.818-8.018-7.266-1.632-2.413-1.937-5.6-.912-9.561 1.077-3.927 3.874-9.342 8.393-16.244l33.379-50.982zm130.417 37.63c-1.999-.047-3.975.255-5.924.904-2.511.853-4.591 2.38-6.238 4.582-2.396 3.203-3.21 6.537-2.443 9.998.817 3.499 2.677 6.334 5.58 8.506 3.253 2.433 6.93 3.465 11.029 3.098 4.187-.38 7.571-2.297 10.154-5.75 2.171-2.903 3.105-6.029 2.801-9.379s-2.232-6.354-5.785-9.012c-2.052-1.535-4.441-2.462-7.166-2.783a17.74 17.74 0 0 0-2.008-.164zm-28.121 32.77l-64.579 86.33c-5.616 7.507-10.591 12.49-14.926 14.945-4.372 2.505-8.758 2.111-13.162-1.183-1.251-.936-2.672-2.272-4.262-4.008-1.627-1.685-2.711-3.004-3.25-3.953l-9.266 12.387c.263.587 1.039 1.481 2.328 2.68 1.252 1.248 2.617 2.503 4.094 3.764s2.589 2.171 3.34 2.732c5.705 4.268 11.546 6.53 17.522 6.785 6.025.292 12.292-1.773 18.799-6.193 6.52-4.333 13.43-11.38 20.73-21.139l59.974-80.174zm105.697 7.62c-5.02 1.485-10.318 2.815-15.897 3.992a367.71 367.71 0 0 1-16.768 3.135 361.42 361.42 0 0 1-15.908 2.266l2.252 12.584c1.413.458 3.695.71 6.848.756 3.2.087 6.854.024 10.961-.187 4.147-.259 8.288-.604 12.42-1.039 4.173-.483 7.986-1.025 11.44-1.625s6.081-1.24 7.887-1.924zm-59.105 28.969l-67.303 79.613 16.467 13.92 67.303-79.613zm44.06 52.535c-5.941-.076-11.803 1.046-17.584 3.369-8.409 3.379-16.172 8.798-23.293 16.258-6.862 7.188-11.745 14.882-14.648 23.084-2.815 8.199-3.332 16.345-1.553 24.437s6.263 15.57 13.451 22.432c4.747 4.531 9.849 8.147 15.305 10.85s10.373 4.069 14.75 4.1l5.691-11.935c-2.577-.559-5.925-1.895-10.041-4.01-4.071-2.071-7.982-4.897-11.734-8.478-3.979-3.798-6.56-8.336-7.744-13.613-1.095-5.279-.541-10.928 1.662-16.947 2.291-6.021 6.504-12.064 12.641-18.131 5.879-5.707 11.608-9.355 17.185-10.943s10.723-1.686 15.441-.293c4.761 1.348 8.838 3.64 12.229 6.877 3.798 3.625 6.706 7.049 8.727 10.273 2.063 3.179 3.419 6.332 4.067 9.455l14.223-10.014c-.444-1.979-1.906-4.973-4.387-8.982s-6.095-8.279-10.842-12.811c-8.138-7.768-16.601-12.477-25.393-14.129-2.734-.53-5.452-.813-8.152-.848zm134.836 35.16c-5.165.854-10.587 1.521-16.268 2s-11.357.825-17.027 1.039c-5.582.218-10.937.313-16.066.283l.68 12.766c1.346.629 3.58 1.16 6.703 1.596 3.165.481 6.799.87 10.9 1.168 4.147.255 8.299.423 12.453.502 4.2.036 8.052-.03 11.553-.199s6.188-.48 8.064-.936zm-62.232 21.447l-76.619 70.693 14.623 15.848 76.619-70.693zm30.8 57.177c-3.778.04-7.583.568-11.416 1.58-8.762 2.314-17.136 6.731-25.123 13.254-7.697 6.286-13.492 13.32-17.387 21.1-3.806 7.789-5.327 15.808-4.56 24.059s4.292 16.225 10.578 23.922c4.151 5.083 8.767 9.301 13.848 12.656s9.791 5.319 14.131 5.891l7.121-11.141c-2.488-.873-5.645-2.614-9.469-5.221-3.784-2.558-7.316-5.845-10.598-9.863-3.479-4.26-5.479-9.082-6.002-14.465-.435-5.374.813-10.912 3.742-16.613 3.017-5.692 7.945-11.168 14.783-16.43 6.539-4.937 12.674-7.849 18.404-8.736s10.851-.35 15.361 1.615c4.558 1.926 8.32 4.705 11.285 8.336 3.321 4.066 5.784 7.822 7.391 11.271 1.655 3.41 2.611 6.705 2.867 9.885l15.35-8.18c-.196-2.019-1.276-5.17-3.242-9.455s-5.025-8.968-9.176-14.051c-7.116-8.713-14.935-14.433-23.455-17.158-4.765-1.555-9.577-2.307-14.434-2.256zm112.693 39.156l-126.026 85.759 12.131 17.826 64.951-44.198c4.817 1.636 9.146 3.942 12.988 6.922s6.722 5.822 8.637 8.525c4.6 6.093 6.062 11.296 4.387 15.611-1.64 4.367-5.999 8.96-13.078 13.777l-52.937 36.023 12.131 17.828 52.782-35.918c12.608-8.579 20.165-16.859 22.672-24.84 2.542-7.929.486-16.508-6.172-25.736-2.6-3.598-5.709-6.889-9.326-9.871-3.565-3.017-7.238-5.582-11.02-7.695-3.201-1.789-6.127-3.133-8.811-4.082l13.324-7.949 35.497-24.156zm42.325 153.716l-75.358 85.031 8.547 16.584 112.506-12.947-10.522-20.417-60.346 9.585-25.658 5.392 19.002-18.31 42.522-44.168zm103.079 135.471l-129.449 51.486 8.178 20.559 129.45-51.486zm-17.491 72.791c-8.477-.13-17.548 1.299-27.213 4.291-13.433 4.159-24.419 10.407-32.961 18.744-8.482 8.318-14.098 18.072-16.85 29.262-2.692 11.171-2.068 23.115 1.869 35.832 1.701 5.493 3.558 10.119 5.572 13.879 1.973 3.838 3.978 7.142 6.014 9.914s3.96 5.284 5.769 7.537l17.73-5.49c-1.794-1.146-3.854-3.255-6.18-6.33-2.307-3.015-4.562-6.602-6.766-10.762-2.185-4.1-3.962-8.357-5.33-12.775-2.754-8.896-2.891-17.261-.41-25.096s7.097-14.694 13.846-20.578c6.827-5.843 15.317-10.336 25.467-13.478 10.329-3.198 19.79-4.229 28.385-3.096 8.673 1.175 16.029 4.328 22.066 9.459 6.097 5.113 10.477 11.967 13.139 20.564 2.033 6.567 3.22 12.089 3.558 16.564.398 4.457.42 8.015.066 10.676s-.681 4.563-.983 5.703l19.66-2.75c-.137-1.92-.271-4.465-.4-7.631s-.577-7.149-1.344-11.949c-.688-4.759-2.068-10.481-4.139-17.168-2.569-8.299-6.51-15.747-11.824-22.346-5.296-6.539-11.766-11.8-19.41-15.779s-16.223-6.328-25.736-7.047a66.57 66.57 0 0 0-3.598-.15zm77.27 108.783l-16.545 3.328 8.469 42.094-120.031 24.148 4.363 21.691 120.033-24.148 8.449 42.002 16.543-3.328zm-1314.76-473.842c-400.026 0-725.729 283.537-735.502 635.973-6.356 5.606-9.931 13.223-9.936 21.17v336.502c.002 16.507 15.102 29.887 33.729 29.889h50.789v159.887c0 20.58 16.634 37.285 37.121 37.285h9.271c33.936 174.517 198.397 307.833 431.678 350.516v8.031c0 13.948 11.322 25.268 25.268 25.268h152.213c13.945 0 25.266-11.32 25.266-25.268v-50.537c0-13.939-11.321-25.26-25.266-25.26h-152.213c-13.945 0-25.268 11.321-25.268 25.26v4.236c-205.354-40.255-346.821-156.594-378.576-312.246h11.867a36.98 36.98 0 0 0 10.576-1.539v5.686c0 50.76 41.029 91.969 91.564 91.969s91.562-41.209 91.562-91.969v-462.369c0-50.771-41.028-91.979-91.562-91.979s-91.564 41.207-91.564 91.979v5.674a36.96 36.96 0 0 0-10.576-1.537h-74.24c-20.487 0-37.121 16.716-37.121 37.285v159.85H811.26v-306.611c-.028-7.52-3.254-14.754-9.033-20.26 3.939-141.207 62.049-270.339 156.475-371.926 15.519 13.115 37.277 20.491 59.365 20.947 22.721.478 45.36-6.324 61.338-19.281 27.636-22.421 50.087-49.44 79.887-69.826 90.685-62.043 212.824-91.309 326.156-91.309 4.035 0 7.793-1.048 11.168-2.748a16.46 16.46 0 0 0 4.238-.133l247.742-40.49.008.338 10.412-.225c167.137-3.571 247.513 48.839 287.547 100.824s39.736 103.912 39.736 103.912l-.043 10.414 20.83.086.043-10.414s.156-59.287-44.063-116.707c-41.455-53.831-121.904-105.701-273.268-108.951v-.002c-10.091-.217-20.498-.216-31.229.014l-9.488.201-248.229-40.578a16.46 16.46 0 0 0-4.256-.133 15.4 15.4 0 0 0-1.795.424 26.77 26.77 0 0 0-5.561-1.32z"/><g transform="matrix(-1.07717 0 0 -1.0121 4713.34 7634.888)"><path d="M2095.87 6150.319c0 33.17 16.15 60.101 36.05 60.101h918.26c19.9 0 36.05-26.931 36.05-60.101v-480.79c0-33.17-16.15-60.098-36.05-60.098h-498.997c3.924-54.609 31.41-96.958 65.239-96.958h403.184 8.082v-.012h.726c44.411 0 80.754-59.227 82.132-132.731h.066v-13.476-4.315h-.066c-1.378-73.503-37.72-132.731-82.132-132.731h-6.641v-.522h-3.052-151.49-3.05v27.998h3.05 151.49 3.052v-.52h6.641c36.528 0 66.031 49.188 66.031 110.09v9.163c0 60.902-29.503 110.088-66.031 110.088h-8.082v.012h-.726-403.184c-42.621 0-77.811 54.549-81.798 123.914H2131.92c-19.9 0-36.05 26.928-36.05 60.098v480.79z" transform="matrix(0 -1.23296 .739509 0 -1447.41 9231.9)"/><g fill-rule="nonzero" fill="#fff"><use xlink:href="#B" transform="matrix(0 -.812714 .812714 0 -2005.96 8058.51)"/><use xlink:href="#B" transform="matrix(0 -.812714 .812714 0 -1882.76 8058.51)"/><use xlink:href="#B" transform="matrix(0 -.812714 .812714 0 -1761.22 8058.51)"/><use xlink:href="#B" transform="matrix(0 -.812714 .812714 0 -1761.22 7935.79)"/><use xlink:href="#B" transform="matrix(0 -.812714 .812714 0 -1882.76 7935.79)"/><use xlink:href="#B" transform="matrix(0 -.812714 .812714 0 -2005.96 7935.79)"/><use xlink:href="#B" transform="matrix(0 -.812714 .812714 0 -2005.96 7813.07)"/><use xlink:href="#B" transform="matrix(0 -.812714 .812714 0 -1882.76 7813.07)"/><use xlink:href="#B" transform="matrix(0 -.812714 .812714 0 -1882.76 7690.35)"/><use xlink:href="#B" transform="matrix(0 -.812714 .812714 0 -2005.96 7690.35)"/><use xlink:href="#B" transform="matrix(0 -.812714 .812714 0 -2005.96 7567.63)"/><use xlink:href="#B" transform="matrix(0 -.812714 .812714 0 -1882.76 7567.63)"/><use xlink:href="#B" transform="matrix(0 -.812714 .812714 0 -1882.76 7444.91)"/><use xlink:href="#B" transform="matrix(0 -.812714 .812714 0 -1882.76 7321.52)"/><use xlink:href="#B" transform="matrix(0 -.812714 .812714 0 -1761.22 7321.52)"/><use xlink:href="#B" transform="matrix(0 -.812714 .812714 0 -1761.22 7198.8)"/><use xlink:href="#B" transform="matrix(0 -.812714 .812714 0 -1882.76 7198.8)"/><use xlink:href="#B" transform="matrix(0 -.812714 .812714 0 -2005.96 7198.8)"/><use xlink:href="#B" transform="matrix(0 -.812714 .812714 0 -2005.13 7076.07)"/><use xlink:href="#B" transform="matrix(0 -.812714 .812714 0 -1881.92 7076.07)"/><use xlink:href="#B" transform="matrix(0 -.812714 .812714 0 -1760.39 7076.07)"/><use xlink:href="#B" transform="matrix(0 -.812714 .812714 0 -2005.96 7321.52)"/><use xlink:href="#B" transform="matrix(0 -.812714 .812714 0 -2005.96 7444.91)"/><path d="M1826.914 5858.555v3.285 107.52h110.807v-110.805zm6.57 6.57h97.666v97.664h-97.666z" transform="matrix(0 -4.34471 .812714 0 -1761.22 14277.4)"/></g></g><path d="M2098.512 1035.916c-9.724.047-18.558 2.038-26.5 5.973-7.891 3.934-14.228 9.837-19.014 17.705-4.735 7.868-7.23 17.703-7.484 29.506-.255 10.712 1.654 20.24 5.727 28.582 4.073 8.295 9.953 14.79 17.641 19.482 7.687 4.645 16.801 6.873 27.34 6.684 9.724-.19 18.43-2.324 26.117-6.4s13.795-10.072 18.326-17.988c4.531-7.963 6.925-17.846 7.18-29.648.255-10.902-1.656-20.406-5.729-28.512-4.022-8.105-9.774-14.361-17.258-18.77-7.484-4.456-16.266-6.661-26.346-6.613zm-.611 12.656c7.026 0 12.881 1.873 17.564 5.617 4.735 3.697 8.271 8.627 10.613 14.789 2.393 6.115 3.59 12.822 3.59 20.121 0 13.793-2.979 24.245-8.936 31.355-5.956 7.063-13.974 10.594-24.055 10.594-7.28 0-13.363-1.896-18.25-5.688s-8.58-8.792-11.074-15.002c-2.444-6.257-3.664-13.011-3.664-20.264 0-9.575 1.553-17.421 4.658-23.535 3.156-6.115 7.331-10.641 12.523-13.58s10.869-4.408 17.029-4.408zm.611 101.988c-9.724.047-18.558 2.038-26.5 5.973-7.891 3.934-14.228 9.837-19.014 17.705-4.735 7.868-7.23 17.703-7.484 29.506-.255 10.712 1.654 20.24 5.727 28.582 4.073 8.295 9.953 14.788 17.641 19.48 7.687 4.645 16.801 6.873 27.34 6.684 9.724-.19 18.43-2.322 26.117-6.398s13.795-10.072 18.326-17.988c4.531-7.963 6.925-17.846 7.18-29.648.255-10.902-1.656-20.406-5.729-28.512-4.022-8.105-9.774-14.361-17.258-18.77-7.484-4.456-16.266-6.661-26.346-6.613zm-.611 12.656c7.026 0 12.881 1.873 17.564 5.617 4.735 3.697 8.271 8.627 10.613 14.789 2.393 6.115 3.59 12.822 3.59 20.121 0 13.793-2.979 24.245-8.936 31.355-5.956 7.063-13.974 10.594-24.055 10.594-7.28 0-13.363-1.896-18.25-5.688s-8.58-8.794-11.074-15.004c-2.444-6.257-3.664-13.009-3.664-20.262 0-9.575 1.553-17.421 4.658-23.535 3.156-6.115 7.331-10.641 12.523-13.58s10.869-4.408 17.029-4.408zm.912 101.989c-5.091 0-9.928.191-14.51.57a168.46 168.46 0 0 1-13.898.568h-7.789v105.654h18.021v-35.691l5.5.07 8.857.07c14.204 0 25.022-3.199 32.455-9.598 7.484-6.446 11.227-15.429 11.227-26.947 0-8.153-1.605-14.764-4.813-19.836-3.207-5.119-7.788-8.864-13.744-11.234-5.956-2.417-13.059-3.627-21.307-3.627zm-1.836 11.932c7.25.187 12.903 1.898 16.957 5.133 4.684 3.65 7.025 9.527 7.025 17.633 0 6.731-1.273 11.85-3.818 15.357-2.495 3.46-5.804 5.832-9.928 7.111-4.124 1.232-8.552 1.848-13.287 1.848-2.036 0-4.201-.048-6.492-.143-2.24-.095-4.506-.284-6.797-.568v-45.078c1.985-.427 4.125-.734 6.416-.924a110.46 110.46 0 0 1 6.719-.356 55.48 55.48 0 0 1 3.205-.014zm-31.998 156.464v13.225h63.383v-13.225h-63.383zm22.613 62.031v105.654h18.023v-105.654h-18.023zm20.391 113.506c-7.076 0-13.822 1.187-20.236 3.557a49.93 49.93 0 0 0-16.953 10.522c-4.938 4.645-8.835 10.334-11.686 17.064-2.8 6.731-4.199 14.481-4.199 23.25 0 10.665 2.215 20.026 6.645 28.084 4.429 8.011 10.665 14.268 18.709 18.771 8.044 4.456 17.488 6.684 28.332 6.684 4.684 0 8.73-.31 12.141-.926 3.462-.569 6.517-1.28 9.164-2.133a189.8 189.8 0 0 0 7.256-2.488v-14.078c-1.324 1.043-3.463 2.063-6.416 3.059-2.902.995-6.237 1.825-10.004 2.488a63.73 63.73 0 0 1-11.225.994c-7.586 0-14.129-1.777-19.627-5.332s-9.723-8.437-12.676-14.647c-2.902-6.257-4.353-13.415-4.353-21.473 0-8.2 1.477-15.285 4.43-21.258 3.004-6.02 7.228-10.642 12.676-13.865 5.447-3.271 11.837-4.906 19.168-4.906 5.6 0 10.182.38 13.746 1.139 3.564.711 6.339 1.492 8.324 2.346s3.385 1.516 4.199 1.99l2.598-14.859c-1.527-.332-3.539-.806-6.033-1.422s-5.703-1.186-9.623-1.707c-3.869-.569-8.653-.854-14.355-.854zm-55.258 115.783v12.797h34.977v92.857h18.021v-92.857h34.898v-12.797h-87.897z"/><path d="M1522.909 502.661c-270.58 0-530.094 107.495-721.423 298.823a1020.27 1020.27 0 0 0-298.823 721.423c0 270.58 107.495 530.094 298.823 721.423a1020.27 1020.27 0 0 0 721.423 298.823c270.58 0 530.096-107.495 721.424-298.823s298.823-450.843 298.823-721.423-107.495-530.094-298.823-721.423-450.845-298.823-721.424-298.823zm0 33.335a986.89 986.89 0 0 1 697.851 289.059c185.086 185.086 289.059 436.101 289.059 697.852a986.89 986.89 0 0 1-289.059 697.851c-185.086 185.086-436.101 289.059-697.852 289.059a986.89 986.89 0 0 1-986.911-986.91c0-261.751 103.973-512.766 289.059-697.852s436.101-289.059 697.852-289.059zm0-535.992c-403.894 0-791.263 160.452-1076.859 446.048A1522.94 1522.94 0 0 0 .001 1522.912c0 403.894 160.454 791.263 446.05 1076.858s672.965 446.05 1076.859 446.05a1522.94 1522.94 0 0 0 1076.86-446.05c285.596-285.596 446.05-672.965 446.05-1076.858a1522.94 1522.94 0 0 0-446.05-1076.86C2314.173 160.456 1926.802.004 1522.909.004zm0 33.331c395.066 0 773.935 156.932 1053.289 436.286s436.286 658.225 436.286 1053.291-156.932 773.935-436.286 1053.289-658.225 436.288-1053.291 436.288a1489.56 1489.56 0 0 1-1053.289-436.288C190.264 2296.847 33.331 1917.978 33.331 1522.912S190.264 748.975 469.618 469.621 1127.844 33.334 1522.911 33.334z" fill-rule="nonzero"/><defs ><path id="B" d="M1817.936 5849.574v12.266 116.5h128.764v-128.766zm24.529 24.531h79.705v79.705h-79.705z"/></defs></svg>