<?xml version="1.0" encoding="UTF-8"?>
<!DOCTYPE svg  PUBLIC '-//W3C//DTD SVG 1.1//EN'  'http://www.w3.org/Graphics/SVG/1.1/DTD/svg11.dtd'>
<svg version="1.1" xmlns="http://www.w3.org/2000/svg">
<defs>
<font id="MerriweatherSans-LightItalic" horiz-adv-x="0">
<font-face font-family="Merriweather Sans" font-style="italic" font-weight="300" ascent="1638" bbox="-244 -560 2517 2002" cap-height="1530" descent="-410" panose-1="2 0 5 3 6 0 0 9 0 4" slope="-7" underline-position="-288" underline-thickness="201" unicode-range="U+0001-FB04" units-per-em="2048" x-height="1140"/>
<missing-glyph d="M220 1416h1405v-1416h-1405v1416zM583 232l337 363l351 -364l115 116l-355 362l355 351l-121 119l-342 -362l-346 363l-116 -119l351 -356l-350 -335z" horiz-adv-x="1845"/>
<glyph d="M851 1531q-45 31 -122 31h-31t-65 -21t-69 -56q-60 -71 -74 -183l-21 -162h243l-9 -119h-250l-138 -1021h-148l137 1021h-152l22 118l146 1l18 124q25 188 126 299q106 115 274 115q94 0 151 -26zM1546 1531q-45 31 -122 31h-31t-65 -21t-69 -56q-60 -71 -74 -183 l-21 -162h243l-9 -119h-250l-138 -1021h-148l137 1021h-152l22 118l146 1l18 124q25 188 126 299q106 115 274 115q94 0 151 -26z" glyph-name="f_f" horiz-adv-x="1389" unicode="ff"/>
<glyph d="M982 1144h149l-155 -1144h-148zM1140 1436q-20 -10 -41 -10t-37 8q-51 23 -51 81q0 5 0.5 19.5t10 35.5t24.5 36q34 34 77.5 34t67 -25.5t23.5 -62.5q0 -82 -74 -116zM851 1531q-45 31 -122 31h-31t-65 -21t-69 -56q-60 -71 -74 -183l-21 -162h243l-9 -119h-250 l-138 -1021h-148l137 1021h-152l22 118l146 1l18 124q25 188 126 299q106 115 274 115q94 0 151 -26z" glyph-name="f_i" horiz-adv-x="1258" unicode="fi"/>
<glyph d="M1051 1637h148l-222 -1634h-149zM851 1531q-45 31 -122 31h-31t-65 -21t-69 -56q-60 -71 -74 -183l-21 -162h243l-9 -119h-250l-138 -1021h-148l137 1021h-152l22 118l146 1l18 124q25 188 126 299q106 115 274 115q94 0 151 -26z" glyph-name="f_l" horiz-adv-x="1258" unicode="fl"/>
<glyph d="M1676 1144h149l-155 -1144h-148zM1834 1436q-20 -10 -41 -10t-37 8q-51 23 -51 81q0 5 0.5 19.5t10 35.5t24.5 36q34 34 77.5 34t67 -25.5t23.5 -62.5q0 -82 -74 -116zM851 1531q-45 31 -122 31h-31t-65 -21t-69 -56q-60 -71 -74 -183l-21 -162h243l-9 -119h-250 l-138 -1021h-148l137 1021h-152l22 118l146 1l18 124q25 188 126 299q106 115 274 115q94 0 151 -26zM1546 1531q-45 31 -122 31h-31t-65 -21t-69 -56q-60 -71 -74 -183l-21 -162h243l-9 -119h-250l-138 -1021h-148l137 1021h-152l22 118l146 1l18 124q25 188 126 299 q106 115 274 115q94 0 151 -26z" glyph-name="f_f_i" horiz-adv-x="1953" unicode="ffi"/>
<glyph d="M1745 1637h148l-222 -1634h-149zM851 1531q-45 31 -122 31h-31t-65 -21t-69 -56q-60 -71 -74 -183l-21 -162h243l-9 -119h-250l-138 -1021h-148l137 1021h-152l22 118l146 1l18 124q25 188 126 299q106 115 274 115q94 0 151 -26zM1546 1531q-45 31 -122 31h-31t-65 -21 t-69 -56q-60 -71 -74 -183l-21 -162h243l-9 -119h-250l-138 -1021h-148l137 1021h-152l22 118l146 1l18 124q25 188 126 299q106 115 274 115q94 0 151 -26z" glyph-name="f_f_l" horiz-adv-x="1953" unicode="ffl"/>
<glyph d="M220 1416h1405v-1416h-1405v1416zM583 232l337 363l351 -364l115 116l-355 362l355 351l-121 119l-342 -362l-346 363l-116 -119l351 -356l-350 -335z" glyph-name=".notdef" horiz-adv-x="1845"/>
<glyph glyph-name=".null" unicode=""/>
<glyph glyph-name="nonmarkingreturn" unicode=""/>
<glyph glyph-name="uni0001"/>
<glyph glyph-name="uni0002"/>
<glyph glyph-name="uni0003"/>
<glyph glyph-name="uni0004"/>
<glyph glyph-name="uni0005"/>
<glyph glyph-name="uni0006"/>
<glyph glyph-name="uni0007"/>
<glyph glyph-name="uni0008"/>
<glyph glyph-name="HT" unicode="	"/>
<glyph glyph-name="LF" unicode="
"/>
<glyph glyph-name="DLE"/>
<glyph glyph-name="DC1"/>
<glyph glyph-name="DC2"/>
<glyph glyph-name="DC3"/>
<glyph glyph-name="DC4"/>
<glyph glyph-name="uni0015"/>
<glyph glyph-name="uni0016"/>
<glyph glyph-name="uni0017"/>
<glyph glyph-name="uni0018"/>
<glyph glyph-name="uni0019"/>
<glyph glyph-name="RS"/>
<glyph glyph-name="US"/>
<glyph glyph-name="space" horiz-adv-x="485" unicode=" "/>
<glyph d="M398 1778h172l-215 -1290h-120zM266 203q91 0 91 -83q0 -69 -43 -103t-78.5 -34t-53.5 7q-52 18 -52 78q0 63 47 102q39 33 89 33z" glyph-name="exclam" horiz-adv-x="621" unicode="!"/>
<glyph d="M328 1687h174l-154 -721h-108zM807 1687h174l-154 -721h-108z" glyph-name="quotedbl" horiz-adv-x="1003" unicode='"'/>
<glyph d="M326 365h-214l6 98h224l72 463h-222l6 98h232l53 333h126l-51 -333h388l56 333h127l-55 -333h233l-6 -98h-242l-74 -463h230l-6 -98h-239l-57 -365h-123l53 365h-390l-62 -365h-124zM858 463l72 463h-388l-73 -463h389z" glyph-name="numbersign" horiz-adv-x="1393" unicode="#"/>
<glyph d="M170 191q52 -56 228 -85q54 -9 115.5 -9t126 16t114.5 50q110 75 110 211q0 143 -140 254q-45 37 -102 74t-115.5 79t-106.5 95q-114 124 -114 285q0 165 113 268q112 102 296 114l30 186h137l-30 -188q161 -15 258 -80l-48 -115q-60 60 -206 78q-42 6 -85 6t-97.5 -9.5 t-101.5 -36.5q-115 -63 -115 -207q0 -160 161 -277q51 -37 108 -74l112 -78q202 -146 202 -343q0 -184 -122 -296q-117 -107 -320 -126l-35 -213h-137l34 212q-165 12 -267 60q-30 14 -45 26z" glyph-name="dollar" horiz-adv-x="1204" unicode="$"/>
<glyph d="M1361 1530h123l-947 -1530h-123zM652 783q-76 -38 -157.5 -38t-134 23.5t-88.5 65.5q-71 85 -71 221q0 165 115 292q121 133 295 133q212 0 264 -176q16 -55 16 -128t-28.5 -152t-81.5 -141t-129 -100zM428 855q33 -16 86.5 -16t101.5 33.5t80 84.5q65 104 65 210 q0 219 -171 219q-118 0 -196 -112q-70 -101 -70 -218q0 -152 104 -201zM1037 380q0 73 30.5 149.5t84.5 136.5q121 133 295 133q212 0 264 -177q16 -54 16 -127t-28.5 -152t-81.5 -141q-118 -138 -299 -138q-134 0 -210 89q-71 85 -71 227zM1160 378q0 -51 12 -90.5 t35 -68.5q48 -61 122.5 -61t122.5 33.5t80 84.5q65 104 65 210q0 219 -171 219q-118 0 -196 -112q-70 -101 -70 -215z" glyph-name="percent" horiz-adv-x="1911" unicode="%"/>
<glyph d="M979 64q-152 -81 -357 -81q-353 0 -474 205q-43 73 -43 161t27 146.5t72 107.5q73 79 233 168q-94 198 -94 366q0 181 116 295q116 115 295 115q159 0 254 -100q84 -88 84 -202q0 -178 -158 -305q-89 -73 -180 -121l-149 -80q190 -328 394 -516q131 125 131 330 q0 79 -24 141q-85 -2 -122 -22l9 105q29 29 136 29h89l138 -1h87l-8 -111h-181q14 -49 14 -108q0 -279 -174 -441q96 -62 236 -62q10 0 29 -1.5t44 5.5l-15 -93q-184 -45 -348 32q-33 16 -61 38zM554 833l147 81q249 142 249 315q0 149 -111 199q-38 17 -95 17t-106.5 -24 t-84.5 -65q-73 -86 -73 -215q0 -160 74 -308zM277.5 462.5q-17.5 -42.5 -17.5 -105t30 -115t81 -86.5q100 -65 252.5 -65t265.5 55q-132 126 -205.5 228t-113.5 167l-80 133q-110 -67 -152.5 -118t-60 -93.5z" glyph-name="ampersand" horiz-adv-x="1534" unicode="&amp;"/>
<glyph d="M328 1687h174l-154 -721h-108z" glyph-name="quotesingle" horiz-adv-x="524" unicode="'"/>
<glyph d="M241 270q-20 107 -20 222.5t17 245.5t63 258t105.5 236.5t126.5 196.5t128 153q116 124 184 159l67 -46q-113 -74 -257 -287q-116 -172 -194 -396q-41 -117 -56 -216q-25 -164 -25 -309t31.5 -278.5t75.5 -231.5t91 -160t79 -88l-82 -48h-14q-103 75 -198 239 q-84 145 -122 350z" glyph-name="parenleft" horiz-adv-x="854" unicode="("/>
<glyph d="M623.015 1158.02q19.999 -106.993 19.999 -222.486t-16.999 -245.485t-62.9961 -257.984t-105.494 -236.485q-59.4961 -108.493 -126.492 -196.488q-66.9951 -87.9941 -127.992 -152.99q-115.992 -123.992 -183.988 -158.99l-66.9961 45.9971 q112.993 73.9951 256.984 286.982q115.993 171.989 193.988 395.976q40.9971 116.993 55.9961 215.987q24.999 163.99 24.999 308.98q0 144.991 -31.498 278.483t-75.4961 231.486q-43.9971 97.9932 -90.9941 159.99q-46.9971 61.9961 -78.9951 87.9941l81.9951 47.9971 h13.999q102.994 -74.9951 197.988 -238.985q83.9941 -144.991 121.992 -349.979z" glyph-name="parenright" horiz-adv-x="854" unicode=")"/>
<glyph d="M240 960l286 130l146 57l-134 58l-260 139l87 127l233 -176l109 -95l-6 150l7 303h148l-51 -303l-37 -150l129 95l267 172l59 -128l-284 -135l-145 -58l129 -58l254 -135l-88 -126l-227 172l-105 97l9 -146l-7 -303l-151 1l52 302l36 146l-128 -95l-269 -170z" glyph-name="asterisk" horiz-adv-x="1366" unicode="*"/>
<glyph d="M601 536l28 181l-161 -5h-225l14 121h226l158 -9l17 181l27 230h136l-26 -230l-30 -180l135 8h255l-14 -121h-256l-131 5q0 -22 -4 -69l-8 -72q-2 -25 -3 -40l-29 -241h-138z" glyph-name="plus" horiz-adv-x="1366" unicode="+"/>
<glyph d="M96 168l79 97q90 -40 133 -131q35 -72 35 -160.5t-22.5 -162t-63.5 -134.5q-82 -123 -224 -178l-55 67l2 18q140 70 188 222q16 52 16 121.5t-26.5 125t-67.5 74.5z" glyph-name="comma" horiz-adv-x="503" unicode=","/>
<glyph d="M234 833h837l-14 -121h-837z" glyph-name="hyphen" horiz-adv-x="1266" unicode="-"/>
<glyph d="M197.5 -17q-46.5 0 -72 24t-25.5 72.5t24 75.5q43 48 94.5 48t71.5 -26t20 -45q0 -82 -33 -115.5t-79.5 -33.5z" glyph-name="period" horiz-adv-x="503" unicode="."/>
<glyph d="M-75 -362l862 1959h133l-863 -1959h-132z" glyph-name="slash" horiz-adv-x="854" unicode="/"/>
<glyph d="M135.5 276.5q-24.5 84.5 -24.5 181t22.5 187.5t63.5 169t98.5 141.5t126.5 108.5q143 92 312 92q218 0 326 -134q97 -122 97 -334q0 -287 -175 -493q-83 -97 -196.5 -154t-236.5 -57t-204 39t-133 104t-76.5 149.5zM999 675q0 375 -284 375q-214 0 -338 -192 q-109 -170 -109 -394q0 -254 162 -342q55 -31 147.5 -31t174.5 51.5t137 134.5q110 166 110 398z" glyph-name="zero" horiz-adv-x="1278" unicode="0"/>
<glyph d="M183 960q194 45 416 202l68 -19l-165 -1143h-153l137 958l-126 -50q-72 -28 -159 -46z" glyph-name="one" horiz-adv-x="911" unicode="1"/>
<glyph d="M621 1038q-178 0 -368 -163l-56 87q119 126 315 179q71 19 159.5 19t159 -27.5t115.5 -73.5q89 -89 89 -232q0 -312 -579 -630l-179 -94l781 29l-21 -132h-950l-25 102q630 312 772 586q33 63 33 123q0 227 -246 227z" glyph-name="two" horiz-adv-x="1249" unicode="2"/>
<glyph d="M55 -200q76 -10 145.5 -10t137.5 11.5t129.5 33t113.5 53.5t90 74q81 88 81 201q0 240 -299 244q-10 -5 -35 -12l-54 -15q-29 -8 -54.5 -14.5t-34.5 -9.5l13 131q341 82 444 231q39 58 39 114t-14 86.5t-41 53.5q-57 47 -135 47t-128 -12t-94 -31q-65 -28 -153 -92 l-47 112q107 102 303 148q71 16 143 16t131 -16.5t104 -50.5q100 -74 100 -214q0 -128 -114 -241q-102 -103 -254 -157q170 0 266 -92q88 -84 88 -213q0 -148 -108 -267q-151 -168 -434 -220q-87 -16 -150 -16q-94 0 -192 12z" glyph-name="three" horiz-adv-x="1100" unicode="3"/>
<glyph d="M23 72l342 554l364 630h38l106 -68l-577 -929l-108 -158l524 13l64 507l147 28l-67 -527l263 11l-16 -133h-263l-47 -375h-145l49 375h-647z" glyph-name="four" horiz-adv-x="1240" unicode="4"/>
<glyph d="M57 -221q50 -10 129 -10t190.5 26.5t199.5 78.5q194 116 194 308q0 130 -67 204t-206 74t-283 -69l-58 58l154 695h582l19 16h128l-31 -144h-581l-120 -488q131 49 245 49t185.5 -27t117.5 -76q90 -94 90 -264q0 -160 -110 -291q-160 -191 -465 -247q-98 -18 -155.5 -18 t-74 0.5t-34.5 2.5q-38 4 -67 14z" glyph-name="five" horiz-adv-x="1104" unicode="5"/>
<glyph d="M368 844q161 142 374 142q182 0 276 -118q80 -101 80 -263q0 -236 -141 -420q-96 -125 -243 -175q-74 -26 -169 -26t-171 40.5t-126 109.5q-99 137 -99 340.5t63 377t176 316.5q239 302 608 404l33 -88q-362 -128 -561 -434q-63 -98 -100 -206zM328 702 q-28 -114 -28 -213t17.5 -169.5t52.5 -121.5q76 -108 216 -108q117 0 206 83q74 70 118 193q37 106 37 197t-17.5 144.5t-49.5 89.5q-63 73 -158 73t-157.5 -19.5t-109.5 -46.5q-67 -39 -127 -102z" glyph-name="six" horiz-adv-x="1244" unicode="6"/>
<glyph d="M862 1024l-764 -3l26 123h883l26 -35l-618 -1424l-137 51z" glyph-name="seven" horiz-adv-x="1063" unicode="7"/>
<glyph d="M120 343q0 88 35.5 160.5t92.5 132.5q106 113 269 184q-101 78 -141 134q-80 108 -80 211t36 177t98 124q126 103 328 103q162 0 266 -87q108 -91 108 -239q0 -142 -110 -266q-101 -115 -260 -172q136 -94 191 -160q109 -129 109 -235.5t-41 -184t-111 -131.5 q-145 -111 -364 -111q-168 0 -290 90q-136 102 -136 270zM683 864q198 89 271 244q28 57 28 120.5t-20 108t-54 74.5q-65 59 -167 59q-123 0 -207 -76q-85 -78 -85 -196q0 -141 145 -265q42 -36 89 -69zM282 372q-1 -65 18.5 -116t57.5 -88q80 -81 215 -81q133 0 227 79 q99 82 99 207q0 154 -183 302q-55 45 -119 88q-123 -58 -210 -153q-105 -115 -105 -238z" glyph-name="eight" horiz-adv-x="1249" unicode="8"/>
<glyph d="M869 301q-144 -150 -348 -150q-193 0 -295 121q-87 103 -87 268q0 237 140 420q154 201 404 201q195 0 305 -150q100 -137 100 -354q0 -379 -240 -682q-153 -193 -376 -312q-110 -59 -233 -93l-34 89q237 81 415 255q171 167 249 387zM447 286q49 -19 116 -19t125 20.5 t101.5 48.5t72.5 58l46 49q30 132 30 222t-18 160.5t-54 121.5q-76 108 -217 108q-175 0 -274 -171q-85 -147 -85 -323q0 -214 157 -275z" glyph-name="nine" horiz-adv-x="1244" unicode="9"/>
<glyph d="M182.5 -17q-46.5 0 -72 24t-25.5 72.5t24 75.5q43 48 94.5 48t71.5 -26t20 -45q0 -82 -33 -115.5t-79.5 -33.5zM278.5 815q-46.5 0 -72 24t-25.5 72.5t24 75.5q43 48 94.5 48t71.5 -26t20 -45q0 -82 -33 -115.5t-79.5 -33.5z" glyph-name="colon" horiz-adv-x="503" unicode=":"/>
<glyph d="M96 168l79 97q90 -40 133 -131q35 -72 35 -160.5t-22.5 -162t-63.5 -134.5q-82 -123 -224 -178l-55 67l2 18q140 70 188 222q16 52 16 121.5t-26.5 125t-67.5 74.5zM280.5 815q-46.5 0 -72 24t-25.5 72.5t24 75.5q43 48 94.5 48t71.5 -26t20 -45q0 -82 -33 -115.5 t-79.5 -33.5z" glyph-name="semicolon" horiz-adv-x="503" unicode=";"/>
<glyph d="M209 800l1011 524l-19 -149l-833 -432l732 -432l-15 -135l-888 526z" glyph-name="less" horiz-adv-x="1368" unicode="&lt;"/>
<glyph d="M182 987h815l-14 -120h-814zM112 478h815l-14 -120h-814z" glyph-name="equal" horiz-adv-x="1063" unicode="="/>
<glyph d="M1261.01 703.049l-1010.94 -523.968l18.999 148.99l832.949 431.974l-731.955 431.974l14.999 134.992l887.945 -525.968z" glyph-name="greater" horiz-adv-x="1368" unicode="&gt;"/>
<glyph d="M364 470q-56 53 -76 154q-7 32 -7 72.5t19.5 80t56.5 75.5q60 60 159 112l142 76q160 91 180 171q12 38 12 114.5t-32.5 142.5t-85.5 108q-103 80 -253 80q-114 0 -215 -39l22 109q35 35 142 49q31 4 94.5 4t138.5 -19t130.5 -51.5t93 -76.5t61.5 -94q43 -93 43 -192 t-24 -158.5t-63.5 -104.5t-90 -79.5t-103.5 -63.5l-104 -56q-110 -58 -153 -122q-24 -37 -24 -73t5 -59.5t12.5 -46t16 -42t14.5 -34.5l-98 -38zM353 69v17.5t8.5 38t24.5 41.5q34 37 85.5 37t71 -25.5t19.5 -44.5v-22q-1 -63 -33 -95.5t-78.5 -32.5t-72 23.5t-25.5 62.5z " glyph-name="question" horiz-adv-x="1020" unicode="?"/>
<glyph d="M1353 141q89 0 183 105q146 163 198 436q17 90 17 217t-45.5 237.5t-125.5 179.5q-149 128 -419 128q-269 0 -485 -150q-204 -141 -322 -384q-116 -241 -116 -519q0 -361 199 -553q178 -171 472 -171q156 0 321 57q44 15 68 28l26 -76q-106 -81 -299 -108q-62 -8 -127 -8 q-345 0 -556 213q-221 222 -221 600q0 352 145 625q138 260 384 404q243 143 539 143q313 0 497 -179q183 -177 183 -477q0 -391 -198 -646q-119 -153 -259 -208q-69 -27 -119 -27t-70 17.5t-30 46.5q-14 39 -14 100.5t2.5 90t7 61.5t10.5 68l12 69q-81 -195 -149.5 -285 t-123.5 -130.5t-110 -40.5t-106 25q-109 55 -156 212q-23 75 -23 129.5t0.5 95t16 117.5t45 150t73.5 138t104 114q130 106 304 106q91 0 151.5 -20.5t81.5 -33.5l128 24q-67 -259 -114 -616q-19 -148 -19 -226.5t39 -78.5zM725 208q44 -85 122 -86q105 0 247 288 q131 263 188 516q-39 47 -151 64q-29 5 -72.5 5t-98.5 -24t-99 -64.5t-78 -94.5t-57 -116q-45 -124 -45 -263.5t44 -224.5z" glyph-name="at" horiz-adv-x="1968" unicode="@"/>
<glyph d="M695 1530h168l289 -1530h-150l-76 431h-614l-201 -431h-161zM906 546l-129 734l-15 115l-396 -849h540z" glyph-name="A" horiz-adv-x="1265" unicode="A"/>
<glyph d="M458 -14l-267 14h-70l193 1530h82q71 1 144.5 8.5t177 7.5t189 -27.5t137.5 -72.5q95 -85 95 -235q0 -238 -187 -353q-60 -37 -133 -58q130 -14 217 -97q95 -89 95 -221t-49.5 -226t-139.5 -154q-173 -116 -484 -116zM453 846l159 1q165 0 268 91q108 95 108 257 q0 185 -179 230q-63 16 -113.5 16t-75.5 -1t-54 -3l-61 -4q-31 -2 -54 -5l-73 -581q35 -1 75 -1zM286 113q61 -19 183.5 -19t210.5 20q184 40 255 180q36 70 36 172q0 134 -97 206q-89 67 -248 67q-148 0 -262 -6z" glyph-name="B" horiz-adv-x="1240" unicode="B"/>
<glyph d="M1037 83q-158 -98 -416 -98q-264 0 -397 205q-115 177 -115 467q0 247 90 452q90 204 256 321q165 116 368 116q124 0 220 -30l103 -32l-53 -126l-38 18q-96 44 -216 44t-199.5 -33.5t-142 -91t-107.5 -133.5q-127 -217 -127 -497q0 -388 212 -517q72 -43 153.5 -43 t138.5 11t105 28q92 31 142 67z" glyph-name="C" horiz-adv-x="1141" unicode="C"/>
<glyph d="M401 1530l321 16q292 0 438 -173q138 -162 138 -471q0 -389 -210 -652q-139 -175 -345 -238q-95 -28 -201 -28q-27 0 -44 1l-62 4q-35 2 -66.5 4.5t-61.5 3.5l-60 2q-29 1 -50 1h-77l193 1530h87zM287 125q158 -26 209.5 -26h61.5q185 4 326 125q126 108 196 300 q62 171 62 374q0 283 -110 410q-107 126 -353 126q-73 0 -140 -8l-90 -11z" glyph-name="D" horiz-adv-x="1377" unicode="D"/>
<glyph d="M314 1530h756l-6 -120l-614 7l-73 -579l474 6l-9 -127l-479 11l-78 -614l737 13l-11 -127h-890z" glyph-name="E" horiz-adv-x="1138" unicode="E"/>
<glyph d="M314 1530h779l-11 -120l-632 7l-73 -582l508 8l-10 -130l-512 12l-92 -725h-150z" glyph-name="F" horiz-adv-x="1057" unicode="F"/>
<glyph d="M1198 1342q-139 82 -356 82q-186 0 -325 -120q-187 -163 -238 -474q-15 -87 -15 -133.5t0.5 -99.5t20.5 -150t65 -174q101 -172 292 -172q143 0 371 85l54 421l-281 1l15 121h430l-82 -635q-29 -3 -62 -12l-158 -46q-300 -91 -476 -27q-201 73 -289 313q-53 147 -53 301 t23.5 269t70.5 217t113.5 183t148.5 138q171 116 377 116q191 0 363 -55l39 -12z" glyph-name="G" horiz-adv-x="1340" unicode="G"/>
<glyph d="M314 1530h150l-89 -701h726l89 701h150l-192 -1530h-151l90 714h-726l-90 -714h-150z" glyph-name="H" horiz-adv-x="1410" unicode="H"/>
<glyph d="M338 1530h151l-193 -1530h-151z" glyph-name="I" horiz-adv-x="572" unicode="I"/>
<glyph d="M168 108q16 74 34.5 188.5t35 238.5t31.5 255l55 508q13 123 26 232h151q-51 -457 -72 -632l-39 -312q-56 -428 -83.5 -521t-73.5 -163t-104 -116q-103 -80 -270 -109l-28 68q137 38 229 139q80 90 108 224z" glyph-name="J" horiz-adv-x="584" unicode="J"/>
<glyph d="M314 1530h150l-105 -828l746 828h178l-622 -676l405 -704q51 -87 97 -150h-181q-8 8 -26 38q-361 658 -392 711l-231 -252l-62 -497h-150z" glyph-name="K" horiz-adv-x="1245" unicode="K"/>
<glyph d="M314 1530h150l-177 -1404l593 4l-16 -130h-743z" glyph-name="L" horiz-adv-x="978" unicode="L"/>
<glyph d="M452 1530h194l173 -1068l31 -236l92 234l460 1070h218l-44 -1530h-153l49 1022l24 409l-624 -1435l-107 -14l-170 1063l-50 386l-77 -394l-243 -1037h-153z" glyph-name="M" horiz-adv-x="1791" unicode="M"/>
<glyph d="M314 1530h158l491 -1127l72 -207l21 238l134 1096h143l-193 -1530h-149l-494 1122l-72 239l-29 -288l-134 -1073h-141z" glyph-name="N" horiz-adv-x="1402" unicode="N"/>
<glyph d="M596 -17q-111 0 -202 48t-153 133q-130 177 -130 480q0 376 196 635q129 171 312 235q92 33 202.5 33t201 -50t150.5 -136q126 -179 126 -467q0 -381 -189 -640q-198 -271 -514 -271zM1142 864q0 563 -354 563q-224 0 -377 -235q-93 -145 -128 -346q-15 -89 -15 -140.5 v-62.5q4 -275 97 -409.5t263 -134.5q227 0 375 233q139 220 139 532z" glyph-name="O" horiz-adv-x="1378" unicode="O"/>
<glyph d="M402 1530l307 16q451 0 457 -389v-18q0 -277 -168 -445q-170 -168 -446 -168q-67 0 -112 4l-68 6q-21 2 -32 4l-69 -540h-150l193 1530h88zM1014 1146q0 287 -328 287q-58 0 -134 -9l-103 -11l-94 -751q85 -17 202 -17q224 1 340 131t117 370z" glyph-name="P" horiz-adv-x="1180" unicode="P"/>
<glyph d="M1216 -185v-117q-55 -39 -217 -53q-46 -4 -102.5 -4t-121.5 21q-137 45 -184 170q-17 45 -17 85t3 67q-218 12 -342 190t-124 470q0 376 196 635q129 171 312 235q92 33 202.5 33t201 -50t150.5 -136q126 -179 126 -468q0 -351 -165 -604q-81 -124 -195.5 -202.5 t-253.5 -97.5q0 -120 102 -171q74 -38 207 -38t222 35zM1142 864q0 563 -354 563q-224 0 -377 -235q-93 -145 -128 -346q-15 -89 -15 -140.5v-62.5q4 -275 97 -409.5t263 -134.5q227 0 375 233q139 220 139 532z" glyph-name="Q" horiz-adv-x="1378" unicode="Q"/>
<glyph d="M388 1530l310 16q227 0 348 -89q123 -91 123 -277q0 -181 -97 -316q-101 -140 -273 -186q73 -64 167 -292q124 -294 145 -332.5t33 -54.5l-172 2q-25 38 -58 117l-55 140q-99 278 -177 362q-33 35 -67 36h-39h-72l-82 2h-69l-82 -658h-151l192 1530h76zM368 779 q42 -2 110 -2h162.5t153.5 31q140 61 190 214q22 69 22 113.5v51.5q-4 243 -329 243q-77 0 -229 -16z" glyph-name="R" horiz-adv-x="1256" unicode="R"/>
<glyph d="M71 196q52 -56 228 -85q54 -9 115.5 -9t126 15.5t114.5 48.5q110 73 110 208q0 143 -139 254q-46 37 -103 74t-115.5 79t-107.5 95q-113 126 -113 285q0 175 129 282q125 104 329 104q228 0 346 -85l-48 -116q-61 61 -205 80q-43 5 -86 5t-97.5 -9.5t-102.5 -35.5 q-114 -63 -114 -209q0 -115 74 -199q51 -58 151.5 -124t155.5 -105.5t99 -88.5q104 -114 104 -259q0 -198 -146 -309q-141 -108 -372 -108q-181 0 -322 60q-36 15 -53 29z" glyph-name="S" horiz-adv-x="1044" unicode="S"/>
<glyph d="M589 1419l-451 -9l17 120h1044l-17 -120l-443 9l-179 -1419h-150z" glyph-name="T" horiz-adv-x="1122" unicode="T"/>
<glyph d="M409 13q-256 93 -256 425q0 45 12 155l119 937h150l-115 -911q-12 -100 -12 -142.5t0.5 -83t20.5 -100.5t59 -101q80 -86 235 -86q188 0 290 121q107 126 144 413l112 890h147l-114 -903q-45 -347 -194 -499q-140 -145 -406 -145q-110 0 -192 30z" glyph-name="U" horiz-adv-x="1360" unicode="U"/>
<glyph d="M154 1530h150l168 -1096l39 -282l115 282l478 1096h160l-695 -1534l-161 -1z" glyph-name="V" horiz-adv-x="1169" unicode="V"/>
<glyph d="M149 1530h150l146 -1096l40 -268l86 259l352 879l-23 226h144l109 -1096l20 -268l99 259l443 1105h152l-647 -1540h-154l-89 860l-18 236l-84 -236l-340 -860h-155z" glyph-name="W" horiz-adv-x="1770" unicode="W"/>
<glyph d="M520 788l-323 742h166l255 -635l424 635h170l-536 -772l348 -758h-172l-274 656l-430 -656h-183z" glyph-name="X" horiz-adv-x="1147" unicode="X"/>
<glyph d="M478 585l-373 945h161l261 -710l41 -103l55 102l428 711h162l-592 -945l-75 -585h-144z" glyph-name="Y" horiz-adv-x="1083" unicode="Y"/>
<glyph d="M15 70l822 1157l151 186l-744 -11l16 128h903l19 -66l-843 -1195l-124 -148l812 9l-21 -130h-970z" glyph-name="Z" horiz-adv-x="1157" unicode="Z"/>
<glyph d="M331 -68l149 -1q43 0 83 -0.5t64 -0.5l-7 -66q-165 -36 -266 -36t-130.5 23t-29.5 73t3 99t12 126.5t21.5 173t28.5 203.5l127 843q13 87 20.5 146t19 95.5t31.5 58.5q37 41 126 41q77 0 174 -18.5t105 -18.5l-9 -66h-292z" glyph-name="bracketleft" horiz-adv-x="854" unicode="["/>
<glyph d="M622 -362l-576 1959h132l577 -1959h-133z" glyph-name="backslash" horiz-adv-x="854" unicode="\"/>
<glyph d="M586.021 1624l-148.991 1q-42.9971 0 -82.9951 0.5q-39.9971 0.5 -63.9961 0.5l7 65.9961q164.989 35.9971 265.983 35.9971t130.492 -22.998q29.498 -22.999 29.498 -72.9961t-3 -98.9941t-11.999 -126.492t-21.499 -172.989q-12.499 -95.4941 -28.498 -203.487 l-126.992 -842.948q-12.999 -86.9951 -20.499 -145.991q-7.49902 -58.9971 -18.998 -95.4941q-11.5 -36.498 -31.498 -58.4971q-36.998 -40.9971 -125.993 -40.9971q-76.9951 0 -173.989 18.499t-104.993 18.499l8.99902 65.9951h291.982z" glyph-name="bracketright" horiz-adv-x="854" unicode="]"/>
<glyph d="M704 1530h153l267 -1020h-131l-226 875l-446 -875h-135z" glyph-name="asciicircum" horiz-adv-x="1358" unicode="^"/>
<glyph d="M1282 -223l-15 -115h-1378l15 115h1378z" glyph-name="underscore" horiz-adv-x="1335" unicode="_"/>
<glyph d="M416 1249q-48 32 -100 80q-151 143 -190.5 193t-53.5 75l115 104l294 -397z" glyph-name="grave" horiz-adv-x="541" unicode="`"/>
<glyph d="M514 1123q90 33 193 33t221 -37l113 37l-157 -1156h-131l19 202v3q-100 -145 -256 -201q-55 -20 -126.5 -20t-131.5 31t-100 88q-77 112 -77 312q0 270 151 488q109 156 282 220zM235 433q0 -333 189 -333q112 0 224 97q86 74 143 175l20 185l64 451q-85 38 -172.5 38 t-151 -26.5t-114 -72t-88.5 -106t-63 -128.5q-51 -135 -51 -280z" glyph-name="a" horiz-adv-x="1130" unicode="a"/>
<glyph d="M619 17q-90 -33 -200.5 -33t-239.5 43l-84 -25l218 1635h141l-58 -490l-35 -208q102 143 261 197q57 20 129 20t132 -31.5t99 -88.5q78 -112 78 -313q0 -268 -156 -487q-109 -155 -285 -219zM906 706q0 334 -190 334q-110 0 -222 -90q-85 -68 -147 -166l-88 -655 q80 -35 171 -35t155.5 27.5t116 74t90 108t64.5 129.5q50 135 50 273z" glyph-name="b" horiz-adv-x="1159" unicode="b"/>
<glyph d="M241 448q0 -350 242 -350q85 0 153 41t133 106l50 -82q-86 -113 -233 -161q-58 -18 -137 -18t-148.5 31t-116.5 89q-95 117 -95 329q0 264 145 479q101 151 256 212q79 32 140 32t90.5 -2.5t58.5 -7.5q67 -12 104 -31l-39 -128q-72 57 -173.5 57t-176 -48t-130.5 -130 q-123 -179 -123 -418z" glyph-name="c" horiz-adv-x="911" unicode="c"/>
<glyph d="M520 1123q89 33 185 33t191 -25l70 506h148l-224 -1637h-132l20 208q-104 -149 -261 -204q-57 -20 -129 -20t-132 31.5t-100 88.5q-77 112 -77 312q0 269 155 488q110 154 286 219zM233 434q0 -334 190 -334q109 0 221 92q85 71 147 171l89 648q-83 36 -172.5 36 t-154 -27.5t-116 -74.5t-90 -108.5t-63.5 -129.5q-51 -135 -51 -273z" glyph-name="d" horiz-adv-x="1149" unicode="d"/>
<glyph d="M495 102q180 0 348 170l43 -86q-50 -71 -153 -130q-124 -72 -243.5 -72t-194.5 40q-206 109 -206 401q0 153 46.5 289.5t123.5 233.5q168 208 420 208q205 0 262 -152q17 -45 17 -113t-36.5 -133.5t-96.5 -116t-136.5 -86.5t-155.5 -60q-147 -45 -287 -52 q-1 -15 -1 -44.5t7.5 -82t35.5 -102.5q64 -112 207 -112zM251 550q194 7 364 96q194 101 194 249t-160 148t-271 -154.5t-127 -338.5z" glyph-name="e" horiz-adv-x="1031" unicode="e"/>
<glyph d="M851 1531q-45 31 -122 31h-31t-65 -21t-69 -56q-60 -71 -74 -183l-21 -162h243l-9 -119h-250l-138 -1021h-148l137 1021h-152l22 118l146 1l18 124q25 188 126 299q106 115 274 115q94 0 151 -26z" glyph-name="f" horiz-adv-x="695" unicode="f"/>
<glyph d="M520 1123q89 33 192.5 33t226.5 -36l116 36l-176 -1245q-31 -216 -197 -327q-135 -89 -311 -89q-169 0 -256 35l38 126q106 -48 245.5 -48t222.5 77.5t109 222.5l48 299q-106 -148 -262 -203q-56 -20 -128 -20t-132 31.5t-100 88.5q-77 112 -77 312q0 269 155 488 q110 154 286 219zM233 434q0 -334 190 -334q158 0 303 174q38 45 62 84l96 652q-85 36 -175.5 36t-155 -27.5t-116 -74t-90 -108.5t-63.5 -130q-51 -135 -51 -272z" glyph-name="g" horiz-adv-x="1149" unicode="g"/>
<glyph d="M308 1637h148l-55 -479l-44 -289q150 194 344 263q66 24 131 24q123 0 176.5 -70.5t53.5 -210.5v-17t-3.5 -53.5t-9.5 -85t-13 -99.5l-16 -107q-6 -44 -16 -112l-62 -401h-149q4 32 11 74q48 321 55 365t13 85l14 92q25 171 25 249.5t-30.5 115.5t-94 37t-121.5 -25 t-116 -67q-124 -88 -206 -205l-98 -721h-148z" glyph-name="h" horiz-adv-x="1198" unicode="h"/>
<glyph d="M287 1144h149l-155 -1144h-148zM445 1439q-20 -10 -41 -10t-37 8q-51 23 -51 81q0 5 0.5 19.5t10 35.5t24.5 36q34 34 77.5 34t67 -25.5t23.5 -62.5q0 -82 -74 -116z" glyph-name="i" horiz-adv-x="564" unicode="i"/>
<glyph d="M-204 -391q25 -20 85.5 -20t108 36t78.5 99q51 103 81 335l146 1085h149l-153 -1139q-53 -380 -251 -485q-67 -35 -132 -35q-100 0 -152 38zM449 1439q-20 -10 -41 -10t-37 8q-51 23 -51 81q0 5 0.5 19.5t10 35.5t24.5 36q34 34 77.5 34t67 -25.5t23.5 -62.5 q0 -82 -74 -116z" glyph-name="j" horiz-adv-x="579" unicode="j"/>
<glyph d="M305 1637h148l-207 -1637h-149zM376 628l-1 1l84 49q167 100 250 198q107 123 151 264h143q-11 -128 -112 -264q-117 -158 -344 -271l420 -602h-173l-419 625h1z" glyph-name="k" horiz-adv-x="1023" unicode="k"/>
<glyph d="M356 1637h148l-222 -1634h-149z" glyph-name="l" horiz-adv-x="563" unicode="l"/>
<glyph d="M248 1140h141l-28 -253q141 185 313 247q59 22 118 22q109 0 162 -57t62 -174q134 161 294 213q56 18 111.5 18t98.5 -15.5t72 -48.5q57 -68 57 -220q0 -103 -23 -246t-29 -184q-35 -229 -42 -276l-15 -90q-6 -42 -10 -73h-150q4 32 10 74q50 324 56.5 365t17.5 108 q33 216 33 305t-30 126t-87.5 37t-102.5 -18.5t-91 -49.5q-94 -63 -174 -159q-5 -57 -16 -129l-21 -149q-6 -44 -16 -111l-61 -399h-149q9 73 20 141.5t18 117.5t15 95l13 86l25 173q26 171 26 250t-30 116t-90 37t-113 -25t-106 -66q-110 -85 -188 -203l-98 -722h-148z" glyph-name="m" horiz-adv-x="1782" unicode="m"/>
<glyph d="M247 1140h141l-29 -265q149 190 341 258q65 23 130 23q123 0 176.5 -70t53.5 -209v-17t-3.5 -54t-9.5 -85.5t-13 -99.5l-16 -108q-6 -44 -16 -111l-61 -399h-149q9 73 20 141.5t18 117.5t14 95l14 86l26 173q25 171 25 250t-30.5 115.5t-95 36.5t-123 -25.5t-116.5 -68.5 q-121 -87 -206 -208l-97 -713h-148z" glyph-name="n" horiz-adv-x="1194" unicode="n"/>
<glyph d="M316 15q-219 96 -219 447q0 269 153 474q103 138 251 192q74 28 162.5 28t158 -31t115.5 -90q97 -123 97 -349q0 -276 -150 -481q-162 -221 -404 -221q-93 0 -164 31zM251 459q0 -362 253 -362q176 0 283 197q91 171 91 387q0 363 -244 363q-179 0 -289 -198 q-94 -172 -94 -387z" glyph-name="o" horiz-adv-x="1135" unicode="o"/>
<glyph d="M616 16q-90 -32 -181 -32t-192 24l-69 -523h-148l219 1655h134l-22 -205q105 147 261 201q58 20 130 20t132 -31.5t100 -88.5q77 -112 77 -313q0 -271 -155 -489q-111 -154 -286 -218zM259 129q83 -35 169.5 -35t150.5 26.5t115 72t90 105.5t66 128q52 135 52 251 t-13.5 179.5t-38.5 103.5q-49 80 -137 80q-110 0 -222 -91q-89 -72 -146 -169z" glyph-name="p" horiz-adv-x="1162" unicode="p"/>
<glyph d="M520 1123q89 33 189.5 33t212.5 -34l121 38l-221 -1667h-148l78 580l24 132q-105 -146 -260 -201q-57 -20 -128.5 -20t-131.5 31.5t-100 88.5q-77 112 -77 312q0 269 155 488q110 154 286 219zM874 1011q-83 35 -168.5 35t-149 -26.5t-115 -72t-90.5 -105.5t-65 -128 q-53 -139 -53 -253.5t13.5 -177.5t38.5 -103q49 -80 138 -80q112 0 225 96q88 74 147 174q3 28 5 54.5t4.5 49.5t4 41t2.5 27z" glyph-name="q" horiz-adv-x="1146" unicode="q"/>
<glyph d="M773 985q-26 13 -79.5 13t-102.5 -23t-97 -65q-106 -91 -162 -230l-91 -680h-148l153 1140h140l-26 -251q51 100 144 175q116 92 238 92q49 0 64 -13z" glyph-name="r" horiz-adv-x="778" unicode="r"/>
<glyph d="M73 178q118 -81 274 -81q163 0 216 97q18 33 18 76.5t-17 77t-44 62.5t-62 56l-69 54q-105 81 -141 129q-75 96 -75 187.5t30.5 148t82.5 94.5q104 77 264 77q166 0 254 -44l-29 -140q-33 39 -137 63q-39 9 -90.5 9t-95 -12t-73.5 -34q-63 -48 -63 -125q0 -108 112 -197 l140 -108q161 -126 161 -279q0 -147 -111 -229q-105 -76 -279 -76q-148 0 -251 40q-30 12 -43 24z" glyph-name="s" horiz-adv-x="872" unicode="s"/>
<glyph d="M341 -16q-175 0 -175 172q0 42 12 134l93 731h-135l31 118l127 1l56 279h126l-36 -279h291l-18 -119h-290l-99 -744q-4 -34 -4 -58q0 -116 79 -116q63 0 177 72q27 17 42 29l20 -84q-35 -42 -98 -74q-121 -62 -199 -62z" glyph-name="t" horiz-adv-x="739" unicode="t"/>
<glyph d="M129 134q-16 54 -16 104t2 80t6 65q18 154 26 216l77 541h149l-73 -528q-7 -46 -14 -100q-21 -162 -21 -224t10.5 -94t30.5 -50q35 -33 99.5 -33t120 26t109.5 69q111 87 191 209l95 725h149l-152 -1140h-138l29 262q-136 -191 -317 -258q-61 -23 -124 -23 q-194 0 -239 153z" glyph-name="u" horiz-adv-x="1173" unicode="u"/>
<glyph d="M977 1140q4 -34 4 -68t-5 -105t-39.5 -179.5t-86.5 -211.5q-96 -188 -248 -370l-181 -210l-135 -10l-58 368l-114 786h165l82 -786l22 -238l167 209l89 133q86 136 121 241t44.5 162.5t15 94t9.5 72.5q10 86 6 112h142z" glyph-name="v" horiz-adv-x="1007" unicode="v"/>
<glyph d="M292 -14l-174 1154h166l84 -786l21 -237l135 177q211 294 270 560l-42 286h163l86 -786l23 -238l136 174q110 148 154 250q75 175 96 352q3 27 8 64l10 72q10 83 6 112h146l2 -27q1 -13 1 -27q0 -246 -120 -518q-102 -230 -250 -397l-153 -175l-136 -10l-94 621 q-120 -281 -253 -431l-150 -180z" glyph-name="w" horiz-adv-x="1633" unicode="w"/>
<glyph d="M394 591l-261 549h178l176 -449l316 449h163l-428 -567l283 -570h-174l-202 472l-328 -472h-160z" glyph-name="x" horiz-adv-x="949" unicode="x"/>
<glyph d="M982 1140q4 -31 4 -65.5t-3.5 -99.5t-28 -167.5t-61.5 -204.5q-70 -192 -176 -387q-81 -144 -121 -205l-74 -111q-35 -49 -70 -92l-81 -98q-105 -122 -247 -180q-77 -32 -145 -32q-103 0 -179 30l43 124q7 -3 18 -8.5t27 -11.5q36 -12 86.5 -12t100.5 16t102 54 q106 76 228 254h-93l-62 355l-127 841h164l109 -841l43 -301l109 186q143 243 207 438.5t78 382.5q4 81 2 135h147z" glyph-name="y" horiz-adv-x="1048" unicode="y"/>
<glyph d="M-21 46l621 792l167 183h-583l17 119h723l36 -41l-648 -828l-142 -152h642l-11 -119h-776z" glyph-name="z" horiz-adv-x="963" unicode="z"/>
<glyph d="M979 1674q-10 -50 -10 -67h-276l-96 -638q-11 -78 -108 -125l-37 -17q-23 -11 -48 -21l-48 -20q-21 -8 -29 -10q106 -49 146 -80q72 -58 63 -120l-94 -631h275q-1 -5 -2 -15.5t-3 -23.5t-4 -29q-153 -36 -231.5 -36t-103.5 5t-41 18q-29 25 -27 88q0 4 4 33 q45 323 86 594q5 58 -141 117q-45 19 -92 32l14 97q214 58 256 101q18 20 22 42l82 551q18 115 46 144t58 38t69 9q86 0 270 -36z" glyph-name="braceleft" horiz-adv-x="1024" unicode="{"/>
<glyph d="M375 1780h131v-1966h-131v1966z" glyph-name="bar" horiz-adv-x="854" unicode="|"/>
<glyph d="M93.0596 -127.897q10 49.9971 10 66.9951h275.982l95.9941 637.962q11 77.9951 107.994 124.992l36.9971 16.999q22.999 10.999 47.9971 20.998l47.9971 19.999q20.999 8 28.998 9.99902q-105.993 48.9971 -145.99 79.9961q-71.9961 57.9961 -62.9961 119.992 l93.9941 630.962h-274.983q1 4.99902 2 15.499q1 10.499 2.99902 23.498q2 12.999 4 28.998q152.991 35.998 231.486 35.998t103.493 -5q24.999 -4.99902 40.998 -17.998q28.998 -24.999 26.998 -87.9951q0 -4 -4 -32.998q-44.9971 -322.98 -85.9941 -593.964 q-5 -57.9961 140.991 -116.992q44.9971 -18.999 91.9941 -31.998l-13.999 -96.9941q-213.987 -57.9971 -255.984 -100.994q-17.999 -19.999 -21.999 -41.998l-81.9941 -550.966q-17.999 -114.993 -45.998 -143.991q-27.998 -28.998 -57.9961 -37.998 q-29.998 -8.99902 -68.9961 -8.99902q-85.9941 0 -269.983 35.998z" glyph-name="braceright" horiz-adv-x="1024" unicode="}"/>
<glyph d="M413 915q-134 0 -218 -128l-55 57q23 68 104 128q91 69 198 69q85 0 183.5 -86.5t160.5 -86.5q129 0 210 130l56 -57q-24 -77 -102 -135q-86 -65 -193 -65q-86 0 -184 87t-160 87z" glyph-name="asciitilde" horiz-adv-x="1137" unicode="~"/>
<glyph glyph-name="DEL"/>
<glyph glyph-name="nonbreakingspace" horiz-adv-x="485" unicode=" "/>
<glyph d="M257.024 -433.892h-171.989l214.986 1289.92h119.993zM389.017 1141.01q-90.9951 0 -90.9951 82.9951q0 68.9951 42.998 102.993q42.9971 33.998 78.4951 33.998q35.4971 0 53.4961 -7q51.9971 -17.999 51.9971 -77.9951q0 -62.9961 -46.9971 -101.993 q-38.9971 -32.998 -88.9941 -32.998z" glyph-name="exclamdown" horiz-adv-x="621" unicode="¡"/>
<glyph d="M292 448q0 -350 242 -350q85 0 153 41t133 106l50 -82q-86 -109 -224 -157q-55 -20 -119 -22l-37 -199h-115l39 210q-202 45 -256 275q-18 74 -18 154.5t13.5 158t41 152.5t68.5 143.5t95 123.5q117 120 270 146l50 210h116l-50 -203q120 -5 190 -40l-39 -128 q-72 57 -173.5 57t-176 -48t-130.5 -130q-123 -179 -123 -418z" glyph-name="cent" horiz-adv-x="1057" unicode="¢"/>
<glyph d="M73 -15q-60 0 -60 54q0 58 76 108q71 46 132 46q79 64 118 295l44 263h-187l14 100h190l22 129q35 238 161 391q143 174 371 174q138 0 207 -40q27 -16 51 -41l-71 -107q-36 52 -133 73q-35 7 -83 7t-102 -25t-102 -80q-104 -118 -144 -350l-24 -131h329l-13 -100h-333 l-20 -112q-31 -187 -52 -252q-37 -120 -97 -206q37 -10 82.5 -26.5t97.5 -32.5q128 -39 226 -39t157 16.5t97 46.5q72 58 72 166q0 84 -60 152q-17 20 -36 32l119 91q134 -111 134 -272q0 -134 -85 -224q-109 -116 -365 -116q-148 0 -258 31t-167 51.5t-106 35.5 q-58 -71 -147 -99q-29 -9 -55 -9z" glyph-name="sterling" horiz-adv-x="1368" unicode="£"/>
<glyph d="M1031 340q-117 -88 -262 -88t-261 82l-191 -191l-87 86l189 190q-93 120 -93 271t92 268l-191 191l87 87l191 -193q117 85 265 85t268 -93l187 188l87 -87l-190 -190q84 -113 84 -258.5t-88 -260.5l192 -192l-87 -86zM440 690q0 -140 96 -238t230 -98q136 0 231 98 q95 99 95 238t-95 238q-95 98 -231 98q-134 0 -230 -98t-96 -238z" glyph-name="currency" horiz-adv-x="1514" unicode="¤"/>
<glyph d="M250 482h418l29 254h-415l13 101h368l-336 693h147l272 -574l49 -118l75 124l393 568h149l-516 -693h377l-13 -101h-427l-30 -254h425l-12 -100h-425l-44 -382h-134l43 382h-419z" glyph-name="yen" horiz-adv-x="1483" unicode="¥"/>
<glyph d="M375 1780h131v-894h-131v894zM375 708h131v-894h-131v894z" glyph-name="brokenbar" horiz-adv-x="854" unicode="¦"/>
<glyph d="M949 376q95 -84 95 -184t-41 -168.5t-115 -115.5q-146 -94 -380 -94q-182 0 -326 83q-37 21 -54 38l43 116q63 -73 233 -107q53 -11 114 -11t129 10.5t121 36.5q120 56 120 174q0 110 -178 194q-58 27 -129.5 55.5t-139 65t-119.5 85.5q-120 110 -120 267.5t186 244.5 q-146 121 -146 281q0 153 146 243q137 83 350 83q227 0 352 -105l-48 -116q-58 74 -229 98q-46 7 -97 7t-109.5 -12.5t-103.5 -37.5q-103 -57 -103 -163q0 -103 90 -174q44 -36 107 -66l139 -66q158 -71 225 -131t98.5 -116.5t31.5 -129.5q0 -171 -142 -285zM482 1001 q-121 -61 -121 -183q0 -100 79 -168q54 -46 229 -126q105 -40 175 -78q90 76 90 193q0 120 -152 212q-54 33 -114 59l-103 47q-42 20 -83 44z" glyph-name="section" horiz-adv-x="1194" unicode="§"/>
<glyph d="M539 1436q-24 26 -24 63q0 83 71 115q20 9 52.5 9t56 -25.5t23.5 -62.5q0 -54 -37 -91q-34 -34 -76 -34t-66 26zM118 1436q-24 26 -24 63q0 83 71 115q20 9 52.5 9t56 -25.5t23.5 -62.5q0 -54 -37 -91q-34 -34 -76 -34t-66 26z" glyph-name="dieresis" horiz-adv-x="809" unicode="¨"/>
<glyph d="M196 938q0 352 244 598q156 157 372 217q107 30 224 30q231 0 426 -115q190 -112 302 -302q113 -195 113 -428q0 -229 -114 -428q-108 -189 -301 -304q-194 -116 -426 -116q-349 0 -596 248q-153 155 -214 374q-30 109 -30 226zM306 938q0 -202 98 -378q94 -169 258 -268 q169 -102 349.5 -102t314 59t232 160.5t154 237.5t55.5 265t-25 224t-71.5 178.5t-112.5 152t-147 117.5q-171 102 -375 102q-203 0 -374 -102q-165 -99 -260 -270q-96 -173 -96 -376zM1307 655l36 -95q-112 -93 -311 -93q-193 0 -312 140q-113 132 -113 325q0 210 123 342 q129 139 355 139q123 0 232 -51l-27 -125q-91 55 -193 55t-161 -27.5t-99 -74.5q-82 -96 -82 -247q0 -169 85 -265q80 -90 217 -90t250 67z" glyph-name="copyright" horiz-adv-x="2061" unicode="©"/>
<glyph d="M607 883q-117 -140 -264 -140q-177 0 -224 173q-15 55 -15 121.5t17 131.5t49 124.5t77 111t101 89.5q120 83 260 83q82 0 169 -29l78 21l-146 -826h-128zM698 1459q-43 39 -114.5 39t-136.5 -40.5t-111 -104.5q-98 -134 -98 -302q0 -107 26.5 -147t56.5 -55t66.5 -15 t67 12.5t59.5 31.5q48 32 99 86z" glyph-name="ordfeminine" horiz-adv-x="854" unicode="ª"/>
<glyph d="M265 671l695 415l29 -89l-556 -383l452 -377l-53 -85l-583 399zM941 671l695 415l29 -89l-556 -383l452 -377l-53 -85l-583 399z" glyph-name="guillemotleft" horiz-adv-x="1878" unicode="«"/>
<glyph d="M226 835h960l-60 -513h-134l47 396h-826z" glyph-name="logicalnot" horiz-adv-x="1370" unicode="¬"/>
<glyph glyph-name="uni00AD" horiz-adv-x="1706" unicode="­"/>
<glyph d="M196 938q0 352 244 598q156 157 372 217q107 30 224 30q231 0 426 -115q190 -112 302 -302q113 -195 113 -428q0 -229 -114 -428q-108 -189 -301 -304q-194 -116 -426 -116q-349 0 -596 248q-153 155 -214 374q-30 109 -30 226zM306 938q0 -202 98 -378q94 -169 258 -268 q169 -102 349.5 -102t314 59t232 160.5t154 237.5t55.5 265t-25 224t-71.5 178.5t-112.5 152t-147 117.5q-171 102 -375 102q-203 0 -374 -102q-165 -99 -260 -270q-96 -173 -96 -376zM1026 839l-72 -1h-86v-371h-136v937h60h24l230 6q173 0 264 -76q84 -70 84 -186 q0 -243 -213 -290q66 -47 129 -172l34 -65q9 -17 18 -32l20 -33q10 -18 24 -40l32 -49l-156 1q-22 30 -39 64l-71 144q-64 136 -146 163zM1130 1296q-46 12 -127.5 12t-134.5 -9v-359q24 -3 90 -3h76q219 2 219 194q0 132 -123 165z" glyph-name="registered" horiz-adv-x="2061" unicode="®"/>
<glyph d="M50 1548h510l-5 -114h-509z" glyph-name="macron" horiz-adv-x="614" unicode="¯"/>
<glyph d="M463 955q-69 0 -128 25q-118 52 -166 174q-23 57 -23 89q0 103 26.5 162.5t70.5 102.5q96 92 238 92q137 0 230 -94q89 -91 89 -222q0 -141 -99 -236q-96 -93 -238 -93zM469 1048q47 0 88 17.5t71 48.5q64 66 64 171q0 93 -60 157q-62 65 -155 65q-96 0 -160 -65 q-63 -66 -63 -169q0 -92 59 -157q62 -68 156 -68z" glyph-name="degree" horiz-adv-x="899" unicode="°"/>
<glyph d="M601 536l28 181l-161 -5h-225l14 121h225l159 -9q1 15 3 40l10 102q3 24 4 39l27 230h136l-26 -230l-30 -180l133 8h256l-14 -121h-256l-130 5q-2 -37 -6 -77q-6 -66 -9 -104l-29 -241h-138zM185 145h869l-13 -115h-869z" glyph-name="plusminus" horiz-adv-x="1366" unicode="±"/>
<glyph d="M644 1530q-190 0 -335 -152l-54 72q89 122 267 176q67 21 148 21t146 -23.5t110 -61.5q87 -73 87 -158.5t-24.5 -149.5t-67.5 -121.5t-102 -109.5t-127.5 -100.5t-143.5 -94.5l-151 -94l602 25l-5 -122h-782l-35 75l115 66q413 239 536 446q39 65 39 118t-16 86.5 t-45 55.5q-60 46 -162 46z" glyph-name="twosuperior" horiz-adv-x="1168" unicode="²"/>
<glyph d="M240 1523q173 121 385 121q142 0 225 -64q75 -57 75 -148q0 -156 -165 -256q-47 -29 -100 -49q139 0 205 -89q47 -63 47 -148q0 -173 -165 -273q-142 -86 -334 -86q-105 0 -215 39q-37 14 -66 32l14 84q99 -55 251 -55q134 0 233 55q124 69 124 201q0 112 -110 156 q-38 15 -87 15q-7 -2 -33 -8l-113 -28q-27 -7 -37 -10l16 111q165 39 235 84t100.5 89.5t30.5 103.5q0 136 -178 136q-153 0 -303 -100z" glyph-name="threesuperior" horiz-adv-x="1065" unicode="³"/>
<glyph d="M58 1304l308 400l115 -104q-21 -36 -67 -86l-82 -87q-123 -125 -211 -178z" glyph-name="acute" horiz-adv-x="559" unicode="´"/>
<glyph d="M1062 114q56 0 124 82l49 -85q-42 -68 -142 -113q-39 -17 -76 -17t-61 9q-79 29 -79 139v7q-71 -73 -123 -101q-103 -54 -219 -54q-61 0 -103 24q-78 44 -91 95l-70 -472h-141l188 1266q11 81 -1 97.5t-24 16.5q-48 0 -105 -57l-50 88q46 62 140 97q40 14 78 14t61 -10 q61 -28 61 -127q0 -21 -2 -40q-85 -612 -86 -622l-4 -24q-1 -16 -1 -43.5t12 -62.5t39 -59q51 -47 140 -47q80 0 176 63q78 51 131 119l118 843h148l-124 -915q-4 -22 -4 -41q0 -70 41 -70z" glyph-name="mu" horiz-adv-x="1354" unicode="µ"/>
<glyph d="M1001 1446l-166 4h-71l-188 -1450h-147l104 774q-259 6 -344 198q-29 66 -29 158.5t29 173.5t95 141q139 126 427 126q101 0 182 -7l118 -9q38 -3 76 -3h240l-8 -80l-170 -25l-154 -1223q-15 -119 -27 -224h-145z" glyph-name="paragraph" horiz-adv-x="1364" unicode="¶"/>
<glyph d="M339.5 630q-46.5 0 -72 24t-25.5 72.5t24 75.5q43 48 94.5 48t71.5 -26t20 -45q0 -82 -33 -115.5t-79.5 -33.5z" glyph-name="periodcentered" horiz-adv-x="686" unicode="·"/>
<glyph d="M281 -146q0 108 -16 168l59 4l41 -4q47 -74 47 -179t-21 -159.5t-57 -87.5q-67 -61 -185 -61q-107 0 -146 29l20 115q33 -18 88 -18q170 0 170 193z" glyph-name="cedilla" horiz-adv-x="479" unicode="¸"/>
<glyph d="M553 1455q-11 -7 -58 -20l-198 -57q-24 -6 -34 -9l-5 95q156 39 339 140q46 26 65 41l56 -17l-138 -992h-142z" glyph-name="onesuperior" horiz-adv-x="969" unicode="¹"/>
<glyph d="M723 856q-62 -62 -138 -92.5t-152 -30.5t-135.5 27t-103.5 74q-93 103 -93 266q0 222 143 364q127 125 290 125q149 0 240 -105q87 -101 87 -265q0 -225 -138 -363zM352 850q35 -21 94 -21t113.5 32t90.5 85q69 102 69 260q0 206 -105 270q-36 22 -95.5 21.5t-113.5 -35 t-91 -89.5q-73 -111 -73 -260q0 -197 111 -263z" glyph-name="ordmasculine" horiz-adv-x="854" unicode="º"/>
<glyph d="M950.016 567.041l-694.958 -414.975l-28.998 88.9941l555.966 382.977l-451.972 376.978l52.9961 84.9951l582.965 -398.977zM1626.02 567.041l-694.958 -414.975l-28.998 88.9941l555.966 382.977l-451.972 376.978l52.9961 84.9951l582.965 -398.977z" glyph-name="guillemotright" horiz-adv-x="1878" unicode="»"/>
<glyph d="M1844 172h-525l-28 74l610 867h38l101 -78l-583 -754l404 12l39 280l155 18l-40 -293l263 8l-15 -134h-265l-47 -348h-156zM578 1455q-11 -7 -58 -20l-198 -57q-24 -6 -34 -9l-5 95q156 39 339 140q46 26 65 41l56 -17l-138 -992h-142zM1375 1530h123l-681 -1530h-123z " glyph-name="onequarter" horiz-adv-x="2513" unicode="¼"/>
<glyph d="M1837 836q-190 0 -335 -152l-54 72q89 122 267 176q67 21 148 21t146 -23.5t110 -61.5q87 -73 87 -158.5t-24.5 -149.5t-67.5 -121.5t-102 -109.5t-127.5 -100.5t-143.5 -94.5l-151 -94l602 25l-5 -122h-782l-35 75l115 66q413 239 536 446q39 65 39 118t-16 86.5 t-45 55.5q-60 46 -162 46zM578 1455q-11 -7 -58 -20l-198 -57q-24 -6 -34 -9l-5 95q156 39 339 140q46 26 65 41l56 -17l-138 -992h-142zM1375 1530h123l-681 -1530h-123z" glyph-name="onehalf" horiz-adv-x="2513" unicode="½"/>
<glyph d="M1844 172h-525l-28 74l610 867h38l101 -78l-583 -754l404 12l39 280l155 18l-40 -293l263 8l-15 -134h-265l-47 -348h-156zM231 1523q173 121 385 121q142 0 225 -64q75 -57 75 -148q0 -156 -165 -256q-47 -29 -100 -49q139 0 205 -89q47 -63 47 -148q0 -173 -165 -273 q-142 -86 -334 -86q-105 0 -215 39q-37 14 -66 32l14 84q99 -55 251 -55q134 0 233 55q124 69 124 201q0 112 -110 156q-38 15 -87 15q-7 -2 -33 -8l-113 -28q-27 -7 -37 -10l16 111q165 39 235 84t100.5 89.5t30.5 103.5q0 136 -178 136q-153 0 -303 -100zM1411 1530h123 l-681 -1530h-123z" glyph-name="threequarters" horiz-adv-x="2513" unicode="¾"/>
<glyph d="M657 1220q-22 -10 -60 -10t-58 25.5t-20 44.5v22q1 63 33 95.5t78.5 32.5t72 -23.5t25.5 -63.5v-17.5t-8.5 -38t-24.5 -40.5t-38 -27zM102 -22q-10 54 -10 120t24 126t63.5 105.5t90 79.5t103.5 63l103 56q178 93 178 209q0 49 -21 101l-27 68l98 38l14 -1 q83 -83 83 -220q0 -126 -168 -233q-54 -35 -110 -64l-99 -54q-161 -90 -181 -170q-12 -38 -12 -114.5t32.5 -142.5t85.5 -107q103 -81 253 -81q116 0 215 39l-22 -109q-35 -35 -142 -49q-31 -4 -94.5 -4t-138.5 19t-130.5 51.5t-93 76t-61 93.5t-33.5 104z" glyph-name="questiondown" horiz-adv-x="1028" unicode="¿"/>
<glyph d="M695 1530h168l289 -1530h-150l-76 431h-614l-201 -431h-161zM906 546l-129 734l-15 115l-396 -849h540zM821 1601q-129 79 -250 219q-38 44 -61 83l94 97l273 -349z" glyph-name="Agrave" horiz-adv-x="1265" unicode="À"/>
<glyph d="M695 1530h168l289 -1530h-150l-76 431h-614l-201 -431h-161zM906 546l-129 734l-15 115l-396 -849h540zM741 1654l278 346l95 -97q-42 -71 -115 -139q-119 -111 -201 -161z" glyph-name="Aacute" horiz-adv-x="1265" unicode="Á"/>
<glyph d="M695 1530h168l289 -1530h-150l-76 431h-614l-201 -431h-161zM906 546l-129 734l-15 115l-396 -849h540zM462 1653l340 347h136l205 -348l-73 -53l-219 265l-330 -270z" glyph-name="Acircumflex" horiz-adv-x="1265" unicode="Â"/>
<glyph d="M695 1530h168l289 -1530h-150l-76 431h-614l-201 -431h-161zM906 546l-129 734l-15 115l-396 -849h540zM435 1798q54 104 186 152q41 14 79 14t65.5 -11t50.5 -27.5t42 -35.5t37 -36q44 -38 79 -38t58.5 12.5t42 31t32.5 39.5l26 38l66 -70q-24 -71 -97 -122 q-74 -52 -152 -52q-67 0 -104 27t-56 46t-38 35q-44 37 -82 38t-61.5 -9.5t-42.5 -26.5t-35 -35l-29 -35z" glyph-name="Atilde" horiz-adv-x="1265" unicode="Ã"/>
<glyph d="M695 1530h168l289 -1530h-150l-76 431h-614l-201 -431h-161zM906 546l-129 734l-15 115l-396 -849h540zM1050.5 1730.5q-20.5 -9.5 -50.5 -9.5t-54.5 26.5t-24.5 61t10.5 56t27.5 37.5q35 33 77 33t65 -25t23 -45t-1 -35t-10.5 -36.5t-25.5 -37.5t-36.5 -25.5z M526 1747.5q-24 26.5 -24 65.5q0 51 37 89q34 33 76 33t65.5 -25.5t23.5 -63.5q0 -51 -37 -90q-34 -35 -75.5 -35t-65.5 26.5z" glyph-name="Adieresis" horiz-adv-x="1265" unicode="Ä"/>
<glyph d="M677 1494q-179 43 -179 234q0 133 112 207q97 65 230 65q192 0 251 -146q19 -46 19 -104t-19 -102t-51 -76q-65 -62 -170 -81l282 -1491h-150l-76 431h-614l-201 -431h-161zM783 1565q218 0 218 197q0 108 -101 143q-32 11 -71.5 11t-79 -9t-71.5 -31q-73 -50 -73 -153 q0 -68 49 -113t129 -45zM906 546l-129 734l-15 115l-396 -849h540z" glyph-name="Aring" horiz-adv-x="1265" unicode="Å"/>
<glyph d="M-107 0l806 1436l-298 17l11 77h1305l-6 -120l-614 7l-74 -579l475 6l-9 -127l-479 11l-78 -614l737 13l-11 -127h-890l58 459h-520l-251 -459h-162zM840 575l107 845l-111 5l-466 -850h470z" glyph-name="AE" horiz-adv-x="1781" unicode="Æ"/>
<glyph d="M333 -319q33 -18 88 -18q170 0 170 193q0 84 -8 130q-244 14 -367 216q-107 177 -107 455q0 247 90 452q90 204 256 321q165 116 368 116q124 0 220 -30l103 -32l-53 -126l-38 18q-96 44 -216 44t-199.5 -33.5t-142 -91t-107.5 -133.5q-127 -217 -127 -497 q0 -388 212 -517q72 -43 153.5 -43t138.5 11t105 28q92 31 142 67l23 -128q-131 -83 -343 -95q28 -69 28 -158.5t-21 -144t-57 -87.5q-67 -61 -185 -61q-107 0 -146 29z" glyph-name="Ccedilla" horiz-adv-x="1141" unicode="Ç"/>
<glyph d="M739 1601q-129 79 -250 219q-38 44 -61 83l94 97l273 -349zM314 1530h756l-6 -120l-614 7l-73 -579l474 6l-9 -127l-479 11l-78 -614l737 13l-11 -127h-890z" glyph-name="Egrave" horiz-adv-x="1138" unicode="È"/>
<glyph d="M659 1654l278 346l95 -97q-42 -71 -115 -139q-119 -111 -201 -161zM314 1530h756l-6 -120l-614 7l-73 -579l474 6l-9 -127l-479 11l-78 -614l737 13l-11 -127h-890z" glyph-name="Eacute" horiz-adv-x="1138" unicode="É"/>
<glyph d="M314 1530h756l-6 -120l-614 7l-73 -579l474 6l-9 -127l-479 11l-78 -614l737 13l-11 -127h-890zM380 1653l340 347h136l205 -348l-73 -53l-219 265l-330 -270z" glyph-name="Ecircumflex" horiz-adv-x="1138" unicode="Ê"/>
<glyph d="M967.5 1730.5q-20.5 -9.5 -50.5 -9.5t-54.5 26.5t-24.5 61t10.5 56t27.5 37.5q35 33 77 33t65 -25t23 -45t-1 -35t-10.5 -36.5t-25.5 -37.5t-36.5 -25.5zM443 1747.5q-24 26.5 -24 65.5q0 51 37 89q34 33 76 33t65.5 -25.5t23.5 -63.5q0 -51 -37 -90q-34 -35 -75.5 -35 t-65.5 26.5zM314 1530h756l-6 -120l-614 7l-73 -579l474 6l-9 -127l-479 11l-78 -614l737 13l-11 -127h-890z" glyph-name="Edieresis" horiz-adv-x="1138" unicode="Ë"/>
<glyph d="M338 1530h151l-193 -1530h-151zM457 1601q-129 79 -250 219q-38 44 -61 83l94 97l273 -349z" glyph-name="Igrave" horiz-adv-x="572" unicode="Ì"/>
<glyph d="M338 1530h151l-193 -1530h-151zM377 1654l278 346l95 -97q-42 -71 -115 -139q-119 -111 -201 -161z" glyph-name="Iacute" horiz-adv-x="572" unicode="Í"/>
<glyph d="M338 1530h151l-193 -1530h-151zM98 1653l340 347h136l205 -348l-73 -53l-219 265l-330 -270z" glyph-name="Icircumflex" horiz-adv-x="572" unicode="Î"/>
<glyph d="M338 1530h151l-193 -1530h-151zM686.5 1730.5q-20.5 -9.5 -50.5 -9.5t-54.5 26.5t-24.5 61t10.5 56t27.5 37.5q35 33 77 33t65 -25t23 -45t-1 -35t-10.5 -36.5t-25.5 -37.5t-36.5 -25.5zM162 1747.5q-24 26.5 -24 65.5q0 51 37 89q34 33 76 33t65.5 -25.5t23.5 -63.5 q0 -51 -37 -90q-34 -35 -75.5 -35t-65.5 26.5z" glyph-name="Idieresis" horiz-adv-x="572" unicode="Ï"/>
<glyph d="M401 1531l321 16q292 0 438 -173q138 -162 138 -471q0 -389 -210 -652q-139 -175 -345 -237q-95 -29 -201 -29q-27 0 -44 1l-62 4q-35 2 -66.5 4.5t-61.5 3.5l-60 2q-29 1 -50 1h-77l92 732h-161l12 100h162l88 698h87zM287 126q158 -26 209.5 -26h61.5q185 4 326 126 q126 107 196 299q62 171 62 374q0 283 -110 411q-107 125 -353 125q-73 0 -140 -8l-90 -11l-74 -583h428l-12 -100h-428z" glyph-name="Eth" horiz-adv-x="1376" unicode="Ð"/>
<glyph d="M498 1798q54 104 186 152q41 14 79 14t65.5 -11t50.5 -27.5t42 -35.5t37 -36q44 -38 79 -38t58.5 12.5t42 31t32.5 39.5l26 38l66 -70q-24 -71 -97 -122q-74 -52 -152 -52q-67 0 -104 27t-56 46t-38 35q-44 37 -82 38t-61.5 -9.5t-42.5 -26.5t-35 -35l-29 -35zM314 1530 h158l491 -1127l72 -207l21 238l134 1096h143l-193 -1530h-149l-494 1122l-72 239l-29 -288l-134 -1073h-141z" glyph-name="Ntilde" horiz-adv-x="1402" unicode="Ñ"/>
<glyph d="M861 1601q-129 79 -250 219q-38 44 -61 83l94 97l273 -349zM596 -17q-111 0 -202 48t-153 133q-130 177 -130 480q0 376 196 635q129 171 312 235q92 33 202.5 33t201 -50t150.5 -136q126 -179 126 -467q0 -381 -189 -640q-198 -271 -514 -271zM1142 864q0 563 -354 563 q-224 0 -377 -235q-93 -145 -128 -346q-15 -89 -15 -140.5v-62.5q4 -275 97 -409.5t263 -134.5q227 0 375 233q139 220 139 532z" glyph-name="Ograve" horiz-adv-x="1378" unicode="Ò"/>
<glyph d="M781 1654l278 346l95 -97q-42 -71 -115 -139q-119 -111 -201 -161zM596 -17q-111 0 -202 48t-153 133q-130 177 -130 480q0 376 196 635q129 171 312 235q92 33 202.5 33t201 -50t150.5 -136q126 -179 126 -467q0 -381 -189 -640q-198 -271 -514 -271zM1142 864 q0 563 -354 563q-224 0 -377 -235q-93 -145 -128 -346q-15 -89 -15 -140.5v-62.5q4 -275 97 -409.5t263 -134.5q227 0 375 233q139 220 139 532z" glyph-name="Oacute" horiz-adv-x="1378" unicode="Ó"/>
<glyph d="M596 -17q-111 0 -202 48t-153 133q-130 177 -130 480q0 376 196 635q129 171 312 235q92 33 202.5 33t201 -50t150.5 -136q126 -179 126 -467q0 -381 -189 -640q-198 -271 -514 -271zM1142 864q0 563 -354 563q-224 0 -377 -235q-93 -145 -128 -346q-15 -89 -15 -140.5 v-62.5q4 -275 97 -409.5t263 -134.5q227 0 375 233q139 220 139 532zM502 1653l340 347h136l205 -348l-73 -53l-219 265l-330 -270z" glyph-name="Ocircumflex" horiz-adv-x="1378" unicode="Ô"/>
<glyph d="M474 1798q54 104 186 152q41 14 79 14t65.5 -11t50.5 -27.5t42 -35.5t37 -36q44 -38 79 -38t58.5 12.5t42 31t32.5 39.5l26 38l66 -70q-24 -71 -97 -122q-74 -52 -152 -52q-67 0 -104 27t-56 46t-38 35q-44 37 -82 38t-61.5 -9.5t-42.5 -26.5t-35 -35l-29 -35zM596 -17 q-111 0 -202 48t-153 133q-130 177 -130 480q0 376 196 635q129 171 312 235q92 33 202.5 33t201 -50t150.5 -136q126 -179 126 -467q0 -381 -189 -640q-198 -271 -514 -271zM1142 864q0 563 -354 563q-224 0 -377 -235q-93 -145 -128 -346q-15 -89 -15 -140.5v-62.5 q4 -275 97 -409.5t263 -134.5q227 0 375 233q139 220 139 532z" glyph-name="Otilde" horiz-adv-x="1378" unicode="Õ"/>
<glyph d="M1089.5 1730.5q-20.5 -9.5 -50.5 -9.5t-54.5 26.5t-24.5 61t10.5 56t27.5 37.5q35 33 77 33t65 -25t23 -45t-1 -35t-10.5 -36.5t-25.5 -37.5t-36.5 -25.5zM565 1747.5q-24 26.5 -24 65.5q0 51 37 89q34 33 76 33t65.5 -25.5t23.5 -63.5q0 -51 -37 -90q-34 -35 -75.5 -35 t-65.5 26.5zM596 -17q-111 0 -202 48t-153 133q-130 177 -130 480q0 376 196 635q129 171 312 235q92 33 202.5 33t201 -50t150.5 -136q126 -179 126 -467q0 -381 -189 -640q-198 -271 -514 -271zM1142 864q0 563 -354 563q-224 0 -377 -235q-93 -145 -128 -346 q-15 -89 -15 -140.5v-62.5q4 -275 97 -409.5t263 -134.5q227 0 375 233q139 220 139 532z" glyph-name="Odieresis" horiz-adv-x="1378" unicode="Ö"/>
<glyph d="M244 423l393 342l-309 339l101 95l293 -358l382 363l79 -94l-393 -346l310 -340l-101 -95l-294 359l-382 -360z" glyph-name="multiply" horiz-adv-x="1370" unicode="×"/>
<glyph d="M605 -16q-194 0 -320 130l-160 -236l-70 39l178 261q-121 176 -121 467q0 376 196 635q129 171 312 236q92 32 193 32q166 0 285 -102l144 213l70 -38l-158 -232q146 -181 146 -494q0 -381 -189 -640q-125 -172 -311 -238q-92 -33 -195 -33zM1015 1336q-84 92 -226 92 q-224 0 -377 -236q-93 -144 -128 -345q-15 -89 -15 -140q0 -266 59 -403zM372 226q91 -126 257 -126q227 0 375 234q139 219 139 531q0 257 -78 402z" glyph-name="Oslash" horiz-adv-x="1378" unicode="Ø"/>
<glyph d="M842 1601q-129 79 -250 219q-38 44 -61 83l94 97l273 -349zM409 13q-256 93 -256 425q0 45 12 155l119 937h150l-115 -911q-12 -100 -12 -142.5t0.5 -83t20.5 -100.5t59 -101q80 -86 235 -86q188 0 290 121q107 126 144 413l112 890h147l-114 -903q-45 -347 -194 -499 q-140 -145 -406 -145q-110 0 -192 30z" glyph-name="Ugrave" horiz-adv-x="1360" unicode="Ù"/>
<glyph d="M762 1654l278 346l95 -97q-42 -71 -115 -139q-119 -111 -201 -161zM409 13q-256 93 -256 425q0 45 12 155l119 937h150l-115 -911q-12 -100 -12 -142.5t0.5 -83t20.5 -100.5t59 -101q80 -86 235 -86q188 0 290 121q107 126 144 413l112 890h147l-114 -903 q-45 -347 -194 -499q-140 -145 -406 -145q-110 0 -192 30z" glyph-name="Uacute" horiz-adv-x="1360" unicode="Ú"/>
<glyph d="M409 13q-256 93 -256 425q0 45 12 155l119 937h150l-115 -911q-12 -100 -12 -142.5t0.5 -83t20.5 -100.5t59 -101q80 -86 235 -86q188 0 290 121q107 126 144 413l112 890h147l-114 -903q-45 -347 -194 -499q-140 -145 -406 -145q-110 0 -192 30zM483 1653l340 347h136 l205 -348l-73 -53l-219 265l-330 -270z" glyph-name="Ucircumflex" horiz-adv-x="1360" unicode="Û"/>
<glyph d="M1070.5 1730.5q-20.5 -9.5 -50.5 -9.5t-54.5 26.5t-24.5 61t10.5 56t27.5 37.5q35 33 77 33t65 -25t23 -45t-1 -35t-10.5 -36.5t-25.5 -37.5t-36.5 -25.5zM546 1747.5q-24 26.5 -24 65.5q0 51 37 89q34 33 76 33t65.5 -25.5t23.5 -63.5q0 -51 -37 -90q-34 -35 -75.5 -35 t-65.5 26.5zM409 13q-256 93 -256 425q0 45 12 155l119 937h150l-115 -911q-12 -100 -12 -142.5t0.5 -83t20.5 -100.5t59 -101q80 -86 235 -86q188 0 290 121q107 126 144 413l112 890h147l-114 -903q-45 -347 -194 -499q-140 -145 -406 -145q-110 0 -192 30z" glyph-name="Udieresis" horiz-adv-x="1360" unicode="Ü"/>
<glyph d="M478 585l-373 945h161l261 -710l41 -103l55 102l428 711h162l-592 -945l-75 -585h-144zM629 1654l278 346l95 -97q-42 -71 -115 -139q-119 -111 -201 -161z" glyph-name="Yacute" horiz-adv-x="1083" unicode="Ý"/>
<glyph d="M520 286q-128 0 -212 11l-37 -297h-150l193 1530h150l-33 -264q206 15 245 15q446 0 450 -394v-12q0 -267 -168 -428q-169 -161 -438 -161zM324 419q75 -15 189.5 -14.5t199.5 32.5t143 92q118 124 118 352q0 286 -322 286q-96 0 -236 -20z" glyph-name="Thorn" horiz-adv-x="1195" unicode="Þ"/>
<glyph d="M202 929q35 274 137 437q118 190 328 215q58 7 119 7t118 -18.5t98 -55.5q86 -76 86 -213q0 -156 -133 -289l-64 -65q-69 -71 -69 -123q0 -36 29 -74t51.5 -64t44.5 -56t44.5 -64t40.5 -74q41 -89 41 -173.5t-27.5 -144t-78.5 -102.5q-106 -88 -288 -88q-107 0 -207 34 q-27 10 -43 19l20 144q54 -50 147 -72q33 -8 82.5 -8t96 10.5t77.5 34.5q64 48 64 155q0 110 -97 249q-96 113 -118.5 168.5t-22.5 86.5t7 56.5t19 47.5t28 41l36 41q85 88 113 133q53 86 53 172q0 124 -106 168q-38 16 -87 16t-91 -9.5t-80 -34.5t-72 -67.5t-63 -108.5 q-59 -136 -92 -376l-110 -881h-148z" glyph-name="germandbls" horiz-adv-x="1180" unicode="ß"/>
<glyph d="M514 1123q90 33 193 33t221 -37l113 37l-157 -1156h-131l19 202v3q-100 -145 -256 -201q-55 -20 -126.5 -20t-131.5 31t-100 88q-77 112 -77 312q0 270 151 488q109 156 282 220zM235 433q0 -333 189 -333q112 0 224 97q86 74 143 175l20 185l64 451q-85 38 -172.5 38 t-151 -26.5t-114 -72t-88.5 -106t-63 -128.5q-51 -135 -51 -280zM699 1249q-48 32 -100 80q-151 143 -190.5 193t-53.5 75l115 104l294 -397z" glyph-name="agrave" horiz-adv-x="1130" unicode="à"/>
<glyph d="M514 1123q90 33 193 33t221 -37l113 37l-157 -1156h-131l19 202v3q-100 -145 -256 -201q-55 -20 -126.5 -20t-131.5 31t-100 88q-77 112 -77 312q0 270 151 488q109 156 282 220zM235 433q0 -333 189 -333q112 0 224 97q86 74 143 175l20 185l64 451q-85 38 -172.5 38 t-151 -26.5t-114 -72t-88.5 -106t-63 -128.5q-51 -135 -51 -280zM617 1304l308 400l115 -104q-21 -36 -67 -86l-82 -87q-123 -125 -211 -178z" glyph-name="aacute" horiz-adv-x="1130" unicode="á"/>
<glyph d="M514 1123q90 33 193 33t221 -37l113 37l-157 -1156h-131l19 202v3q-100 -145 -256 -201q-55 -20 -126.5 -20t-131.5 31t-100 88q-77 112 -77 312q0 270 151 488q109 156 282 220zM235 433q0 -333 189 -333q112 0 224 97q86 74 143 175l20 185l64 451q-85 38 -172.5 38 t-151 -26.5t-114 -72t-88.5 -106t-63 -128.5q-51 -135 -51 -280zM357 1274l343 376h137l203 -377l-73 -53l-218 294l-333 -299z" glyph-name="acircumflex" horiz-adv-x="1130" unicode="â"/>
<glyph d="M514 1123q90 33 193 33t221 -37l113 37l-157 -1156h-131l19 202v3q-100 -145 -256 -201q-55 -20 -126.5 -20t-131.5 31t-100 88q-77 112 -77 312q0 270 151 488q109 156 282 220zM235 433q0 -333 189 -333q112 0 224 97q86 74 143 175l20 185l64 451q-85 38 -172.5 38 t-151 -26.5t-114 -72t-88.5 -106t-63 -128.5q-51 -135 -51 -280zM337 1481q54 104 184 151q40 15 87 15t83.5 -22.5t66 -49.5t57.5 -49.5t61.5 -22.5t57 12t42 29.5t32.5 37.5l27 38l66 -70q-24 -69 -97 -120q-75 -51 -153 -51q-66 0 -103.5 26.5t-56.5 45t-39 35.5 q-112 95 -218 -35l-29 -35z" glyph-name="atilde" horiz-adv-x="1130" unicode="ã"/>
<glyph d="M514 1123q90 33 193 33t221 -37l113 37l-157 -1156h-131l19 202v3q-100 -145 -256 -201q-55 -20 -126.5 -20t-131.5 31t-100 88q-77 112 -77 312q0 270 151 488q109 156 282 220zM235 433q0 -333 189 -333q112 0 224 97q86 74 143 175l20 185l64 451q-85 38 -172.5 38 t-151 -26.5t-114 -72t-88.5 -106t-63 -128.5q-51 -135 -51 -280zM866 1436q-24 26 -24 63q0 83 71 115q20 9 52.5 9t56 -25.5t23.5 -62.5q0 -54 -37 -91q-34 -34 -76 -34t-66 26zM445 1436q-24 26 -24 63q0 83 71 115q20 9 52.5 9t56 -25.5t23.5 -62.5q0 -54 -37 -91 q-34 -34 -76 -34t-66 26z" glyph-name="adieresis" horiz-adv-x="1130" unicode="ä"/>
<glyph d="M514 1123q90 33 193 33t221 -37l113 37l-157 -1156h-131l19 202v3q-100 -145 -256 -201q-55 -20 -126.5 -20t-131.5 31t-100 88q-77 112 -77 312q0 270 151 488q109 156 282 220zM235 433q0 -333 189 -333q112 0 224 97q86 74 143 175l20 185l64 451q-85 38 -172.5 38 t-151 -26.5t-114 -72t-88.5 -106t-63 -128.5q-51 -135 -51 -280zM528.5 1323q-72.5 65 -72.5 182q0 131 111 209q97 67 231 67q192 0 251 -145q19 -46 19 -110.5t-27.5 -116t-73.5 -85.5q-93 -66 -229.5 -66t-209 65zM668 1353q33 -12 74 -12t80.5 9.5t69.5 33.5 q67 52 67 160q0 69 -46.5 111t-126.5 42q-147 0 -203 -103q-20 -38 -20 -83t13 -74t36 -50.5t56 -33.5z" glyph-name="aring" horiz-adv-x="1130" unicode="å"/>
<glyph d="M703 265q-146 -281 -345 -281q-277 0 -277 431q0 270 151 488q109 156 282 220q90 33 221.5 33t262.5 -78q123 78 275 78q205 0 262 -152q17 -45 17 -113t-36.5 -133.5t-96.5 -116t-136.5 -86.5t-155.5 -60q-147 -45 -287 -52q-1 -15 -1 -44t8 -82t35 -103 q63 -112 207 -112q181 0 348 171l43 -87q-50 -71 -153 -130q-124 -72 -255 -72q-222 0 -323 171q-30 51 -46 110zM235 433q0 -333 156 -333q140 0 293 282q-12 183 58 368q52 140 149 241q-97 55 -186.5 55t-153 -26.5t-114 -72t-88.5 -106t-63 -128.5q-51 -135 -51 -280z M845 550q194 7 363 96q195 101 195 249t-160.5 148t-271 -153.5t-126.5 -339.5z" glyph-name="ae" horiz-adv-x="1624" unicode="æ"/>
<glyph d="M160 -321q33 -18 88 -18q170 0 170 193q0 81 -9 133q-155 18 -239 135q-81 115 -81 311q0 264 145 479q101 151 256 212q79 32 140 32t90.5 -2.5t58.5 -7.5q67 -12 104 -31l-39 -128q-72 57 -173.5 57t-176 -48t-130.5 -130q-123 -179 -123 -418q0 -350 242 -350 q85 0 153 41t133 106l50 -82q-74 -96 -195 -147q-48 -20 -104 -28q29 -66 29 -158t-21 -146.5t-57 -87.5q-67 -61 -185 -61q-107 0 -146 29z" glyph-name="ccedilla" horiz-adv-x="911" unicode="ç"/>
<glyph d="M495 102q180 0 348 170l43 -86q-50 -71 -153 -130q-124 -72 -243.5 -72t-194.5 40q-206 109 -206 401q0 153 46.5 289.5t123.5 233.5q168 208 420 208q205 0 262 -152q17 -45 17 -113t-36.5 -133.5t-96.5 -116t-136.5 -86.5t-155.5 -60q-147 -45 -287 -52 q-1 -15 -1 -44.5t7.5 -82t35.5 -102.5q64 -112 207 -112zM251 550q194 7 364 96q194 101 194 249t-160 148t-271 -154.5t-127 -338.5zM631 1249q-48 32 -100 80q-151 143 -190.5 193t-53.5 75l115 104l294 -397z" glyph-name="egrave" horiz-adv-x="1031" unicode="è"/>
<glyph d="M549 1304l308 400l115 -104q-21 -36 -67 -86l-82 -87q-123 -125 -211 -178zM495 102q180 0 348 170l43 -86q-50 -71 -153 -130q-124 -72 -243.5 -72t-194.5 40q-206 109 -206 401q0 153 46.5 289.5t123.5 233.5q168 208 420 208q205 0 262 -152q17 -45 17 -113 t-36.5 -133.5t-96.5 -116t-136.5 -86.5t-155.5 -60q-147 -45 -287 -52q-1 -15 -1 -44.5t7.5 -82t35.5 -102.5q64 -112 207 -112zM251 550q194 7 364 96q194 101 194 249t-160 148t-271 -154.5t-127 -338.5z" glyph-name="eacute" horiz-adv-x="1031" unicode="é"/>
<glyph d="M290 1274l343 376h137l203 -377l-73 -53l-218 294l-333 -299zM495 102q180 0 348 170l43 -86q-50 -71 -153 -130q-124 -72 -243.5 -72t-194.5 40q-206 109 -206 401q0 153 46.5 289.5t123.5 233.5q168 208 420 208q205 0 262 -152q17 -45 17 -113t-36.5 -133.5 t-96.5 -116t-136.5 -86.5t-155.5 -60q-147 -45 -287 -52q-1 -15 -1 -44.5t7.5 -82t35.5 -102.5q64 -112 207 -112zM251 550q194 7 364 96q194 101 194 249t-160 148t-271 -154.5t-127 -338.5z" glyph-name="ecircumflex" horiz-adv-x="1031" unicode="ê"/>
<glyph d="M799 1436q-24 26 -24 63q0 83 71 115q20 9 52.5 9t56 -25.5t23.5 -62.5q0 -54 -37 -91q-34 -34 -76 -34t-66 26zM378 1436q-24 26 -24 63q0 83 71 115q20 9 52.5 9t56 -25.5t23.5 -62.5q0 -54 -37 -91q-34 -34 -76 -34t-66 26zM495 102q180 0 348 170l43 -86 q-50 -71 -153 -130q-124 -72 -243.5 -72t-194.5 40q-206 109 -206 401q0 153 46.5 289.5t123.5 233.5q168 208 420 208q205 0 262 -152q17 -45 17 -113t-36.5 -133.5t-96.5 -116t-136.5 -86.5t-155.5 -60q-147 -45 -287 -52q-1 -15 -1 -44.5t7.5 -82t35.5 -102.5 q64 -112 207 -112zM251 550q194 7 364 96q194 101 194 249t-160 148t-271 -154.5t-127 -338.5z" glyph-name="edieresis" horiz-adv-x="1031" unicode="ë"/>
<glyph d="M287 1144h149l-155 -1144h-148zM383 1249q-48 32 -100 80q-151 143 -190.5 193t-53.5 75l115 104l294 -397z" glyph-name="igrave" horiz-adv-x="564" unicode="ì"/>
<glyph d="M300 1304l308 400l115 -104q-21 -36 -67 -86l-82 -87q-123 -125 -211 -178zM287 1144h149l-155 -1144h-148z" glyph-name="iacute" horiz-adv-x="564" unicode="í"/>
<glyph d="M41 1274l343 376h137l203 -377l-73 -53l-218 294l-333 -299zM287 1144h149l-155 -1144h-148z" glyph-name="icircumflex" horiz-adv-x="564" unicode="î"/>
<glyph d="M549 1436q-24 26 -24 63q0 83 71 115q20 9 52.5 9t56 -25.5t23.5 -62.5q0 -54 -37 -91q-34 -34 -76 -34t-66 26zM128 1436q-24 26 -24 63q0 83 71 115q20 9 52.5 9t56 -25.5t23.5 -62.5q0 -54 -37 -91q-34 -34 -76 -34t-66 26zM287 1144h149l-155 -1144h-148z" glyph-name="idieresis" horiz-adv-x="564" unicode="ï"/>
<glyph d="M382 1769q133 -33 291 -137l158 184l76 -69l-152 -175l7 -6q303 -282 303 -698q0 -374 -147 -622q-100 -166 -256 -230q-79 -33 -177 -33t-173 41t-124 106q-99 129 -99 302.5t47 307t124.5 226t177.5 141t207 48.5q139 0 228 -63q30 -22 48 -51q-22 147 -65 225 q-69 126 -176 221l-160 -179l-82 68l163 172q-146 104 -253 129zM275 659.5q-26 -111.5 -26 -204t17 -154t50 -109.5q73 -104 194 -104q142 0 250 154q103 148 134 373q3 29 7 61q12 101 12 128.5t-1.5 41t-18.5 49t-50 69.5q-81 83 -188.5 83t-180 -52t-123 -138 t-76.5 -197.5z" glyph-name="eth" horiz-adv-x="1162" unicode="ð"/>
<glyph d="M247 1140h141l-29 -265q149 190 341 258q65 23 130 23q123 0 176.5 -70t53.5 -209v-17t-3.5 -54t-9.5 -85.5t-13 -99.5l-16 -108q-6 -44 -16 -111l-61 -399h-149q9 73 20 141.5t18 117.5t14 95l14 86l26 173q25 171 25 250t-30.5 115.5t-95 36.5t-123 -25.5t-116.5 -68.5 q-121 -87 -206 -208l-97 -713h-148zM293 1481q54 104 184 151q40 15 87 15t83.5 -22.5t66 -49.5t57.5 -49.5t61.5 -22.5t57 12t42 29.5t32.5 37.5l27 38l66 -70q-24 -69 -97 -120q-75 -51 -153 -51q-66 0 -103.5 26.5t-56.5 45t-39 35.5q-112 95 -218 -35l-29 -35z" glyph-name="ntilde" horiz-adv-x="1194" unicode="ñ"/>
<glyph d="M316 15q-219 96 -219 447q0 269 153 474q103 138 251 192q74 28 162.5 28t158 -31t115.5 -90q97 -123 97 -349q0 -276 -150 -481q-162 -221 -404 -221q-93 0 -164 31zM251 459q0 -362 253 -362q176 0 283 197q91 171 91 387q0 363 -244 363q-179 0 -289 -198 q-94 -172 -94 -387zM653 1249q-48 32 -100 80q-151 143 -190.5 193t-53.5 75l115 104l294 -397z" glyph-name="ograve" horiz-adv-x="1135" unicode="ò"/>
<glyph d="M571 1304l308 400l115 -104q-21 -36 -67 -86l-82 -87q-123 -125 -211 -178zM316 15q-219 96 -219 447q0 269 153 474q103 138 251 192q74 28 162.5 28t158 -31t115.5 -90q97 -123 97 -349q0 -276 -150 -481q-162 -221 -404 -221q-93 0 -164 31zM251 459q0 -362 253 -362 q176 0 283 197q91 171 91 387q0 363 -244 363q-179 0 -289 -198q-94 -172 -94 -387z" glyph-name="oacute" horiz-adv-x="1135" unicode="ó"/>
<glyph d="M311 1274l343 376h137l203 -377l-73 -53l-218 294l-333 -299zM316 15q-219 96 -219 447q0 269 153 474q103 138 251 192q74 28 162.5 28t158 -31t115.5 -90q97 -123 97 -349q0 -276 -150 -481q-162 -221 -404 -221q-93 0 -164 31zM251 459q0 -362 253 -362q176 0 283 197 q91 171 91 387q0 363 -244 363q-179 0 -289 -198q-94 -172 -94 -387z" glyph-name="ocircumflex" horiz-adv-x="1135" unicode="ô"/>
<glyph d="M316 15q-219 96 -219 447q0 269 153 474q103 138 251 192q74 28 162.5 28t158 -31t115.5 -90q97 -123 97 -349q0 -276 -150 -481q-162 -221 -404 -221q-93 0 -164 31zM251 459q0 -362 253 -362q176 0 283 197q91 171 91 387q0 363 -244 363q-179 0 -289 -198 q-94 -172 -94 -387zM290 1481q54 104 184 151q40 15 87 15t83.5 -22.5t66 -49.5t57.5 -49.5t61.5 -22.5t57 12t42 29.5t32.5 37.5l27 38l66 -70q-24 -69 -97 -120q-75 -51 -153 -51q-66 0 -103.5 26.5t-56.5 45t-39 35.5q-112 95 -218 -35l-29 -35z" glyph-name="otilde" horiz-adv-x="1135" unicode="õ"/>
<glyph d="M820 1436q-24 26 -24 63q0 83 71 115q20 9 52.5 9t56 -25.5t23.5 -62.5q0 -54 -37 -91q-34 -34 -76 -34t-66 26zM399 1436q-24 26 -24 63q0 83 71 115q20 9 52.5 9t56 -25.5t23.5 -62.5q0 -54 -37 -91q-34 -34 -76 -34t-66 26zM316 15q-219 96 -219 447q0 269 153 474 q103 138 251 192q74 28 162.5 28t158 -31t115.5 -90q97 -123 97 -349q0 -276 -150 -481q-162 -221 -404 -221q-93 0 -164 31zM251 459q0 -362 253 -362q176 0 283 197q91 171 91 387q0 363 -244 363q-179 0 -289 -198q-94 -172 -94 -387z" glyph-name="odieresis" horiz-adv-x="1135" unicode="ö"/>
<glyph d="M759 1270q91 0 91 -82q0 -66 -48 -106q-38 -32 -72 -32t-52 6.5t-31 19.5q-28 28 -23.5 65.5t17.5 59t32 37.5q40 32 86 32zM257 836h869l-14 -122h-869zM664 497q90 0 90 -82q0 -65 -48 -107q-37 -31 -71.5 -31t-52.5 7q-53 19 -53 79q0 62 49 101q40 33 86 33z" glyph-name="divide" horiz-adv-x="1338" unicode="÷"/>
<glyph d="M481 -14q-142 0 -237 74l-128 -186l-69 38l142 206q-91 122 -91 346q0 269 153 474q103 138 251 192q74 28 171 28t183 -48l131 188l69 -38l-138 -199q117 -123 117 -373q0 -276 -150 -481q-162 -221 -404 -221zM774 1003q-55 43 -128.5 43t-127 -25.5t-96.5 -69.5 t-76 -103q-94 -172 -94 -387q0 -129 34 -214zM330 172q64 -73 175 -73q176 0 283 197q91 171 91 387q0 167 -52 257z" glyph-name="oslash" horiz-adv-x="1134" unicode="ø"/>
<glyph d="M129 134q-16 54 -16 104t2 80t6 65q18 154 26 216l77 541h149l-73 -528q-7 -46 -14 -100q-21 -162 -21 -224t10.5 -94t30.5 -50q35 -33 99.5 -33t120 26t109.5 69q111 87 191 209l95 725h149l-152 -1140h-138l29 262q-136 -191 -317 -258q-61 -23 -124 -23 q-194 0 -239 153zM656 1249q-48 32 -100 80q-151 143 -190.5 193t-53.5 75l115 104l294 -397z" glyph-name="ugrave" horiz-adv-x="1173" unicode="ù"/>
<glyph d="M574 1304l308 400l115 -104q-21 -36 -67 -86l-82 -87q-123 -125 -211 -178zM129 134q-16 54 -16 104t2 80t6 65q18 154 26 216l77 541h149l-73 -528q-7 -46 -14 -100q-21 -162 -21 -224t10.5 -94t30.5 -50q35 -33 99.5 -33t120 26t109.5 69q111 87 191 209l95 725h149 l-152 -1140h-138l29 262q-136 -191 -317 -258q-61 -23 -124 -23q-194 0 -239 153z" glyph-name="uacute" horiz-adv-x="1173" unicode="ú"/>
<glyph d="M314 1274l343 376h137l203 -377l-73 -53l-218 294l-333 -299zM129 134q-16 54 -16 104t2 80t6 65q18 154 26 216l77 541h149l-73 -528q-7 -46 -14 -100q-21 -162 -21 -224t10.5 -94t30.5 -50q35 -33 99.5 -33t120 26t109.5 69q111 87 191 209l95 725h149l-152 -1140h-138 l29 262q-136 -191 -317 -258q-61 -23 -124 -23q-194 0 -239 153z" glyph-name="ucircumflex" horiz-adv-x="1173" unicode="û"/>
<glyph d="M823 1436q-24 26 -24 63q0 83 71 115q20 9 52.5 9t56 -25.5t23.5 -62.5q0 -54 -37 -91q-34 -34 -76 -34t-66 26zM402 1436q-24 26 -24 63q0 83 71 115q20 9 52.5 9t56 -25.5t23.5 -62.5q0 -54 -37 -91q-34 -34 -76 -34t-66 26zM129 134q-16 54 -16 104t2 80t6 65 q18 154 26 216l77 541h149l-73 -528q-7 -46 -14 -100q-21 -162 -21 -224t10.5 -94t30.5 -50q35 -33 99.5 -33t120 26t109.5 69q111 87 191 209l95 725h149l-152 -1140h-138l29 262q-136 -191 -317 -258q-61 -23 -124 -23q-194 0 -239 153z" glyph-name="udieresis" horiz-adv-x="1173" unicode="ü"/>
<glyph d="M982 1140q4 -31 4 -65.5t-3.5 -99.5t-28 -167.5t-61.5 -204.5q-70 -192 -176 -387q-81 -144 -121 -205l-74 -111q-35 -49 -70 -92l-81 -98q-105 -122 -247 -180q-77 -32 -145 -32q-103 0 -179 30l43 124q7 -3 18 -8.5t27 -11.5q36 -12 86.5 -12t100.5 16t102 54 q106 76 228 254h-93l-62 355l-127 841h164l109 -841l43 -301l109 186q143 243 207 438.5t78 382.5q4 81 2 135h147zM470 1304l308 400l115 -104q-21 -36 -67 -86l-82 -87q-123 -125 -211 -178z" glyph-name="yacute" horiz-adv-x="1048" unicode="ý"/>
<glyph d="M619 17q-90 -33 -183 -33t-194 24l-77 -524h-145l75 518l218 1635h141l-58 -490l-35 -208q102 143 261 197q57 20 129 20t132 -31.5t99 -88.5q78 -112 78 -313q0 -268 -156 -487q-109 -155 -285 -219zM906 706q0 334 -190 334q-110 0 -222 -90q-85 -68 -147 -166 l-88 -655q80 -35 171 -35t155.5 27.5t116 74t90 108t64.5 129.5q50 135 50 273z" glyph-name="thorn" horiz-adv-x="1159" unicode="þ"/>
<glyph d="M982 1140q4 -31 4 -65.5t-3.5 -99.5t-28 -167.5t-61.5 -204.5q-70 -192 -176 -387q-81 -144 -121 -205l-74 -111q-35 -49 -70 -92l-81 -98q-105 -122 -247 -180q-77 -32 -145 -32q-103 0 -179 30l43 124q7 -3 18 -8.5t27 -11.5q36 -12 86.5 -12t100.5 16t102 54 q106 76 228 254h-93l-62 355l-127 841h164l109 -841l43 -301l109 186q143 243 207 438.5t78 382.5q4 81 2 135h147zM720 1436q-24 26 -24 63q0 83 71 115q20 9 52.5 9t56 -25.5t23.5 -62.5q0 -54 -37 -91q-34 -34 -76 -34t-66 26zM299 1436q-24 26 -24 63q0 83 71 115 q20 9 52.5 9t56 -25.5t23.5 -62.5q0 -54 -37 -91q-34 -34 -76 -34t-66 26z" glyph-name="ydieresis" horiz-adv-x="1048" unicode="ÿ"/>
<glyph d="M695 1530h168l289 -1530h-150l-76 431h-614l-201 -431h-161zM906 546l-129 734l-15 115l-396 -849h540zM530 1862h510l-5 -114h-509z" glyph-name="Amacron" horiz-adv-x="1265" unicode="Ā"/>
<glyph d="M514 1123q90 33 193 33t221 -37l113 37l-157 -1156h-131l19 202v3q-100 -145 -256 -201q-55 -20 -126.5 -20t-131.5 31t-100 88q-77 112 -77 312q0 270 151 488q109 156 282 220zM235 433q0 -333 189 -333q112 0 224 97q86 74 143 175l20 185l64 451q-85 38 -172.5 38 t-151 -26.5t-114 -72t-88.5 -106t-63 -128.5q-51 -135 -51 -280zM446 1548h510l-5 -114h-509z" glyph-name="amacron" horiz-adv-x="1130" unicode="ā"/>
<glyph d="M695 1530h168l289 -1530h-150l-76 431h-614l-201 -431h-161zM906 546l-129 734l-15 115l-396 -849h540zM932 1665q-59 -28 -133.5 -28t-130.5 28t-92 73q-70 88 -70 221v11q0 5 1 10h103q0 -18 3.5 -42t15.5 -59.5t35 -64.5q50 -65 143 -65q99 0 165 84q48 62 64 147h101 v-11t-4 -41.5t-30 -90t-69 -100t-102 -72.5z" glyph-name="Abreve" horiz-adv-x="1265" unicode="Ă"/>
<glyph d="M514 1123q90 33 193 33t221 -37l113 37l-157 -1156h-131l19 202v3q-100 -145 -256 -201q-55 -20 -126.5 -20t-131.5 31t-100 88q-77 112 -77 312q0 270 151 488q109 156 282 220zM235 433q0 -333 189 -333q112 0 224 97q86 74 143 175l20 185l64 451q-85 38 -172.5 38 t-151 -26.5t-114 -72t-88.5 -106t-63 -128.5q-51 -135 -51 -280zM842 1333q-59 -28 -133.5 -28t-130.5 28t-92 73q-70 88 -70 221v11q0 5 1 10h103q0 -18 3.5 -42t15.5 -59.5t35 -64.5q50 -65 143 -65q99 0 165 84q48 62 64 147h101v-11t-4 -41.5t-30 -90t-69 -100 t-102 -72.5z" glyph-name="abreve" horiz-adv-x="1130" unicode="ă"/>
<glyph d="M742 -287q0 146 260 288l-76 430h-614l-201 -431h-161l745 1530h168l289 -1530h-28l-70 -47q-164 -109 -164 -195q0 -39 25 -59.5t63 -20.5q83 0 158 58l40 -78q-114 -94 -246 -94q-93 0 -146 52q-42 43 -42 97zM906 546l-129 734l-15 115l-396 -849h540z" glyph-name="Aogonek" horiz-adv-x="1265" unicode="Ą"/>
<glyph d="M937 -341q-107 -94 -247 -94q-94 0 -145 53q-42 42 -42 95t28.5 98t68.5 81q56 51 165 110l19 200v3q-100 -145 -256 -201q-55 -20 -126.5 -20t-131.5 31t-100 88q-77 112 -77 312q0 270 151 488q109 156 282 220q90 33 193 33t221 -37l113 37l-157 -1156h-12l-70 -47 q-163 -110 -163 -195q0 -39 25 -59.5t63 -20.5q83 0 158 59zM247 433q0 -333 189 -333q112 0 224 97q86 74 143 175l20 185l64 451q-85 38 -173 38t-151 -26.5t-113.5 -72t-88.5 -106t-63 -128.5q-51 -135 -51 -280z" glyph-name="aogonek" horiz-adv-x="1152" unicode="ą"/>
<glyph d="M1037 83q-158 -98 -416 -98q-264 0 -397 205q-115 177 -115 467q0 247 90 452q90 204 256 321q165 116 368 116q124 0 220 -30l103 -32l-53 -126l-38 18q-96 44 -216 44t-199.5 -33.5t-142 -91t-107.5 -133.5q-127 -217 -127 -497q0 -388 212 -517q72 -43 153.5 -43 t138.5 11t105 28q92 31 142 67zM759 1654l278 346l95 -97q-42 -71 -115 -139q-119 -111 -201 -161z" glyph-name="Cacute" horiz-adv-x="1141" unicode="Ć"/>
<glyph d="M565 1304l308 400l115 -104q-21 -36 -67 -86l-82 -87q-123 -125 -211 -178zM241 448q0 -350 242 -350q85 0 153 41t133 106l50 -82q-86 -113 -233 -161q-58 -18 -137 -18t-148.5 31t-116.5 89q-95 117 -95 329q0 264 145 479q101 151 256 212q79 32 140 32t90.5 -2.5 t58.5 -7.5q67 -12 104 -31l-39 -128q-72 57 -173.5 57t-176 -48t-130.5 -130q-123 -179 -123 -418z" glyph-name="cacute" horiz-adv-x="911" unicode="ć"/>
<glyph d="M1037 83q-158 -98 -416 -98q-264 0 -397 205q-115 177 -115 467q0 247 90 452q90 204 256 321q165 116 368 116q124 0 220 -30l103 -32l-53 -126l-38 18q-96 44 -216 44t-199.5 -33.5t-142 -91t-107.5 -133.5q-127 -217 -127 -497q0 -388 212 -517q72 -43 153.5 -43 t138.5 11t105 28q92 31 142 67zM480 1653l340 347h136l205 -348l-73 -53l-219 265l-330 -270z" glyph-name="Ccircumflex" horiz-adv-x="1141" unicode="Ĉ"/>
<glyph d="M305 1274l343 376h137l203 -377l-73 -53l-218 294l-333 -299zM241 448q0 -350 242 -350q85 0 153 41t133 106l50 -82q-86 -113 -233 -161q-58 -18 -137 -18t-148.5 31t-116.5 89q-95 117 -95 329q0 264 145 479q101 151 256 212q79 32 140 32t90.5 -2.5t58.5 -7.5 q67 -12 104 -31l-39 -128q-72 57 -173.5 57t-176 -48t-130.5 -130q-123 -179 -123 -418z" glyph-name="ccircumflex" horiz-adv-x="911" unicode="ĉ"/>
<glyph d="M753.5 1733q-23.5 26 -23.5 63q0 81 72 115q19 9 51 9t55 -25.5t23 -63.5q0 -53 -37 -90q-34 -34 -75.5 -34t-65 26zM1037 83q-158 -98 -416 -98q-264 0 -397 205q-115 177 -115 467q0 247 90 452q90 204 256 321q165 116 368 116q124 0 220 -30l103 -32l-53 -126l-38 18 q-96 44 -216 44t-199.5 -33.5t-142 -91t-107.5 -133.5q-127 -217 -127 -497q0 -388 212 -517q72 -43 153.5 -43t138.5 11t105 28q92 31 142 67z" glyph-name="Cdotaccent" horiz-adv-x="1141" unicode="Ċ"/>
<glyph d="M241 448q0 -350 242 -350q85 0 153 41t133 106l50 -82q-86 -113 -233 -161q-58 -18 -137 -18t-148.5 31t-116.5 89q-95 117 -95 329q0 264 145 479q101 151 256 212q79 32 140 32t90.5 -2.5t58.5 -7.5q67 -12 104 -31l-39 -128q-72 57 -173.5 57t-176 -48t-130.5 -130 q-123 -179 -123 -418zM709 1436q-20 -10 -41 -10t-37 8q-51 23 -51 81q0 5 0.5 19.5t10 35.5t24.5 36q34 34 77.5 34t67 -25.5t23.5 -62.5q0 -82 -74 -116z" glyph-name="cdotaccent" horiz-adv-x="911" unicode="ċ"/>
<glyph d="M1037 83q-158 -98 -416 -98q-264 0 -397 205q-115 177 -115 467q0 247 90 452q90 204 256 321q165 116 368 116q124 0 220 -30l103 -32l-53 -126l-38 18q-96 44 -216 44t-199.5 -33.5t-142 -91t-107.5 -133.5q-127 -217 -127 -497q0 -388 212 -517q72 -43 153.5 -43 t138.5 11t105 28q92 31 142 67zM494 1933l67 67l244 -270l321 270l63 -67l-322 -319h-135z" glyph-name="Ccaron" horiz-adv-x="1141" unicode="Č"/>
<glyph d="M343 1583l67 67l249 -279l333 279l63 -67l-335 -328h-135zM241 448q0 -350 242 -350q85 0 153 41t133 106l50 -82q-86 -113 -233 -161q-58 -18 -137 -18t-148.5 31t-116.5 89q-95 117 -95 329q0 264 145 479q101 151 256 212q79 32 140 32t90.5 -2.5t58.5 -7.5 q67 -12 104 -31l-39 -128q-72 57 -173.5 57t-176 -48t-130.5 -130q-123 -179 -123 -418z" glyph-name="ccaron" horiz-adv-x="911" unicode="č"/>
<glyph d="M455 1933l67 67l244 -270l321 270l63 -67l-322 -319h-135zM401 1530l321 16q292 0 438 -173q138 -162 138 -471q0 -389 -210 -652q-139 -175 -345 -238q-95 -28 -201 -28q-27 0 -44 1l-62 4q-35 2 -66.5 4.5t-61.5 3.5l-60 2q-29 1 -50 1h-77l193 1530h87zM287 125 q158 -26 209.5 -26h61.5q185 4 326 125q126 108 196 300q62 171 62 374q0 283 -110 410q-107 126 -353 126q-73 0 -140 -8l-90 -11z" glyph-name="Dcaron" horiz-adv-x="1377" unicode="Ď"/>
<glyph d="M520 1123q89 33 185 33t191 -25l70 506h148l-224 -1637h-132l20 208q-104 -149 -261 -204q-57 -20 -129 -20t-132 31.5t-100 88.5q-77 112 -77 312q0 269 155 488q110 154 286 219zM233 434q0 -334 190 -334q109 0 221 92q85 71 147 171l89 648q-83 36 -172.5 36 t-154 -27.5t-116 -74.5t-90 -108.5t-63.5 -129.5q-51 -135 -51 -273zM1408 1659q29 -56 29 -189q0 -192 -80 -366q-23 -49 -49 -87l-78 30l-4 20q71 196 71 341.5t-29 190.5l7 25z" glyph-name="dcaron" horiz-adv-x="1429" unicode="ď"/>
<glyph d="M401 1531l321 16q292 0 438 -173q138 -162 138 -471q0 -389 -210 -652q-139 -175 -345 -237q-95 -29 -201 -29q-27 0 -44 1l-62 4q-35 2 -66.5 4.5t-61.5 3.5l-60 2q-29 1 -50 1h-77l92 732h-160l12 100h161l88 698h87zM287 126q158 -26 209.5 -26h61.5q185 4 326 126 q126 107 196 299q62 171 62 374q0 283 -110 411q-107 125 -353 125q-73 0 -140 -8l-90 -11l-74 -583h429l-12 -100h-429z" glyph-name="Dcroat" horiz-adv-x="1376" unicode="Đ"/>
<glyph d="M520 1123q89 33 185 33t191 -25l22 161h-289l13 100h290l34 245h148l-34 -245h144l-13 -100h-144l-177 -1292h-132l20 208q-104 -149 -261 -204q-57 -20 -129 -20t-132 31.5t-100 88.5q-77 112 -77 312q0 269 155 488q110 154 286 219zM233 434q0 -334 190 -334 q109 0 221 92q85 71 147 171l89 648q-83 36 -172.5 36t-154 -27.5t-116 -74.5t-90 -108.5t-63.5 -129.5q-51 -135 -51 -273z" glyph-name="dcroat" horiz-adv-x="1149" unicode="đ"/>
<glyph d="M447 1862h510l-5 -114h-509zM314 1530h756l-6 -120l-614 7l-73 -579l474 6l-9 -127l-479 11l-78 -614l737 13l-11 -127h-890z" glyph-name="Emacron" horiz-adv-x="1138" unicode="Ē"/>
<glyph d="M495 102q180 0 348 170l43 -86q-50 -71 -153 -130q-124 -72 -243.5 -72t-194.5 40q-206 109 -206 401q0 153 46.5 289.5t123.5 233.5q168 208 420 208q205 0 262 -152q17 -45 17 -113t-36.5 -133.5t-96.5 -116t-136.5 -86.5t-155.5 -60q-147 -45 -287 -52 q-1 -15 -1 -44.5t7.5 -82t35.5 -102.5q64 -112 207 -112zM251 550q194 7 364 96q194 101 194 249t-160 148t-271 -154.5t-127 -338.5zM379 1548h510l-5 -114h-509z" glyph-name="emacron" horiz-adv-x="1031" unicode="ē"/>
<glyph d="M850 1665q-59 -28 -133.5 -28t-130.5 28t-92 73q-70 88 -70 221v11q0 5 1 10h103q0 -18 3.5 -42t15.5 -59.5t35 -64.5q50 -65 143 -65q99 0 165 84q48 62 64 147h101v-11t-4 -41.5t-30 -90t-69 -100t-102 -72.5zM314 1530h756l-6 -120l-614 7l-73 -579l474 6l-9 -127 l-479 11l-78 -614l737 13l-11 -127h-890z" glyph-name="Ebreve" horiz-adv-x="1138" unicode="Ĕ"/>
<glyph d="M495 102q180 0 348 170l43 -86q-50 -71 -153 -130q-124 -72 -243.5 -72t-194.5 40q-206 109 -206 401q0 153 46.5 289.5t123.5 233.5q168 208 420 208q205 0 262 -152q17 -45 17 -113t-36.5 -133.5t-96.5 -116t-136.5 -86.5t-155.5 -60q-147 -45 -287 -52 q-1 -15 -1 -44.5t7.5 -82t35.5 -102.5q64 -112 207 -112zM251 550q194 7 364 96q194 101 194 249t-160 148t-271 -154.5t-127 -338.5zM775 1333q-59 -28 -133.5 -28t-130.5 28t-92 73q-70 88 -70 221v11q0 5 1 10h103q0 -18 3.5 -42t15.5 -59.5t35 -64.5q50 -65 143 -65 q99 0 165 84q48 62 64 147h101v-11t-4 -41.5t-30 -90t-69 -100t-102 -72.5z" glyph-name="ebreve" horiz-adv-x="1031" unicode="ĕ"/>
<glyph d="M652.5 1733q-23.5 26 -23.5 63q0 81 72 115q19 9 51 9t55 -25.5t23 -63.5q0 -53 -37 -90q-34 -34 -75.5 -34t-65 26zM314 1530h756l-6 -120l-614 7l-73 -579l474 6l-9 -127l-479 11l-78 -614l737 13l-11 -127h-890z" glyph-name="Edotaccent" horiz-adv-x="1138" unicode="Ė"/>
<glyph d="M495 102q180 0 348 170l43 -86q-50 -71 -153 -130q-124 -72 -243.5 -72t-194.5 40q-206 109 -206 401q0 153 46.5 289.5t123.5 233.5q168 208 420 208q205 0 262 -152q17 -45 17 -113t-36.5 -133.5t-96.5 -116t-136.5 -86.5t-155.5 -60q-147 -45 -287 -52 q-1 -15 -1 -44.5t7.5 -82t35.5 -102.5q64 -112 207 -112zM251 550q194 7 364 96q194 101 194 249t-160 148t-271 -154.5t-127 -338.5zM694 1436q-20 -10 -41 -10t-37 8q-51 23 -51 81q0 5 0.5 19.5t10 35.5t24.5 36q34 34 77.5 34t67 -25.5t23.5 -62.5q0 -82 -74 -116z" glyph-name="edotaccent" horiz-adv-x="1031" unicode="ė"/>
<glyph d="M994 -342q-114 -94 -246 -94q-93 0 -146 52q-42 43 -42 96t28.5 97t69.5 81q55 49 165 110h-702l193 1530h756l-6 -120l-614 7l-73 -579l474 6l-9 -127l-479 11l-78 -614l737 13l-11 -127h-64l-71 -47q-168 -111 -168 -195q0 -39 25 -59.5t63 -20.5q84 0 159 58z" glyph-name="Eogonek" horiz-adv-x="1138" unicode="Ę"/>
<glyph d="M606 2q-67 -18 -151.5 -18t-159.5 40q-206 109 -206 401q0 153 46.5 289.5t123.5 233.5q168 208 420 208q205 0 262 -152q17 -45 17 -113t-36.5 -133.5t-96.5 -116t-136.5 -86.5t-155.5 -60q-147 -45 -287 -52q-1 -15 -1 -44.5t7.5 -82t35.5 -102.5q64 -112 207 -112 q180 0 348 170l43 -86q-22 -32 -63 -67l4 2q-15 -15 -44 -41q-150 -136 -193 -185q-82 -95 -82 -135.5t25 -61t63 -20.5q83 0 158 59l40 -78q-107 -94 -246 -94q-93 0 -145 53q-43 42 -43 91.5t25.5 91.5t63.5 79q60 61 157 122zM251 550q194 7 364 96q194 101 194 249 t-160 148t-271 -154.5t-127 -338.5z" glyph-name="eogonek" horiz-adv-x="1042" unicode="ę"/>
<glyph d="M393 1933l67 67l244 -270l321 270l63 -67l-322 -319h-135zM314 1530h756l-6 -120l-614 7l-73 -579l474 6l-9 -127l-479 11l-78 -614l737 13l-11 -127h-890z" glyph-name="Ecaron" horiz-adv-x="1138" unicode="Ě"/>
<glyph d="M328 1583l67 67l249 -279l333 279l63 -67l-335 -328h-135zM495 102q180 0 348 170l43 -86q-50 -71 -153 -130q-124 -72 -243.5 -72t-194.5 40q-206 109 -206 401q0 153 46.5 289.5t123.5 233.5q168 208 420 208q205 0 262 -152q17 -45 17 -113t-36.5 -133.5t-96.5 -116 t-136.5 -86.5t-155.5 -60q-147 -45 -287 -52q-1 -15 -1 -44.5t7.5 -82t35.5 -102.5q64 -112 207 -112zM251 550q194 7 364 96q194 101 194 249t-160 148t-271 -154.5t-127 -338.5z" glyph-name="ecaron" horiz-adv-x="1031" unicode="ě"/>
<glyph d="M1198 1342q-139 82 -356 82q-186 0 -325 -120q-187 -163 -238 -474q-15 -87 -15 -133.5t0.5 -99.5t20.5 -150t65 -174q101 -172 292 -172q143 0 371 85l54 421l-281 1l15 121h430l-82 -635q-29 -3 -62 -12l-158 -46q-300 -91 -476 -27q-201 73 -289 313q-53 147 -53 301 t23.5 269t70.5 217t113.5 183t148.5 138q171 116 377 116q191 0 363 -55l39 -12zM512 1653l340 347h136l205 -348l-73 -53l-219 265l-330 -270z" glyph-name="Gcircumflex" horiz-adv-x="1340" unicode="Ĝ"/>
<glyph d="M361 1274l343 376h137l203 -377l-73 -53l-218 294l-333 -299zM520 1123q89 33 192.5 33t226.5 -36l116 36l-176 -1245q-31 -216 -197 -327q-135 -89 -311 -89q-169 0 -256 35l38 126q106 -48 245.5 -48t222.5 77.5t109 222.5l48 299q-106 -148 -262 -203 q-56 -20 -128 -20t-132 31.5t-100 88.5q-77 112 -77 312q0 269 155 488q110 154 286 219zM233 434q0 -334 190 -334q158 0 303 174q38 45 62 84l96 652q-85 36 -175.5 36t-155 -27.5t-116 -74t-90 -108.5t-63.5 -130q-51 -135 -51 -272z" glyph-name="gcircumflex" horiz-adv-x="1149" unicode="ĝ"/>
<glyph d="M982 1665q-59 -28 -133.5 -28t-130.5 28t-92 73q-70 88 -70 221v11q0 5 1 10h103q0 -18 3.5 -42t15.5 -59.5t35 -64.5q50 -65 143 -65q99 0 165 84q48 62 64 147h101v-11t-4 -41.5t-30 -90t-69 -100t-102 -72.5zM1198 1342q-139 82 -356 82q-186 0 -325 -120 q-187 -163 -238 -474q-15 -87 -15 -133.5t0.5 -99.5t20.5 -150t65 -174q101 -172 292 -172q143 0 371 85l54 421l-281 1l15 121h430l-82 -635q-29 -3 -62 -12l-158 -46q-300 -91 -476 -27q-201 73 -289 313q-53 147 -53 301t23.5 269t70.5 217t113.5 183t148.5 138 q171 116 377 116q191 0 363 -55l39 -12z" glyph-name="Gbreve" horiz-adv-x="1340" unicode="Ğ"/>
<glyph d="M520 1123q89 33 192.5 33t226.5 -36l116 36l-176 -1245q-31 -216 -197 -327q-135 -89 -311 -89q-169 0 -256 35l38 126q106 -48 245.5 -48t222.5 77.5t109 222.5l48 299q-106 -148 -262 -203q-56 -20 -128 -20t-132 31.5t-100 88.5q-77 112 -77 312q0 269 155 488 q110 154 286 219zM233 434q0 -334 190 -334q158 0 303 174q38 45 62 84l96 652q-85 36 -175.5 36t-155 -27.5t-116 -74t-90 -108.5t-63.5 -130q-51 -135 -51 -272zM846 1333q-59 -28 -133.5 -28t-130.5 28t-92 73q-70 88 -70 221v11q0 5 1 10h103q0 -18 3.5 -42t15.5 -59.5 t35 -64.5q50 -65 143 -65q99 0 165 84q48 62 64 147h101v-11t-4 -41.5t-30 -90t-69 -100t-102 -72.5z" glyph-name="gbreve" horiz-adv-x="1149" unicode="ğ"/>
<glyph d="M784.5 1733q-23.5 26 -23.5 63q0 81 72 115q19 9 51 9t55 -25.5t23 -63.5q0 -53 -37 -90q-34 -34 -75.5 -34t-65 26zM1198 1342q-139 82 -356 82q-186 0 -325 -120q-187 -163 -238 -474q-15 -87 -15 -133.5t0.5 -99.5t20.5 -150t65 -174q101 -172 292 -172q143 0 371 85 l54 421l-281 1l15 121h430l-82 -635q-29 -3 -62 -12l-158 -46q-300 -91 -476 -27q-201 73 -289 313q-53 147 -53 301t23.5 269t70.5 217t113.5 183t148.5 138q171 116 377 116q191 0 363 -55l39 -12z" glyph-name="Gdotaccent" horiz-adv-x="1340" unicode="Ġ"/>
<glyph d="M520 1123q89 33 192.5 33t226.5 -36l116 36l-176 -1245q-31 -216 -197 -327q-135 -89 -311 -89q-169 0 -256 35l38 126q106 -48 245.5 -48t222.5 77.5t109 222.5l48 299q-106 -148 -262 -203q-56 -20 -128 -20t-132 31.5t-100 88.5q-77 112 -77 312q0 269 155 488 q110 154 286 219zM233 434q0 -334 190 -334q158 0 303 174q38 45 62 84l96 652q-85 36 -175.5 36t-155 -27.5t-116 -74t-90 -108.5t-63.5 -130q-51 -135 -51 -272zM766 1436q-20 -10 -41 -10t-37 8q-51 23 -51 81q0 5 0.5 19.5t10 35.5t24.5 36q34 34 77.5 34t67 -25.5 t23.5 -62.5q0 -82 -74 -116z" glyph-name="gdotaccent" horiz-adv-x="1149" unicode="ġ"/>
<glyph d="M637 -52q84 -27 111 -142q8 -34 8 -82t-17 -99.5t-43 -90.5q-53 -78 -114 -94l-61 39l2 20q88 59 88 191q0 42 -20 77.5t-52 48.5l4 41zM1198 1342q-139 82 -356 82q-186 0 -325 -120q-187 -163 -238 -474q-15 -87 -15 -133.5t0.5 -99.5t20.5 -150t65 -174 q101 -172 292 -172q143 0 371 85l54 421l-281 1l15 121h430l-82 -635q-29 -3 -62 -12l-158 -46q-300 -91 -476 -27q-201 73 -289 313q-53 147 -53 301t23.5 269t70.5 217t113.5 183t148.5 138q171 116 377 116q191 0 363 -55l39 -12z" glyph-name="Gcommaaccent" horiz-adv-x="1340" unicode="Ģ"/>
<glyph d="M697 1253q-94 20 -125 147q-8 33 -8 51t1 50t20.5 82.5t48.5 88.5q57 74 125 90l61 -39l-2 -20q-103 -61 -108 -182q-3 -73 50 -118q16 -14 36 -18l-5 -40zM520 1123q89 33 192.5 33t226.5 -36l116 36l-176 -1245q-31 -216 -197 -327q-135 -89 -311 -89q-169 0 -256 35 l38 126q106 -48 245.5 -48t222.5 77.5t109 222.5l48 299q-106 -148 -262 -203q-56 -20 -128 -20t-132 31.5t-100 88.5q-77 112 -77 312q0 269 155 488q110 154 286 219zM233 434q0 -334 190 -334q158 0 303 174q38 45 62 84l96 652q-85 36 -175.5 36t-155 -27.5t-116 -74 t-90 -108.5t-63.5 -130q-51 -135 -51 -272z" glyph-name="gcommaaccent" horiz-adv-x="1149" unicode="ģ"/>
<glyph d="M314 1530h150l-89 -701h726l89 701h150l-192 -1530h-151l90 714h-726l-90 -714h-150zM502 1653l340 347h136l205 -348l-73 -53l-219 265l-330 -270z" glyph-name="Hcircumflex" horiz-adv-x="1410" unicode="Ĥ"/>
<glyph d="M308 1637h148l-21 -183l335 342h136l205 -348l-73 -53l-219 265l-330 -270l-55 55l-33 -287l-44 -289q150 194 344 263q66 24 131 24q123 0 176.5 -70.5t53.5 -210.5v-17t-3.5 -53.5t-9.5 -85t-13 -99.5l-16 -107q-6 -44 -16 -112l-62 -401h-149q4 32 11 74 q48 321 55 365t13 85l14 92q25 171 25 249.5t-30.5 115.5t-94 37t-121.5 -25t-116 -67q-124 -88 -206 -205l-98 -721h-148z" glyph-name="hcircumflex" horiz-adv-x="1198" unicode="ĥ"/>
<glyph d="M251 1036h-195l11 115h199l48 379h150l-48 -379h726l48 379h150l-48 -379h224l-11 -115h-227l-130 -1036h-151l77 610h-726l-77 -610h-150zM1088 725l39 311h-726l-39 -311h726z" glyph-name="Hbar" horiz-adv-x="1410" unicode="Ħ"/>
<glyph d="M263 1292h-130l13 100h130l32 245h148l-28 -245h300l-13 -100h-299l-15 -134l-44 -289q150 194 344 263q66 24 131 24q123 0 176.5 -70.5t53.5 -210.5v-17t-3.5 -53.5t-9.5 -85t-13 -99.5l-16 -107q-6 -44 -16 -112l-62 -401h-149q4 32 11 74q48 321 55 365t13 85l14 92 q25 171 25 249.5t-30.5 115.5t-94 37t-121.5 -25t-116 -67q-124 -88 -206 -205l-98 -721h-148z" glyph-name="hbar" horiz-adv-x="1198" unicode="ħ"/>
<glyph d="M338 1530h151l-193 -1530h-151zM71 1798q54 104 186 152q41 14 79 14t65.5 -11t50.5 -27.5t42 -35.5t37 -36q44 -38 79 -38t58.5 12.5t42 31t32.5 39.5l26 38l66 -70q-24 -71 -97 -122q-74 -52 -152 -52q-67 0 -104 27t-56 46t-38 35q-44 37 -82 38t-61.5 -9.5 t-42.5 -26.5t-35 -35l-29 -35z" glyph-name="Itilde" horiz-adv-x="572" unicode="Ĩ"/>
<glyph d="M287 1144h149l-155 -1144h-148zM19 1481q54 104 184 151q40 15 87 15t83.5 -22.5t66 -49.5t57.5 -49.5t61.5 -22.5t57 12t42 29.5t32.5 37.5l27 38l66 -70q-24 -69 -97 -120q-75 -51 -153 -51q-66 0 -103.5 26.5t-56.5 45t-39 35.5q-112 95 -218 -35l-29 -35z" glyph-name="itilde" horiz-adv-x="564" unicode="ĩ"/>
<glyph d="M338 1530h151l-193 -1530h-151zM165 1862h510l-5 -114h-509z" glyph-name="Imacron" horiz-adv-x="572" unicode="Ī"/>
<glyph d="M287 1144h149l-155 -1144h-148zM129 1548h510l-5 -114h-509z" glyph-name="imacron" horiz-adv-x="564" unicode="ī"/>
<glyph d="M338 1530h151l-193 -1530h-151zM568 1665q-59 -28 -133.5 -28t-130.5 28t-92 73q-70 88 -70 221v11q0 5 1 10h103q0 -18 3.5 -42t15.5 -59.5t35 -64.5q50 -65 143 -65q99 0 165 84q48 62 64 147h101v-11t-4 -41.5t-30 -90t-69 -100t-102 -72.5z" glyph-name="Ibreve" horiz-adv-x="572" unicode="Ĭ"/>
<glyph d="M287 1144h149l-155 -1144h-148zM525 1333q-59 -28 -133.5 -28t-130.5 28t-92 73q-70 88 -70 221v11q0 5 1 10h103q0 -18 3.5 -42t15.5 -59.5t35 -64.5q50 -65 143 -65q99 0 165 84q48 62 64 147h101v-11t-4 -41.5t-30 -90t-69 -100t-102 -72.5z" glyph-name="ibreve" horiz-adv-x="564" unicode="ĭ"/>
<glyph d="M312 -342q-114 -94 -247 -94q-94 0 -145 52q-42 43 -42 96t29 98t71 82q60 52 167 110l193 1528h151l-193 -1530h-31l-71 -47q-168 -111 -168 -195q0 -39 25 -59.5t63 -20.5q83 0 158 58z" glyph-name="Iogonek" horiz-adv-x="572" unicode="Į"/>
<glyph d="M452 1436q-20 -10 -41 -10t-37.5 7.5t-27.5 20.5q-27 30 -24.5 62.5t12 53.5t24.5 36q34 34 77.5 34t67 -25.5t23.5 -62.5q0 -82 -74 -116zM322 -341q-107 -94 -247 -94q-93 0 -145 53q-43 42 -43 94.5t28.5 97.5t69.5 82q61 54 164 110l154 1142h149l-155 -1144h-28 l-70 -47q-163 -110 -163 -195q0 -39 24.5 -59.5t62.5 -20.5q84 0 159 58z" glyph-name="iogonek" horiz-adv-x="606" unicode="į"/>
<glyph d="M338 1530h151l-193 -1530h-151zM371.5 1733q-23.5 26 -23.5 63q0 81 72 115q19 9 51 9t55 -25.5t23 -63.5q0 -53 -37 -90q-34 -34 -75.5 -34t-65 26z" glyph-name="Idotaccent" horiz-adv-x="572" unicode="İ"/>
<glyph d="M287 1144h149l-155 -1144h-148z" glyph-name="dotlessi" horiz-adv-x="564" unicode="ı"/>
<glyph d="M338 1530h151l-193 -1530h-151zM740 108q16 74 34.5 188.5t35 238.5t31.5 255l55 508q13 123 26 232h151q-51 -457 -72 -632l-39 -312q-56 -428 -83.5 -521t-73.5 -163t-104 -116q-103 -80 -270 -109l-28 68q137 38 229 139q80 90 108 224z" glyph-name="IJ" horiz-adv-x="1156" unicode="Ĳ"/>
<glyph d="M361 -391q25 -20 85.5 -20t108 36t78.5 99q51 103 81 335l146 1085h149l-153 -1139q-53 -380 -251 -485q-67 -35 -132 -35q-100 0 -152 38zM287 1144h149l-155 -1144h-148zM445 1436q-20 -10 -41 -10t-37 8q-51 23 -51 81q0 5 0.5 19.5t10 35.5t24.5 36q34 34 77.5 34 t67 -25.5t23.5 -62.5q0 -82 -74 -116zM1002 1436q-20 -10 -41 -10t-37 8q-51 23 -51 81q0 5 0.5 19.5t10 35.5t24.5 36q34 34 77.5 34t67 -25.5t23.5 -62.5q0 -82 -74 -116z" glyph-name="ij" horiz-adv-x="1143" unicode="ĳ"/>
<glyph d="M168 108q16 74 34.5 188.5t35 238.5t31.5 255l55 508q13 123 26 232h151q-51 -457 -72 -632l-39 -312q-56 -428 -83.5 -521t-73.5 -163t-104 -116q-103 -80 -270 -109l-28 68q137 38 229 139q80 90 108 224zM108 1653l340 347h136l205 -348l-73 -53l-219 265l-330 -270z " glyph-name="Jcircumflex" horiz-adv-x="584" unicode="Ĵ"/>
<glyph d="M-204 -391q25 -20 85.5 -20t108 36t78.5 99q51 103 81 335l146 1085h149l-153 -1139q-53 -380 -251 -485q-67 -35 -132 -35q-100 0 -152 38zM30 1274l343 376h137l203 -377l-73 -53l-218 294l-333 -299z" glyph-name="jcircumflex" horiz-adv-x="576" unicode="ĵ"/>
<glyph d="M622 -50q84 -27 111 -142q8 -34 8 -82t-17 -99.5t-43 -90.5q-53 -78 -114 -94l-61 39l2 20q88 59 88 191q0 42 -20 77.5t-52 48.5l4 41zM314 1530h150l-105 -828l746 828h178l-622 -676l405 -704q51 -87 97 -150h-181q-8 8 -26 38q-361 658 -392 711l-231 -252l-62 -497 h-150z" glyph-name="Kcommaaccent" horiz-adv-x="1245" unicode="Ķ"/>
<glyph d="M469 -52q84 -27 111 -142q8 -34 8 -82t-17 -99.5t-43 -90.5q-53 -78 -114 -94l-61 39l2 20q88 59 88 191q0 42 -20 77.5t-52 48.5l4 41zM305 1637h148l-207 -1637h-149zM376 628l-1 1l84 49q167 100 250 198q107 123 151 264h143q-11 -128 -112 -264q-117 -158 -344 -271 l420 -602h-173l-419 625h1z" glyph-name="kcommaaccent" horiz-adv-x="1023" unicode="ķ"/>
<glyph d="M375 626q414 230 490 525h142q-5 -79 -38.5 -149.5t-85.5 -133t-111 -114.5q-107 -92 -225 -152l420 -602h-173l-419 625h1zM237 1151h147l-153 -1151h-148z" glyph-name="kgreenlandic" horiz-adv-x="1023" unicode="ĸ"/>
<glyph d="M382 1656l278 346l95 -97q-42 -71 -115 -139q-119 -111 -201 -161zM314 1530h150l-177 -1404l593 4l-16 -130h-743z" glyph-name="Lacute" horiz-adv-x="978" unicode="Ĺ"/>
<glyph d="M342 1524h148l-208 -1524h-149zM384 1654l278 346l95 -97q-42 -71 -115 -139q-119 -111 -201 -161z" glyph-name="lacute" horiz-adv-x="563" unicode="ĺ"/>
<glyph d="M521 -50q84 -27 111 -142q8 -34 8 -82t-17 -99.5t-43 -90.5q-53 -78 -114 -94l-61 39l2 20q88 59 88 191q0 42 -20 77.5t-52 48.5l4 41zM314 1530h150l-177 -1404l593 4l-16 -130h-743z" glyph-name="Lcommaaccent" horiz-adv-x="978" unicode="Ļ"/>
<glyph d="M195 -52q84 -27 111 -142q8 -34 8 -82t-17 -99.5t-43 -90.5q-53 -78 -114 -94l-61 39l2 20q88 59 88 191q0 42 -20 77.5t-52 48.5l4 41zM356 1637h148l-222 -1634h-149z" glyph-name="lcommaaccent" horiz-adv-x="563" unicode="ļ"/>
<glyph d="M314 1530h150l-177 -1404l593 4l-16 -130h-743zM975 1618q29 -56 29 -189q0 -192 -80 -366q-23 -49 -49 -87l-78 30l-4 20q71 196 71 341.5t-29 190.5l7 25z" glyph-name="Lcaron" horiz-adv-x="978" unicode="Ľ"/>
<glyph d="M356 1639h148l-222 -1634h-149zM841 1659q29 -56 29 -189q0 -192 -80 -366q-23 -49 -49 -87l-78 30l-4 20q71 196 71 341.5t-29 190.5l7 25z" glyph-name="lcaron" horiz-adv-x="793" unicode="ľ"/>
<glyph d="M314 1530h150l-177 -1404l593 4l-16 -130h-743zM892.5 772q-46.5 0 -72 24t-25.5 72.5t24 75.5q43 48 94.5 48t71.5 -26t20 -45q0 -82 -33 -115.5t-79.5 -33.5z" glyph-name="Ldot" horiz-adv-x="1066" unicode="Ŀ"/>
<glyph d="M356 1637h148l-222 -1634h-149zM723.5 649q-46.5 0 -72 24t-25.5 72.5t24 75.5q43 48 94.5 48t71.5 -26t20 -45q0 -82 -33 -115.5t-79.5 -33.5z" glyph-name="ldot" horiz-adv-x="846" unicode="ŀ"/>
<glyph d="M195 593l-196 -83l-28 91l238 103l105 827h150l-96 -759l428 185l27 -98l-469 -199l-67 -533l593 4l-16 -130h-743z" glyph-name="Lslash" horiz-adv-x="978" unicode="Ł"/>
<glyph d="M238 775l-125 -49v105l141 58l102 748h148l-93 -684l236 97v-113l-252 -100l-113 -834h-149z" glyph-name="lslash" horiz-adv-x="563" unicode="ł"/>
<glyph d="M805 1654l278 346l95 -97q-42 -71 -115 -139q-119 -111 -201 -161zM314 1530h158l491 -1127l72 -207l21 238l134 1096h143l-193 -1530h-149l-494 1122l-72 239l-29 -288l-134 -1073h-141z" glyph-name="Nacute" horiz-adv-x="1402" unicode="Ń"/>
<glyph d="M573 1304l308 400l115 -104q-21 -36 -67 -86l-82 -87q-123 -125 -211 -178zM247 1140h141l-29 -265q149 190 341 258q65 23 130 23q123 0 176.5 -70t53.5 -209v-17t-3.5 -54t-9.5 -85.5t-13 -99.5l-16 -108q-6 -44 -16 -111l-61 -399h-149q9 73 20 141.5t18 117.5t14 95 l14 86l26 173q25 171 25 250t-30.5 115.5t-95 36.5t-123 -25.5t-116.5 -68.5q-121 -87 -206 -208l-97 -713h-148z" glyph-name="nacute" horiz-adv-x="1194" unicode="ń"/>
<glyph d="M623 -52q84 -27 111 -142q8 -34 8 -82t-17 -99.5t-43 -90.5q-53 -78 -114 -94l-61 39l2 20q88 59 88 191q0 42 -20 77.5t-52 48.5l4 41zM314 1530h158l491 -1127l72 -207l21 238l134 1096h143l-193 -1530h-149l-494 1122l-72 239l-29 -288l-134 -1073h-141z" glyph-name="Ncommaaccent" horiz-adv-x="1402" unicode="Ņ"/>
<glyph d="M478 -52q84 -27 111 -142q8 -34 8 -82t-17 -99.5t-43 -90.5q-53 -78 -114 -94l-61 39l2 20q88 59 88 191q0 42 -20 77.5t-52 48.5l4 41zM247 1140h141l-29 -265q149 190 341 258q65 23 130 23q123 0 176.5 -70t53.5 -209v-17t-3.5 -54t-9.5 -85.5t-13 -99.5l-16 -108 q-6 -44 -16 -111l-61 -399h-149q9 73 20 141.5t18 117.5t14 95l14 86l26 173q25 171 25 250t-30.5 115.5t-95 36.5t-123 -25.5t-116.5 -68.5q-121 -87 -206 -208l-97 -713h-148z" glyph-name="ncommaaccent" horiz-adv-x="1194" unicode="ņ"/>
<glyph d="M539 1933l67 67l244 -270l321 270l63 -67l-322 -319h-135zM314 1530h158l491 -1127l72 -207l21 238l134 1096h143l-193 -1530h-149l-494 1122l-72 239l-29 -288l-134 -1073h-141z" glyph-name="Ncaron" horiz-adv-x="1402" unicode="Ň"/>
<glyph d="M352 1583l67 67l249 -279l333 279l63 -67l-335 -328h-135zM247 1140h141l-29 -265q149 190 341 258q65 23 130 23q123 0 176.5 -70t53.5 -209v-17t-3.5 -54t-9.5 -85.5t-13 -99.5l-16 -108q-6 -44 -16 -111l-61 -399h-149q9 73 20 141.5t18 117.5t14 95l14 86l26 173 q25 171 25 250t-30.5 115.5t-95 36.5t-123 -25.5t-116.5 -68.5q-121 -87 -206 -208l-97 -713h-148z" glyph-name="ncaron" horiz-adv-x="1194" unicode="ň"/>
<glyph d="M314 1530h158l491 -1127l72 -207l21 238l134 1096h143l-193 -1530h-3q-92 -255 -436 -315l-28 68q171 47 267 175q29 40 46 83l-489 1111l-72 239l-29 -288l-134 -1073h-141z" glyph-name="Eng" horiz-adv-x="1488" unicode="Ŋ"/>
<glyph d="M385 -416q38 -21 104 -21t120 41t91 109q63 114 99 336q10 65 23 139l48 299q39 258 39 353.5t-29.5 137t-92 41.5t-121.5 -26.5t-118 -69.5q-127 -91 -210 -210l-97 -713h-148l155 1140h141l-30 -268q154 191 347 260q65 24 130 24q113 0 169 -69t56 -224 q-3 -112 -28 -281q-48 -307 -64 -404l-29 -178q-62 -389 -280 -486q-71 -32 -137 -32q-127 0 -165 40z" glyph-name="eng" horiz-adv-x="1194" unicode="ŋ"/>
<glyph d="M569 1862h510l-5 -114h-509zM596 -17q-111 0 -202 48t-153 133q-130 177 -130 480q0 376 196 635q129 171 312 235q92 33 202.5 33t201 -50t150.5 -136q126 -179 126 -467q0 -381 -189 -640q-198 -271 -514 -271zM1142 864q0 563 -354 563q-224 0 -377 -235 q-93 -145 -128 -346q-15 -89 -15 -140.5v-62.5q4 -275 97 -409.5t263 -134.5q227 0 375 233q139 220 139 532z" glyph-name="Omacron" horiz-adv-x="1378" unicode="Ō"/>
<glyph d="M400 1548h510l-5 -114h-509zM316 15q-219 96 -219 447q0 269 153 474q103 138 251 192q74 28 162.5 28t158 -31t115.5 -90q97 -123 97 -349q0 -276 -150 -481q-162 -221 -404 -221q-93 0 -164 31zM251 459q0 -362 253 -362q176 0 283 197q91 171 91 387q0 363 -244 363 q-179 0 -289 -198q-94 -172 -94 -387z" glyph-name="omacron" horiz-adv-x="1135" unicode="ō"/>
<glyph d="M971 1665q-59 -28 -133.5 -28t-130.5 28t-92 73q-70 88 -70 221v11q0 5 1 10h103q0 -18 3.5 -42t15.5 -59.5t35 -64.5q50 -65 143 -65q99 0 165 84q48 62 64 147h101v-11t-4 -41.5t-30 -90t-69 -100t-102 -72.5zM596 -17q-111 0 -202 48t-153 133q-130 177 -130 480 q0 376 196 635q129 171 312 235q92 33 202.5 33t201 -50t150.5 -136q126 -179 126 -467q0 -381 -189 -640q-198 -271 -514 -271zM1142 864q0 563 -354 563q-224 0 -377 -235q-93 -145 -128 -346q-15 -89 -15 -140.5v-62.5q4 -275 97 -409.5t263 -134.5q227 0 375 233 q139 220 139 532z" glyph-name="Obreve" horiz-adv-x="1378" unicode="Ŏ"/>
<glyph d="M316 15q-219 96 -219 447q0 269 153 474q103 138 251 192q74 28 162.5 28t158 -31t115.5 -90q97 -123 97 -349q0 -276 -150 -481q-162 -221 -404 -221q-93 0 -164 31zM251 459q0 -362 253 -362q176 0 283 197q91 171 91 387q0 363 -244 363q-179 0 -289 -198 q-94 -172 -94 -387zM796 1333q-59 -28 -133.5 -28t-130.5 28t-92 73q-70 88 -70 221v11q0 5 1 10h103q0 -18 3.5 -42t15.5 -59.5t35 -64.5q50 -65 143 -65q99 0 165 84q48 62 64 147h101v-11t-4 -41.5t-30 -90t-69 -100t-102 -72.5z" glyph-name="obreve" horiz-adv-x="1135" unicode="ŏ"/>
<glyph d="M596 -17q-111 0 -202 48t-153 133q-130 177 -130 480q0 376 196 635q129 171 312 235q92 33 202.5 33t201 -50t150.5 -136q126 -179 126 -467q0 -381 -189 -640q-198 -271 -514 -271zM1142 864q0 563 -354 563q-224 0 -377 -235q-93 -145 -128 -346q-15 -89 -15 -140.5 v-62.5q4 -275 97 -409.5t263 -134.5q227 0 375 233q139 220 139 532zM971 1621l312 375l103 -90q-41 -75 -159 -183q-110 -100 -199 -152zM558 1619l312 375l101 -89q-51 -105 -250 -267q-51 -41 -91 -69z" glyph-name="Ohungarumlaut" horiz-adv-x="1378" unicode="Ő"/>
<glyph d="M809 1292l248 414l110 -89q-29 -59 -66 -112l-65 -89q-90 -118 -154 -166zM384 1292l238 414l110 -88q-38 -84 -100 -168q-105 -142 -176 -200zM316 15q-219 96 -219 447q0 269 153 474q103 138 251 192q74 28 162.5 28t158 -31t115.5 -90q97 -123 97 -349 q0 -276 -150 -481q-162 -221 -404 -221q-93 0 -164 31zM251 459q0 -362 253 -362q176 0 283 197q91 171 91 387q0 363 -244 363q-179 0 -289 -198q-94 -172 -94 -387z" glyph-name="ohungarumlaut" horiz-adv-x="1135" unicode="ő"/>
<glyph d="M592 -17q-103 0 -195 48t-154 133q-132 178 -132 479q0 240 88 448q90 210 252 331q165 125 366 125q253 0 378 -218q39 -67 62 -148l44 349h756l-6 -120l-614 7l-73 -579l474 6l-9 -127l-479 11l-78 -614l737 13l-11 -127h-890l39 309q-196 -326 -555 -326zM1153 865 q0 562 -360 562q-116 0 -214 -63q-197 -129 -275 -422q-36 -135 -36 -283q0 -285 95 -422.5t270 -137.5q152 0 274 109q180 160 232 472q14 90 14 185z" glyph-name="OE" horiz-adv-x="2125" unicode="Œ"/>
<glyph d="M876 183q-162 -199 -388 -199q-187 0 -289 120q-102 122 -102 357q0 267 153 473q102 138 251 194q74 28 158 28q247 0 337 -207q166 207 419 207q206 0 263 -152q17 -45 17 -113t-37 -133.5t-96.5 -116t-136 -86.5t-155.5 -60q-147 -45 -287 -52q-1 -15 -1 -44.5 t7.5 -82t35.5 -102.5q62 -112 206 -112q179 0 349 170l42 -86q-50 -71 -153 -130q-124 -72 -255 -72q-243 0 -338 199zM987 550q194 7 364 96q194 101 194 249t-161 148t-271 -155.5t-126 -337.5zM251 457q0 -361 260 -361q160 0 262 180q31 53 52 113q-7 172 51 338l-3 47 q-29 269 -238 269q-120 0 -214 -96q-127 -128 -161 -365q-9 -65 -9 -125z" glyph-name="oe" horiz-adv-x="1767" unicode="œ"/>
<glyph d="M388 1530l310 16q227 0 348 -89q123 -91 123 -277q0 -181 -97 -316q-101 -140 -273 -186q73 -64 167 -292q124 -294 145 -332.5t33 -54.5l-172 2q-25 38 -58 117l-55 140q-99 278 -177 362q-33 35 -67 36h-39h-72l-82 2h-69l-82 -658h-151l192 1530h76zM368 779 q42 -2 110 -2h162.5t153.5 31q140 61 190 214q22 69 22 113.5v51.5q-4 243 -329 243q-77 0 -229 -16zM706 1654l278 346l95 -97q-42 -71 -115 -139q-119 -111 -201 -161z" glyph-name="Racute" horiz-adv-x="1256" unicode="Ŕ"/>
<glyph d="M256 1304l308 400l115 -104q-21 -36 -67 -86l-82 -87q-123 -125 -211 -178zM773 985q-26 13 -79.5 13t-102.5 -23t-97 -65q-106 -91 -162 -230l-91 -680h-148l153 1140h140l-26 -251q51 100 144 175q116 92 238 92q49 0 64 -13z" glyph-name="racute" horiz-adv-x="778" unicode="ŕ"/>
<glyph d="M605 -52q84 -27 111 -142q8 -34 8 -82t-17 -99.5t-43 -90.5q-53 -78 -114 -94l-61 39l2 20q88 59 88 191q0 42 -20 77.5t-52 48.5l4 41zM388 1530l310 16q227 0 348 -89q123 -91 123 -277q0 -181 -97 -316q-101 -140 -273 -186q73 -64 167 -292q124 -294 145 -332.5 t33 -54.5l-172 2q-25 38 -58 117l-55 140q-99 278 -177 362q-33 35 -67 36h-39h-72l-82 2h-69l-82 -658h-151l192 1530h76zM368 779q42 -2 110 -2h162.5t153.5 31q140 61 190 214q22 69 22 113.5v51.5q-4 243 -329 243q-77 0 -229 -16z" glyph-name="Rcommaaccent" horiz-adv-x="1256" unicode="Ŗ"/>
<glyph d="M132 -52q84 -27 111 -142q8 -34 8 -82t-17 -99.5t-43 -90.5q-53 -78 -114 -94l-61 39l2 20q88 59 88 191q0 42 -20 77.5t-52 48.5l4 41zM773 985q-26 13 -79.5 13t-102.5 -23t-97 -65q-106 -91 -162 -230l-91 -680h-148l153 1140h140l-26 -251q51 100 144 175 q116 92 238 92q49 0 64 -13z" glyph-name="rcommaaccent" horiz-adv-x="778" unicode="ŗ"/>
<glyph d="M440 1933l67 67l244 -270l321 270l63 -67l-322 -319h-135zM388 1530l310 16q227 0 348 -89q123 -91 123 -277q0 -181 -97 -316q-101 -140 -273 -186q73 -64 167 -292q124 -294 145 -332.5t33 -54.5l-172 2q-25 38 -58 117l-55 140q-99 278 -177 362q-33 35 -67 36h-39 h-72l-82 2h-69l-82 -658h-151l192 1530h76zM368 779q42 -2 110 -2h162.5t153.5 31q140 61 190 214q22 69 22 113.5v51.5q-4 243 -329 243q-77 0 -229 -16z" glyph-name="Rcaron" horiz-adv-x="1256" unicode="Ř"/>
<glyph d="M36 1583l67 67l249 -279l333 279l63 -67l-335 -328h-135zM773 985q-26 13 -79.5 13t-102.5 -23t-97 -65q-106 -91 -162 -230l-91 -680h-148l153 1140h140l-26 -251q51 100 144 175q116 92 238 92q49 0 64 -13z" glyph-name="rcaron" horiz-adv-x="778" unicode="ř"/>
<glyph d="M71 196q52 -56 228 -85q54 -9 115.5 -9t126 15.5t114.5 48.5q110 73 110 208q0 143 -139 254q-46 37 -103 74t-115.5 79t-107.5 95q-113 126 -113 285q0 175 129 282q125 104 329 104q228 0 346 -85l-48 -116q-61 61 -205 80q-43 5 -86 5t-97.5 -9.5t-102.5 -35.5 q-114 -63 -114 -209q0 -115 74 -199q51 -58 151.5 -124t155.5 -105.5t99 -88.5q104 -114 104 -259q0 -198 -146 -309q-141 -108 -372 -108q-181 0 -322 60q-36 15 -53 29zM629 1654l278 346l95 -97q-42 -71 -115 -139q-119 -111 -201 -161z" glyph-name="Sacute" horiz-adv-x="1044" unicode="Ś"/>
<glyph d="M450 1304l308 400l115 -104q-21 -36 -67 -86l-82 -87q-123 -125 -211 -178zM73 178q118 -81 274 -81q163 0 216 97q18 33 18 76.5t-17 77t-44 62.5t-62 56l-69 54q-105 81 -141 129q-75 96 -75 187.5t30.5 148t82.5 94.5q104 77 264 77q166 0 254 -44l-29 -140 q-33 39 -137 63q-39 9 -90.5 9t-95 -12t-73.5 -34q-63 -48 -63 -125q0 -108 112 -197l140 -108q161 -126 161 -279q0 -147 -111 -229q-105 -76 -279 -76q-148 0 -251 40q-30 12 -43 24z" glyph-name="sacute" horiz-adv-x="872" unicode="ś"/>
<glyph d="M71 196q52 -56 228 -85q54 -9 115.5 -9t126 15.5t114.5 48.5q110 73 110 208q0 143 -139 254q-46 37 -103 74t-115.5 79t-107.5 95q-113 126 -113 285q0 175 129 282q125 104 329 104q228 0 346 -85l-48 -116q-61 61 -205 80q-43 5 -86 5t-97.5 -9.5t-102.5 -35.5 q-114 -63 -114 -209q0 -115 74 -199q51 -58 151.5 -124t155.5 -105.5t99 -88.5q104 -114 104 -259q0 -198 -146 -309q-141 -108 -372 -108q-181 0 -322 60q-36 15 -53 29zM350 1653l340 347h136l205 -348l-73 -53l-219 265l-330 -270z" glyph-name="Scircumflex" horiz-adv-x="1044" unicode="Ŝ"/>
<glyph d="M190 1274l343 376h137l203 -377l-73 -53l-218 294l-333 -299zM73 178q118 -81 274 -81q163 0 216 97q18 33 18 76.5t-17 77t-44 62.5t-62 56l-69 54q-105 81 -141 129q-75 96 -75 187.5t30.5 148t82.5 94.5q104 77 264 77q166 0 254 -44l-29 -140q-33 39 -137 63 q-39 9 -90.5 9t-95 -12t-73.5 -34q-63 -48 -63 -125q0 -108 112 -197l140 -108q161 -126 161 -279q0 -147 -111 -229q-105 -76 -279 -76q-148 0 -251 40q-30 12 -43 24z" glyph-name="scircumflex" horiz-adv-x="872" unicode="ŝ"/>
<glyph d="M211 -339q170 0 170 193q0 85 -8 131q-174 6 -295 60q-33 15 -49 28l42 123q52 -56 228 -85q54 -9 115.5 -9t126 15.5t114.5 48.5q110 73 110 208q0 143 -139 254q-46 37 -103 74t-115.5 79t-107.5 95q-113 126 -113 285q0 175 129 282q125 104 329 104q228 0 346 -85 l-48 -116q-61 61 -205 80q-43 5 -86 5t-97.5 -9.5t-102.5 -35.5q-114 -63 -114 -209q0 -115 74 -199q51 -58 151.5 -124t155.5 -105.5t99 -88.5q104 -114 104 -255q0 -183 -122 -293q-116 -105 -317 -124q29 -66 29 -158t-21 -146.5t-57 -87.5q-67 -61 -185 -61 q-107 0 -146 29l20 115q33 -18 88 -18z" glyph-name="Scedilla" horiz-adv-x="1044" unicode="Ş"/>
<glyph d="M160 -339q170 0 170 193q0 84 -8 130q-142 3 -236 41q-28 11 -41 23l28 130q118 -81 274 -81q163 0 216 97q18 33 18 76.5t-17 77t-44 62.5t-62 56l-69 54q-105 81 -141 129q-75 96 -75 187.5t30.5 148t82.5 94.5q104 77 264 77q166 0 254 -44l-29 -140q-33 39 -137 63 q-39 9 -90.5 9t-95 -12t-73.5 -34q-63 -48 -63 -125q0 -108 112 -197l140 -108q161 -126 161 -279q0 -125 -83 -205q-80 -75 -215 -93q30 -69 30 -161t-21 -146.5t-57 -87.5q-67 -61 -185 -61q-107 0 -146 29l20 115q33 -18 88 -18z" glyph-name="scedilla" horiz-adv-x="872" unicode="ş"/>
<glyph d="M71 196q52 -56 228 -85q54 -9 115.5 -9t126 15.5t114.5 48.5q110 73 110 208q0 143 -139 254q-46 37 -103 74t-115.5 79t-107.5 95q-113 126 -113 285q0 175 129 282q125 104 329 104q228 0 346 -85l-48 -116q-61 61 -205 80q-43 5 -86 5t-97.5 -9.5t-102.5 -35.5 q-114 -63 -114 -209q0 -115 74 -199q51 -58 151.5 -124t155.5 -105.5t99 -88.5q104 -114 104 -259q0 -198 -146 -309q-141 -108 -372 -108q-181 0 -322 60q-36 15 -53 29zM364 1933l67 67l244 -270l321 270l63 -67l-322 -319h-135z" glyph-name="Scaron" horiz-adv-x="1044" unicode="Š"/>
<glyph d="M229 1583l67 67l249 -279l333 279l63 -67l-335 -328h-135zM73 178q118 -81 274 -81q163 0 216 97q18 33 18 76.5t-17 77t-44 62.5t-62 56l-69 54q-105 81 -141 129q-75 96 -75 187.5t30.5 148t82.5 94.5q104 77 264 77q166 0 254 -44l-29 -140q-33 39 -137 63 q-39 9 -90.5 9t-95 -12t-73.5 -34q-63 -48 -63 -125q0 -108 112 -197l140 -108q161 -126 161 -279q0 -147 -111 -229q-105 -76 -279 -76q-148 0 -251 40q-30 12 -43 24z" glyph-name="scaron" horiz-adv-x="872" unicode="š"/>
<glyph d="M173 -321q33 -18 88 -18q170 0 170 193q0 91 -11 146h-10l179 1419l-451 -9l17 120h1044l-17 -120l-443 9l-179 -1419h-33q35 -70 35 -166t-21 -150.5t-57 -87.5q-67 -61 -185 -61q-107 0 -146 29z" glyph-name="uni0162" horiz-adv-x="1122" unicode="Ţ"/>
<glyph d="M90 -339q170 0 170 193q0 93 -11 148q-83 38 -83 154q0 42 12 134l93 731h-135l31 118l127 1l56 279h126l-36 -279h291l-18 -119h-290l-99 -744q-4 -34 -4 -58q0 -116 79 -116q63 0 177 72q27 17 42 29l20 -84q-31 -37 -90 -69q-108 -58 -185 -66q28 -67 28 -157 t-21 -144.5t-57 -87.5q-67 -61 -185 -61q-107 0 -146 29l20 115q33 -18 88 -18z" glyph-name="uni0163" horiz-adv-x="739" unicode="ţ"/>
<glyph d="M410 1933l67 67l244 -270l321 270l63 -67l-322 -319h-135zM589 1419l-451 -9l17 120h1044l-17 -120l-443 9l-179 -1419h-150z" glyph-name="Tcaron" horiz-adv-x="1122" unicode="Ť"/>
<glyph d="M341 -16q-175 0 -175 172q0 42 12 134l93 731h-135l31 118l127 1l56 279h126l-36 -279h291l-18 -119h-290l-99 -744q-4 -34 -4 -58q0 -116 79 -116q63 0 177 72q27 17 42 29l20 -84q-35 -42 -98 -74q-121 -62 -199 -62zM831 1890q29 -56 29 -189q0 -192 -80 -366 q-23 -49 -49 -87l-78 30l-4 20q71 196 71 341.5t-29 190.5l7 25z" glyph-name="tcaron" horiz-adv-x="739" unicode="ť"/>
<glyph d="M502 733h-283l13 100h283l74 586l-451 -9l17 120h1044l-17 -120l-443 9l-74 -586h309l-13 -100h-309l-92 -733h-150z" glyph-name="Tbar" horiz-adv-x="1122" unicode="Ŧ"/>
<glyph d="M341 -16q-175 0 -175 172q0 42 12 134l44 347h-139l12 100h140l36 284h-135l31 118l127 1l56 279h126l-36 -279h291l-18 -119h-290l-38 -284h292l-12 -100h-293l-48 -360q-4 -34 -4 -58q0 -116 79 -116q63 0 177 72q27 17 42 29l20 -84q-35 -42 -98 -74 q-121 -62 -199 -62z" glyph-name="tbar" horiz-adv-x="739" unicode="ŧ"/>
<glyph d="M455 1798q54 104 186 152q41 14 79 14t65.5 -11t50.5 -27.5t42 -35.5t37 -36q44 -38 79 -38t58.5 12.5t42 31t32.5 39.5l26 38l66 -70q-24 -71 -97 -122q-74 -52 -152 -52q-67 0 -104 27t-56 46t-38 35q-44 37 -82 38t-61.5 -9.5t-42.5 -26.5t-35 -35l-29 -35zM409 13 q-256 93 -256 425q0 45 12 155l119 937h150l-115 -911q-12 -100 -12 -142.5t0.5 -83t20.5 -100.5t59 -101q80 -86 235 -86q188 0 290 121q107 126 144 413l112 890h147l-114 -903q-45 -347 -194 -499q-140 -145 -406 -145q-110 0 -192 30z" glyph-name="Utilde" horiz-adv-x="1360" unicode="Ũ"/>
<glyph d="M129 134q-16 54 -16 104t2 80t6 65q18 154 26 216l77 541h149l-73 -528q-7 -46 -14 -100q-21 -162 -21 -224t10.5 -94t30.5 -50q35 -33 99.5 -33t120 26t109.5 69q111 87 191 209l95 725h149l-152 -1140h-138l29 262q-136 -191 -317 -258q-61 -23 -124 -23 q-194 0 -239 153zM293 1481q54 104 184 151q40 15 87 15t83.5 -22.5t66 -49.5t57.5 -49.5t61.5 -22.5t57 12t42 29.5t32.5 37.5l27 38l66 -70q-24 -69 -97 -120q-75 -51 -153 -51q-66 0 -103.5 26.5t-56.5 45t-39 35.5q-112 95 -218 -35l-29 -35z" glyph-name="utilde" horiz-adv-x="1173" unicode="ũ"/>
<glyph d="M550 1862h510l-5 -114h-509zM409 13q-256 93 -256 425q0 45 12 155l119 937h150l-115 -911q-12 -100 -12 -142.5t0.5 -83t20.5 -100.5t59 -101q80 -86 235 -86q188 0 290 121q107 126 144 413l112 890h147l-114 -903q-45 -347 -194 -499q-140 -145 -406 -145 q-110 0 -192 30z" glyph-name="Umacron" horiz-adv-x="1360" unicode="Ū"/>
<glyph d="M129 134q-16 54 -16 104t2 80t6 65q18 154 26 216l77 541h149l-73 -528q-7 -46 -14 -100q-21 -162 -21 -224t10.5 -94t30.5 -50q35 -33 99.5 -33t120 26t109.5 69q111 87 191 209l95 725h149l-152 -1140h-138l29 262q-136 -191 -317 -258q-61 -23 -124 -23 q-194 0 -239 153zM403 1548h510l-5 -114h-509z" glyph-name="umacron" horiz-adv-x="1173" unicode="ū"/>
<glyph d="M952 1665q-59 -28 -133.5 -28t-130.5 28t-92 73q-70 88 -70 221v11q0 5 1 10h103q0 -18 3.5 -42t15.5 -59.5t35 -64.5q50 -65 143 -65q99 0 165 84q48 62 64 147h101v-11t-4 -41.5t-30 -90t-69 -100t-102 -72.5zM409 13q-256 93 -256 425q0 45 12 155l119 937h150 l-115 -911q-12 -100 -12 -142.5t0.5 -83t20.5 -100.5t59 -101q80 -86 235 -86q188 0 290 121q107 126 144 413l112 890h147l-114 -903q-45 -347 -194 -499q-140 -145 -406 -145q-110 0 -192 30z" glyph-name="Ubreve" horiz-adv-x="1360" unicode="Ŭ"/>
<glyph d="M129 134q-16 54 -16 104t2 80t6 65q18 154 26 216l77 541h149l-73 -528q-7 -46 -14 -100q-21 -162 -21 -224t10.5 -94t30.5 -50q35 -33 99.5 -33t120 26t109.5 69q111 87 191 209l95 725h149l-152 -1140h-138l29 262q-136 -191 -317 -258q-61 -23 -124 -23 q-194 0 -239 153zM799 1333q-59 -28 -133.5 -28t-130.5 28t-92 73q-70 88 -70 221v11q0 5 1 10h103q0 -18 3.5 -42t15.5 -59.5t35 -64.5q50 -65 143 -65q99 0 165 84q48 62 64 147h101v-11t-4 -41.5t-30 -90t-69 -100t-102 -72.5z" glyph-name="ubreve" horiz-adv-x="1173" unicode="ŭ"/>
<glyph d="M409 13q-256 93 -256 425q0 45 12 155l119 937h150l-115 -911q-12 -100 -12 -142.5t0.5 -83t20.5 -100.5t59 -101q80 -86 235 -86q188 0 290 121q107 126 144 413l112 890h147l-114 -903q-45 -347 -194 -499q-140 -145 -406 -145q-110 0 -192 30zM590.5 1547 q-72.5 64 -72.5 181q0 133 112 207q97 65 230 65q192 0 251 -146q19 -46 19 -110.5t-27.5 -114.5t-74.5 -83q-90 -63 -227.5 -63t-210 64zM803 1565q218 0 218 197q0 108 -101 143q-32 11 -71.5 11t-79 -9t-71.5 -31q-73 -50 -73 -153q0 -68 49 -113t129 -45z" glyph-name="Uring" horiz-adv-x="1360" unicode="Ů"/>
<glyph d="M485.5 1323q-72.5 65 -72.5 182q0 131 111 209q97 67 231 67q192 0 251 -145q19 -46 19 -110.5t-27.5 -116t-73.5 -85.5q-93 -66 -229.5 -66t-209 65zM625 1353q33 -12 74 -12t80.5 9.5t69.5 33.5q67 52 67 160q0 69 -46.5 111t-126.5 42q-147 0 -203 -103 q-20 -38 -20 -83t13 -74t36 -50.5t56 -33.5zM129 134q-16 54 -16 104t2 80t6 65q18 154 26 216l77 541h149l-73 -528q-7 -46 -14 -100q-21 -162 -21 -224t10.5 -94t30.5 -50q35 -33 99.5 -33t120 26t109.5 69q111 87 191 209l95 725h149l-152 -1140h-138l29 262 q-136 -191 -317 -258q-61 -23 -124 -23q-194 0 -239 153z" glyph-name="uring" horiz-adv-x="1173" unicode="ů"/>
<glyph d="M409 13q-256 93 -256 425q0 45 12 155l119 937h150l-115 -911q-12 -100 -12 -142.5t0.5 -83t20.5 -100.5t59 -101q80 -86 235 -86q188 0 290 121q107 126 144 413l112 890h147l-114 -903q-45 -347 -194 -499q-140 -145 -406 -145q-110 0 -192 30zM952 1621l312 375 l103 -90q-41 -75 -159 -183q-110 -100 -199 -152zM539 1619l312 375l101 -89q-51 -105 -250 -267q-51 -41 -91 -69z" glyph-name="Uhungarumlaut" horiz-adv-x="1360" unicode="Ű"/>
<glyph d="M129 134q-16 54 -16 104t2 80t6 65q18 154 26 216l77 541h149l-73 -528q-7 -46 -14 -100q-21 -162 -21 -224t10.5 -94t30.5 -50q35 -33 99.5 -33t120 26t109.5 69q111 87 191 209l95 725h149l-152 -1140h-138l29 262q-136 -191 -317 -258q-61 -23 -124 -23 q-194 0 -239 153zM812 1292l248 414l110 -89q-29 -59 -66 -112l-65 -89q-90 -118 -154 -166zM387 1292l238 414l110 -88q-38 -84 -100 -168q-105 -142 -176 -200z" glyph-name="uhungarumlaut" horiz-adv-x="1173" unicode="ű"/>
<glyph d="M710 -10q-61 -7 -140 -7t-161.5 30t-139.5 86q-116 116 -116 339q0 45 12 155l119 937h150l-115 -911q-12 -100 -12 -142.5t0.5 -83t20.5 -100.5t59 -101q80 -86 235 -86q188 0 290 121q107 126 144 413l112 890h147l-114 -903q-50 -392 -236 -537q-62 -49 -140 -75 l-74 -66q-140 -131 -140 -191q0 -39 24.5 -59.5t62.5 -20.5q84 0 159 59l39 -78q-107 -94 -246 -94q-93 0 -145 53q-43 42 -43 91.5t26 90.5t63 76q54 51 159 114z" glyph-name="Uogonek" horiz-adv-x="1360" unicode="Ų"/>
<glyph d="M949 -341q-107 -94 -246 -94q-93 0 -145 53q-43 42 -43 95t28.5 98t70.5 81q60 54 165 111l1 1l29 258q-136 -191 -317 -258q-61 -23 -124 -23q-194 0 -239 153q-16 54 -16 104t2 80t6 65q18 154 26 216l77 541h149l-73 -528q-7 -46 -14 -100q-21 -162 -21 -224t10.5 -94 t30.5 -50q35 -33 99.5 -33t120 26t109.5 69q111 87 191 209l95 725h149l-152 -1140h-21l-70 -47q-164 -111 -164 -195q0 -39 25 -59.5t63 -20.5q84 0 159 59z" glyph-name="uogonek" horiz-adv-x="1180" unicode="ų"/>
<glyph d="M149 1530h150l146 -1096l40 -268l86 259l352 879l-23 226h144l109 -1096l20 -268l99 259l443 1105h152l-647 -1540h-154l-89 860l-18 236l-84 -236l-340 -860h-155zM716 1653l340 347h136l205 -348l-73 -53l-219 265l-330 -270z" glyph-name="Wcircumflex" horiz-adv-x="1770" unicode="Ŵ"/>
<glyph d="M568 1274l343 376h137l203 -377l-73 -53l-218 294l-333 -299zM292 -14l-174 1154h166l84 -786l21 -237l135 177q211 294 270 560l-42 286h163l86 -786l23 -238l136 174q110 148 154 250q75 175 96 352q3 27 8 64l10 72q10 83 6 112h146l2 -27q1 -13 1 -27 q0 -246 -120 -518q-102 -230 -250 -397l-153 -175l-136 -10l-94 621q-120 -281 -253 -431l-150 -180z" glyph-name="wcircumflex" horiz-adv-x="1633" unicode="ŵ"/>
<glyph d="M478 585l-373 945h161l261 -710l41 -103l55 102l428 711h162l-592 -945l-75 -585h-144zM350 1653l340 347h136l205 -348l-73 -53l-219 265l-330 -270z" glyph-name="Ycircumflex" horiz-adv-x="1083" unicode="Ŷ"/>
<glyph d="M982 1140q4 -31 4 -65.5t-3.5 -99.5t-28 -167.5t-61.5 -204.5q-70 -192 -176 -387q-81 -144 -121 -205l-74 -111q-35 -49 -70 -92l-81 -98q-105 -122 -247 -180q-77 -32 -145 -32q-103 0 -179 30l43 124q7 -3 18 -8.5t27 -11.5q36 -12 86.5 -12t100.5 16t102 54 q106 76 228 254h-93l-62 355l-127 841h164l109 -841l43 -301l109 186q143 243 207 438.5t78 382.5q4 81 2 135h147zM211 1274l343 376h137l203 -377l-73 -53l-218 294l-333 -299z" glyph-name="ycircumflex" horiz-adv-x="1048" unicode="ŷ"/>
<glyph d="M478 585l-373 945h161l261 -710l41 -103l55 102l428 711h162l-592 -945l-75 -585h-144zM938.5 1730.5q-20.5 -9.5 -50.5 -9.5t-54.5 26.5t-24.5 61t10.5 56t27.5 37.5q35 33 77 33t65 -25t23 -45t-1 -35t-10.5 -36.5t-25.5 -37.5t-36.5 -25.5zM414 1747.5 q-24 26.5 -24 65.5q0 51 37 89q34 33 76 33t65.5 -25.5t23.5 -63.5q0 -51 -37 -90q-34 -35 -75.5 -35t-65.5 26.5z" glyph-name="Ydieresis" horiz-adv-x="1083" unicode="Ÿ"/>
<glyph d="M15 70l822 1157l151 186l-744 -11l16 128h903l19 -66l-843 -1195l-124 -148l812 9l-21 -130h-970zM696 1654l278 346l95 -97q-42 -71 -115 -139q-119 -111 -201 -161z" glyph-name="Zacute" horiz-adv-x="1157" unicode="Ź"/>
<glyph d="M480 1304l308 400l115 -104q-21 -36 -67 -86l-82 -87q-123 -125 -211 -178zM-21 46l621 792l167 183h-583l17 119h723l36 -41l-648 -828l-142 -152h642l-11 -119h-776z" glyph-name="zacute" horiz-adv-x="963" unicode="ź"/>
<glyph d="M689.5 1733q-23.5 26 -23.5 63q0 81 72 115q19 9 51 9t55 -25.5t23 -63.5q0 -53 -37 -90q-34 -34 -75.5 -34t-65 26zM15 70l822 1157l151 186l-744 -11l16 128h903l19 -66l-843 -1195l-124 -148l812 9l-21 -130h-970z" glyph-name="Zdotaccent" horiz-adv-x="1157" unicode="Ż"/>
<glyph d="M-21 46l621 792l167 183h-583l17 119h723l36 -41l-648 -828l-142 -152h642l-11 -119h-776zM625 1436q-20 -10 -41 -10t-37 8q-51 23 -51 81q0 5 0.5 19.5t10 35.5t24.5 36q34 34 77.5 34t67 -25.5t23.5 -62.5q0 -82 -74 -116z" glyph-name="zdotaccent" horiz-adv-x="963" unicode="ż"/>
<glyph d="M430 1933l67 67l244 -270l321 270l63 -67l-322 -319h-135zM15 70l822 1157l151 186l-744 -11l16 128h903l19 -66l-843 -1195l-124 -148l812 9l-21 -130h-970z" glyph-name="Zcaron" horiz-adv-x="1157" unicode="Ž"/>
<glyph d="M259 1583l67 67l249 -279l333 279l63 -67l-335 -328h-135zM-21 46l621 792l167 183h-583l17 119h723l36 -41l-648 -828l-142 -152h642l-11 -119h-776z" glyph-name="zcaron" horiz-adv-x="963" unicode="ž"/>
<glyph d="M1009 1532q-54 27 -124.5 27t-110 -13t-70.5 -46q-62 -66 -83 -229l-16 -119h297l-12 -119h-301l-182 -1389h-150l184 1389h-245l11 79l250 40l10 76q26 216 149 340q110 110 240.5 110t161.5 -17z" glyph-name="florin" horiz-adv-x="1059" unicode="ƒ"/>
<glyph d="M1011 1654l278 346l95 -97q-42 -71 -115 -139q-119 -111 -201 -161zM-107 0l806 1436l-298 17l11 77h1305l-6 -120l-614 7l-74 -579l475 6l-9 -127l-479 11l-78 -614l737 13l-11 -127h-890l58 459h-520l-251 -459h-162zM840 575l107 845l-111 5l-466 -850h470z" glyph-name="AEacute" horiz-adv-x="1781" unicode="Ǽ"/>
<glyph d="M819 1304l308 400l115 -104q-21 -36 -67 -86l-82 -87q-123 -125 -211 -178zM703 265q-146 -281 -345 -281q-277 0 -277 431q0 270 151 488q109 156 282 220q90 33 221.5 33t262.5 -78q123 78 275 78q205 0 262 -152q17 -45 17 -113t-36.5 -133.5t-96.5 -116t-136.5 -86.5 t-155.5 -60q-147 -45 -287 -52q-1 -15 -1 -44t8 -82t35 -103q63 -112 207 -112q181 0 348 171l43 -87q-50 -71 -153 -130q-124 -72 -255 -72q-222 0 -323 171q-30 51 -46 110zM235 433q0 -333 156 -333q140 0 293 282q-12 183 58 368q52 140 149 241q-97 55 -186.5 55 t-153 -26.5t-114 -72t-88.5 -106t-63 -128.5q-51 -135 -51 -280zM845 550q194 7 363 96q195 101 195 249t-160.5 148t-271 -153.5t-126.5 -339.5z" glyph-name="aeacute" horiz-adv-x="1624" unicode="ǽ"/>
<glyph d="M395 -52q84 -27 111 -142q8 -34 8 -82t-17 -99.5t-43 -90.5q-53 -78 -114 -94l-61 39l2 20q88 59 88 191q0 42 -20 77.5t-52 48.5l4 41zM71 196q52 -56 228 -85q54 -9 115.5 -9t126 15.5t114.5 48.5q110 73 110 208q0 143 -139 254q-46 37 -103 74t-115.5 79t-107.5 95 q-113 126 -113 285q0 175 129 282q125 104 329 104q228 0 346 -85l-48 -116q-61 61 -205 80q-43 5 -86 5t-97.5 -9.5t-102.5 -35.5q-114 -63 -114 -209q0 -115 74 -199q51 -58 151.5 -124t155.5 -105.5t99 -88.5q104 -114 104 -259q0 -198 -146 -309q-141 -108 -372 -108 q-181 0 -322 60q-36 15 -53 29z" glyph-name="uni0218" horiz-adv-x="1044" unicode="Ș"/>
<glyph d="M344 -52q84 -27 111 -142q8 -34 8 -82t-17 -99.5t-43 -90.5q-53 -78 -114 -94l-61 39l2 20q88 59 88 191q0 42 -20 77.5t-52 48.5l4 41zM73 178q118 -81 274 -81q163 0 216 97q18 33 18 76.5t-17 77t-44 62.5t-62 56l-69 54q-105 81 -141 129q-75 96 -75 187.5t30.5 148 t82.5 94.5q104 77 264 77q166 0 254 -44l-29 -140q-33 39 -137 63q-39 9 -90.5 9t-95 -12t-73.5 -34q-63 -48 -63 -125q0 -108 112 -197l140 -108q161 -126 161 -279q0 -147 -111 -229q-105 -76 -279 -76q-148 0 -251 40q-30 12 -43 24z" glyph-name="uni0219" horiz-adv-x="872" unicode="ș"/>
<glyph d="M445 -52q84 -27 111 -142q8 -34 8 -82t-17 -99.5t-43 -90.5q-53 -78 -114 -94l-61 39l2 20q88 59 88 191q0 42 -20 77.5t-52 48.5l4 41zM589 1419l-451 -9l17 120h1044l-17 -120l-443 9l-179 -1419h-150z" glyph-name="uni021A" horiz-adv-x="1122" unicode="Ț"/>
<glyph d="M274 -52q84 -27 111 -142q8 -34 8 -82t-17 -99.5t-43 -90.5q-53 -78 -114 -94l-61 39l2 20q88 59 88 191q0 42 -20 77.5t-52 48.5l4 41zM341 -16q-175 0 -175 172q0 42 12 134l93 731h-135l31 118l127 1l56 279h126l-36 -279h291l-18 -119h-290l-99 -744q-4 -34 -4 -58 q0 -116 79 -116q63 0 177 72q27 17 42 29l20 -84q-35 -42 -98 -74q-121 -62 -199 -62z" glyph-name="uni021B" horiz-adv-x="739" unicode="ț"/>
<glyph d="M-204 -391q25 -20 85.5 -20t108 36t78.5 99q51 103 81 335l146 1085h149l-153 -1139q-53 -380 -251 -485q-67 -35 -132 -35q-100 0 -152 38z" glyph-name="dotlessj" horiz-adv-x="576" unicode="ȷ"/>
<glyph d="M57 1274l343 376h137l203 -377l-73 -53l-218 294l-333 -299z" glyph-name="circumflex" horiz-adv-x="795" unicode="ˆ"/>
<glyph d="M50 1583l67 67l249 -279l333 279l63 -67l-335 -328h-135z" glyph-name="caron" horiz-adv-x="795" unicode="ˇ"/>
<glyph d="M63 1862h510l-5 -114h-509z" glyph-name="uni02c9" horiz-adv-x="614" unicode="ˉ"/>
<glyph d="M478 1333q-59 -28 -133.5 -28t-130.5 28t-92 73q-70 88 -70 221v11q0 5 1 10h103q0 -18 3.5 -42t15.5 -59.5t35 -64.5q50 -65 143 -65q99 0 165 84q48 62 64 147h101v-11t-4 -41.5t-30 -90t-69 -100t-102 -72.5z" glyph-name="breve" horiz-adv-x="717" unicode="˘"/>
<glyph d="M189 1436q-20 -10 -41 -10t-37 8q-51 23 -51 81q0 5 0.5 19.5t10 35.5t24.5 36q34 34 77.5 34t67 -25.5t23.5 -62.5q0 -82 -74 -116z" glyph-name="dotaccent" horiz-adv-x="387" unicode="˙"/>
<glyph d="M171.5 1323q-72.5 65 -72.5 182q0 131 111 209q97 67 231 67q192 0 251 -145q19 -46 19 -110.5t-27.5 -116t-73.5 -85.5q-93 -66 -229.5 -66t-209 65zM311 1353q33 -12 74 -12t80.5 9.5t69.5 33.5q67 52 67 160q0 69 -46.5 111t-126.5 42q-147 0 -203 -103 q-20 -38 -20 -83t13 -74t36 -50.5t56 -33.5z" glyph-name="ring" horiz-adv-x="723" unicode="˚"/>
<glyph d="M431 -336q-107 -94 -246 -94q-88 0 -136 48q-39 39 -39 91.5t27.5 97.5t67.5 81q66 61 160 112l77 46l45 -46l-69 -48q-160 -111 -160 -197q0 -39 23 -55.5t52 -16.5q84 0 159 59z" glyph-name="ogonek" horiz-adv-x="487" unicode="˛"/>
<glyph d="M9 1481q54 104 184 151q40 15 87 15t83.5 -22.5t66 -49.5t57.5 -49.5t61.5 -22.5t57 12t42 29.5t32.5 37.5l27 38l66 -70q-24 -69 -97 -120q-75 -51 -153 -51q-66 0 -103.5 26.5t-56.5 45t-39 35.5q-112 95 -218 -35l-29 -35z" glyph-name="tilde" horiz-adv-x="815" unicode="˜"/>
<glyph d="M474 1292l248 414l110 -89q-29 -59 -66 -112l-65 -89q-90 -118 -154 -166zM49 1292l238 414l110 -88q-38 -84 -100 -168q-105 -142 -176 -200z" glyph-name="hungarumlaut" horiz-adv-x="918" unicode="˝"/>
<glyph d="M-20 22l753 1486h30l556 -1482l-17 -26h-1310zM1108 130l-377 1054l-513 -1054h890z" glyph-name="uni0394" horiz-adv-x="1407" unicode="Δ"/>
<glyph d="M85 116h394q-121 85 -219 266q-109 200 -109 391t56.5 336t155.5 242q199 195 527 195q274 0 453 -170q187 -175 187 -451q0 -198 -126 -437t-309 -365h415l-10 -123h-578l-16 107q187 103 324 322q149 238 149 482q0 251 -159 392q-140 124 -344 124q-254 0 -410 -165 q-167 -177 -167 -493q0 -212 117 -415q64 -111 149 -190q38 -36 74 -57l-31 -107h-537z" glyph-name="uni03A9" horiz-adv-x="1657" unicode="Ω"/>
<glyph d="M1062 114q56 0 124 82l49 -85q-42 -68 -142 -113q-39 -17 -76 -17t-61 9q-79 29 -79 139v7q-71 -73 -123 -101q-103 -54 -219 -54q-61 0 -103 24q-78 44 -91 95l-70 -472h-141l188 1266q11 81 -1 97.5t-24 16.5q-48 0 -105 -57l-50 88q46 62 140 97q40 14 78 14t61 -10 q61 -28 61 -127q0 -21 -2 -40q-85 -612 -86 -622l-4 -24q-1 -16 -1 -43.5t12 -62.5t39 -59q51 -47 140 -47q80 0 176 63q78 51 131 119l118 843h148l-124 -915q-4 -22 -4 -41q0 -70 41 -70z" glyph-name="uni03BC" horiz-adv-x="1354" unicode="μ"/>
<glyph d="M121 70q59 12 111 50t76.5 72.5t39.5 77.5q22 63 41 205l92 527h-70q-89 0 -144 -35.5t-80 -88.5l-87 42q26 117 107 169.5t228 52.5h730q68 0 103 15.5t49 57.5h108q-14 -170 -155 -203q-47 -11 -108 -11h-46l-92 -702q-7 -55 -10 -81.5t2 -47t16 -32.5q20 -23 52.5 -23 t60.5 13t55 36q61 54 88 128l84 -36q-20 -105 -107 -184q-97 -88 -210.5 -88t-155 54t-41.5 128q0 25 4 52l99 676q10 66 17 107l-358 1l-86 -571q-15 -160 -46.5 -227t-58.5 -98.5t-58 -57.5q-58 -50 -149 -71z" glyph-name="pi" horiz-adv-x="1556" unicode="π"/>
<glyph d="M613.5 1733q-23.5 26 -23.5 63q0 81 72 115q19 9 51 9t55 -25.5t23 -63.5q0 -53 -37 -90q-34 -34 -75.5 -34t-65 26zM458 -14l-267 14h-70l193 1530h82q71 1 144.5 8.5t177 7.5t189 -27.5t137.5 -72.5q95 -85 95 -235q0 -238 -187 -353q-60 -37 -133 -58q130 -14 217 -97 q95 -89 95 -221t-49.5 -226t-139.5 -154q-173 -116 -484 -116zM453 846l159 1q165 0 268 91q108 95 108 257q0 185 -179 230q-63 16 -113.5 16t-75.5 -1t-54 -3l-61 -4q-31 -2 -54 -5l-73 -581q35 -1 75 -1zM286 113q61 -19 183.5 -19t210.5 20q184 40 255 180q36 70 36 172 q0 134 -97 206q-89 67 -248 67q-148 0 -262 -6z" glyph-name="uni1E02" horiz-adv-x="1240" unicode="Ḃ"/>
<glyph d="M619 17q-90 -33 -200.5 -33t-239.5 43l-84 -25l218 1635h141l-58 -490l-35 -208q102 143 261 197q57 20 129 20t132 -31.5t99 -88.5q78 -112 78 -313q0 -268 -156 -487q-109 -155 -285 -219zM906 706q0 334 -190 334q-110 0 -222 -90q-85 -68 -147 -166l-88 -655 q80 -35 171 -35t155.5 27.5t116 74t90 108t64.5 129.5q50 135 50 273zM862 1436q-20 -10 -41 -10t-37 8q-51 23 -51 81q0 5 0.5 19.5t10 35.5t24.5 36q34 34 77.5 34t67 -25.5t23.5 -62.5q0 -82 -74 -116z" glyph-name="uni1E03" horiz-adv-x="1159" unicode="ḃ"/>
<glyph d="M714.5 1733q-23.5 26 -23.5 63q0 81 72 115q19 9 51 9t55 -25.5t23 -63.5q0 -53 -37 -90q-34 -34 -75.5 -34t-65 26zM401 1530l321 16q292 0 438 -173q138 -162 138 -471q0 -389 -210 -652q-139 -175 -345 -238q-95 -28 -201 -28q-27 0 -44 1l-62 4q-35 2 -66.5 4.5 t-61.5 3.5l-60 2q-29 1 -50 1h-77l193 1530h87zM287 125q158 -26 209.5 -26h61.5q185 4 326 125q126 108 196 300q62 171 62 374q0 283 -110 410q-107 126 -353 126q-73 0 -140 -8l-90 -11z" glyph-name="uni1E0A" horiz-adv-x="1377" unicode="Ḋ"/>
<glyph d="M520 1123q89 33 185 33t191 -25l70 506h148l-224 -1637h-132l20 208q-104 -149 -261 -204q-57 -20 -129 -20t-132 31.5t-100 88.5q-77 112 -77 312q0 269 155 488q110 154 286 219zM233 434q0 -334 190 -334q109 0 221 92q85 71 147 171l89 648q-83 36 -172.5 36 t-154 -27.5t-116 -74.5t-90 -108.5t-63.5 -129.5q-51 -135 -51 -273zM517 1436q-20 -10 -41 -10t-37 8q-51 23 -51 81q0 5 0.5 19.5t10 35.5t24.5 36q34 34 77.5 34t67 -25.5t23.5 -62.5q0 -82 -74 -116z" glyph-name="uni1E0B" horiz-adv-x="1149" unicode="ḋ"/>
<glyph d="M643.5 1733q-23.5 26 -23.5 63q0 81 72 115q19 9 51 9t55 -25.5t23 -63.5q0 -53 -37 -90q-34 -34 -75.5 -34t-65 26zM314 1530h779l-11 -120l-632 7l-73 -582l508 8l-10 -130l-512 12l-92 -725h-150z" glyph-name="uni1E1E" horiz-adv-x="1057" unicode="Ḟ"/>
<glyph d="M481 1734q-20 -10 -41 -10t-37 8q-51 23 -51 81q0 5 0.5 19.5t10 35.5t24.5 36q34 34 77.5 34t67 -25.5t23.5 -62.5q0 -82 -74 -116zM851 1531q-45 31 -122 31h-31t-65 -21t-69 -56q-60 -71 -74 -183l-21 -162h243l-9 -119h-250l-138 -1021h-148l137 1021h-152l22 118 l146 1l18 124q25 188 126 299q106 115 274 115q94 0 151 -26z" glyph-name="uni1E1F" horiz-adv-x="695" unicode="ḟ"/>
<glyph d="M981.5 1733q-23.5 26 -23.5 63q0 81 72 115q19 9 51 9t55 -25.5t23 -63.5q0 -53 -37 -90q-34 -34 -75.5 -34t-65 26zM452 1530h194l173 -1068l31 -236l92 234l460 1070h218l-44 -1530h-153l49 1022l24 409l-624 -1435l-107 -14l-170 1063l-50 386l-77 -394l-243 -1037 h-153z" glyph-name="uni1E40" horiz-adv-x="1791" unicode="Ṁ"/>
<glyph d="M248 1140h141l-28 -253q141 185 313 247q59 22 118 22q109 0 162 -57t62 -174q134 161 294 213q56 18 111.5 18t98.5 -15.5t72 -48.5q57 -68 57 -220q0 -103 -23 -246t-29 -184q-35 -229 -42 -276l-15 -90q-6 -42 -10 -73h-150q4 32 10 74q50 324 56.5 365t17.5 108 q33 216 33 305t-30 126t-87.5 37t-102.5 -18.5t-91 -49.5q-94 -63 -174 -159q-5 -57 -16 -129l-21 -149q-6 -44 -16 -111l-61 -399h-149q9 73 20 141.5t18 117.5t15 95l13 86l25 173q26 171 26 250t-30 116t-90 37t-113 -25t-106 -66q-110 -85 -188 -203l-98 -722h-148z M1039 1436q-20 -10 -41 -10t-37 8q-51 23 -51 81q0 5 0.5 19.5t10 35.5t24.5 36q34 34 77.5 34t67 -25.5t23.5 -62.5q0 -82 -74 -116z" glyph-name="uni1E41" horiz-adv-x="1782" unicode="ṁ"/>
<glyph d="M703.5 1733q-23.5 26 -23.5 63q0 81 72 115q19 9 51 9t55 -25.5t23 -63.5q0 -53 -37 -90q-34 -34 -75.5 -34t-65 26zM402 1530l307 16q451 0 457 -389v-18q0 -277 -168 -445q-170 -168 -446 -168q-67 0 -112 4l-68 6q-21 2 -32 4l-69 -540h-150l193 1530h88zM1014 1146 q0 287 -328 287q-58 0 -134 -9l-103 -11l-94 -751q85 -17 202 -17q224 1 340 131t117 370z" glyph-name="uni1E56" horiz-adv-x="1180" unicode="Ṗ"/>
<glyph d="M616 16q-90 -32 -181 -32t-192 24l-69 -523h-148l219 1655h134l-22 -205q105 147 261 201q58 20 130 20t132 -31.5t100 -88.5q77 -112 77 -313q0 -271 -155 -489q-111 -154 -286 -218zM259 129q83 -35 169.5 -35t150.5 26.5t115 72t90 105.5t66 128q52 135 52 251 t-13.5 179.5t-38.5 103.5q-49 80 -137 80q-110 0 -222 -91q-89 -72 -146 -169zM761 1436q-20 -10 -41 -10t-37 8q-51 23 -51 81q0 5 0.5 19.5t10 35.5t24.5 36q34 34 77.5 34t67 -25.5t23.5 -62.5q0 -82 -74 -116z" glyph-name="uni1E57" horiz-adv-x="1162" unicode="ṗ"/>
<glyph d="M623.5 1733q-23.5 26 -23.5 63q0 81 72 115q19 9 51 9t55 -25.5t23 -63.5q0 -53 -37 -90q-34 -34 -75.5 -34t-65 26zM71 196q52 -56 228 -85q54 -9 115.5 -9t126 15.5t114.5 48.5q110 73 110 208q0 143 -139 254q-46 37 -103 74t-115.5 79t-107.5 95q-113 126 -113 285 q0 175 129 282q125 104 329 104q228 0 346 -85l-48 -116q-61 61 -205 80q-43 5 -86 5t-97.5 -9.5t-102.5 -35.5q-114 -63 -114 -209q0 -115 74 -199q51 -58 151.5 -124t155.5 -105.5t99 -88.5q104 -114 104 -259q0 -198 -146 -309q-141 -108 -372 -108q-181 0 -322 60 q-36 15 -53 29z" glyph-name="uni1E60" horiz-adv-x="1044" unicode="Ṡ"/>
<glyph d="M73 178q118 -81 274 -81q163 0 216 97q18 33 18 76.5t-17 77t-44 62.5t-62 56l-69 54q-105 81 -141 129q-75 96 -75 187.5t30.5 148t82.5 94.5q104 77 264 77q166 0 254 -44l-29 -140q-33 39 -137 63q-39 9 -90.5 9t-95 -12t-73.5 -34q-63 -48 -63 -125q0 -108 112 -197 l140 -108q161 -126 161 -279q0 -147 -111 -229q-105 -76 -279 -76q-148 0 -251 40q-30 12 -43 24zM595 1436q-20 -10 -41 -10t-37 8q-51 23 -51 81q0 5 0.5 19.5t10 35.5t24.5 36q34 34 77.5 34t67 -25.5t23.5 -62.5q0 -82 -74 -116z" glyph-name="uni1E61" horiz-adv-x="872" unicode="ṡ"/>
<glyph d="M669.5 1733q-23.5 26 -23.5 63q0 81 72 115q19 9 51 9t55 -25.5t23 -63.5q0 -53 -37 -90q-34 -34 -75.5 -34t-65 26zM589 1419l-451 -9l17 120h1044l-17 -120l-443 9l-179 -1419h-150z" glyph-name="uni1E6A" horiz-adv-x="1122" unicode="Ṫ"/>
<glyph d="M341 -16q-175 0 -175 172q0 42 12 134l93 731h-135l31 118l127 1l56 279h126l-36 -279h291l-18 -119h-290l-99 -744q-4 -34 -4 -58q0 -116 79 -116q63 0 177 72q27 17 42 29l20 -84q-35 -42 -98 -74q-121 -62 -199 -62zM466 1541q-20 -10 -41 -10t-37 8q-51 23 -51 81 q0 5 0.5 19.5t10 35.5t24.5 36q34 34 77.5 34t67 -25.5t23.5 -62.5q0 -82 -74 -116z" glyph-name="uni1E6B" horiz-adv-x="739" unicode="ṫ"/>
<glyph d="M1075 1601q-129 79 -250 219q-38 44 -61 83l94 97l273 -349zM149 1530h150l146 -1096l40 -268l86 259l352 879l-23 226h144l109 -1096l20 -268l99 259l443 1105h152l-647 -1540h-154l-89 860l-18 236l-84 -236l-340 -860h-155z" glyph-name="Wgrave" horiz-adv-x="1770" unicode="Ẁ"/>
<glyph d="M292 -14l-174 1154h166l84 -786l21 -237l135 177q211 294 270 560l-42 286h163l86 -786l23 -238l136 174q110 148 154 250q75 175 96 352q3 27 8 64l10 72q10 83 6 112h146l2 -27q1 -13 1 -27q0 -246 -120 -518q-102 -230 -250 -397l-153 -175l-136 -10l-94 621 q-120 -281 -253 -431l-150 -180zM910 1249q-48 32 -100 80q-151 143 -190.5 193t-53.5 75l115 104l294 -397z" glyph-name="wgrave" horiz-adv-x="1633" unicode="ẁ"/>
<glyph d="M994 1654l278 346l95 -97q-42 -71 -115 -139q-119 -111 -201 -161zM149 1530h150l146 -1096l40 -268l86 259l352 879l-23 226h144l109 -1096l20 -268l99 259l443 1105h152l-647 -1540h-154l-89 860l-18 236l-84 -236l-340 -860h-155z" glyph-name="Wacute" horiz-adv-x="1770" unicode="Ẃ"/>
<glyph d="M828 1304l308 400l115 -104q-21 -36 -67 -86l-82 -87q-123 -125 -211 -178zM292 -14l-174 1154h166l84 -786l21 -237l135 177q211 294 270 560l-42 286h163l86 -786l23 -238l136 174q110 148 154 250q75 175 96 352q3 27 8 64l10 72q10 83 6 112h146l2 -27q1 -13 1 -27 q0 -246 -120 -518q-102 -230 -250 -397l-153 -175l-136 -10l-94 621q-120 -281 -253 -431l-150 -180z" glyph-name="wacute" horiz-adv-x="1633" unicode="ẃ"/>
<glyph d="M1303.5 1730.5q-20.5 -9.5 -50.5 -9.5t-54.5 26.5t-24.5 61t10.5 56t27.5 37.5q35 33 77 33t65 -25t23 -45t-1 -35t-10.5 -36.5t-25.5 -37.5t-36.5 -25.5zM779 1747.5q-24 26.5 -24 65.5q0 51 37 89q34 33 76 33t65.5 -25.5t23.5 -63.5q0 -51 -37 -90q-34 -35 -75.5 -35 t-65.5 26.5zM149 1530h150l146 -1096l40 -268l86 259l352 879l-23 226h144l109 -1096l20 -268l99 259l443 1105h152l-647 -1540h-154l-89 860l-18 236l-84 -236l-340 -860h-155z" glyph-name="Wdieresis" horiz-adv-x="1770" unicode="Ẅ"/>
<glyph d="M1077 1436q-24 26 -24 63q0 83 71 115q20 9 52.5 9t56 -25.5t23.5 -62.5q0 -54 -37 -91q-34 -34 -76 -34t-66 26zM656 1436q-24 26 -24 63q0 83 71 115q20 9 52.5 9t56 -25.5t23.5 -62.5q0 -54 -37 -91q-34 -34 -76 -34t-66 26zM292 -14l-174 1154h166l84 -786l21 -237 l135 177q211 294 270 560l-42 286h163l86 -786l23 -238l136 174q110 148 154 250q75 175 96 352q3 27 8 64l10 72q10 83 6 112h146l2 -27q1 -13 1 -27q0 -246 -120 -518q-102 -230 -250 -397l-153 -175l-136 -10l-94 621q-120 -281 -253 -431l-150 -180z" glyph-name="wdieresis" horiz-adv-x="1633" unicode="ẅ"/>
<glyph d="M478 585l-373 945h161l261 -710l41 -103l55 102l428 711h162l-592 -945l-75 -585h-144zM709 1601q-129 79 -250 219q-38 44 -61 83l94 97l273 -349z" glyph-name="Ygrave" horiz-adv-x="1083" unicode="Ỳ"/>
<glyph d="M982 1140q4 -31 4 -65.5t-3.5 -99.5t-28 -167.5t-61.5 -204.5q-70 -192 -176 -387q-81 -144 -121 -205l-74 -111q-35 -49 -70 -92l-81 -98q-105 -122 -247 -180q-77 -32 -145 -32q-103 0 -179 30l43 124q7 -3 18 -8.5t27 -11.5q36 -12 86.5 -12t100.5 16t102 54 q106 76 228 254h-93l-62 355l-127 841h164l109 -841l43 -301l109 186q143 243 207 438.5t78 382.5q4 81 2 135h147zM552 1249q-48 32 -100 80q-151 143 -190.5 193t-53.5 75l115 104l294 -397z" glyph-name="ygrave" horiz-adv-x="1048" unicode="ỳ"/>
<glyph d="M243 833h1097l-23 -121h-1097z" glyph-name="endash" horiz-adv-x="1535" unicode="–"/>
<glyph d="M242 833h1591l-23 -121h-1590z" glyph-name="emdash" horiz-adv-x="2028" unicode="—"/>
<glyph d="M362 926q-65 24 -117 116q-53 94 -53 199.5t30.5 188t77.5 143.5q80 106 202 167l58 -85l-2 -16q-124 -66 -180 -234q-21 -61 -21 -113t6 -84t19 -62q27 -65 77 -102l-4 -31z" glyph-name="quoteleft" horiz-adv-x="651" unicode="‘"/>
<glyph d="M476.022 1731.06q64.9961 -23.999 116.992 -115.993q52.9971 -93.9941 52.9971 -199.487q0 -105.494 -30.498 -187.989t-77.4951 -143.491q-79.9951 -105.993 -201.988 -166.989l-57.9961 84.9941l2 15.999q123.992 65.9961 179.989 233.986 q20.998 60.9961 20.998 112.993t-5.99902 83.9951q-6 31.998 -18.999 61.9961q-26.998 64.9961 -76.9951 101.993l3.99902 30.998z" glyph-name="quoteright" horiz-adv-x="667" unicode="’"/>
<glyph d="M336.022 292.057q64.9961 -23.999 116.992 -115.993q52.9971 -93.9941 52.9971 -199.487q0 -105.494 -30.498 -187.989t-77.4951 -143.491q-79.9951 -105.993 -201.988 -166.989l-57.9961 84.9941l2 15.999q123.992 65.9961 179.989 233.986 q20.998 60.9961 20.998 112.993t-5.99902 83.9951q-6 31.998 -18.999 61.9961q-26.998 64.9961 -76.9951 101.993l3.99902 30.998z" glyph-name="quotesinglbase" horiz-adv-x="638" unicode="‚"/>
<glyph d="M384 892q-171 146 -196 368q-3 25 -3 71t16 109t43 109t60 81q70 74 142 85l66 -108l-4 -32q-86 -34 -132 -137q-34 -72 -34 -162q0 -135 72 -240q26 -39 51 -61l-3 -16z" glyph-name="quotereversed" horiz-adv-x="651" unicode="‛"/>
<glyph d="M841 926q-65 24 -117 116q-53 94 -53 199.5t30.5 188t77.5 143.5q80 106 202 167l58 -85l-2 -16q-124 -66 -180 -234q-21 -61 -21 -113t6 -84t19 -62q27 -65 77 -102l-4 -31zM362 926q-65 24 -117 116q-53 94 -53 199.5t30.5 188t77.5 143.5q80 106 202 167l58 -85 l-2 -16q-124 -66 -180 -234q-21 -61 -21 -113t6 -84t19 -62q27 -65 77 -102l-4 -31z" glyph-name="quotedblleft" horiz-adv-x="1130" unicode="“"/>
<glyph d="M988.022 1731.06q64.9961 -23.999 116.992 -115.993q52.9971 -93.9941 52.9971 -199.487q0 -105.494 -30.498 -187.989t-77.4951 -143.491q-79.9951 -105.993 -201.988 -166.989l-57.9961 84.9941l2 15.999q123.992 65.9961 179.989 233.986 q20.998 60.9961 20.998 112.993t-5.99902 83.9951q-6 31.998 -18.999 61.9961q-26.998 64.9961 -76.9951 101.993l3.99902 30.998zM509.022 1731.06q64.9961 -23.999 116.992 -115.993q52.9971 -93.9941 52.9971 -199.487q0 -105.494 -30.498 -187.989t-77.4951 -143.491 q-79.9951 -105.993 -201.988 -166.989l-57.9961 84.9941l2 15.999q123.992 65.9961 179.989 233.986q20.998 60.9961 20.998 112.993t-5.99902 83.9951q-6 31.998 -18.999 61.9961q-26.998 64.9961 -76.9951 101.993l3.99902 30.998z" glyph-name="quotedblright" horiz-adv-x="1128" unicode="”"/>
<glyph d="M336.022 292.057q64.9961 -23.999 116.992 -115.993q52.9971 -93.9941 52.9971 -199.487q0 -105.494 -30.498 -187.989t-77.4951 -143.491q-79.9951 -105.993 -201.988 -166.989l-57.9961 84.9941l2 15.999q123.992 65.9961 179.989 233.986 q20.998 60.9961 20.998 112.993t-5.99902 83.9951q-6 31.998 -18.999 61.9961q-26.998 64.9961 -76.9951 101.993l3.99902 30.998zM815.022 292.057q64.9961 -23.999 116.992 -115.993q52.9971 -93.9941 52.9971 -199.487q0 -105.494 -30.498 -187.989t-77.4951 -143.491 q-79.9951 -105.993 -201.988 -166.989l-57.9961 84.9941l2 15.999q123.992 65.9961 179.989 233.986q20.998 60.9961 20.998 112.993t-5.99902 83.9951q-6 31.998 -18.999 61.9961q-26.998 64.9961 -76.9951 101.993l3.99902 30.998z" glyph-name="quotedblbase" horiz-adv-x="1117" unicode="„"/>
<glyph d="M410 1008l27 138h-299l16 114h316l11 209l26 177h144l-29 -177l-56 -209h307l-16 -114h-291l-12 -138l-158 -857h-90z" glyph-name="dagger" horiz-adv-x="815" unicode="†"/>
<glyph d="M344 510l29 139l-242 1l18 114h251l8 217l39 165h-271l16 114h287l9 209l26 177h144l-28 -177l-55 -209h294l-17 -114h-277l-12 -165l-54 -217h248l-16 -114l-240 -1l-13 -139l-108 -561h-88z" glyph-name="daggerdbl" horiz-adv-x="815" unicode="‡"/>
<glyph d="M499 575.5q-36 -18.5 -72.5 -18.5t-61.5 10.5t-43 28.5q-40 40 -40 86t15 81t41 63q59 65 139 65q91 0 125 -79q11 -25 11 -57t-13.5 -67.5t-39 -64.5t-61.5 -47.5z" glyph-name="bullet" horiz-adv-x="858" unicode="•"/>
<glyph d="M1234 203q90 0 90 -82q0 -69 -41.5 -103.5t-85.5 -34.5t-65.5 22.5t-21.5 45.5q0 78 39.5 115t84.5 37zM731 203q91 0 91 -82q0 -68 -42 -103t-86 -35t-65 22.5t-21 45.5q0 79 39.5 115.5t83.5 36.5zM228 203q91 0 91 -82q0 -67 -47 -107q-36 -31 -80 -31t-65.5 22.5 t-21.5 45.5q0 79 39.5 115.5t83.5 36.5z" glyph-name="ellipsis" horiz-adv-x="1509" unicode="…"/>
<glyph d="M1827 380q0 73 30.5 149.5t85.5 136.5q122 133 295 133q211 0 263 -177q16 -54 16 -127t-28.5 -152t-81.5 -141q-118 -138 -299 -138q-134 0 -210 89q-71 85 -71 227zM1950 378q0 -51 12 -90.5t35 -68.5q48 -61 122.5 -61t122.5 33.5t80 84.5q65 104 65 210 q0 219 -170 219q-119 0 -197 -112q-70 -101 -70 -215zM1361 1530h123l-947 -1530h-123zM652 783q-76 -38 -157.5 -38t-134 23.5t-88.5 65.5q-71 85 -71 221q0 165 115 292q121 133 295 133q212 0 264 -176q16 -55 16 -128t-28.5 -152t-81.5 -141t-129 -100zM428 855 q33 -16 86.5 -16t101.5 33.5t80 84.5q65 104 65 210q0 219 -171 219q-118 0 -196 -112q-70 -101 -70 -218q0 -152 104 -201zM1037 380q0 73 30.5 149.5t84.5 136.5q121 133 295 133q212 0 264 -177q16 -54 16 -127t-28.5 -152t-81.5 -141q-118 -138 -299 -138 q-134 0 -210 89q-71 85 -71 227zM1160 378q0 -51 12 -90.5t35 -68.5q48 -61 122.5 -61t122.5 33.5t80 84.5q65 104 65 210q0 219 -171 219q-118 0 -196 -112q-70 -101 -70 -215z" glyph-name="perthousand" horiz-adv-x="2701" unicode="‰"/>
<glyph d="M435 1782h156l-184 -592h-106z" glyph-name="minute" horiz-adv-x="623" unicode="′"/>
<glyph d="M435 1782h156l-184 -592h-106zM823 1782h156l-184 -592h-106z" glyph-name="second" horiz-adv-x="1011" unicode="″"/>
<glyph d="M253 671l695 415l29 -89l-556 -383l452 -377l-53 -85l-583 399z" glyph-name="guilsinglleft" horiz-adv-x="1190" unicode="‹"/>
<glyph d="M917.016 567.041l-694.958 -414.975l-28.998 88.9941l555.966 382.977l-451.972 376.978l52.9961 84.9951l582.965 -398.977z" glyph-name="guilsinglright" horiz-adv-x="1190" unicode="›"/>
<glyph d="M973 1778h172l-215 -1290h-120zM841 203q91 0 91 -83q0 -69 -43 -103t-78.5 -34t-53.5 7q-52 18 -52 78q0 63 47 102q39 33 89 33zM398 1778h172l-215 -1290h-120zM266 203q91 0 91 -83q0 -69 -43 -103t-78.5 -34t-53.5 7q-52 18 -52 78q0 63 47 102q39 33 89 33z" glyph-name="exclamdbl" horiz-adv-x="1198" unicode="‼"/>
<glyph d="M839 1530h123l-681 -1530h-123z" glyph-name="fraction" horiz-adv-x="1026" unicode="⁄"/>
<glyph d="M684 824h-525l-28 74l610 867h38l101 -78l-583 -754l404 12l39 280l155 18l-40 -293l263 8l-15 -134h-265l-47 -348h-156z" glyph-name="foursuperior" horiz-adv-x="1194" unicode="⁴"/>
<glyph d="M727 97q208 0 372 118l43 -104q-78 -88 -293 -117q-69 -10 -145.5 -10t-140 22.5t-113.5 63t-87.5 95t-63.5 119.5q-52 127 -62 278h-211l16 108h192q2 132 27 247h-186l16 108h198q78 243 251.5 382t394.5 139q138 0 251 -36l58 -18l-49 -121q-54 38 -191 55 q-50 6 -122 6t-142.5 -28.5t-126.5 -81.5q-111 -106 -168 -297h583l-15 -108h-594q-21 -110 -25 -247h585l-15 -108h-569q16 -331 189 -430q60 -35 143 -35z" glyph-name="Euro" horiz-adv-x="1381" unicode="€"/>
<glyph d="M590 -16q-174 0 -254 200l-82 -70q-40 -34 -82 -66l-96 83q150 125 222 191q-15 85 -15 206t21 260.5t59 269.5t92.5 243.5t120.5 197.5q144 181 308 181q84 0 133 -64q48 -63 48 -189t-47.5 -279.5t-131.5 -303.5q-162 -291 -447 -565q25 -91 68.5 -131.5t92 -40.5 t90 20t76.5 61q77 87 102 242l124 -19q-64 -294 -248 -391q-67 -36 -154 -36zM415 437q521 534 521 991q0 78 -52 108q-16 9 -37 9q-108 0 -213 -167q-150 -238 -204 -632q-17 -120 -17 -186v-86q0 -19 2 -37z" glyph-name="uni2113" horiz-adv-x="1206" unicode="ℓ"/>
<glyph d="M1560 981q0 174 56.5 279t123.5 162q131 110 299 110q193 0 293 -131q80 -105 80 -276q0 -207 -98 -351q-103 -151 -280 -192q-52 -12 -125 -12t-147 34q-202 95 -202 377zM350 1530h157l475 -1093l86 -235l25 267l131 1061h143l-194 -1530h-146l-496 1122l-70 235 l-28 -284l-132 -1073h-142zM1816 1340q-113 -113 -113 -347q0 -127 40 -193q73 -120 200 -120h34.5t85 21t95.5 65q111 114 111 346q0 126 -40 192q-73 119 -200 119h-33t-83.5 -20t-96.5 -63zM1515 121h760l-11 -121h-760z" glyph-name="afii61352" horiz-adv-x="2486" unicode="№"/>
<glyph d="M1069 1530h208l158 -619l292 619h218l-32 -776h-133l27 484l14 220l-357 -712h-98l-192 714l-133 -706h-124zM444 1419h-266l17 111h666l-13 -111h-273l-90 -665l-131 -1z" glyph-name="trademark" horiz-adv-x="2111" unicode="™"/>
<glyph d="M86 116h394q-121 85 -219 266q-109 200 -109 391t56.5 336t155.5 242q199 195 527 195q274 0 453 -170q187 -175 187 -451q0 -198 -126 -437t-309 -365h415l-10 -123h-578l-16 107q187 103 324 322q149 238 149 482q0 251 -159 392q-140 124 -344 124q-254 0 -410 -165 q-167 -177 -167 -493q0 -212 117 -415q64 -111 149 -190q38 -36 74 -57l-31 -107h-537z" glyph-name="Omega" horiz-adv-x="1659" unicode="Ω"/>
<glyph d="M1278 832q0 -149 -11 -201h-927v-365q124 -192 413 -192q148 0 307 64q42 16 68 31l30 -87q-95 -68 -310 -92q-60 -6 -112 -6q-292 0 -458 182q-165 181 -165 505q0 304 157 487q171 198 481 198q215 0 362 -137q157 -146 165 -387zM730 1266q-264 0 -390 -202v-327h726 v380q-104 149 -336 149z" glyph-name="estimated" horiz-adv-x="1372" unicode="℮"/>
<glyph d="M745 1050q126 0 245 -72l58 -37q-7 176 -42 272.5t-73 154.5t-93 100q-116 91 -291 91q-161 0 -276 -72l-56 95q99 75 273 96q48 6 130 6t177 -34.5t165.5 -94t119 -140t78.5 -171.5q55 -173 55 -383q0 -531 -230 -749q-136 -128 -347 -128q-200 0 -334 135t-134 376.5 t160 398t415 156.5zM447 813.5q-56 -58.5 -86 -139t-30 -172.5t20.5 -165.5t58.5 -122.5q81 -106 242 -106q278 0 364 386q30 130 37 317q-73 57 -123 79q-100 43 -189.5 43t-163.5 -30.5t-130 -89z" glyph-name="partialdiff" horiz-adv-x="1367" unicode="∂"/>
<glyph d="M-20 22l753 1486h30l556 -1482l-17 -26h-1310zM1108 130l-377 1054l-513 -1054h890z" glyph-name="Delta" horiz-adv-x="1407" unicode="∆"/>
<glyph d="M335 1396h-196v126h1369v-126h-196v-1566h-170v1566h-637v-1566h-170v1566z" glyph-name="product" horiz-adv-x="1609" unicode="∏"/>
<glyph d="M788 678l-560 781l23 63h1036v-126h-840l517 -714l-505 -733h843v-119h-1055l-20 42z" glyph-name="summation" horiz-adv-x="1529" unicode="∑"/>
<glyph d="M234 833h837l-14 -121h-837z" glyph-name="minus" horiz-adv-x="1266" unicode="−"/>
<glyph d="M-75 -362l862 1959h133l-863 -1959h-132z" glyph-name="uni2215" horiz-adv-x="854" unicode="∕"/>
<glyph d="M339.5 630q-46.5 0 -72 24t-25.5 72.5t24 75.5q43 48 94.5 48t71.5 -26t20 -45q0 -82 -33 -115.5t-79.5 -33.5z" glyph-name="uni2219" horiz-adv-x="686" unicode="∙"/>
<glyph d="M86 602l183 112h141l356 -871l649 2027h161l-735 -2224h-135l-410 925l-142 -81z" glyph-name="radical" horiz-adv-x="1572" unicode="√"/>
<glyph d="M614 254q-62 -23 -99 -23.5t-43 -0.5q-178 0 -290 110q-108 106 -108 260q0 190 124 301q115 103 296 103q196 0 337 -176q40 -50 74 -102q121 183 291 252q65 26 150.5 26t161.5 -29.5t126 -80.5q97 -102 97 -256q0 -186 -117 -298q-118 -111 -315 -111q-194 0 -326 173 q-38 49 -71 100q-121 -184 -288 -248zM982 622q166 -277 343 -277q118 0 191 89q64 80 64 190q0 173 -150 234q-51 21 -112.5 21t-109.5 -24t-90 -61q-72 -66 -136 -172zM375 368q52 -22 111.5 -22t104 19t85.5 53q84 71 151 187l-59 92q-121 182 -260 182q-131 0 -210 -83 q-73 -76 -73 -187q0 -176 150 -241z" glyph-name="infinity" horiz-adv-x="1804" unicode="∞"/>
<glyph d="M877 1470q-57 90 -212 90q-259 0 -259 -354q0 -167 109 -404q47 -102 101.5 -204.5t101.5 -205.5q109 -241 109 -420q0 -349 -210 -453q-75 -37 -153 -37t-125 9t-89 25q-89 33 -139 89l64 103q56 -61 152 -90q39 -11 93.5 -11t102.5 18t82 60q70 86 70 286 q0 168 -109 405q-47 102 -101.5 205t-101.5 207q-109 241 -109 418q0 336 231 443q78 36 181 36q215 0 298 -128z" glyph-name="integral" horiz-adv-x="1042" unicode="∫"/>
<glyph d="M341 481q-134 0 -218 -128l-55 57q23 68 104 128q91 69 198 69q85 0 183.5 -86.5t160.5 -86.5q129 0 210 130l56 -57q-24 -77 -102 -135q-86 -65 -193 -65q-86 0 -184 87t-160 87zM394 926q-134 0 -218 -128l-55 57q23 68 104 128q91 69 198 69q85 0 183.5 -86.5 t160.5 -86.5q129 0 210 130l56 -57q-24 -77 -102 -135q-86 -65 -193 -65q-86 0 -184 87t-160 87z" glyph-name="approxequal" horiz-adv-x="1063" unicode="≈"/>
<glyph d="M340 358h-241l13 120h283l180 389h-406l13 120h448l156 337h121l-156 -337h246l-14 -120h-287l-180 -389h411l-14 -120h-452l-165 -358h-121z" glyph-name="notequal" horiz-adv-x="1063" unicode="≠"/>
<glyph d="M205 759l999 445l-16 -141l-770 -336l691 -342l-16 -139l-894 454zM153 113h948l-14 -114h-948z" glyph-name="lessequal" horiz-adv-x="1368" unicode="≤"/>
<glyph d="M197 246l19 149l777 339l-688 333l19 137l887 -446l-8 -59zM141 -1l15 114h948l-15 -114h-948z" glyph-name="greaterequal" horiz-adv-x="1368" unicode="≥"/>
<glyph d="M57 760v13l531 743h8l532 -743v-13l-531 -760h-11zM593 221l371 546v3l-371 528h-3l-368 -528v-6l368 -543h3z" glyph-name="lozenge" horiz-adv-x="1175" unicode="◊"/>
<glyph d="M142 -52q84 -27 111 -142q8 -34 8 -82t-17 -99.5t-43 -90.5q-53 -78 -114 -94l-61 39l2 20q88 59 88 191q0 42 -20 77.5t-52 48.5l4 41z" glyph-name="commaaccent" horiz-adv-x="367" unicode=""/>
<glyph d="M363 1601q-129 79 -250 219q-38 44 -61 83l94 97l273 -349z" glyph-name="grave.cap" horiz-adv-x="522"/>
<glyph d="M634.5 1730.5q-20.5 -9.5 -50.5 -9.5t-54.5 26.5t-24.5 61t10.5 56t27.5 37.5q35 33 77 33t65 -25t23 -45t-1 -35t-10.5 -36.5t-25.5 -37.5t-36.5 -25.5zM110 1747.5q-24 26.5 -24 65.5q0 51 37 89q34 33 76 33t65.5 -25.5t23.5 -63.5q0 -51 -37 -90q-34 -35 -75.5 -35 t-65.5 26.5z" glyph-name="dieresis.cap" horiz-adv-x="807"/>
<glyph d="M82 1654l278 346l95 -97q-42 -71 -115 -139q-119 -111 -201 -161z" glyph-name="acute.cap" horiz-adv-x="526"/>
<glyph d="M51 1653l340 347h136l205 -348l-73 -53l-219 265l-330 -270z" glyph-name="circumflex.cap" horiz-adv-x="795"/>
<glyph d="M50 1933l67 67l244 -270l321 270l63 -67l-322 -319h-135z" glyph-name="caron.cap" horiz-adv-x="793"/>
<glyph d="M478 1665q-59 -28 -133.5 -28t-130.5 28t-92 73q-70 88 -70 221v11q0 5 1 10h103q0 -18 3.5 -42t15.5 -59.5t35 -64.5q50 -65 143 -65q99 0 165 84q48 62 64 147h101v-11t-4 -41.5t-30 -90t-69 -100t-102 -72.5z" glyph-name="breve.cap" horiz-adv-x="715"/>
<glyph d="M81.5 1733q-23.5 26 -23.5 63q0 81 72 115q19 9 51 9t55 -25.5t23 -63.5q0 -53 -37 -90q-34 -34 -75.5 -34t-65 26z" glyph-name="dotaccent.cap" horiz-adv-x="389"/>
<glyph d="M126.5 1547q-72.5 64 -72.5 181q0 133 112 207q97 65 230 65q192 0 251 -146q19 -46 19 -110.5t-27.5 -114.5t-74.5 -83q-90 -63 -227.5 -63t-210 64zM339 1565q218 0 218 197q0 108 -101 143q-32 11 -71.5 11t-79 -9t-71.5 -31q-73 -50 -73 -153q0 -68 49 -113t129 -45z " glyph-name="ring.cap" horiz-adv-x="723"/>
<glyph d="M30 1798q54 104 186 152q41 14 79 14t65.5 -11t50.5 -27.5t42 -35.5t37 -36q44 -38 79 -38t58.5 12.5t42 31t32.5 39.5l26 38l66 -70q-24 -71 -97 -122q-74 -52 -152 -52q-67 0 -104 27t-56 46t-38 35q-44 37 -82 38t-61.5 -9.5t-42.5 -26.5t-35 -35l-29 -35z" glyph-name="tilde.cap" horiz-adv-x="813"/>
<glyph d="M472 1621l312 375l103 -90q-41 -75 -159 -183q-110 -100 -199 -152zM59 1619l312 375l101 -89q-51 -105 -250 -267q-51 -41 -91 -69z" glyph-name="hungarumlaut.cap" horiz-adv-x="922"/>
<glyph d="M379 1680q29 -56 29 -189q0 -192 -80 -366q-23 -49 -49 -87l-78 30l-4 20q71 196 71 341.5t-29 190.5l7 25z" glyph-name="caronvertical" horiz-adv-x="315"/>
<glyph d="M48 1862h510l-5 -114h-509z" glyph-name="macron.cap" horiz-adv-x="614"/>
<glyph d="M287 1144h149l-155 -1144h-148zM445 1436q-20 -10 -41 -10t-37 8q-51 23 -51 81q0 5 0.5 19.5t10 35.5t24.5 36q34 34 77.5 34t67 -25.5t23.5 -62.5q0 -82 -74 -116z" glyph-name="i.cy" horiz-adv-x="564"/>
<glyph d="M287 1144h149l-155 -1144h-148zM445 1436q-20 -10 -41 -10t-37 8q-51 23 -51 81q0 5 0.5 19.5t10 35.5t24.5 36q34 34 77.5 34t67 -25.5t23.5 -62.5q0 -82 -74 -116z" glyph-name="i.dot" horiz-adv-x="564"/>
<glyph d="M338 1530h151l-193 -1530h-151zM393.5 1733q-23.5 26 -23.5 63q0 81 72 115q19 9 51 9t55 -25.5t23 -63.5q0 -53 -37 -90q-34 -34 -75.5 -34t-65 26z" glyph-name="i.uc" horiz-adv-x="572"/>
<glyph d="M982 1144h149l-155 -1144h-148zM1140 1436q-20 -10 -41 -10t-37 8q-51 23 -51 81q0 5 0.5 19.5t10 35.5t24.5 36q34 34 77.5 34t67 -25.5t23.5 -62.5q0 -82 -74 -116zM851 1531q-45 31 -122 31h-31t-65 -21t-69 -56q-60 -71 -74 -183l-21 -162h243l-9 -119h-250 l-138 -1021h-148l137 1021h-152l22 118l146 1l18 124q25 188 126 299q106 115 274 115q94 0 151 -26z" glyph-name="fi_trk" horiz-adv-x="1258"/>
<glyph d="M1676 1144h149l-155 -1144h-148zM1834 1436q-20 -10 -41 -10t-37 8q-51 23 -51 81q0 5 0.5 19.5t10 35.5t24.5 36q34 34 77.5 34t67 -25.5t23.5 -62.5q0 -82 -74 -116zM851 1531q-45 31 -122 31h-31t-65 -21t-69 -56q-60 -71 -74 -183l-21 -162h243l-9 -119h-250 l-138 -1021h-148l137 1021h-152l22 118l146 1l18 124q25 188 126 299q106 115 274 115q94 0 151 -26zM1546 1531q-45 31 -122 31h-31t-65 -21t-69 -56q-60 -71 -74 -183l-21 -162h243l-9 -119h-250l-138 -1021h-148l137 1021h-152l22 118l146 1l18 124q25 188 126 299 q106 115 274 115q94 0 151 -26z" glyph-name="ffi_dflt" horiz-adv-x="1953"/>
</font>
</defs>
</svg>
