<?xml version="1.0" encoding="UTF-8"?>
<!DOCTYPE svg  PUBLIC '-//W3C//DTD SVG 1.1//EN'  'http://www.w3.org/Graphics/SVG/1.1/DTD/svg11.dtd'>
<svg version="1.1" xmlns="http://www.w3.org/2000/svg">
<defs>
<font id="MerriweatherSans-Light" horiz-adv-x="0">
<font-face font-family="Merriweather Sans" font-weight="300" ascent="1638" bbox="-118 -560 2682 1990" cap-height="1522" descent="-410" panose-1="2 0 5 3 6 0 0 2 0 4" underline-position="-348" underline-thickness="137" unicode-range="U+0001-FB04" units-per-em="2048" x-height="1140"/>
<missing-glyph d="M228 1416h1416v-1416h-1416v1416zM586 219l347 368l362 -368l122 122l-363 368l363 358l-128 124l-352 -366l-357 368l-123 -125l359 -363l-358 -342z" horiz-adv-x="1872"/>
<glyph d="M800 1528q-54 20 -151.5 20t-153.5 -70.5t-56 -209.5v-128h303v-126h-303v-1014h-167v1014h-196v92l196 34v92q0 233 128 352q106 98 264 98q80 0 136 -21v-133zM1601 1528q-54 20 -151.5 20t-153.5 -70.5t-56 -209.5v-128h303v-126h-303v-1014h-167v1014h-196v92l196 34 v92q0 233 128 352q106 98 264 98q80 0 136 -21v-133z" glyph-name="f_f" horiz-adv-x="1602" unicode="ff"/>
<glyph d="M1012 1139h166v-1139h-166v1139zM1214 1527q0 -99 -77 -130q-22 -9 -45 -9q-47 0 -77.5 31.5t-30.5 70.5q0 67 38 103.5t88.5 36.5t77 -32t26.5 -71zM800 1528q-54 20 -151.5 20t-153.5 -70.5t-56 -209.5v-128h303v-126h-303v-1014h-167v1014h-196v92l196 34v92 q0 233 128 352q106 98 264 98q80 0 136 -21v-133z" glyph-name="f_i" horiz-adv-x="1389" unicode="fi"/>
<glyph d="M1015 1664h167v-1664h-167v1664zM800 1528q-54 20 -151.5 20t-153.5 -70.5t-56 -209.5v-128h303v-126h-303v-1014h-167v1014h-196v92l196 34v92q0 233 128 352q106 98 264 98q80 0 136 -21v-133z" glyph-name="f_l" horiz-adv-x="1395" unicode="fl"/>
<glyph d="M1813 1139h166v-1139h-166v1139zM2015 1527q0 -99 -77 -130q-22 -9 -45 -9q-47 0 -77.5 31.5t-30.5 70.5q0 67 38 103.5t88.5 36.5t77 -32t26.5 -71zM800 1528q-54 20 -151.5 20t-153.5 -70.5t-56 -209.5v-128h303v-126h-303v-1014h-167v1014h-196v92l196 34v92 q0 233 128 352q106 98 264 98q80 0 136 -21v-133zM1601 1528q-54 20 -151.5 20t-153.5 -70.5t-56 -209.5v-128h303v-126h-303v-1014h-167v1014h-196v92l196 34v92q0 233 128 352q106 98 264 98q80 0 136 -21v-133z" glyph-name="f_f_i" horiz-adv-x="2190" unicode="ffi"/>
<glyph d="M1816 1664h167v-1664h-167v1664zM800 1528q-54 20 -151.5 20t-153.5 -70.5t-56 -209.5v-128h303v-126h-303v-1014h-167v1014h-196v92l196 34v92q0 233 128 352q106 98 264 98q80 0 136 -21v-133zM1601 1528q-54 20 -151.5 20t-153.5 -70.5t-56 -209.5v-128h303v-126h-303 v-1014h-167v1014h-196v92l196 34v92q0 233 128 352q106 98 264 98q80 0 136 -21v-133z" glyph-name="f_f_l" horiz-adv-x="2196" unicode="ffl"/>
<glyph d="M228 1416h1416v-1416h-1416v1416zM586 219l347 368l362 -368l122 122l-363 368l363 358l-128 124l-352 -366l-357 368l-123 -125l359 -363l-358 -342z" glyph-name=".notdef" horiz-adv-x="1872"/>
<glyph glyph-name=".null" unicode=""/>
<glyph glyph-name="nonmarkingreturn" unicode=""/>
<glyph glyph-name="uni0001"/>
<glyph glyph-name="uni0002"/>
<glyph glyph-name="uni0003"/>
<glyph glyph-name="uni0005"/>
<glyph glyph-name="uni0006"/>
<glyph glyph-name="uni0007"/>
<glyph glyph-name="uni0008"/>
<glyph glyph-name="HT" unicode="	"/>
<glyph glyph-name="LF" unicode="
"/>
<glyph glyph-name="DLE"/>
<glyph glyph-name="DC1"/>
<glyph glyph-name="DC2"/>
<glyph glyph-name="DC3"/>
<glyph glyph-name="DC4"/>
<glyph glyph-name="uni0015"/>
<glyph glyph-name="uni0016"/>
<glyph glyph-name="uni0017"/>
<glyph glyph-name="uni0018"/>
<glyph glyph-name="uni0019"/>
<glyph glyph-name="RS"/>
<glyph glyph-name="US"/>
<glyph glyph-name="space" horiz-adv-x="655" unicode=" "/>
<glyph d="M210 1780h187l-18 -1307h-148zM416 135q0 -106 -75 -141q-22 -10 -57 -10t-68 35t-33 78q0 71 36.5 111.5t73.5 40.5q63 0 93 -35.5t30 -78.5z" glyph-name="exclam" horiz-adv-x="601" unicode="!"/>
<glyph d="M274 1685h183l-24 -719h-134zM756 1685h183l-24 -719h-134z" glyph-name="quotedbl" horiz-adv-x="1214" unicode='"'/>
<glyph d="M415 358h-212v119h223l40 437h-227v117h238l31 338h145l-32 -338h374l30 338h145l-31 -338h230v-117h-241l-40 -437h234l1 -119h-246l-33 -358h-140l31 358h-376l-33 -358h-143zM946 477l38 437h-374l-40 -437h376z" glyph-name="numbersign" horiz-adv-x="1556" unicode="#"/>
<glyph d="M1058 1323q-128 82 -326 82q-135 0 -231.5 -57t-96.5 -169.5t88 -192.5q63 -59 194 -121.5t208 -104.5q276 -149 276 -375q0 -181 -117 -282.5t-318 -116.5l-2 -221h-124l2 221q-184 8 -319 61q-36 14 -54 27l41 139q99 -63 271 -87q55 -7 122 -7q150 0 241 62t91 182.5 t-102 201.5q-68 54 -202 114.5t-205.5 104t-127.5 99.5q-125 125 -125 288.5t128 262.5q108 82 283 100l4 218h124l-3 -215q202 -10 315 -81z" glyph-name="dollar" horiz-adv-x="1382" unicode="$"/>
<glyph d="M1225 1530h145l-658 -1530h-145zM694.5 795.5q-111.5 -109.5 -267 -109.5t-249 114.5t-93.5 291.5t111.5 288.5t274.5 111.5t249 -110t86 -293.5t-111.5 -293zM354 820q38 -22 86 -22q98 2 157.5 79t59.5 209q0 208 -117 274q-36 20 -61.5 20t-50.5 -0.5t-65 -21 t-69 -58.5q-60 -79 -60 -211q0 -199 120 -269zM1249.5 749.5q111.5 111.5 275.5 111.5t248.5 -110.5t84.5 -293t-111.5 -292t-267 -109.5t-248.5 114t-93 291t111.5 288.5zM1342.5 250.5q55.5 -82.5 150.5 -82.5q97 0 156.5 76.5t59.5 211.5q0 208 -116 274q-36 20 -61.5 20 t-51 -0.5t-65.5 -21t-69 -58.5q-59 -78 -59 -207.5t55.5 -212z" glyph-name="percent" horiz-adv-x="1944" unicode="%"/>
<glyph d="M1086 68q-163 -84 -316 -84q-295 0 -458.5 105t-163.5 303.5t208 325.5q61 38 128 68q-186 235 -186 403.5t109.5 262.5t286 94t278 -98t101.5 -234q0 -246 -225 -392q-68 -44 -150 -81q157 -214 266.5 -341t137.5 -156q109 101 109 270q0 110 -38 214h147 q35 -114 35 -214q0 -228 -152 -358q98 -69 221 -69h16v-88q-52 -15 -113 -15q-125 0 -241 84zM625 840q305 125 305 372q0 84 -63.5 149.5t-169.5 65.5q-170 0 -225 -125q-19 -43 -19 -100t12.5 -100.5t35 -84.5t54.5 -83t70 -94zM560 687q-255 -118 -255 -297 q0 -123 109.5 -203.5t328.5 -80.5q116 0 239 53q-179 194 -422 528z" glyph-name="ampersand" horiz-adv-x="1532" unicode="&amp;"/>
<glyph d="M274 1685h183l-24 -719h-134z" glyph-name="quotesingle" horiz-adv-x="731" unicode="'"/>
<glyph d="M598 -327q-131 83 -254 281.5t-174 461.5q-28 140 -28 296t27.5 283t70.5 235q78 194 186.5 330t171.5 172l115 -57q-112 -83 -229 -281q-179 -308 -179 -706q0 -477 258 -808q72 -92 150 -150z" glyph-name="parenleft" horiz-adv-x="848" unicode="("/>
<glyph d="M250.036 1753.98q130.992 -82.9951 253.985 -281.483q122.992 -198.487 173.989 -461.472q27.998 -139.991 27.998 -295.982q0 -155.99 -27.498 -282.982q-27.499 -126.992 -70.4961 -234.985q-77.9951 -193.988 -186.488 -329.979q-108.494 -135.992 -171.49 -171.99 l-114.992 56.9971q111.993 82.9951 228.985 280.982q178.989 307.981 178.989 705.957q0 476.971 -257.984 807.95q-71.9951 91.9951 -149.99 149.991z" glyph-name="parenright" horiz-adv-x="848" unicode=")"/>
<glyph d="M645 1094l29 -165l16 -280l-146 -1l10 281l25 167l-128 -110l-236 -152l-73 125l246 134l157 60l-158 57l-248 130l71 126l237 -151l131 -104q0 1 -2 13l-5 30q-11 67 -16.5 93t-5.5 28l-14 283h146l-10 -281l-26 -165l128 108l238 152l72 -124l-247 -133l-156 -61 l157 -57l250 -128l-74 -129l-235 150z" glyph-name="asterisk" horiz-adv-x="1226" unicode="*"/>
<glyph d="M627 539l5 172l-163 -5h-237v134h237l163 -8l-5 171v244h136v-244l-6 -171l149 8h255v-134h-255l-149 5l6 -172v-251h-136v251z" glyph-name="plus" horiz-adv-x="1393" unicode="+"/>
<glyph d="M201 159l105 99q80 -37 119.5 -122.5t39.5 -175.5q0 -165 -71.5 -290t-172.5 -169l-56 69l-1 21q92 55 130 203q13 51 13 96q0 76 -31.5 141t-74.5 80v48z" glyph-name="comma" horiz-adv-x="601" unicode=","/>
<glyph d="M247 840h856v-135h-856v135z" glyph-name="hyphen" horiz-adv-x="1350" unicode="-"/>
<glyph d="M221 207.5q37 41.5 88 41.5t79.5 -37t28.5 -79q0 -71 -35.5 -110t-72 -39t-56 9t-35.5 25q-33 36 -33.5 92t36.5 97.5z" glyph-name="period" horiz-adv-x="601" unicode="."/>
<glyph d="M636 1599h151l-571 -1962h-150z" glyph-name="slash" horiz-adv-x="854" unicode="/"/>
<glyph d="M201 322q-50 134 -50 345q0 115 45 233.5t119 199.5q155 170 391 170q278 0 409 -185q111 -157 111 -444.5t-153 -470t-392 -182.5q-356 0 -480 334zM401 269q103 -173 283 -173t279 143.5t99 390.5q0 370 -197 488q-70 41 -163 41q-181 0 -283.5 -137t-103.5 -371 t86 -382z" glyph-name="zero" horiz-adv-x="1378" unicode="0"/>
<glyph d="M409 1067q-156 -64 -262 -90l-20 101q146 44 315 154q43 28 63 46l78 -22v-1256h-174v1067z" glyph-name="one" horiz-adv-x="914" unicode="1"/>
<glyph d="M156 86q298 176 492 372q230 231 230 426.5t-158 250.5q-51 18 -110 18q-105 0 -202.5 -43.5t-158.5 -110.5l-71 95q102 124 294 175q69 18 167 18q202 0 305.5 -106.5t103.5 -276.5q0 -201 -171 -405t-445 -369l688 5v-135h-939z" glyph-name="two" horiz-adv-x="1266" unicode="2"/>
<glyph d="M148 -204q75 -14 116 -14q169 0 271 34.5t173 89.5q145 115 145 266.5t-88 226t-226 74.5q-35 0 -75 -5l-111 -27l-36 116q105 21 185 53q137 51 207.5 134.5t70.5 188t-72.5 162t-194.5 57.5q-187 0 -342 -121l-66 96q116 100 289 141q64 16 140 16q171 0 291 -89.5 t120 -266t-179 -306.5q-53 -39 -114 -66q170 -11 270.5 -117t100.5 -247q0 -103 -47.5 -198.5t-135.5 -169.5q-193 -161 -496 -161q-93 0 -195 18z" glyph-name="three" horiz-adv-x="1136" unicode="3"/>
<glyph d="M140.5 153q27.5 57 67.5 139.5t88.5 183.5t98.5 206t99 207q140 291 195 418h59l104 -64q-60 -139 -273.5 -561t-221.5 -438l-67 -115h537l13 487h153v-487h251v-129h-251v-376h-166v376h-682l-41 79q9 17 36.5 74z" glyph-name="four" horiz-adv-x="1314" unicode="4"/>
<glyph d="M204 -222q50 -5 80 -5q265 0 441.5 131.5t176.5 322.5q0 325 -344 325h-8q-133 0 -298 -61l-41 25l61 736h750l-16 -144h-603l-49 -477q150 46 266 46q221 0 336 -117t115 -322q0 -144 -88 -277q-141 -214 -437 -284q-101 -24 -201 -24.5t-142 12.5z" glyph-name="five" horiz-adv-x="1222" unicode="5"/>
<glyph d="M515 895q90 90 307 90q74 0 150 -36.5t128 -96.5q105 -124 105 -306q0 -229 -138 -395.5t-380.5 -166.5t-380.5 170t-138 420t121.5 463.5t312.5 352.5t390 178l46 -108q-302 -80 -495.5 -320t-193.5 -521q0 -354 183 -473q68 -45 162 -45q167 0 254.5 124.5t87.5 293 t-77.5 252.5t-197 84t-199.5 -60z" glyph-name="six" horiz-adv-x="1377" unicode="6"/>
<glyph d="M377 -278q137 287 445 1098q35 92 65.5 172t53.5 142l-791 1l1 136h937l37 -46l-569 -1555z" glyph-name="seven" horiz-adv-x="1236" unicode="7"/>
<glyph d="M202 200.5q-45 76.5 -45 160.5q0 295 331 443q-128 75 -199.5 167t-71.5 226q0 177 130 272.5t322 95.5t312.5 -95.5t120.5 -252.5q0 -195 -166 -341q-56 -50 -133 -86q173 -90 236 -150t93.5 -119t30.5 -147.5t-40.5 -164.5t-109.5 -126q-137 -99 -346 -99t-347 92 q-73 48 -118 124.5zM688 851q112 39 186.5 135t74.5 209.5t-74.5 183t-206 69.5t-214.5 -64.5t-83 -176.5q0 -161 197 -285q57 -37 120 -71zM409 181q91 -79 245.5 -79t249 73t94.5 196q0 169 -250 296q-71 36 -145 74q-124 -46 -204.5 -137.5t-80.5 -217.5t91 -205z" glyph-name="eight" horiz-adv-x="1297" unicode="8"/>
<glyph d="M875 344q-79 -90 -305 -90q-77 0 -154 39.5t-130 104.5q-106 133 -106 324q0 238 141.5 390t383 152t374 -168t132.5 -418q0 -397 -277 -706q-165 -183 -370 -278q-100 -47 -196 -67l-57 103q316 78 519 348t203 549q0 359 -184 475q-67 43 -157 43q-162 0 -253 -114.5 t-91 -253.5q0 -187 81 -290t197.5 -103t208.5 55z" glyph-name="nine" horiz-adv-x="1396" unicode="9"/>
<glyph d="M221 207.5q37 41.5 88 41.5t79.5 -37t28.5 -79q0 -71 -35.5 -110t-72 -39t-56 9t-35.5 25q-33 36 -33.5 92t36.5 97.5zM221 1031.5q37 41.5 88 41.5t79.5 -37t28.5 -79q0 -71 -35.5 -110t-72 -39t-56 9t-35.5 25q-33 36 -33.5 92t36.5 97.5z" glyph-name="colon" horiz-adv-x="601" unicode=":"/>
<glyph d="M191 159l105 99q80 -37 119.5 -122.5t39.5 -175.5q0 -165 -71.5 -290t-172.5 -169l-56 69l-1 21q92 55 130 203q13 51 13 96q0 76 -31.5 141t-74.5 80v48zM221 1031.5q37 41.5 88 41.5t79.5 -37t28.5 -79q0 -71 -35.5 -110t-72 -39t-56 9t-35.5 25q-33 36 -33.5 92 t36.5 97.5z" glyph-name="semicolon" horiz-adv-x="601" unicode=";"/>
<glyph d="M171 834l962 459v-156l-789 -364l789 -360v-159l-962 458v122z" glyph-name="less" horiz-adv-x="1368" unicode="&lt;"/>
<glyph d="M241 1114h915v-128h-915v128zM241 555h915v-127h-915v127z" glyph-name="equal" horiz-adv-x="1397" unicode="="/>
<glyph d="M1197.01 834l-961.941 459v-156l788.952 -364l-788.952 -360v-159l961.941 458v122z" glyph-name="greater" horiz-adv-x="1368" unicode="&gt;"/>
<glyph d="M456 712q0 -81 58 -246l-127 -1q-57 76 -83 207q-9 49 -9 90t18 75t49 65t71 59t83 55q124 81 160 114q74 69 83 142q8 45 8 90q0 135 -91 222q-119 112 -359 112q-124 0 -183 -24v123q26 23 100.5 32.5t108.5 9.5q325 0 480 -171q109 -122 109 -302q0 -138 -45 -206 t-96 -112t-108.5 -79t-107 -69t-82.5 -71t-35 -68.5t-2 -46.5zM617 131q0 -103 -74 -137q-22 -10 -55.5 -10t-66 34.5t-32.5 75.5q0 68 36 108t73 40q61 0 90 -35t29 -76z" glyph-name="question" horiz-adv-x="1047" unicode="?"/>
<glyph d="M1863 808q0 624 -639 624q-231 0 -428 -123q-310 -194 -405 -585q-32 -133 -32 -280.5t27 -262t76 -202.5q93 -168 256.5 -249.5t394 -81.5t389.5 93l30 -100q-109 -71 -320 -97q-68 -9 -138 -9q-378 0 -614 227.5t-236 662.5q0 331 135.5 585t370.5 394t523 140 q338 0 542 -188.5t204 -520.5q0 -383 -169.5 -608t-386.5 -225q-135 0 -135 211q0 88 16 191q-129 -276 -280 -372q-54 -34 -108 -34t-105 26q-109 55 -157 216q-22 77 -22 132t0.5 94t16 113.5t45.5 144.5q64 154 188 250.5t289 96.5t259 -57l133 26q-91 -318 -133 -639 q-14 -105 -14 -191t45 -86q68 0 136 53t123 145q123 207 123 486zM823 636.5q-26 -87.5 -27 -136t-1 -85.5q0 -109 43 -195.5t128 -86.5q103 0 248 274t178 478q-55 71 -202 71q-179 0 -292 -161q-49 -71 -75 -158.5z" glyph-name="at" horiz-adv-x="2218" unicode="@"/>
<glyph d="M621 1538h166l574 -1538h-183l-147 418h-665l-153 -418h-180zM987 545l-244 695l-38 120l-38 -121l-255 -694h575z" glyph-name="A" horiz-adv-x="1393" unicode="A"/>
<glyph d="M923 18.5q-115 -32.5 -242 -32.5t-386 14h-89v1523l92 -1l340 13q250 0 374 -94t124 -278.5t-130 -293.5q-47 -39 -114 -55q141 -6 245 -110t104 -251q0 -228 -133 -341q-70 -61 -185 -93.5zM606 1415q-148 0 -232 -12v-555q40 -5 170 -5l177 1q117 8 184 90.5t67 220.5 q0 260 -366 260zM703 723h-197q-94 0 -132 -4v-589q105 -20 244.5 -20t215.5 16q235 52 235 307q0 281 -366 290z" glyph-name="B" horiz-adv-x="1350" unicode="B"/>
<glyph d="M155.5 439q-48.5 142 -48.5 323t55 327t150 246q193 203 491 203q202 0 341 -43q33 -10 56 -15l-24 -150q-17 6 -44 17.5t-103 32t-206 20.5q-253 0 -400.5 -168t-147.5 -459t141 -473t386 -182q195 0 338 61q37 16 57 29l2 -144q-35 -11 -72 -25t-116.5 -34.5 t-226 -20.5t-273.5 55.5t-217 156.5t-138.5 243z" glyph-name="C" horiz-adv-x="1328" unicode="C"/>
<glyph d="M317 -2l-93 2h-18v1522h60l60 1l338 13q358 0 539 -190t181 -555t-194.5 -586t-532.5 -221zM879 1377q-110 36 -234 36t-270 -14v-1271q337 -47 510 24q100 40 171 122q152 174 152 515q0 480 -329 588z" glyph-name="D" horiz-adv-x="1479" unicode="D"/>
<glyph d="M206 1522h858v-131h-689v-539h503v-131h-503v-588h762v-133h-931v1522z" glyph-name="E" horiz-adv-x="1203" unicode="E"/>
<glyph d="M206 1522h851v-131h-682v-561h509v-131h-509v-699h-169v1522z" glyph-name="F" horiz-adv-x="1085" unicode="F"/>
<glyph d="M1228 1325q-171 80 -409.5 80t-385.5 -168t-147 -463.5t136 -477.5t369 -182t367 67v436l-316 11v122h479v-659q-32 -2 -73 -19q-215 -88 -412 -88t-325.5 58t-217.5 160q-183 211 -183 567t198 562.5t507 206.5q174 0 335 -42q40 -10 85 -19z" glyph-name="G" horiz-adv-x="1442" unicode="G"/>
<glyph d="M206 1522h169v-682h792v682h169v-1522h-169v710h-792v-710h-169v1522z" glyph-name="H" horiz-adv-x="1542" unicode="H"/>
<glyph d="M221 1522h171v-1522h-171v1522z" glyph-name="I" horiz-adv-x="613" unicode="I"/>
<glyph d="M-39 -243q162 46 250 173q68 98 78 328q4 90 4 296v968h172v-985q0 -134 -0.5 -253t-18.5 -214q-31 -174 -158 -278t-274 -124z" glyph-name="J" horiz-adv-x="694" unicode="J"/>
<glyph d="M206 1522h169v-821l675 821h201l-541 -646q32 -51 112 -170q174 -258 248.5 -370t139.5 -225l67 -111h-196q-6 9 -11.5 19.5t-12.5 23.5t-16 30t-35 62.5t-79 129t-110.5 169.5t-113.5 169t-99 150l-229 -265v-488h-169v1522z" glyph-name="K" horiz-adv-x="1364" unicode="K"/>
<glyph d="M206 1522h172v-1389h629v-133h-801v1522z" glyph-name="L" horiz-adv-x="1066" unicode="L"/>
<glyph d="M311 1522h240l337 -989l75 -286l73 286l318 989h228l196 -1522h-171l-106 947l-44 450l-124 -450l-323 -962h-93l-339 962l-136 450l-38 -450l-91 -947l-164 -1z" glyph-name="M" horiz-adv-x="1925" unicode="M"/>
<glyph d="M205 1522h157l701 -1060l142 -247l-12 311v996h155v-1522h-155l-687 1034l-156 265l11 -329v-970h-156v1522z" glyph-name="N" horiz-adv-x="1553" unicode="N"/>
<glyph d="M496 38q-252 116 -343 408q-43 141 -43 321.5t57.5 329.5t151.5 245q190 196 492 196t475.5 -208t173.5 -544q0 -382 -194 -592t-503 -210q-148 0 -267 54zM312 510q67 -243 252 -345q93 -51 212 -51q237 0 374 172.5t138 468t-126.5 475t-356.5 179.5t-376.5 -169.5 t-147.5 -489.5q0 -127 31 -240z" glyph-name="O" horiz-adv-x="1572" unicode="O"/>
<glyph d="M622 527l-247 8v-535h-169v1522h82l378 14q527 0 527 -491q0 -246 -151.5 -381t-419.5 -137zM798 1395q-73 19 -193.5 19t-229.5 -16v-734q92 -12 208 -12q217 1 329 94t112 298q0 292 -226 351z" glyph-name="P" horiz-adv-x="1279" unicode="P"/>
<glyph d="M799 -15l-21 -1h-16q-299 0 -476 213.5t-177 549.5q0 201 57.5 350t151.5 245q190 196 492 196t475.5 -208t173.5 -536t-138 -526.5t-363 -258.5q133 -158 373 -158q125 0 178 23v-123q-57 -38 -156 -38q-190 0 -316.5 60t-237.5 212zM311 510q67 -243 252 -345 q93 -51 212 -51q237 0 374 172.5t138 468t-126.5 475t-356.5 179.5t-376.5 -169.5t-147.5 -489.5q0 -127 31 -240z" glyph-name="Q" horiz-adv-x="1570" unicode="Q"/>
<glyph d="M684 664q-78 -3 -153.5 -3t-155.5 2v-663h-169v1522h46l54 1q72 1 166.5 7t193.5 6q522 0 522 -420q0 -253 -182 -370q-57 -36 -127 -56q96 -59 197 -260q39 -78 87 -180.5t68.5 -139.5t34.5 -63t28 -47h-192q-34 46 -78.5 152.5t-71.5 165.5q-69 152 -118 222 q-73 104 -150 124zM807 1394q-71 17 -205.5 17t-226.5 -16v-612q54 -6 158 -6h126q253 3 330 186q26 62 26 144t-22 139.5t-68.5 94t-117.5 53.5z" glyph-name="R" horiz-adv-x="1359" unicode="R"/>
<glyph d="M956 1323q-128 82 -326 82q-135 0 -231.5 -57t-96.5 -169.5t88 -192.5q63 -59 194 -121.5t208 -104.5q276 -149 276 -375q0 -195 -136 -298t-352.5 -103t-380.5 60q-42 16 -63 30l41 139q99 -63 271 -87q55 -7 122 -7q150 0 241 62t91 182.5t-102 201.5 q-68 54 -202 114.5t-205.5 104t-127.5 99.5q-125 125 -125 279q0 253 261 340q106 36 204 36q260 0 386 -82z" glyph-name="S" horiz-adv-x="1154" unicode="S"/>
<glyph d="M553 1391h-491v131h1160v-131h-498v-1391h-171v1391z" glyph-name="T" horiz-adv-x="1279" unicode="T"/>
<glyph d="M171 1523h169l-1 -839q0 -458 237 -540q77 -27 170 -27q195 0 292.5 127.5t97.5 440.5v837h168v-877q0 -661 -560 -661q-439 0 -540 376q-33 123 -33 284v879z" glyph-name="U" horiz-adv-x="1474" unicode="U"/>
<glyph d="M31 1522h179l391 -1085l76 -244l76 244l370 1085h178l-554 -1538h-142z" glyph-name="V" horiz-adv-x="1331" unicode="V"/>
<glyph d="M32 1522h174l249 -1006l69 -335l74 335l298 1006h125l301 -1006l85 -332l64 331l236 1007h171l-392 -1538h-166l-325 1096l-37 182l-37 -182l-329 -1096h-148z" glyph-name="W" horiz-adv-x="1909" unicode="W"/>
<glyph d="M563 782l-484 740l191 1l295 -465l107 -177l105 177l283 464h183l-480 -764l494 -758h-193l-408 655l-400 -655h-183z" glyph-name="X" horiz-adv-x="1330" unicode="X"/>
<glyph d="M548 584l-517 938h181l374 -701l51 -115l44 115l359 701h179l-499 -935v-587h-172v584z" glyph-name="Y" horiz-adv-x="1249" unicode="Y"/>
<glyph d="M914 1275l85 112h-810v135h995l36 -64l-805 -1219l-86 -106h849v-133h-1036l-36 66z" glyph-name="Z" horiz-adv-x="1309" unicode="Z"/>
<glyph d="M688 -171q-138 -20 -248 -20t-139 9t-52 39t-23 145v1542q0 115 23 145t52 39t94.5 9t292.5 -20v-90h-302v-1709l302 -2v-87z" glyph-name="bracketleft" horiz-adv-x="841" unicode="["/>
<glyph d="M217.039 1599h-150.991l570.966 -1962h149.99z" glyph-name="backslash" horiz-adv-x="854" unicode="\"/>
<glyph d="M153.042 -171q137.991 -20 247.985 -20q109.993 0 138.991 9t51.9971 39q22.998 30 22.998 145v1542q0 115 -22.998 145q-22.999 30 -51.9971 39t-94.4941 9t-292.482 -20v-90h301.981v-1709l-301.981 -2v-87z" glyph-name="bracketright" horiz-adv-x="841" unicode="]"/>
<glyph d="M603 1531h154l417 -1022h-160l-334 839l-330 -839h-161z" glyph-name="asciicircum" horiz-adv-x="1363" unicode="^"/>
<glyph d="M1732 -297v-105h-1772v105h1772z" glyph-name="underscore" horiz-adv-x="1692" unicode="_"/>
<glyph d="M170 1781q90 -118 337 -398l-85 -68q-72 48 -192 162.5t-180 200.5z" glyph-name="grave" horiz-adv-x="557" unicode="`"/>
<glyph d="M136 168q-26 59 -26 152.5t63 171.5q131 162 527 186q56 4 101 4v132q0 130 -63.5 173t-196.5 43t-280 -64q-39 -17 -61 -33l-41 110q93 62 281 100q69 14 147 14q183 0 273 -68q107 -81 107 -282v-823h-68q-49 0 -68.5 14t-19.5 66l-1 42q-88 -80 -238 -111 q-54 -11 -122.5 -11t-132 21.5t-109.5 62.5t-72 100zM448 522q-173 -64 -173 -192q0 -221 231 -221q141 0 258 71q27 17 37 28v367q-133 0 -225 -19t-128 -34z" glyph-name="a" horiz-adv-x="1145" unicode="a"/>
<glyph d="M344 1016q147 140 345.5 140t325 -141t126.5 -412t-159 -445.5t-415 -174.5q-175 0 -330 57q-38 14 -53 24v1597h167v-475zM351 155q65 -49 230 -49t277.5 126.5t112.5 349.5q0 443 -325 443q-127 0 -243 -77q-31 -20 -52 -39v-754z" glyph-name="b" horiz-adv-x="1244" unicode="b"/>
<glyph d="M892 965q-84 62 -245.5 62t-270 -118t-108.5 -337.5t100.5 -340.5t263 -121t280.5 79l35 -96q-118 -109 -348 -109t-361.5 159.5t-131.5 418t141 426.5t397 168q138 0 236 -38q26 -11 41 -21z" glyph-name="c" horiz-adv-x="1012" unicode="c"/>
<glyph d="M902 126q-142 -142 -341.5 -142t-329 138t-129.5 411.5t157.5 448t414.5 174.5q122 0 221 -38l-3 68v478h167v-1676h-72q-65 0 -79 32q-6 13 -6 37v69zM892 978q-65 56 -233.5 56t-277 -128.5t-108.5 -350t83.5 -331t243 -109.5t292.5 114v749z" glyph-name="d" horiz-adv-x="1239" unicode="d"/>
<glyph d="M986 89q-128 -105 -418 -105q-87 0 -180 40q-284 121 -284 541q0 264 136.5 427.5t380.5 163.5q177 0 288 -117t113 -327q2 -114 -7 -159h-748v-20q0 -221 113 -331q95 -92 264 -92q122 0 250 48q37 13 60 28zM867 665q1 21 1 58q0 125 -50 207q-66 107 -213 107 q-206 0 -291 -203q-29 -70 -40 -169h593z" glyph-name="e" horiz-adv-x="1128" unicode="e"/>
<glyph d="M800 1528q-54 20 -151.5 20t-153.5 -70.5t-56 -209.5v-128h303v-126h-303v-1014h-167v1014h-196v92l196 34v92q0 233 128 352q106 98 264 98q80 0 136 -21v-133z" glyph-name="f" horiz-adv-x="801" unicode="f"/>
<glyph d="M121 -215q0 173 159 261q-86 48 -86 171q1 58 38 118.5t98 104.5q-87 48 -137.5 129t-50.5 186q0 197 126 299t332 102q152 0 264 -68q98 49 220 49h107v-134h-232q69 -95 69 -208q0 -204 -127.5 -309.5t-323.5 -105.5q-84 0 -154 21q-76 -60 -76 -137t35 -104.5 t128 -27.5h247q322 0 377 -178q15 -51 15 -120.5t-43 -137.5t-118 -116q-154 -97 -389 -97q-345 0 -444 177q-34 61 -34 125zM580 492q282 0 282 280q0 136 -72 203t-194 67q-201 0 -264 -143q-24 -53 -24 -123q0 -132 72 -208t200 -76zM376 10q-92 -76 -92 -190t79 -168 t242 -54q255 0 351 120q33 41 33 93q0 104 -67 146.5t-233 42.5h-154q-100 0 -159 10z" glyph-name="g" horiz-adv-x="1224" unicode="g"/>
<glyph d="M193 1664h167v-507l-8 -156q126 98 296 140q65 16 142 16q172 0 252.5 -107t80.5 -373v-677h-167v689q0 187 -53.5 257.5t-184.5 70.5q-177 0 -358 -138v-879h-167v1664z" glyph-name="h" horiz-adv-x="1309" unicode="h"/>
<glyph d="M211 1139h166v-1139h-166v1139zM413 1527q0 -99 -77 -130q-22 -9 -45 -9q-47 0 -77.5 31.5t-30.5 70.5q0 67 38 103.5t88.5 36.5t77 -32t26.5 -71z" glyph-name="i" horiz-adv-x="588" unicode="i"/>
<glyph d="M-95 -370q51 -19 116 -19q100 0 145 82.5t45 265.5v1180h166v-1116q0 -408 -191 -499q-63 -31 -159 -31t-122 13v124zM411 1527q0 -99 -77 -130q-22 -9 -45 -9q-47 0 -77.5 31.5t-30.5 70.5q0 67 38 103.5t88.5 36.5t77 -32t26.5 -71z" glyph-name="j" horiz-adv-x="562" unicode="j"/>
<glyph d="M188 1661h166v-953l-4 -123l537 554h198l-445 -447l494 -692h-191l-414 581l-179 -180l4 -177v-224h-166v1661z" glyph-name="k" horiz-adv-x="1166" unicode="k"/>
<glyph d="M214 1664h167v-1664h-167v1664z" glyph-name="l" horiz-adv-x="594" unicode="l"/>
<glyph d="M1073 894q13 -72 13 -186v-708h-167v697q0 182 -43 250.5t-168 68.5t-272 -86q-42 -24 -76 -52v-878h-167v1139h149l1 -146q122 99 299 147q65 17 122 17q113 0 178.5 -34t101.5 -119q124 97 293 138q64 15 139 15q165 0 240.5 -100.5t75.5 -353.5v-703h-166v695 q0 175 -44 248.5t-187 73.5t-322 -123z" glyph-name="m" horiz-adv-x="1978" unicode="m"/>
<glyph d="M193 1139h149l1 -146q128 98 295 145q66 19 143 19q170 0 246 -101t76 -351v-705h-167v706q0 177 -49 244.5t-178 67.5t-276 -89q-41 -25 -73 -51v-878h-167v1139z" glyph-name="n" horiz-adv-x="1288" unicode="n"/>
<glyph d="M215 166q-111 157 -111 426q0 129 41.5 237.5t111.5 180.5q140 146 379 146t369 -180q112 -156 112 -420t-144.5 -418t-385.5 -154t-372 182zM948 561q0 327 -182 436q-64 38 -147 38q-163 0 -254 -116.5t-91 -328.5t84 -349.5t247 -137.5t253 122t90 336z" glyph-name="o" horiz-adv-x="1223" unicode="o"/>
<glyph d="M575 -16q-126 0 -225 38l3 -161v-367h-166v1646h150l1 -133q149 149 348 149t328.5 -138.5t129.5 -411.5t-157 -447.5t-412 -174.5zM888.5 917q-85.5 108 -243 108t-292.5 -116v-746q67 -57 235 -57t277 129t109 351.5t-85.5 330.5z" glyph-name="p" horiz-adv-x="1247" unicode="p"/>
<glyph d="M897 120q-142 -136 -339 -136t-326.5 138t-129.5 411.5t157.5 448t414.5 174.5q131 0 241 -42v2l145 28v-1650h-167v367zM893 978q-66 56 -234.5 56t-277 -128.5t-108.5 -350t83.5 -331t243.5 -109.5t293 114v749z" glyph-name="q" horiz-adv-x="1238" unicode="q"/>
<glyph d="M675 1009q-191 0 -323 -132v-877h-167v1139h142l10 -152q76 98 237 151q54 18 120.5 18t97.5 -13v-157q-46 23 -117 23z" glyph-name="r" horiz-adv-x="826" unicode="r"/>
<glyph d="M149 192q68 -47 225 -74q184 -32 283 34q70 47 70 133q0 112 -172 186q-49 21 -107.5 45t-117.5 56q-198 110 -198 291q0 144 113.5 218.5t265.5 74.5t268 -40q29 -10 44 -19l-28 -127q-54 40 -177 56q-40 6 -82 6q-123 0 -186 -44t-63 -116q0 -114 147 -186 q46 -22 102 -44q153 -58 230 -120q117 -94 117 -234t-107.5 -222t-281.5 -82t-307 51q-39 15 -64 31z" glyph-name="s" horiz-adv-x="984" unicode="s"/>
<glyph d="M240 1014h-159v91q28 8 56 14t67.5 17.5t49 36t25 107t27.5 120.5h100v-260h354v-126h-354v-650q0 -161 34 -208q27 -38 110 -38q61 0 128.5 19t93.5 38l29 -97q-72 -59 -219 -86q-43 -8 -89 -8q-116 0 -175 52q-78 66 -78 234v744z" glyph-name="t" horiz-adv-x="849" unicode="t"/>
<glyph d="M916 117q-190 -133 -429 -133q-80 0 -146 35.5t-101 99.5q-57 104 -57 352v669h166v-676q0 -209 49 -275.5t177.5 -66.5t261.5 70q36 19 60 37v911h167v-1152h-64q-66 0 -78 32q-6 13 -6 36v61z" glyph-name="u" horiz-adv-x="1249" unicode="u"/>
<glyph d="M37 1140h180l259 -708l90 -278l84 278l249 708h178l-442 -1158h-142z" glyph-name="v" horiz-adv-x="1114" unicode="v"/>
<glyph d="M39 1140h167l229 -783l43 -180l40 180l221 783h165l223 -783l42 -184l43 179l221 788h163l-355 -1158h-154l-237 837l-30 147l-32 -147l-232 -837h-158z" glyph-name="w" horiz-adv-x="1635" unicode="w"/>
<glyph d="M480 576l-406 564h189l272 -398l38 -62l36 67l272 393h187l-408 -561l411 -579h-193l-275 407l-40 63l-37 -70l-261 -400h-191z" glyph-name="x" horiz-adv-x="1137" unicode="x"/>
<glyph d="M120 -356q41 -12 91 -12q107 0 188.5 82.5t133.5 285.5h-49l-428 1140h178l350 -1006l303 1006h180l-392 -1169q-105 -314 -237 -413q-87 -65 -228 -65q-71 0 -90 14v137z" glyph-name="y" horiz-adv-x="1107" unicode="y"/>
<glyph d="M93 65l665 947h-616v128h812l29 -74l-665 -944h655v-122h-846z" glyph-name="z" horiz-adv-x="1072" unicode="z"/>
<glyph d="M823 -167q-121 -28 -232 -28t-141 9.5t-48 31.5q-33 42 -33 156v583q0 48 -158 108q-45 17 -93 31v110q134 45 173 63q78 38 78 72v575q0 116 25 147t55.5 40.5t115 9.5t258.5 -20v-92h-295v-657q0 -49 -37 -80q-35 -35 -109 -69t-99 -45q162 -71 203.5 -112.5 t41.5 -83.5v-664h295v-85z" glyph-name="braceleft" horiz-adv-x="986" unicode="{"/>
<glyph d="M344 1780h154v-1967h-154v1967z" glyph-name="bar" horiz-adv-x="842" unicode="|"/>
<glyph d="M163.05 -167q120.993 -28 231.986 -28t140.991 9.5t47.9971 31.5q32.998 42 32.998 156v583q0 48 157.99 108q44.9971 17 92.9941 31v110q-133.991 45 -172.989 63q-77.9951 38 -77.9951 72v575q0 116 -24.998 147q-24.999 31 -55.4971 40.5t-114.993 9.5 q-84.4941 0 -258.484 -20v-92h294.982v-657q0 -49 36.998 -80q34.9971 -35 108.993 -69q73.9951 -34 98.9941 -45q-161.99 -71 -203.488 -112.5q-41.4971 -41.5 -41.4971 -83.5v-664h-294.982v-85z" glyph-name="braceright" horiz-adv-x="986" unicode="}"/>
<glyph d="M523 833q-124 0 -213 -126l-88 69q32 72 116 135.5t191 63.5t209 -86q64 -55 102 -70.5t76 -15.5q130 0 220 125l79 -76q-54 -127 -197 -175q-51 -17 -105.5 -17t-90.5 13t-66 32t-56 41q-98 87 -177 87z" glyph-name="asciitilde" horiz-adv-x="1438" unicode="~"/>
<glyph glyph-name="DEL"/>
<glyph glyph-name="nonbreakingspace" horiz-adv-x="655" unicode=" "/>
<glyph d="M391.013 -435.892h-186.988l17.999 1306.92h147.99zM185.025 1209.01q0 105.994 74.9951 140.992q21.999 9.99902 56.9971 9.99902t67.9961 -34.998q32.9971 -34.998 32.9971 -77.9951q0 -70.9961 -36.4971 -111.493q-36.498 -40.4971 -73.4961 -40.4971 q-62.9961 0 -92.9941 35.4971q-29.998 35.498 -29.998 78.4951z" glyph-name="exclamdown" horiz-adv-x="601" unicode="¡"/>
<glyph d="M956 965q-84 62 -245.5 62t-270 -118t-108.5 -337.5t100.5 -340.5t263 -121t280.5 79l35 -96q-101 -92 -296 -107l-3 -202h-115l4 204q-203 21 -317 177t-114 396t123.5 403.5t346.5 187.5l6 221h114l-6 -219q163 -10 231 -57z" glyph-name="cent" horiz-adv-x="1194" unicode="¢"/>
<glyph d="M962 96q273 0 273 231q0 81 -53 143q-16 20 -36 30l119 61q81 -49 117 -166q11 -38 11 -95.5t-23 -120.5q-74 -203 -388 -203q-121 0 -212.5 23.5t-175.5 50t-130 26.5t-73 -8q-68 -78 -164 -78q-52 0 -78 38q-8 11 -8 32q0 51 53 89.5t159 44.5q8 15 23 38 q66 104 66 233v299h-183v116h183v177q0 214 125.5 347.5t336.5 133.5t330 -94l-80 -122q-98 89 -266 89q-191 0 -256 -195q-23 -70 -23 -172v-9v-155h385v-116h-384v-105v-23q0 -356 -106 -467h37q47 0 181 -36.5t240 -36.5z" glyph-name="sterling" horiz-adv-x="1546" unicode="£"/>
<glyph d="M1016 388q-114 -78 -251 -78t-249 75l-203 -205l-97 97l200 200q-94 119 -94 274q0 154 93 272l-199 200l95 98l203 -205q114 76 251 76t251 -78l205 204l97 -96l-203 -203q91 -119 91 -269.5t-92 -267.5l200 -200l-96 -96zM457 751q0 -131 90.5 -223.5t217 -92.5t216 93 t89.5 223t-89.5 223t-216 93t-217 -92.5t-90.5 -223.5z" glyph-name="currency" horiz-adv-x="1530" unicode="¤"/>
<glyph d="M283 432h406v257h-406v110h374l-469 723h182l330 -534l73 -139l69 144l336 529h178l-476 -723h365v-110h-390v-257h390v-110h-390v-322h-166v322h-406v110z" glyph-name="yen" horiz-adv-x="1542" unicode="¥"/>
<glyph d="M344 1780h154v-834h-154v834zM344 645h154v-831h-154v831z" glyph-name="brokenbar" horiz-adv-x="842" unicode="¦"/>
<glyph d="M1028 356q108 -90 108 -216q0 -228 -265 -304q-99 -29 -198 -29q-161 0 -276 28.5t-170 64.5l33 127q79 -59 256 -85q63 -9 131 -9q145 0 241 46.5t96 143.5t-120 169q-63 38 -199 92t-205 88q-242 118 -242 311q0 170 140 303q-128 104 -128 256q0 180 156 264 q125 67 340.5 67t333.5 -73l-33 -127q-105 74 -325 74t-292 -99q-27 -36 -27 -93t32.5 -103.5t86 -84t122 -68.5t140.5 -63q181 -81 262 -152q118 -104 118 -253.5t-116 -274.5zM446 1028q-75 -121 -75 -218q0 -145 197 -236q63 -30 186.5 -78.5t180.5 -78.5q57 107 57 178 t-24.5 117t-66.5 82.5t-97 65.5t-116 56t-123.5 53.5t-118.5 58.5z" glyph-name="section" horiz-adv-x="1358" unicode="§"/>
<glyph d="M626 1633q99 0 99 -105q0 -54 -34.5 -87t-79.5 -33t-73.5 27.5t-28.5 66.5q0 63 36 97t81 34zM175 1633q99 0 99 -105q0 -54 -34.5 -87t-79.5 -33t-74 27.5t-29 66.5q0 63 36 97t82 34z" glyph-name="dieresis" horiz-adv-x="782" unicode="¨"/>
<glyph d="M204 964q0 360 251 614q78 79 174 135q202 118 437 118t433 -115.5t314 -314.5t116 -436q0 -238 -116 -437.5t-313.5 -316t-433.5 -116.5t-433 116t-313 316t-116 437zM313 965q0 -322 216 -545q138 -144 333 -198q97 -28 204 -28q210 0 382.5 103t271.5 280t99 388 q0 320 -216 543q-138 144 -333 198q-97 28 -204 28q-210 0 -382.5 -103t-271.5 -280t-99 -386zM1342 667l35 -96q-46 -37 -126 -63.5t-181 -26.5q-199 0 -321 140t-122 347.5t128 345t360 137.5q142 0 242 -64l-26 -124q-96 68 -238.5 68t-230 -99t-87.5 -263.5t86 -266 t223.5 -101.5t257.5 66z" glyph-name="copyright" horiz-adv-x="2133" unicode="©"/>
<glyph d="M432 678q-125 0 -209 64t-84 182q0 174 179 241q151 57 399 57v79q0 104 -49 141t-163.5 37t-249.5 -59q-33 -15 -49 -27l-43 93q35 32 151 71.5t206 39.5q178 0 263 -66.5t85 -226.5v-619h-54q-52 0 -70 8t-18 48v31q-116 -94 -294 -94zM672 837q28 12 45 23v268 q-236 0 -305 -32.5t-97 -66.5t-28 -98.5t49 -102.5t137.5 -38t198.5 47z" glyph-name="ordfeminine" horiz-adv-x="1032" unicode="ª"/>
<glyph d="M245 683l653 448l44 -125l-534 -391l534 -388l-44 -121l-653 436v141zM971 683l653 448l44 -125l-534 -391l534 -388l-44 -121l-653 436v141z" glyph-name="guillemotleft" horiz-adv-x="1931" unicode="«"/>
<glyph d="M235 852h990v-529h-152v403h-838v126z" glyph-name="logicalnot" horiz-adv-x="1470" unicode="¬"/>
<glyph d="M204 964q0 360 251 614q78 79 174 135q202 118 437 118t433 -115.5t314 -314.5t116 -436q0 -238 -116 -437.5t-313.5 -316t-433.5 -116.5t-433 116t-313 316t-116 437zM313 965q0 -322 216 -545q138 -144 333 -198q97 -28 204 -28q210 0 382.5 103t271.5 280t99 388 q0 320 -216 543q-138 144 -333 198q-97 28 -204 28q-210 0 -382.5 -103t-271.5 -280t-99 -386zM1433 1181q0 -248 -220 -298q70 -44 143 -203q35 -75 68.5 -123.5t51.5 -74.5l-156 1q-44 54 -80 138.5t-59 124.5q-55 97 -122 117h-172v-381h-135v962h74l250 6 q178 0 267.5 -75t89.5 -194zM1050 1349q-62 0 -163 -10v-375q24 -3 95 -3h79q113 2 172.5 49.5t59.5 153.5q0 185 -243 185z" glyph-name="registered" horiz-adv-x="2133" unicode="®"/>
<glyph d="M50 1576h543v-124h-543v124z" glyph-name="macron" horiz-adv-x="643" unicode="¯"/>
<glyph d="M219 1041.5q-98 94.5 -98 237t96 236.5t236.5 94t237 -95t96.5 -236.5t-94.5 -236t-235 -94.5t-238.5 94.5zM613.5 1115q63.5 65 63.5 161.5t-64.5 162.5t-159 66t-158 -65t-63.5 -161.5t64.5 -162.5t159 -66t158 65z" glyph-name="degree" horiz-adv-x="909" unicode="°"/>
<glyph d="M251 126h890v-126h-890v126zM627 539l5 172l-163 -5h-237v134h237l163 -8l-5 171v244h136v-244l-6 -171l149 8h255v-134h-255l-149 5l6 -172v-251h-136v251z" glyph-name="plusminus" horiz-adv-x="1393" unicode="±"/>
<glyph d="M552 1576q-180 0 -305 -159l-70 84q81 126 269 179q63 17 146 17q164 0 255 -88t91 -215q-4 -319 -478 -593l545 4v-126h-774l-33 86q200 96 372 253q205 186 205 349q0 105 -58.5 157t-164.5 52z" glyph-name="twosuperior" horiz-adv-x="1194" unicode="²"/>
<glyph d="M917 1462q0 -183 -216 -272q143 -4 215 -81t72 -163q0 -165 -115 -261.5t-336 -96.5q-108 0 -229 38l-10 110q106 -34 207 -34q175 1 248.5 62.5t73.5 161.5v24.5t-16 57t-47 61.5q-67 55 -180 57l-119 -33l-29 98q79 16 163 50q165 68 165 198q0 108 -121 141 q-31 9 -71 9q-144 0 -269 -90l-48 92q85 71 239 99q49 9 109 9q136 0 225 -65.5t89 -171.5z" glyph-name="threesuperior" horiz-adv-x="1194" unicode="³"/>
<glyph d="M50 1383q227 247 337 398l120 -103q-71 -104 -251 -266q-76 -69 -120 -97z" glyph-name="acute" horiz-adv-x="557" unicode="´"/>
<glyph d="M955 138q-146 -154 -336 -154t-271 129l24 -484h-156v1511h166v-756q0 -267 263 -269q134 0 288 120v905h166v-912q0 -88 23 -102q8 -5 18 -5q40 0 90 42l24 -76q-15 -28 -72.5 -64t-118.5 -36q-108 0 -108 133v18z" glyph-name="mu" horiz-adv-x="1359" unicode="µ"/>
<glyph d="M954 1579l-252 7h-30v-1586h-140v832q-223 0 -332 106.5t-109 323t143 333t415 116.5l445 -22v-1689h-140v1579z" glyph-name="paragraph" horiz-adv-x="1319" unicode="¶"/>
<glyph d="M217 830.5q37 41.5 88 41.5t79.5 -37t28.5 -79q0 -71 -35.5 -110t-72 -39t-56 9t-35.5 25q-33 36 -33.5 92t36.5 97.5z" glyph-name="periodcentered" horiz-adv-x="592" unicode="·"/>
<glyph d="M293 -180q3 34 3 86.5t-28 114.5l64 4l34 -4q52 -69 52 -209q0 -217 -147 -264q-40 -12 -71 -12q-110 0 -152 28l12 109q29 -18 89.5 -18t99.5 38t44 127z" glyph-name="cedilla" horiz-adv-x="468" unicode="¸"/>
<glyph d="M479 1487q-29 -8 -108 -41t-131 -44l-32 92q121 35 292 152q40 27 58 42l82 -21v-1005h-161v825z" glyph-name="onesuperior" horiz-adv-x="1009" unicode="¹"/>
<glyph d="M501 675q-85 0 -160 33q-148 67 -202 245q-26 84 -26 187q0 231 139 354q115 103 290 103t275.5 -125t100.5 -345.5t-131 -346.5q-109 -105 -286 -105zM414 813q44 -24 101 -24q114 0 178.5 83t66.5 257q0 256 -135 331q-89 50 -198 6q-45 -19 -80 -59q-75 -88 -75 -259 q0 -257 142 -335z" glyph-name="ordmasculine" horiz-adv-x="1033" unicode="º"/>
<glyph d="M959.015 683l-652.96 448l-43.9971 -125l533.968 -391l-533.968 -388l43.9971 -121l652.96 436v141zM1685.01 683l-652.96 448l-43.9971 -125l533.968 -391l-533.968 -388l43.9971 -121l652.96 436v141z" glyph-name="guillemotright" horiz-adv-x="1931" unicode="»"/>
<glyph d="M1333 300l474 832h52l99 -59l-384 -629l-56 -100h397v2l6 280l149 16v-298h192l1 -116h-193v-283h-156v283h-540zM1302 1530h152l-541 -1530h-150zM487 1487q-29 -8 -108 -41t-131 -44l-32 92q121 35 292 152q40 27 58 42l82 -21v-1005h-161v825z" glyph-name="onequarter" horiz-adv-x="2428" unicode="¼"/>
<glyph d="M1823 895q-180 0 -305 -159l-70 84q81 126 269 179q63 17 146 17q164 0 255 -88t91 -215q-4 -319 -478 -593l545 4v-126h-774l-33 86q200 96 372 253q205 186 205 349q0 105 -58.5 157t-164.5 52zM487 1487q-29 -8 -108 -41t-131 -44l-32 92q121 35 292 152q40 27 58 42 l82 -21v-1005h-161v825zM1303 1530h152l-541 -1530h-150z" glyph-name="onehalf" horiz-adv-x="2428" unicode="½"/>
<glyph d="M1333 300l474 832h52l99 -59l-384 -629l-56 -100h397v2l6 280l149 16v-298h192l1 -116h-193v-283h-156v283h-540zM770 1462q0 -183 -216 -272q143 -4 215 -81t72 -163q0 -165 -115 -261.5t-336 -96.5q-108 0 -229 38l-10 110q106 -34 207 -34q175 1 248.5 62.5 t73.5 161.5v24.5t-16 57t-47 61.5q-67 55 -180 57l-119 -33l-29 98q79 16 163 50q165 68 165 198q0 108 -121 141q-31 9 -71 9q-144 0 -269 -90l-48 92q85 71 239 99q49 9 109 9q136 0 225 -65.5t89 -171.5zM1302 1530h152l-541 -1530h-150z" glyph-name="threequarters" horiz-adv-x="2428" unicode="¾"/>
<glyph d="M590.027 812.043q0 80.9951 -57.9961 245.985l126.992 1q56.9971 -75.9951 82.9951 -206.987q8.99902 -48.9971 8.99902 -89.9941q0 -40.998 -17.998 -74.9961q-17.999 -33.998 -48.9971 -64.9961t-70.9961 -58.9961q-39.9971 -27.998 -82.9951 -54.9961 q-123.992 -80.9951 -159.99 -113.993q-73.9951 -68.9961 -82.9951 -141.991q-7.99902 -44.998 -7.99902 -89.9951q0 -134.991 90.9941 -221.986q118.993 -111.993 358.979 -111.993q123.992 0 182.988 23.998v-122.992q-25.998 -22.998 -100.493 -32.498 q-74.4961 -9.49902 -108.494 -9.49902q-324.979 0 -479.971 170.989q-108.993 121.992 -108.993 301.981q0 137.992 44.9971 205.987q44.998 67.9961 95.9941 111.993q50.9971 43.998 108.494 78.9951q57.4961 34.998 106.993 68.9961t82.4951 70.9961 q32.998 36.9971 34.998 68.4951q1.99902 31.498 1.99902 46.4971zM429.038 1393.01q0 102.994 73.9951 136.992q21.999 9.99902 55.4961 9.99902q33.498 0 65.9961 -34.498t32.498 -75.4951q0 -67.9961 -35.9971 -107.993q-35.998 -39.998 -72.9961 -39.998 q-60.9961 0 -89.9941 34.998t-28.998 75.9951z" glyph-name="questiondown" horiz-adv-x="1047" unicode="¿"/>
<glyph d="M621 1538h166l574 -1538h-183l-147 418h-665l-153 -418h-180zM987 545l-244 695l-38 120l-38 -121l-255 -694h575zM747 1589q-136 68 -303 206q-49 41 -84 78l111 102q33 -36 122 -116t136 -122.5t89 -76.5z" glyph-name="Agrave" horiz-adv-x="1393" unicode="À"/>
<glyph d="M621 1538h166l574 -1538h-183l-147 418h-665l-153 -418h-180zM987 545l-244 695l-38 120l-38 -121l-255 -694h575zM579 1660q42 34 89 76.5t86 77.5q139 125 172 161l111 -102q-126 -126 -288 -229q-52 -32 -98 -55z" glyph-name="Aacute" horiz-adv-x="1393" unicode="Á"/>
<glyph d="M621 1538h166l574 -1538h-183l-147 418h-665l-153 -418h-180zM987 545l-244 695l-38 120l-38 -121l-255 -694h575zM346 1684l277 298h149l280 -296l-110 -47l-244 223l-248 -223z" glyph-name="Acircumflex" horiz-adv-x="1393" unicode="Â"/>
<glyph d="M621 1538h166l574 -1538h-183l-147 418h-665l-153 -418h-180zM987 545l-244 695l-38 120l-38 -121l-255 -694h575zM539 1821q-96 0 -185 -108l-66 54q32 72 109 124.5t164 52.5t162 -75q47 -47 75.5 -61t58.5 -14q100 0 186 105l67 -56q-32 -72 -110 -124t-138 -52 t-90.5 11.5t-54 28.5t-42.5 37t-52.5 48.5t-83.5 28.5z" glyph-name="Atilde" horiz-adv-x="1393" unicode="Ã"/>
<glyph d="M621 1538h166l574 -1538h-183l-147 418h-665l-153 -418h-180zM987 545l-244 695l-38 120l-38 -121l-255 -694h575zM946 1922q105 0 105 -109q0 -86 -75 -115q-22 -8 -56 -8t-64.5 27.5t-30.5 68.5q0 65 37 100.5t84 35.5zM467 1922q104 0 104 -109q0 -86 -75 -115 q-22 -8 -55.5 -8t-64 27.5t-30.5 68.5q0 66 36.5 101t84.5 35z" glyph-name="Adieresis" horiz-adv-x="1393" unicode="Ä"/>
<glyph d="M594 1469q-99 23 -152.5 86.5t-53.5 158.5q0 134 92 196t219 62q221 0 287 -144q21 -47 20 -104q0 -103 -53.5 -165.5t-141.5 -85.5l550 -1473h-183l-147 418h-665l-153 -418h-180zM695 1556q137 0 179 87q15 31 15 73q0 80 -53 120.5t-138 40.5q-128 0 -174 -81 q-17 -30 -17 -91t49 -104t139 -45zM987 545l-244 695l-38 120l-38 -121l-255 -694h575z" glyph-name="Aring" horiz-adv-x="1393" unicode="Å"/>
<glyph d="M676 1522h1034v-131h-702v-541h526v-131h-526v-586h776v-133h-945v417h-506l-199 -417h-189zM839 544v866h-32l-414 -866h446z" glyph-name="AE" horiz-adv-x="1850" unicode="Æ"/>
<glyph d="M522 -327q29 -18 89.5 -18t99.5 38q47 46 47 183q0 62 -15 110q-291 18 -463.5 228t-172.5 557.5t199 557t497 209.5q202 0 341 -43q33 -10 56 -15l-24 -150q-17 6 -44 17.5t-103 32t-206 20.5q-253 0 -400.5 -168t-147.5 -459t141 -473t386 -182q195 0 338 61 q37 16 57 29l2 -144q-32 -11 -65 -24q-125 -47 -285 -54q31 -70 31 -174q0 -217 -147 -264q-40 -12 -71 -12q-110 0 -152 28z" glyph-name="Ccedilla" horiz-adv-x="1328" unicode="Ç"/>
<glyph d="M722 1589q-136 68 -303 206q-49 41 -84 78l111 102q33 -36 122 -116t136 -122.5t89 -76.5zM206 1522h858v-131h-689v-539h503v-131h-503v-588h762v-133h-931v1522z" glyph-name="Egrave" horiz-adv-x="1203" unicode="È"/>
<glyph d="M553 1660q42 34 89 76.5t86 77.5q139 125 172 161l111 -102q-126 -126 -288 -229q-52 -32 -98 -55zM206 1522h858v-131h-689v-539h503v-131h-503v-588h762v-133h-931v1522z" glyph-name="Eacute" horiz-adv-x="1203" unicode="É"/>
<glyph d="M206 1522h858v-131h-689v-539h503v-131h-503v-588h762v-133h-931v1522zM321 1684l277 298h149l280 -296l-110 -47l-244 223l-248 -223z" glyph-name="Ecircumflex" horiz-adv-x="1203" unicode="Ê"/>
<glyph d="M921 1922q105 0 105 -109q0 -86 -75 -115q-22 -8 -56 -8t-64.5 27.5t-30.5 68.5q0 65 37 100.5t84 35.5zM442 1922q104 0 104 -109q0 -86 -75 -115q-22 -8 -55.5 -8t-64 27.5t-30.5 68.5q0 66 36.5 101t84.5 35zM206 1522h858v-131h-689v-539h503v-131h-503v-588h762 v-133h-931v1522z" glyph-name="Edieresis" horiz-adv-x="1203" unicode="Ë"/>
<glyph d="M221 1522h171v-1522h-171v1522zM357 1589q-136 68 -303 206q-49 41 -84 78l111 102q33 -36 122 -116t136 -122.5t89 -76.5z" glyph-name="Igrave" horiz-adv-x="613" unicode="Ì"/>
<glyph d="M221 1522h171v-1522h-171v1522zM188 1660q42 34 89 76.5t86 77.5q139 125 172 161l111 -102q-126 -126 -288 -229q-52 -32 -98 -55z" glyph-name="Iacute" horiz-adv-x="613" unicode="Í"/>
<glyph d="M221 1522h171v-1522h-171v1522zM-44 1684l277 298h149l280 -296l-110 -47l-244 223l-248 -223z" glyph-name="Icircumflex" horiz-adv-x="613" unicode="Î"/>
<glyph d="M221 1522h171v-1522h-171v1522zM556 1922q105 0 105 -109q0 -86 -75 -115q-22 -8 -56 -8t-64.5 27.5t-30.5 68.5q0 65 37 100.5t84 35.5zM77 1922q104 0 104 -109q0 -86 -75 -115q-22 -8 -55.5 -8t-64 27.5t-30.5 68.5q0 66 36.5 101t84.5 35z" glyph-name="Idieresis" horiz-adv-x="613" unicode="Ï"/>
<glyph d="M317 -2l-93 2h-18v737h-144v114h144v671h60l60 1l338 13q358 0 539 -190t181 -555t-194.5 -586t-532.5 -221zM879 1377q-110 36 -234 36t-270 -14v-548h434v-114h-434v-609q337 -47 510 24q100 40 171 122q152 174 152 515q0 480 -329 588z" glyph-name="Eth" horiz-adv-x="1479" unicode="Ð"/>
<glyph d="M628 1821q-96 0 -185 -108l-66 54q32 72 109 124.5t164 52.5t162 -75q47 -47 75.5 -61t58.5 -14q100 0 186 105l67 -56q-32 -72 -110 -124t-138 -52t-90.5 11.5t-54 28.5t-42.5 37t-52.5 48.5t-83.5 28.5zM205 1522h157l701 -1060l142 -247l-12 311v996h155v-1522h-155 l-687 1034l-156 265l11 -329v-970h-156v1522z" glyph-name="Ntilde" horiz-adv-x="1553" unicode="Ñ"/>
<glyph d="M857 1589q-136 68 -303 206q-49 41 -84 78l111 102q33 -36 122 -116t136 -122.5t89 -76.5zM496 38q-252 116 -343 408q-43 141 -43 321.5t57.5 329.5t151.5 245q190 196 492 196t475.5 -208t173.5 -544q0 -382 -194 -592t-503 -210q-148 0 -267 54zM312 510 q67 -243 252 -345q93 -51 212 -51q237 0 374 172.5t138 468t-126.5 475t-356.5 179.5t-376.5 -169.5t-147.5 -489.5q0 -127 31 -240z" glyph-name="Ograve" horiz-adv-x="1572" unicode="Ò"/>
<glyph d="M689 1660q42 34 89 76.5t86 77.5q139 125 172 161l111 -102q-126 -126 -288 -229q-52 -32 -98 -55zM496 38q-252 116 -343 408q-43 141 -43 321.5t57.5 329.5t151.5 245q190 196 492 196t475.5 -208t173.5 -544q0 -382 -194 -592t-503 -210q-148 0 -267 54zM312 510 q67 -243 252 -345q93 -51 212 -51q237 0 374 172.5t138 468t-126.5 475t-356.5 179.5t-376.5 -169.5t-147.5 -489.5q0 -127 31 -240z" glyph-name="Oacute" horiz-adv-x="1572" unicode="Ó"/>
<glyph d="M496 38q-252 116 -343 408q-43 141 -43 321.5t57.5 329.5t151.5 245q190 196 492 196t475.5 -208t173.5 -544q0 -382 -194 -592t-503 -210q-148 0 -267 54zM312 510q67 -243 252 -345q93 -51 212 -51q237 0 374 172.5t138 468t-126.5 475t-356.5 179.5t-376.5 -169.5 t-147.5 -489.5q0 -127 31 -240zM457 1684l277 298h149l280 -296l-110 -47l-244 223l-248 -223z" glyph-name="Ocircumflex" horiz-adv-x="1572" unicode="Ô"/>
<glyph d="M650 1821q-96 0 -185 -108l-66 54q32 72 109 124.5t164 52.5t162 -75q47 -47 75.5 -61t58.5 -14q100 0 186 105l67 -56q-32 -72 -110 -124t-138 -52t-90.5 11.5t-54 28.5t-42.5 37t-52.5 48.5t-83.5 28.5zM496 38q-252 116 -343 408q-43 141 -43 321.5t57.5 329.5 t151.5 245q190 196 492 196t475.5 -208t173.5 -544q0 -382 -194 -592t-503 -210q-148 0 -267 54zM312 510q67 -243 252 -345q93 -51 212 -51q237 0 374 172.5t138 468t-126.5 475t-356.5 179.5t-376.5 -169.5t-147.5 -489.5q0 -127 31 -240z" glyph-name="Otilde" horiz-adv-x="1572" unicode="Õ"/>
<glyph d="M1057 1922q105 0 105 -109q0 -86 -75 -115q-22 -8 -56 -8t-64.5 27.5t-30.5 68.5q0 65 37 100.5t84 35.5zM578 1922q104 0 104 -109q0 -86 -75 -115q-22 -8 -55.5 -8t-64 27.5t-30.5 68.5q0 66 36.5 101t84.5 35zM496 38q-252 116 -343 408q-43 141 -43 321.5t57.5 329.5 t151.5 245q190 196 492 196t475.5 -208t173.5 -544q0 -382 -194 -592t-503 -210q-148 0 -267 54zM312 510q67 -243 252 -345q93 -51 212 -51q237 0 374 172.5t138 468t-126.5 475t-356.5 179.5t-376.5 -169.5t-147.5 -489.5q0 -127 31 -240z" glyph-name="Odieresis" horiz-adv-x="1572" unicode="Ö"/>
<glyph d="M250 424l348 347l-348 356l99 97l337 -362l336 362l99 -97l-348 -353l348 -350l-99 -98l-336 354l-337 -354z" glyph-name="multiply" horiz-adv-x="1370" unicode="×"/>
<glyph d="M475 48q-177 87 -271 272.5t-94 420.5q0 387 209 601q188 194 490 196q101 0 193 -26l78 218l96 -28l-81 -225q176 -84 270.5 -266t94.5 -427q0 -380 -194 -590t-502 -210q-106 0 -196 27l-74 -205l-96 27zM956 1385q-71 24 -166.5 23.5t-190.5 -41.5t-166 -122 q-152 -175 -152 -477t138 -479q46 -60 107 -101zM615 142q76 -28 158 -28q240 0 377 172.5t138 474t-137 481.5q-45 59 -105 98z" glyph-name="Oslash" horiz-adv-x="1572" unicode="Ø"/>
<glyph d="M797 1589q-136 68 -303 206q-49 41 -84 78l111 102q33 -36 122 -116t136 -122.5t89 -76.5zM171 1523h169l-1 -839q0 -458 237 -540q77 -27 170 -27q195 0 292.5 127.5t97.5 440.5v837h168v-877q0 -661 -560 -661q-439 0 -540 376q-33 123 -33 284v879z" glyph-name="Ugrave" horiz-adv-x="1474" unicode="Ù"/>
<glyph d="M629 1660q42 34 89 76.5t86 77.5q139 125 172 161l111 -102q-126 -126 -288 -229q-52 -32 -98 -55zM171 1523h169l-1 -839q0 -458 237 -540q77 -27 170 -27q195 0 292.5 127.5t97.5 440.5v837h168v-877q0 -661 -560 -661q-439 0 -540 376q-33 123 -33 284v879z" glyph-name="Uacute" horiz-adv-x="1474" unicode="Ú"/>
<glyph d="M171 1523h169l-1 -839q0 -458 237 -540q77 -27 170 -27q195 0 292.5 127.5t97.5 440.5v837h168v-877q0 -661 -560 -661q-439 0 -540 376q-33 123 -33 284v879zM396 1684l277 298h149l280 -296l-110 -47l-244 223l-248 -223z" glyph-name="Ucircumflex" horiz-adv-x="1474" unicode="Û"/>
<glyph d="M996 1922q105 0 105 -109q0 -86 -75 -115q-22 -8 -56 -8t-64.5 27.5t-30.5 68.5q0 65 37 100.5t84 35.5zM517 1922q104 0 104 -109q0 -86 -75 -115q-22 -8 -55.5 -8t-64 27.5t-30.5 68.5q0 66 36.5 101t84.5 35zM171 1523h169l-1 -839q0 -458 237 -540q77 -27 170 -27 q195 0 292.5 127.5t97.5 440.5v837h168v-877q0 -661 -560 -661q-439 0 -540 376q-33 123 -33 284v879z" glyph-name="Udieresis" horiz-adv-x="1474" unicode="Ü"/>
<glyph d="M548 584l-517 938h181l374 -701l51 -115l44 115l359 701h179l-499 -935v-587h-172v584zM526 1660q42 34 89 76.5t86 77.5q139 125 172 161l111 -102q-126 -126 -288 -229q-52 -32 -98 -55z" glyph-name="Yacute" horiz-adv-x="1249" unicode="Ý"/>
<glyph d="M617 292q-26 0 -242 12v-304h-169v1522h169v-292q241 18 327 18t182 -26.5t162 -82.5q139 -117 139 -354t-149.5 -365t-418.5 -128zM631 1126q-123 0 -256 -22v-675q117 -14 217 -14q206 0 315 86t109 289q0 336 -385 336z" glyph-name="Thorn" horiz-adv-x="1269" unicode="Þ"/>
<glyph d="M602 149q91 -47 237.5 -47t200.5 105q18 36 18 92t-26.5 101.5t-66.5 84t-86 73.5q-178 138 -178 297q0 94 107.5 209.5t107.5 221.5q0 91 -63 132.5t-150 41.5q-345 0 -345 -485v-975h-167v1014h-147v99l160 30q38 219 177 327.5t336 108.5q152 0 258.5 -70 t106.5 -203.5t-113 -250.5q-74 -77 -93.5 -111.5t-19.5 -77.5t27.5 -81.5t68.5 -73.5t90 -71q185 -135 185 -329q0 -167 -127 -253q-108 -74 -262 -74t-236 33v132z" glyph-name="germandbls" horiz-adv-x="1271" unicode="ß"/>
<glyph d="M136 168q-26 59 -26 152.5t63 171.5q131 162 527 186q56 4 101 4v132q0 130 -63.5 173t-196.5 43t-280 -64q-39 -17 -61 -33l-41 110q93 62 281 100q69 14 147 14q183 0 273 -68q107 -81 107 -282v-823h-68q-49 0 -68.5 14t-19.5 66l-1 42q-88 -80 -238 -111 q-54 -11 -122.5 -11t-132 21.5t-109.5 62.5t-72 100zM448 522q-173 -64 -173 -192q0 -221 231 -221q141 0 258 71q27 17 37 28v367q-133 0 -225 -19t-128 -34zM351 1781q90 -118 337 -398l-85 -68q-72 48 -192 162.5t-180 200.5z" glyph-name="agrave" horiz-adv-x="1145" unicode="à"/>
<glyph d="M136 168q-26 59 -26 152.5t63 171.5q131 162 527 186q56 4 101 4v132q0 130 -63.5 173t-196.5 43t-280 -64q-39 -17 -61 -33l-41 110q93 62 281 100q69 14 147 14q183 0 273 -68q107 -81 107 -282v-823h-68q-49 0 -68.5 14t-19.5 66l-1 42q-88 -80 -238 -111 q-54 -11 -122.5 -11t-132 21.5t-109.5 62.5t-72 100zM448 522q-173 -64 -173 -192q0 -221 231 -221q141 0 258 71q27 17 37 28v367q-133 0 -225 -19t-128 -34zM461 1383q227 247 337 398l120 -103q-71 -104 -251 -266q-76 -69 -120 -97z" glyph-name="aacute" horiz-adv-x="1145" unicode="á"/>
<glyph d="M136 168q-26 59 -26 152.5t63 171.5q131 162 527 186q56 4 101 4v132q0 130 -63.5 173t-196.5 43t-280 -64q-39 -17 -61 -33l-41 110q93 62 281 100q69 14 147 14q183 0 273 -68q107 -81 107 -282v-823h-68q-49 0 -68.5 14t-19.5 66l-1 42q-88 -80 -238 -111 q-54 -11 -122.5 -11t-132 21.5t-109.5 62.5t-72 100zM448 522q-173 -64 -173 -192q0 -221 231 -221q141 0 258 71q27 17 37 28v367q-133 0 -225 -19t-128 -34zM212 1345l297 347h149l291 -346l-103 -44l-263 263l-274 -263z" glyph-name="acircumflex" horiz-adv-x="1145" unicode="â"/>
<glyph d="M136 168q-26 59 -26 152.5t63 171.5q131 162 527 186q56 4 101 4v132q0 130 -63.5 173t-196.5 43t-280 -64q-39 -17 -61 -33l-41 110q93 62 281 100q69 14 147 14q183 0 273 -68q107 -81 107 -282v-823h-68q-49 0 -68.5 14t-19.5 66l-1 42q-88 -80 -238 -111 q-54 -11 -122.5 -11t-132 21.5t-109.5 62.5t-72 100zM448 522q-173 -64 -173 -192q0 -221 231 -221q141 0 258 71q27 17 37 28v367q-133 0 -225 -19t-128 -34zM427 1512q-100 0 -191 -104l-66 54q32 69 104 122.5t160.5 53.5t163.5 -74q49 -47 76.5 -60.5t58.5 -13.5 q106 0 192 104l67 -56q-59 -118 -174 -160q-40 -15 -84.5 -15t-75.5 11t-55 27.5t-43 36t-50.5 47t-82.5 27.5z" glyph-name="atilde" horiz-adv-x="1145" unicode="ã"/>
<glyph d="M136 168q-26 59 -26 152.5t63 171.5q131 162 527 186q56 4 101 4v132q0 130 -63.5 173t-196.5 43t-280 -64q-39 -17 -61 -33l-41 110q93 62 281 100q69 14 147 14q183 0 273 -68q107 -81 107 -282v-823h-68q-49 0 -68.5 14t-19.5 66l-1 42q-88 -80 -238 -111 q-54 -11 -122.5 -11t-132 21.5t-109.5 62.5t-72 100zM448 522q-173 -64 -173 -192q0 -221 231 -221q141 0 258 71q27 17 37 28v367q-133 0 -225 -19t-128 -34zM818 1633q99 0 99 -105q0 -54 -34.5 -87t-79.5 -33t-73.5 27.5t-28.5 66.5q0 63 36 97t81 34zM367 1633 q99 0 99 -105q0 -54 -34.5 -87t-79.5 -33t-74 27.5t-29 66.5q0 63 36 97t82 34z" glyph-name="adieresis" horiz-adv-x="1145" unicode="ä"/>
<glyph d="M136 168q-26 59 -26 152.5t63 171.5q131 162 527 186q56 4 101 4v132q0 130 -63.5 173t-196.5 43t-280 -64q-39 -17 -61 -33l-41 110q93 62 281 100q69 14 147 14q183 0 273 -68q107 -81 107 -282v-823h-68q-49 0 -68.5 14t-19.5 66l-1 42q-88 -80 -238 -111 q-54 -11 -122.5 -11t-132 21.5t-109.5 62.5t-72 100zM448 522q-173 -64 -173 -192q0 -221 231 -221q141 0 258 71q27 17 37 28v367q-133 0 -225 -19t-128 -34zM695.5 1348q-56.5 -16 -122.5 -16t-124 19q-114 38 -157 139q-20 48 -20 78q0 100 28 150t72 80q86 60 211 60 q220 0 286 -149q22 -48 21.5 -113t-26.5 -115.5t-69 -83.5t-99.5 -49zM579 1429q135 0 179 93q15 32 15 74q0 80 -53 123.5t-138 43.5q-127 0 -174 -86q-17 -31 -17 -92.5t49 -107.5t139 -48z" glyph-name="aring" horiz-adv-x="1145" unicode="å"/>
<glyph d="M889 188q-167 -204 -428 -204q-155 0 -253 85.5t-98 215t65 207.5q158 190 624 190v119q0 140 -69 190q-54 39 -182 39t-280 -66q-40 -17 -64 -33l-42 112q90 60 288 100q69 14 135 14q139 0 222 -40.5t117 -141.5q141 181 395 181q178 0 288 -117.5t114 -310.5 q0 -135 -8 -175h-748v-20q0 -225 113 -333q93 -89 262 -89q126 0 253 47q37 13 60 28l33 -97q-92 -73 -278 -97q-57 -8 -110 -8q-282 0 -409 204zM1564 665q1 21 1 58q0 125 -50 207q-66 107 -213 107q-205 0 -290 -203q-29 -70 -40 -169h592zM448 522q-170 -63 -170 -193 q0 -220 225 -220q103 0 201 54.5t140 118.5q-43 117 -43 283v10q-228 0 -353 -53z" glyph-name="ae" horiz-adv-x="1826" unicode="æ"/>
<glyph d="M304 -327q29 -18 89.5 -18t99.5 38q47 46 47 185q0 65 -16 111q-196 26 -307 180.5t-111 402.5t141 416t397 168q138 0 236 -38q26 -11 41 -21l-29 -132q-84 62 -245.5 62t-270 -118t-108.5 -337.5t100.5 -340.5t263 -121t280.5 79l35 -96q-108 -97 -316 -108 q31 -70 31 -173q0 -217 -147 -264q-40 -12 -71 -12q-110 0 -152 28z" glyph-name="ccedilla" horiz-adv-x="1012" unicode="ç"/>
<glyph d="M986 89q-128 -105 -418 -105q-87 0 -180 40q-284 121 -284 541q0 264 136.5 427.5t380.5 163.5q177 0 288 -117t113 -327q2 -114 -7 -159h-748v-20q0 -221 113 -331q95 -92 264 -92q122 0 250 48q37 13 60 28zM867 665q1 21 1 58q0 125 -50 207q-66 107 -213 107 q-206 0 -291 -203q-29 -70 -40 -169h593zM372 1781q90 -118 337 -398l-85 -68q-72 48 -192 162.5t-180 200.5z" glyph-name="egrave" horiz-adv-x="1128" unicode="è"/>
<glyph d="M482 1383q227 247 337 398l120 -103q-71 -104 -251 -266q-76 -69 -120 -97zM986 89q-128 -105 -418 -105q-87 0 -180 40q-284 121 -284 541q0 264 136.5 427.5t380.5 163.5q177 0 288 -117t113 -327q2 -114 -7 -159h-748v-20q0 -221 113 -331q95 -92 264 -92 q122 0 250 48q37 13 60 28zM867 665q1 21 1 58q0 125 -50 207q-66 107 -213 107q-206 0 -291 -203q-29 -70 -40 -169h593z" glyph-name="eacute" horiz-adv-x="1128" unicode="é"/>
<glyph d="M233 1345l297 347h149l291 -346l-103 -44l-263 263l-274 -263zM986 89q-128 -105 -418 -105q-87 0 -180 40q-284 121 -284 541q0 264 136.5 427.5t380.5 163.5q177 0 288 -117t113 -327q2 -114 -7 -159h-748v-20q0 -221 113 -331q95 -92 264 -92q122 0 250 48 q37 13 60 28zM867 665q1 21 1 58q0 125 -50 207q-66 107 -213 107q-206 0 -291 -203q-29 -70 -40 -169h593z" glyph-name="ecircumflex" horiz-adv-x="1128" unicode="ê"/>
<glyph d="M839 1633q99 0 99 -105q0 -54 -34.5 -87t-79.5 -33t-73.5 27.5t-28.5 66.5q0 63 36 97t81 34zM388 1633q99 0 99 -105q0 -54 -34.5 -87t-79.5 -33t-74 27.5t-29 66.5q0 63 36 97t82 34zM986 89q-128 -105 -418 -105q-87 0 -180 40q-284 121 -284 541q0 264 136.5 427.5 t380.5 163.5q177 0 288 -117t113 -327q2 -114 -7 -159h-748v-20q0 -221 113 -331q95 -92 264 -92q122 0 250 48q37 13 60 28zM867 665q1 21 1 58q0 125 -50 207q-66 107 -213 107q-206 0 -291 -203q-29 -70 -40 -169h593z" glyph-name="edieresis" horiz-adv-x="1128" unicode="ë"/>
<glyph d="M211 1139h166v-1139h-166v1139zM63 1781q90 -118 337 -398l-85 -68q-72 48 -192 162.5t-180 200.5z" glyph-name="igrave" horiz-adv-x="588" unicode="ì"/>
<glyph d="M172 1383q227 247 337 398l120 -103q-71 -104 -251 -266q-76 -69 -120 -97zM211 1139h166v-1139h-166v1139z" glyph-name="iacute" horiz-adv-x="588" unicode="í"/>
<glyph d="M-76 1345l297 347h149l291 -346l-103 -44l-263 263l-274 -263zM211 1139h166v-1139h-166v1139z" glyph-name="icircumflex" horiz-adv-x="588" unicode="î"/>
<glyph d="M507 1633q99 0 99 -105q0 -54 -34.5 -87t-79.5 -33t-74 27.5t-29 66.5q0 63 36 97t82 34zM101 1633q98 0 98 -105q0 -54 -34.5 -87t-79 -33t-73.5 27.5t-29 66.5q0 63 36 97t82 34zM211 1139h166v-1139h-166v1139z" glyph-name="idieresis" horiz-adv-x="588" unicode="ï"/>
<glyph d="M563 1634q65 71 135 159l90 -69q-23 -27 -45 -51.5t-45.5 -51t-44.5 -48.5q101 -67 193 -180q270 -327 270 -781q0 -311 -137 -475t-367 -164t-366.5 156t-136.5 431t141.5 435t369.5 160q156 -2 264 -112q-90 267 -313 440l-141 -160l-89 70l141 153q-131 83 -237 116 l40 97q136 -42 278 -125zM371 214q96 -126 242.5 -126t241 124.5t94.5 340t-9 298.5q-37 121 -196 165q-54 14 -127.5 14t-139 -33.5t-110.5 -94.5q-92 -125 -92 -343.5t96 -344.5z" glyph-name="eth" horiz-adv-x="1207" unicode="ð"/>
<glyph d="M193 1139h149l1 -146q128 98 295 145q66 19 143 19q170 0 246 -101t76 -351v-705h-167v706q0 177 -49 244.5t-178 67.5t-276 -89q-41 -25 -73 -51v-878h-167v1139zM542 1512q-100 0 -191 -104l-66 54q32 69 104 122.5t160.5 53.5t163.5 -74q49 -47 76.5 -60.5t58.5 -13.5 q106 0 192 104l67 -56q-59 -118 -174 -160q-40 -15 -84.5 -15t-75.5 11t-55 27.5t-43 36t-50.5 47t-82.5 27.5z" glyph-name="ntilde" horiz-adv-x="1288" unicode="ñ"/>
<glyph d="M215 166q-111 157 -111 426q0 129 41.5 237.5t111.5 180.5q140 146 379 146t369 -180q112 -156 112 -420t-144.5 -418t-385.5 -154t-372 182zM948 561q0 327 -182 436q-64 38 -147 38q-163 0 -254 -116.5t-91 -328.5t84 -349.5t247 -137.5t253 122t90 336zM389 1781 q90 -118 337 -398l-85 -68q-72 48 -192 162.5t-180 200.5z" glyph-name="ograve" horiz-adv-x="1223" unicode="ò"/>
<glyph d="M499 1383q227 247 337 398l120 -103q-71 -104 -251 -266q-76 -69 -120 -97zM215 166q-111 157 -111 426q0 129 41.5 237.5t111.5 180.5q140 146 379 146t369 -180q112 -156 112 -420t-144.5 -418t-385.5 -154t-372 182zM948 561q0 327 -182 436q-64 38 -147 38 q-163 0 -254 -116.5t-91 -328.5t84 -349.5t247 -137.5t253 122t90 336z" glyph-name="oacute" horiz-adv-x="1223" unicode="ó"/>
<glyph d="M250 1345l297 347h149l291 -346l-103 -44l-263 263l-274 -263zM215 166q-111 157 -111 426q0 129 41.5 237.5t111.5 180.5q140 146 379 146t369 -180q112 -156 112 -420t-144.5 -418t-385.5 -154t-372 182zM948 561q0 327 -182 436q-64 38 -147 38q-163 0 -254 -116.5 t-91 -328.5t84 -349.5t247 -137.5t253 122t90 336z" glyph-name="ocircumflex" horiz-adv-x="1223" unicode="ô"/>
<glyph d="M215 166q-111 157 -111 426q0 129 41.5 237.5t111.5 180.5q140 146 379 146t369 -180q112 -156 112 -420t-144.5 -418t-385.5 -154t-372 182zM948 561q0 327 -182 436q-64 38 -147 38q-163 0 -254 -116.5t-91 -328.5t84 -349.5t247 -137.5t253 122t90 336zM465 1512 q-100 0 -191 -104l-66 54q32 69 104 122.5t160.5 53.5t163.5 -74q49 -47 76.5 -60.5t58.5 -13.5q106 0 192 104l67 -56q-59 -118 -174 -160q-40 -15 -84.5 -15t-75.5 11t-55 27.5t-43 36t-50.5 47t-82.5 27.5z" glyph-name="otilde" horiz-adv-x="1223" unicode="õ"/>
<glyph d="M856 1633q99 0 99 -105q0 -54 -34.5 -87t-79.5 -33t-73.5 27.5t-28.5 66.5q0 63 36 97t81 34zM405 1633q99 0 99 -105q0 -54 -34.5 -87t-79.5 -33t-74 27.5t-29 66.5q0 63 36 97t82 34zM215 166q-111 157 -111 426q0 129 41.5 237.5t111.5 180.5q140 146 379 146 t369 -180q112 -156 112 -420t-144.5 -418t-385.5 -154t-372 182zM948 561q0 327 -182 436q-64 38 -147 38q-163 0 -254 -116.5t-91 -328.5t84 -349.5t247 -137.5t253 122t90 336z" glyph-name="odieresis" horiz-adv-x="1223" unicode="ö"/>
<glyph d="M819 1196q0 -98 -78 -129q-23 -9 -57.5 -9t-65.5 29t-31 70q0 69 38 105.5t89.5 36.5t78 -31.5t26.5 -71.5zM232 839h929v-130h-929v130zM617.5 290q-31.5 29 -31.5 70q0 68 38 104.5t89.5 36.5t78 -31.5t26.5 -71.5q0 -66 -37 -101.5t-84.5 -35.5t-79 29z" glyph-name="divide" horiz-adv-x="1393" unicode="÷"/>
<glyph d="M377 30q-212 100 -261 383q-14 81 -14 126q0 183 41.5 291t111.5 180q142 146 368 146q67 0 128 -14l65 194l96 -28l-67 -198q211 -101 262 -378q14 -81 14 -127q0 -182 -41 -290.5t-110 -181.5q-141 -149 -368 -149q-68 0 -130 14l-65 -193l-96 27zM710 1021 q-40 14 -107 14q-147 0 -239 -116.5t-92 -329.5q0 -303 151 -423zM512 117q44 -14 111 -14t130 31t107 90q91 122 91 334.5t-84 343.5q-28 43 -67 73z" glyph-name="oslash" horiz-adv-x="1225" unicode="ø"/>
<glyph d="M916 117q-190 -133 -429 -133q-80 0 -146 35.5t-101 99.5q-57 104 -57 352v669h166v-676q0 -209 49 -275.5t177.5 -66.5t261.5 70q36 19 60 37v911h167v-1152h-64q-66 0 -78 32q-6 13 -6 36v61zM412 1781q90 -118 337 -398l-85 -68q-72 48 -192 162.5t-180 200.5z" glyph-name="ugrave" horiz-adv-x="1249" unicode="ù"/>
<glyph d="M521 1383q227 247 337 398l120 -103q-71 -104 -251 -266q-76 -69 -120 -97zM916 117q-190 -133 -429 -133q-80 0 -146 35.5t-101 99.5q-57 104 -57 352v669h166v-676q0 -209 49 -275.5t177.5 -66.5t261.5 70q36 19 60 37v911h167v-1152h-64q-66 0 -78 32q-6 13 -6 36v61z " glyph-name="uacute" horiz-adv-x="1249" unicode="ú"/>
<glyph d="M272 1345l297 347h149l291 -346l-103 -44l-263 263l-274 -263zM916 117q-190 -133 -429 -133q-80 0 -146 35.5t-101 99.5q-57 104 -57 352v669h166v-676q0 -209 49 -275.5t177.5 -66.5t261.5 70q36 19 60 37v911h167v-1152h-64q-66 0 -78 32q-6 13 -6 36v61z" glyph-name="ucircumflex" horiz-adv-x="1249" unicode="û"/>
<glyph d="M878 1633q99 0 99 -105q0 -54 -34.5 -87t-79.5 -33t-73.5 27.5t-28.5 66.5q0 63 36 97t81 34zM427 1633q99 0 99 -105q0 -54 -34.5 -87t-79.5 -33t-74 27.5t-29 66.5q0 63 36 97t82 34zM916 117q-190 -133 -429 -133q-80 0 -146 35.5t-101 99.5q-57 104 -57 352v669h166 v-676q0 -209 49 -275.5t177.5 -66.5t261.5 70q36 19 60 37v911h167v-1152h-64q-66 0 -78 32q-6 13 -6 36v61z" glyph-name="udieresis" horiz-adv-x="1249" unicode="ü"/>
<glyph d="M120 -356q41 -12 91 -12q107 0 188.5 82.5t133.5 285.5h-49l-428 1140h178l350 -1006l303 1006h180l-392 -1169q-105 -314 -237 -413q-87 -65 -228 -65q-71 0 -90 14v137zM461 1383q227 247 337 398l120 -103q-71 -104 -251 -266q-76 -69 -120 -97z" glyph-name="yacute" horiz-adv-x="1107" unicode="ý"/>
<glyph d="M805 29q-106 -46 -220.5 -46t-239.5 27l10 -161v-356h-167v2168h167v-475l-7 -170q147 140 345.5 140t325 -141t126.5 -412t-159 -445q-75 -83 -181 -129zM355 155q65 -49 230 -49t277.5 126.5t112.5 349.5q0 443 -325 443q-127 0 -243 -77q-31 -20 -52 -39v-754z" glyph-name="thorn" horiz-adv-x="1248" unicode="þ"/>
<glyph d="M120 -356q41 -12 91 -12q107 0 188.5 82.5t133.5 285.5h-49l-428 1140h178l350 -1006l303 1006h180l-392 -1169q-105 -314 -237 -413q-87 -65 -228 -65q-71 0 -90 14v137zM817 1633q99 0 99 -105q0 -54 -34.5 -87t-79.5 -33t-73.5 27.5t-28.5 66.5q0 63 36 97t81 34z M366 1633q99 0 99 -105q0 -54 -34.5 -87t-79.5 -33t-74 27.5t-29 66.5q0 63 36 97t82 34z" glyph-name="ydieresis" horiz-adv-x="1107" unicode="ÿ"/>
<glyph d="M621 1538h166l574 -1538h-183l-147 418h-665l-153 -418h-180zM987 545l-244 695l-38 120l-38 -121l-255 -694h575zM429 1867h543v-124h-543v124z" glyph-name="Amacron" horiz-adv-x="1393" unicode="Ā"/>
<glyph d="M136 168q-26 59 -26 152.5t63 171.5q131 162 527 186q56 4 101 4v132q0 130 -63.5 173t-196.5 43t-280 -64q-39 -17 -61 -33l-41 110q93 62 281 100q69 14 147 14q183 0 273 -68q107 -81 107 -282v-823h-68q-49 0 -68.5 14t-19.5 66l-1 42q-88 -80 -238 -111 q-54 -11 -122.5 -11t-132 21.5t-109.5 62.5t-72 100zM448 522q-173 -64 -173 -192q0 -221 231 -221q141 0 258 71q27 17 37 28v367q-133 0 -225 -19t-128 -34zM312 1576h543v-124h-543v124z" glyph-name="amacron" horiz-adv-x="1145" unicode="ā"/>
<glyph d="M621 1538h166l574 -1538h-183l-147 418h-665l-153 -418h-180zM987 545l-244 695l-38 120l-38 -121l-255 -694h575zM842.5 1668.5q-64.5 -26.5 -146 -26.5t-146.5 26q-130 53 -173 175q-17 48 -17 79.5t1 44.5h117q0 -99 78 -154q55 -39 135 -39q131 0 190 79 q41 55 41 114h114q1 -10 1 -42t-20.5 -86.5t-65 -99t-109 -71z" glyph-name="Abreve" horiz-adv-x="1393" unicode="Ă"/>
<glyph d="M136 168q-26 59 -26 152.5t63 171.5q131 162 527 186q56 4 101 4v132q0 130 -63.5 173t-196.5 43t-280 -64q-39 -17 -61 -33l-41 110q93 62 281 100q69 14 147 14q183 0 273 -68q107 -81 107 -282v-823h-68q-49 0 -68.5 14t-19.5 66l-1 42q-88 -80 -238 -111 q-54 -11 -122.5 -11t-132 21.5t-109.5 62.5t-72 100zM448 522q-173 -64 -173 -192q0 -221 231 -221q141 0 258 71q27 17 37 28v367q-133 0 -225 -19t-128 -34zM725.5 1366q-64.5 -31 -145.5 -31t-146 31q-128 61 -173 196q-18 53 -18 86t1 46h118q0 -70 26 -115 q66 -114 175 -114q176 0 228 147q15 43 15 82h114q1 -12 1 -45.5t-20.5 -92t-65.5 -109t-109.5 -81.5z" glyph-name="abreve" horiz-adv-x="1145" unicode="ă"/>
<glyph d="M1377 -450q-83 -62 -241.5 -62t-214.5 112q-19 37 -19 89q0 95 88 175.5t200 135.5h-12l-147 418h-665l-153 -418h-180l588 1538h166l574 -1538h-37q-258 -143 -258 -280q3 -119 150 -119q83 2 161 41v-92zM987 545l-244 695l-38 120l-38 -121l-255 -694h575z" glyph-name="Aogonek" horiz-adv-x="1393" unicode="Ą"/>
<glyph d="M1053 -450q-83 -62 -241.5 -62t-214.5 112q-19 37 -19 88q-1 91 76 175.5t177 134.5q-20 14 -20 66l-1 42q-88 -80 -238 -111q-54 -11 -122 -11q-148 0 -244 85.5t-96 215t63 207.5q131 162 527 186q56 4 101 4v132q0 130 -63.5 173t-196.5 43t-280 -64q-39 -17 -61 -33 l-41 110q93 62 281 100q69 14 147 14q183 0 273 -68q107 -81 107 -282v-823h-15q-92 -60 -131 -101q-79 -83 -79 -163q0 -119 150 -119q83 2 161 41v-92zM448 522q-173 -64 -173 -192q0 -221 231 -221q141 0 258 71q27 17 37 28v367q-133 0 -225 -19t-128 -34z" glyph-name="aogonek" horiz-adv-x="1145" unicode="ą"/>
<glyph d="M155.5 439q-48.5 142 -48.5 323t55 327t150 246q193 203 491 203q202 0 341 -43q33 -10 56 -15l-24 -150q-17 6 -44 17.5t-103 32t-206 20.5q-253 0 -400.5 -168t-147.5 -459t141 -473t386 -182q195 0 338 61q37 16 57 29l2 -144q-35 -11 -72 -25t-116.5 -34.5 t-226 -20.5t-273.5 55.5t-217 156.5t-138.5 243zM683 1660q42 34 89 76.5t86 77.5q139 125 172 161l111 -102q-126 -126 -288 -229q-52 -32 -98 -55z" glyph-name="Cacute" horiz-adv-x="1328" unicode="Ć"/>
<glyph d="M494 1383q227 247 337 398l120 -103q-71 -104 -251 -266q-76 -69 -120 -97zM892 965q-84 62 -245.5 62t-270 -118t-108.5 -337.5t100.5 -340.5t263 -121t280.5 79l35 -96q-118 -109 -348 -109t-361.5 159.5t-131.5 418t141 426.5t397 168q138 0 236 -38q26 -11 41 -21z " glyph-name="cacute" horiz-adv-x="1012" unicode="ć"/>
<glyph d="M155.5 439q-48.5 142 -48.5 323t55 327t150 246q193 203 491 203q202 0 341 -43q33 -10 56 -15l-24 -150q-17 6 -44 17.5t-103 32t-206 20.5q-253 0 -400.5 -168t-147.5 -459t141 -473t386 -182q195 0 338 61q37 16 57 29l2 -144q-35 -11 -72 -25t-116.5 -34.5 t-226 -20.5t-273.5 55.5t-217 156.5t-138.5 243zM450 1684l277 298h149l280 -296l-110 -47l-244 223l-248 -223z" glyph-name="Ccircumflex" horiz-adv-x="1328" unicode="Ĉ"/>
<glyph d="M245 1345l297 347h149l291 -346l-103 -44l-263 263l-274 -263zM892 965q-84 62 -245.5 62t-270 -118t-108.5 -337.5t100.5 -340.5t263 -121t280.5 79l35 -96q-118 -109 -348 -109t-361.5 159.5t-131.5 418t141 426.5t397 168q138 0 236 -38q26 -11 41 -21z" glyph-name="ccircumflex" horiz-adv-x="1012" unicode="ĉ"/>
<glyph d="M916 1826q0 -95 -75 -126q-22 -9 -56 -9t-65 28.5t-31 68.5q0 64 37 101t88 37t76.5 -31t25.5 -69zM155.5 439q-48.5 142 -48.5 323t55 327t150 246q193 203 491 203q202 0 341 -43q33 -10 56 -15l-24 -150q-17 6 -44 17.5t-103 32t-206 20.5q-253 0 -400.5 -168 t-147.5 -459t141 -473t386 -182q195 0 338 61q37 16 57 29l2 -144q-35 -11 -72 -25t-116.5 -34.5t-226 -20.5t-273.5 55.5t-217 156.5t-138.5 243z" glyph-name="Cdotaccent" horiz-adv-x="1328" unicode="Ċ"/>
<glyph d="M892 965q-84 62 -245.5 62t-270 -118t-108.5 -337.5t100.5 -340.5t263 -121t280.5 79l35 -96q-118 -109 -348 -109t-361.5 159.5t-131.5 418t141 426.5t397 168q138 0 236 -38q26 -11 41 -21zM730 1527q0 -99 -77 -130q-22 -9 -45 -9q-47 0 -77.5 31.5t-30.5 70.5 q0 67 38 103.5t88.5 36.5t77 -32t26.5 -71z" glyph-name="cdotaccent" horiz-adv-x="1012" unicode="ċ"/>
<glyph d="M155.5 439q-48.5 142 -48.5 323t55 327t150 246q193 203 491 203q202 0 341 -43q33 -10 56 -15l-24 -150q-17 6 -44 17.5t-103 32t-206 20.5q-253 0 -400.5 -168t-147.5 -459t141 -473t386 -182q195 0 338 61q37 16 57 29l2 -144q-35 -11 -72 -25t-116.5 -34.5 t-226 -20.5t-273.5 55.5t-217 156.5t-138.5 243zM461 1936l97 46l244 -202l248 202l92 -44l-265 -271h-148z" glyph-name="Ccaron" horiz-adv-x="1328" unicode="Č"/>
<glyph d="M246 1669l97 43l274 -263l263 263l103 -44l-291 -346h-149zM892 965q-84 62 -245.5 62t-270 -118t-108.5 -337.5t100.5 -340.5t263 -121t280.5 79l35 -96q-118 -109 -348 -109t-361.5 159.5t-131.5 418t141 426.5t397 168q138 0 236 -38q26 -11 41 -21z" glyph-name="ccaron" horiz-adv-x="1012" unicode="č"/>
<glyph d="M373 1936l97 46l244 -202l248 202l92 -44l-265 -271h-148zM317 -2l-93 2h-18v1522h60l60 1l338 13q358 0 539 -190t181 -555t-194.5 -586t-532.5 -221zM879 1377q-110 36 -234 36t-270 -14v-1271q337 -47 510 24q100 40 171 122q152 174 152 515q0 480 -329 588z" glyph-name="Dcaron" horiz-adv-x="1479" unicode="Ď"/>
<glyph d="M902 126q-142 -142 -341.5 -142t-329 138t-129.5 411.5t157.5 448t414.5 174.5q122 0 221 -38l-3 68v478h167v-1676h-72q-65 0 -79 32q-6 13 -6 37v69zM892 978q-65 56 -233.5 56t-277 -128.5t-108.5 -350t83.5 -331t243 -109.5t292.5 114v749zM1300 1607l10 37l133 41 q60 -53 60 -241t-73 -335q-22 -43 -46 -72l-84 26l-7 23q8 24 19 50q41 103 41 253.5t-53 217.5z" glyph-name="dcaron" horiz-adv-x="1579" unicode="ď"/>
<glyph d="M317 -2l-93 2h-18v737h-144v114h144v671h60l60 1l338 13q358 0 539 -190t181 -555t-194.5 -586t-532.5 -221zM879 1377q-110 36 -234 36t-270 -14v-548h434v-114h-434v-609q337 -47 510 24q100 40 171 122q152 174 152 515q0 480 -329 588z" glyph-name="Dcroat" horiz-adv-x="1479" unicode="Đ"/>
<glyph d="M902 126q-142 -142 -341.5 -142t-329 138t-129.5 411.5t157.5 448t414.5 174.5q122 0 221 -38l-3 68v139h-294v108h294v231h167v-231h155v-108h-155v-1337h-72q-65 0 -79 32q-6 13 -6 37v69zM892 978q-65 56 -233.5 56t-277 -128.5t-108.5 -350t83.5 -331t243 -109.5 t292.5 114v749z" glyph-name="dcroat" horiz-adv-x="1239" unicode="đ"/>
<glyph d="M403 1867h543v-124h-543v124zM206 1522h858v-131h-689v-539h503v-131h-503v-588h762v-133h-931v1522z" glyph-name="Emacron" horiz-adv-x="1203" unicode="Ē"/>
<glyph d="M986 89q-128 -105 -418 -105q-87 0 -180 40q-284 121 -284 541q0 264 136.5 427.5t380.5 163.5q177 0 288 -117t113 -327q2 -114 -7 -159h-748v-20q0 -221 113 -331q95 -92 264 -92q122 0 250 48q37 13 60 28zM867 665q1 21 1 58q0 125 -50 207q-66 107 -213 107 q-206 0 -291 -203q-29 -70 -40 -169h593zM333 1576h543v-124h-543v124z" glyph-name="emacron" horiz-adv-x="1128" unicode="ē"/>
<glyph d="M816.5 1668.5q-64.5 -26.5 -146 -26.5t-146.5 26q-130 53 -173 175q-17 48 -17 79.5t1 44.5h117q0 -99 78 -154q55 -39 135 -39q131 0 190 79q41 55 41 114h114q1 -10 1 -42t-20.5 -86.5t-65 -99t-109 -71zM206 1522h858v-131h-689v-539h503v-131h-503v-588h762v-133 h-931v1522z" glyph-name="Ebreve" horiz-adv-x="1203" unicode="Ĕ"/>
<glyph d="M986 89q-128 -105 -418 -105q-87 0 -180 40q-284 121 -284 541q0 264 136.5 427.5t380.5 163.5q177 0 288 -117t113 -327q2 -114 -7 -159h-748v-20q0 -221 113 -331q95 -92 264 -92q122 0 250 48q37 13 60 28zM867 665q1 21 1 58q0 125 -50 207q-66 107 -213 107 q-206 0 -291 -203q-29 -70 -40 -169h593zM746.5 1366q-64.5 -31 -145.5 -31t-146 31q-128 61 -173 196q-18 53 -18 86t1 46h118q0 -70 26 -115q66 -114 175 -114q176 0 228 147q15 43 15 82h114q1 -12 1 -45.5t-20.5 -92t-65.5 -109t-109.5 -81.5z" glyph-name="ebreve" horiz-adv-x="1128" unicode="ĕ"/>
<glyph d="M787 1826q0 -95 -75 -126q-22 -9 -56 -9t-65 28.5t-31 68.5q0 64 37 101t88 37t76.5 -31t25.5 -69zM206 1522h858v-131h-689v-539h503v-131h-503v-588h762v-133h-931v1522z" glyph-name="Edotaccent" horiz-adv-x="1203" unicode="Ė"/>
<glyph d="M986 89q-128 -105 -418 -105q-87 0 -180 40q-284 121 -284 541q0 264 136.5 427.5t380.5 163.5q177 0 288 -117t113 -327q2 -114 -7 -159h-748v-20q0 -221 113 -331q95 -92 264 -92q122 0 250 48q37 13 60 28zM867 665q1 21 1 58q0 125 -50 207q-66 107 -213 107 q-206 0 -291 -203q-29 -70 -40 -169h593zM718 1527q0 -99 -77 -130q-22 -9 -45 -9q-47 0 -77.5 31.5t-30.5 70.5q0 67 38 103.5t88.5 36.5t77 -32t26.5 -71z" glyph-name="edotaccent" horiz-adv-x="1128" unicode="ė"/>
<glyph d="M1099 -450q-83 -62 -240.5 -62t-212.5 106q-19 36 -19 88q0 97 89 184t207 134h-717v1522h858v-131h-689v-539h503v-131h-503v-588h762v-133h-79q-174 -89 -242 -194q-25 -40 -25 -81q0 -70 40 -97t116 -26t152 40v-92z" glyph-name="Eogonek" horiz-adv-x="1203" unicode="Ę"/>
<glyph d="M743 -3q-78 -13 -170 -13t-185 40q-284 121 -284 541q0 264 136.5 427.5t380.5 163.5q177 0 287 -116t116 -312q0 -130 -9 -175h-748v-20q0 -221 113 -331q95 -92 264 -92q122 0 250 48q37 13 60 28l32 -97l-25 -18l2 -1q-98 -61 -184 -163t-86 -184q0 -122 152 -122 q84 2 162 41v-92q-83 -62 -242.5 -62t-216.5 112q-59 112 46 256q58 81 149 141zM867 665q1 21 1 58q0 125 -50 207q-66 107 -213 107q-206 0 -291 -203q-29 -70 -40 -169h593z" glyph-name="eogonek" horiz-adv-x="1128" unicode="ę"/>
<glyph d="M332 1936l97 46l244 -202l248 202l92 -44l-265 -271h-148zM206 1522h858v-131h-689v-539h503v-131h-503v-588h762v-133h-931v1522z" glyph-name="Ecaron" horiz-adv-x="1203" unicode="Ě"/>
<glyph d="M234 1669l97 43l274 -263l263 263l103 -44l-291 -346h-149zM986 89q-128 -105 -418 -105q-87 0 -180 40q-284 121 -284 541q0 264 136.5 427.5t380.5 163.5q177 0 288 -117t113 -327q2 -114 -7 -159h-748v-20q0 -221 113 -331q95 -92 264 -92q122 0 250 48q37 13 60 28z M867 665q1 21 1 58q0 125 -50 207q-66 107 -213 107q-206 0 -291 -203q-29 -70 -40 -169h593z" glyph-name="ecaron" horiz-adv-x="1128" unicode="ě"/>
<glyph d="M1228 1325q-171 80 -409.5 80t-385.5 -168t-147 -463.5t136 -477.5t369 -182t367 67v436l-316 11v122h479v-659q-32 -2 -73 -19q-215 -88 -412 -88t-325.5 58t-217.5 160q-183 211 -183 567t198 562.5t507 206.5q174 0 335 -42q40 -10 85 -19zM467 1684l277 298h149 l280 -296l-110 -47l-244 223l-248 -223z" glyph-name="Gcircumflex" horiz-adv-x="1442" unicode="Ĝ"/>
<glyph d="M235 1345l297 347h149l291 -346l-103 -44l-263 263l-274 -263zM121 -215q0 173 159 261q-86 48 -86 171q1 58 38 118.5t98 104.5q-87 48 -137.5 129t-50.5 186q0 197 126 299t332 102q152 0 264 -68q98 49 220 49h107v-134h-232q69 -95 69 -208q0 -204 -127.5 -309.5 t-323.5 -105.5q-84 0 -154 21q-76 -60 -76 -137t35 -104.5t128 -27.5h247q322 0 377 -178q15 -51 15 -120.5t-43 -137.5t-118 -116q-154 -97 -389 -97q-345 0 -444 177q-34 61 -34 125zM580 492q282 0 282 280q0 136 -72 203t-194 67q-201 0 -264 -143q-24 -53 -24 -123 q0 -132 72 -208t200 -76zM376 10q-92 -76 -92 -190t79 -168t242 -54q255 0 351 120q33 41 33 93q0 104 -67 146.5t-233 42.5h-154q-100 0 -159 10z" glyph-name="gcircumflex" horiz-adv-x="1224" unicode="ĝ"/>
<glyph d="M962.5 1668.5q-64.5 -26.5 -146 -26.5t-146.5 26q-130 53 -173 175q-17 48 -17 79.5t1 44.5h117q0 -99 78 -154q55 -39 135 -39q131 0 190 79q41 55 41 114h114q1 -10 1 -42t-20.5 -86.5t-65 -99t-109 -71zM1228 1325q-171 80 -409.5 80t-385.5 -168t-147 -463.5 t136 -477.5t369 -182t367 67v436l-316 11v122h479v-659q-32 -2 -73 -19q-215 -88 -412 -88t-325.5 58t-217.5 160q-183 211 -183 567t198 562.5t507 206.5q174 0 335 -42q40 -10 85 -19z" glyph-name="Gbreve" horiz-adv-x="1442" unicode="Ğ"/>
<glyph d="M121 -215q0 173 159 261q-86 48 -86 171q1 58 38 118.5t98 104.5q-87 48 -137.5 129t-50.5 186q0 197 126 299t332 102q152 0 264 -68q98 49 220 49h107v-134h-232q69 -95 69 -208q0 -204 -127.5 -309.5t-323.5 -105.5q-84 0 -154 21q-76 -60 -76 -137t35 -104.5 t128 -27.5h247q322 0 377 -178q15 -51 15 -120.5t-43 -137.5t-118 -116q-154 -97 -389 -97q-345 0 -444 177q-34 61 -34 125zM580 492q282 0 282 280q0 136 -72 203t-194 67q-201 0 -264 -143q-24 -53 -24 -123q0 -132 72 -208t200 -76zM376 10q-92 -76 -92 -190t79 -168 t242 -54q255 0 351 120q33 41 33 93q0 104 -67 146.5t-233 42.5h-154q-100 0 -159 10zM749.5 1366q-64.5 -31 -145.5 -31t-146 31q-128 61 -173 196q-18 53 -18 86t1 46h118q0 -70 26 -115q66 -114 175 -114q176 0 228 147q15 43 15 82h114q1 -12 1 -45.5t-20.5 -92 t-65.5 -109t-109.5 -81.5z" glyph-name="gbreve" horiz-adv-x="1224" unicode="ğ"/>
<glyph d="M933 1826q0 -95 -75 -126q-22 -9 -56 -9t-65 28.5t-31 68.5q0 64 37 101t88 37t76.5 -31t25.5 -69zM1228 1325q-171 80 -409.5 80t-385.5 -168t-147 -463.5t136 -477.5t369 -182t367 67v436l-316 11v122h479v-659q-32 -2 -73 -19q-215 -88 -412 -88t-325.5 58t-217.5 160 q-183 211 -183 567t198 562.5t507 206.5q174 0 335 -42q40 -10 85 -19z" glyph-name="Gdotaccent" horiz-adv-x="1442" unicode="Ġ"/>
<glyph d="M121 -215q0 173 159 261q-86 48 -86 171q1 58 38 118.5t98 104.5q-87 48 -137.5 129t-50.5 186q0 197 126 299t332 102q152 0 264 -68q98 49 220 49h107v-134h-232q69 -95 69 -208q0 -204 -127.5 -309.5t-323.5 -105.5q-84 0 -154 21q-76 -60 -76 -137t35 -104.5 t128 -27.5h247q322 0 377 -178q15 -51 15 -120.5t-43 -137.5t-118 -116q-154 -97 -389 -97q-345 0 -444 177q-34 61 -34 125zM580 492q282 0 282 280q0 136 -72 203t-194 67q-201 0 -264 -143q-24 -53 -24 -123q0 -132 72 -208t200 -76zM376 10q-92 -76 -92 -190t79 -168 t242 -54q255 0 351 120q33 41 33 93q0 104 -67 146.5t-233 42.5h-154q-100 0 -159 10zM721 1527q0 -99 -77 -130q-22 -9 -45 -9q-47 0 -77.5 31.5t-30.5 70.5q0 67 38 103.5t88.5 36.5t77 -32t26.5 -71z" glyph-name="gdotaccent" horiz-adv-x="1224" unicode="ġ"/>
<glyph d="M830 -97q62 -28 87 -133q8 -35 8 -80q0 -86 -44.5 -157.5t-93.5 -92.5l-58 32v20q53 48 53 145.5t-45 140.5q-13 13 -27 17v38zM1228 1325q-171 80 -409.5 80t-385.5 -168t-147 -463.5t136 -477.5t369 -182t367 67v436l-316 11v122h479v-659q-32 -2 -73 -19 q-215 -88 -412 -88t-325.5 58t-217.5 160q-183 211 -183 567t198 562.5t507 206.5q174 0 335 -42q40 -10 85 -19z" glyph-name="Gcommaaccent" horiz-adv-x="1442" unicode="Ģ"/>
<glyph d="M582 1331q-68 27 -93 133q-8 35 -8 81q0 90 49.5 165t104.5 99l57 -32v-21q-44 -33 -62 -118q-6 -29 -6 -58q0 -52 23 -94t54 -48v-38zM121 -215q0 173 159 261q-86 48 -86 171q1 58 38 118.5t98 104.5q-87 48 -137.5 129t-50.5 186q0 197 126 299t332 102q152 0 264 -68 q98 49 220 49h107v-134h-232q69 -95 69 -208q0 -204 -127.5 -309.5t-323.5 -105.5q-84 0 -154 21q-76 -60 -76 -137t35 -104.5t128 -27.5h247q322 0 377 -178q15 -51 15 -120.5t-43 -137.5t-118 -116q-154 -97 -389 -97q-345 0 -444 177q-34 61 -34 125zM580 492 q282 0 282 280q0 136 -72 203t-194 67q-201 0 -264 -143q-24 -53 -24 -123q0 -132 72 -208t200 -76zM376 10q-92 -76 -92 -190t79 -168t242 -54q255 0 351 120q33 41 33 93q0 104 -67 146.5t-233 42.5h-154q-100 0 -159 10z" glyph-name="gcommaaccent" horiz-adv-x="1224" unicode="ģ"/>
<glyph d="M206 1522h169v-682h792v682h169v-1522h-169v710h-792v-710h-169v1522zM420 1684l277 298h149l280 -296l-110 -47l-244 223l-248 -223z" glyph-name="Hcircumflex" horiz-adv-x="1542" unicode="Ĥ"/>
<glyph d="M193 1664h167v-507l-8 -156q126 98 296 140q65 16 142 16q172 0 252.5 -107t80.5 -373v-677h-167v689q0 187 -53.5 257.5t-184.5 70.5q-177 0 -358 -138v-879h-167v1664zM407 1684l277 298h149l280 -296l-110 -47l-244 223l-248 -223z" glyph-name="hcircumflex" horiz-adv-x="1309" unicode="ĥ"/>
<glyph d="M206 1085h-195v108h195v329h169v-329h800v329h169v-329h215v-108h-215v-1085h-169v703h-800v-703h-169v1085zM1175 833v252h-800v-252h800z" glyph-name="Hbar" horiz-adv-x="1550" unicode="Ħ"/>
<glyph d="M193 1309h-149v101h149v254h167v-254h271v-101h-271v-152l-8 -156q126 98 296 140q65 16 142 16q172 0 252.5 -107t80.5 -373v-677h-167v689q0 187 -53.5 257.5t-184.5 70.5q-177 0 -358 -138v-879h-167v1309z" glyph-name="hbar" horiz-adv-x="1309" unicode="ħ"/>
<glyph d="M221 1522h171v-1522h-171v1522zM149 1821q-96 0 -185 -108l-66 54q32 72 109 124.5t164 52.5t162 -75q47 -47 75.5 -61t58.5 -14q100 0 186 105l67 -56q-32 -72 -110 -124t-138 -52t-90.5 11.5t-54 28.5t-42.5 37t-52.5 48.5t-83.5 28.5z" glyph-name="Itilde" horiz-adv-x="613" unicode="Ĩ"/>
<glyph d="M211 1139h166v-1139h-166v1139zM139 1512q-100 0 -191 -104l-66 54q32 69 104 122.5t160.5 53.5t163.5 -74q49 -47 76.5 -60.5t58.5 -13.5q106 0 192 104l67 -56q-59 -118 -174 -160q-40 -15 -84.5 -15t-75.5 11t-55 27.5t-43 36t-50.5 47t-82.5 27.5z" glyph-name="itilde" horiz-adv-x="588" unicode="ĩ"/>
<glyph d="M221 1522h171v-1522h-171v1522zM39 1867h543v-124h-543v124z" glyph-name="Imacron" horiz-adv-x="613" unicode="Ī"/>
<glyph d="M211 1139h166v-1139h-166v1139zM24 1576h543v-124h-543v124z" glyph-name="imacron" horiz-adv-x="588" unicode="ī"/>
<glyph d="M221 1522h171v-1522h-171v1522zM452.5 1668.5q-64.5 -26.5 -146 -26.5t-146.5 26q-130 53 -173 175q-17 48 -17 79.5t1 44.5h117q0 -99 78 -154q55 -39 135 -39q131 0 190 79q41 55 41 114h114q1 -10 1 -42t-20.5 -86.5t-65 -99t-109 -71z" glyph-name="Ibreve" horiz-adv-x="613" unicode="Ĭ"/>
<glyph d="M211 1139h166v-1139h-166v1139zM437.5 1366q-64.5 -31 -145.5 -31t-146 31q-128 61 -173 196q-18 53 -18 86t1 46h118q0 -70 26 -115q66 -114 175 -114q176 0 228 147q15 43 15 82h114q1 -12 1 -45.5t-20.5 -92t-65.5 -109t-109.5 -81.5z" glyph-name="ibreve" horiz-adv-x="588" unicode="ĭ"/>
<glyph d="M578 -450q-83 -62 -241 -62t-220 122q-63 125 48 267q57 74 139 123h-20v1522h171v-1522h-21q-118 -74 -159 -183q-14 -37 -14 -59v-41q0 -48 43 -82t119.5 -33t154.5 40v-92z" glyph-name="Iogonek" horiz-adv-x="613" unicode="Į"/>
<glyph d="M415 1527q0 -99 -77 -130q-22 -9 -45 -9q-48 0 -78 31.5t-30 70.5q0 67 38 103.5t88.5 36.5t77 -32t26.5 -71zM505 -450q-82 -62 -209.5 -62t-199.5 57.5t-72 155.5q-3 129 135 247q37 31 72 52h-17v1139h166v-1139h-19q-117 -73 -158 -183q-46 -123 32 -185 q40 -31 116 -30t154 40v-92z" glyph-name="iogonek" horiz-adv-x="588" unicode="į"/>
<glyph d="M221 1522h171v-1522h-171v1522zM421 1826q0 -95 -75 -126q-22 -9 -56 -9t-65 28.5t-31 68.5q0 64 37 101t88 37t76.5 -31t25.5 -69z" glyph-name="Idotaccent" horiz-adv-x="613" unicode="İ"/>
<glyph d="M211 1139h166v-1139h-166v1139z" glyph-name="dotlessi" horiz-adv-x="588" unicode="ı"/>
<glyph d="M221 1522h171v-1522h-171v1522zM574 -243q162 46 250 173q68 98 78 328q4 90 4 296v968h172v-985q0 -134 -0.5 -253t-18.5 -214q-31 -174 -158 -278t-274 -124z" glyph-name="IJ" horiz-adv-x="1307" unicode="Ĳ"/>
<glyph d="M493 -370q51 -19 116 -19q100 0 145 82.5t45 265.5v1180h166v-1116q0 -408 -191 -499q-63 -31 -159 -31t-122 13v124zM211 1139h166v-1139h-166v1139zM413 1527q0 -99 -77 -130q-22 -9 -45 -9q-47 0 -77.5 31.5t-30.5 70.5q0 67 38 103.5t88.5 36.5t77 -32t26.5 -71z M999 1527q0 -99 -77 -130q-22 -9 -45 -9q-47 0 -77.5 31.5t-30.5 70.5q0 67 38 103.5t88.5 36.5t77 -32t26.5 -71z" glyph-name="ij" horiz-adv-x="1150" unicode="ĳ"/>
<glyph d="M-39 -243q162 46 250 173q68 98 78 328q4 90 4 296v968h172v-985q0 -134 -0.5 -253t-18.5 -214q-31 -174 -158 -278t-274 -124zM25 1684l277 298h149l280 -296l-110 -47l-244 223l-248 -223z" glyph-name="Jcircumflex" horiz-adv-x="694" unicode="Ĵ"/>
<glyph d="M-95 -370q51 -19 116 -19q100 0 145 82.5t45 265.5v1180h166v-1116q0 -408 -191 -499q-63 -31 -159 -31t-122 13v124zM-63 1345l297 347h149l291 -346l-103 -44l-263 263l-274 -263z" glyph-name="jcircumflex" horiz-adv-x="562" unicode="ĵ"/>
<glyph d="M709 -97q62 -28 87 -133q8 -35 8 -80q0 -86 -44.5 -157.5t-93.5 -92.5l-58 32v20q53 48 53 145.5t-45 140.5q-13 13 -27 17v38zM206 1522h169v-821l675 821h201l-541 -646q32 -51 112 -170q174 -258 248.5 -370t139.5 -225l67 -111h-196q-6 9 -11.5 19.5t-12.5 23.5 t-16 30t-35 62.5t-79 129t-110.5 169.5t-113.5 169t-99 150l-229 -265v-488h-169v1522z" glyph-name="Kcommaaccent" horiz-adv-x="1364" unicode="Ķ"/>
<glyph d="M629 -97q62 -28 87 -133q8 -35 8 -80q0 -86 -44.5 -157.5t-93.5 -92.5l-58 32v20q53 48 53 145.5t-45 140.5q-13 13 -27 17v38zM188 1661h166v-953l-4 -123l537 554h198l-445 -447l494 -692h-191l-414 581l-179 -180l4 -177v-224h-166v1661z" glyph-name="kcommaaccent" horiz-adv-x="1166" unicode="ķ"/>
<glyph d="M197 1140h167v-500l-3 -99l554 598h192l-450 -472l489 -667h-191l-406 554l-188 -196l5 -158v-200h-167z" glyph-name="kgreenlandic" horiz-adv-x="1171" unicode="ĸ"/>
<glyph d="M171 1660q42 34 89 76.5t86 77.5q139 125 172 161l111 -102q-126 -126 -288 -229q-52 -32 -98 -55zM206 1522h172v-1389h629v-133h-801v1522z" glyph-name="Lacute" horiz-adv-x="1066" unicode="Ĺ"/>
<glyph d="M214 1533h167v-1533h-167v1533zM215 1660q42 34 89 76.5t86 77.5q139 125 172 161l111 -102q-126 -126 -289 -229q-51 -32 -97 -55z" glyph-name="lacute" horiz-adv-x="608" unicode="ĺ"/>
<glyph d="M607 -97q62 -28 87 -133q8 -35 8 -80q0 -86 -44.5 -157.5t-93.5 -92.5l-58 32v20q53 48 53 145.5t-45 140.5q-13 13 -27 17v38zM206 1522h172v-1389h629v-133h-801v1522z" glyph-name="Lcommaaccent" horiz-adv-x="1066" unicode="Ļ"/>
<glyph d="M304 -97q62 -28 87 -133q8 -35 8 -80q0 -86 -44.5 -157.5t-93.5 -92.5l-58 32v20q53 48 53 145.5t-45 140.5q-13 13 -27 17v38zM214 1664h167v-1664h-167v1664z" glyph-name="lcommaaccent" horiz-adv-x="594" unicode="ļ"/>
<glyph d="M206 1522h172v-1389h629v-133h-801v1522zM706 1607l10 37l133 41q60 -53 60 -241t-73 -335q-22 -43 -46 -72l-84 26l-7 23q8 24 19 50q41 103 41 253.5t-53 217.5z" glyph-name="Lcaron" horiz-adv-x="1066" unicode="Ľ"/>
<glyph d="M214 1664h167v-1664h-167v1664zM566 1607l10 37l133 41q60 -53 60 -241t-73 -335q-22 -43 -46 -72l-84 26l-7 23q8 24 19 50q41 103 41 253.5t-53 217.5z" glyph-name="lcaron" horiz-adv-x="749" unicode="ľ"/>
<glyph d="M947 932.5q37 41.5 88 41.5t79.5 -37t28.5 -79q0 -71 -35.5 -110t-72 -39t-56 9t-35.5 25q-33 36 -33.5 92t36.5 97.5zM206 1522h172v-1389h629v-133h-801v1522z" glyph-name="Ldot" horiz-adv-x="1336" unicode="Ŀ"/>
<glyph d="M214 1664h167v-1664h-167v1664zM716 955.5q37 41.5 88 41.5t79.5 -37t28.5 -79q0 -71 -35.5 -110t-72 -39t-56 9t-35.5 25q-33 36 -33.5 92t36.5 97.5z" glyph-name="ldot" horiz-adv-x="988" unicode="ŀ"/>
<glyph d="M206 624l-153 -56l-41 104l194 71v779h172v-715l428 158l41 -106l-469 -172v-554h629v-133h-801v624z" glyph-name="Lslash" horiz-adv-x="1066" unicode="Ł"/>
<glyph d="M214 761l-170 -65v115l170 68v785h167v-719l221 89v-123l-221 -85v-826h-167v761z" glyph-name="lslash" horiz-adv-x="594" unicode="ł"/>
<glyph d="M667 1660q42 34 89 76.5t86 77.5q139 125 172 161l111 -102q-126 -126 -288 -229q-52 -32 -98 -55zM205 1522h157l701 -1060l142 -247l-12 311v996h155v-1522h-155l-687 1034l-156 265l11 -329v-970h-156v1522z" glyph-name="Nacute" horiz-adv-x="1553" unicode="Ń"/>
<glyph d="M576 1383q227 247 337 398l120 -103q-71 -104 -251 -266q-76 -69 -120 -97zM193 1139h149l1 -146q128 98 295 145q66 19 143 19q170 0 246 -101t76 -351v-705h-167v706q0 177 -49 244.5t-178 67.5t-276 -89q-41 -25 -73 -51v-878h-167v1139z" glyph-name="nacute" horiz-adv-x="1288" unicode="ń"/>
<glyph d="M771 -97q62 -28 87 -133q8 -35 8 -80q0 -86 -44.5 -157.5t-93.5 -92.5l-58 32v20q53 48 53 145.5t-45 140.5q-13 13 -27 17v38zM205 1522h157l701 -1060l142 -247l-12 311v996h155v-1522h-155l-687 1034l-156 265l11 -329v-970h-156v1522z" glyph-name="Ncommaaccent" horiz-adv-x="1553" unicode="Ņ"/>
<glyph d="M670 -97q62 -28 87 -133q8 -35 8 -80q0 -86 -44.5 -157.5t-93.5 -92.5l-58 32v20q53 48 53 145.5t-45 140.5q-13 13 -27 17v38zM193 1139h149l1 -146q128 98 295 145q66 19 143 19q170 0 246 -101t76 -351v-705h-167v706q0 177 -49 244.5t-178 67.5t-276 -89 q-41 -25 -73 -51v-878h-167v1139z" glyph-name="ncommaaccent" horiz-adv-x="1288" unicode="ņ"/>
<glyph d="M446 1936l97 46l244 -202l248 202l92 -44l-265 -271h-148zM205 1522h157l701 -1060l142 -247l-12 311v996h155v-1522h-155l-687 1034l-156 265l11 -329v-970h-156v1522z" glyph-name="Ncaron" horiz-adv-x="1553" unicode="Ň"/>
<glyph d="M328 1669l97 43l274 -263l263 263l103 -44l-291 -346h-149zM193 1139h149l1 -146q128 98 295 145q66 19 143 19q170 0 246 -101t76 -351v-705h-167v706q0 177 -49 244.5t-178 67.5t-276 -89q-41 -25 -73 -51v-878h-167v1139z" glyph-name="ncaron" horiz-adv-x="1288" unicode="ň"/>
<glyph d="M670 -97q62 -28 87 -133q8 -35 8 -80q0 -86 -44.5 -157.5t-93.5 -92.5l-58 32v20q53 48 53 145.5t-45 140.5q-13 13 -27 17v38zM193 1139h149l1 -146q128 98 295 145q66 19 143 19q170 0 246 -101t76 -351v-705h-167v706q0 177 -49 244.5t-178 67.5t-276 -89 q-41 -25 -73 -51v-878h-167v1139z" glyph-name="napostrophe" horiz-adv-x="1288" unicode="ŉ"/>
<glyph d="M205 1522h158l720 -1067l133 -236l-14 304v999h166v-1117q0 -275 -36.5 -387t-91.5 -180.5t-124 -117.5q-138 -99 -294 -123l-44 80q152 42 280.5 151t130.5 207l-683 1005l-144 246l9 -314v-972h-165z" glyph-name="Eng" horiz-adv-x="1580" unicode="Ŋ"/>
<glyph d="M650 -377q28 -12 93 -12t100 19t57 61q42 80 42 273v740q0 183 -50.5 248t-176 65t-279.5 -89q-42 -24 -75 -49v-879h-168v1139h149v-146q134 100 304 145q71 19 148 19q167 0 240.5 -99.5t73.5 -349.5v-722q0 -360 -178 -460q-59 -33 -155.5 -33t-124.5 14v116z" glyph-name="eng" horiz-adv-x="1294" unicode="ŋ"/>
<glyph d="M539 1867h543v-124h-543v124zM496 38q-252 116 -343 408q-43 141 -43 321.5t57.5 329.5t151.5 245q190 196 492 196t475.5 -208t173.5 -544q0 -382 -194 -592t-503 -210q-148 0 -267 54zM312 510q67 -243 252 -345q93 -51 212 -51q237 0 374 172.5t138 468t-126.5 475 t-356.5 179.5t-376.5 -169.5t-147.5 -489.5q0 -127 31 -240z" glyph-name="Omacron" horiz-adv-x="1572" unicode="Ō"/>
<glyph d="M350 1576h543v-124h-543v124zM215 166q-111 157 -111 426q0 129 41.5 237.5t111.5 180.5q140 146 379 146t369 -180q112 -156 112 -420t-144.5 -418t-385.5 -154t-372 182zM948 561q0 327 -182 436q-64 38 -147 38q-163 0 -254 -116.5t-91 -328.5t84 -349.5t247 -137.5 t253 122t90 336z" glyph-name="omacron" horiz-adv-x="1223" unicode="ō"/>
<glyph d="M952.5 1668.5q-64.5 -26.5 -146 -26.5t-146.5 26q-130 53 -173 175q-17 48 -17 79.5t1 44.5h117q0 -99 78 -154q55 -39 135 -39q131 0 190 79q41 55 41 114h114q1 -10 1 -42t-20.5 -86.5t-65 -99t-109 -71zM496 38q-252 116 -343 408q-43 141 -43 321.5t57.5 329.5 t151.5 245q190 196 492 196t475.5 -208t173.5 -544q0 -382 -194 -592t-503 -210q-148 0 -267 54zM312 510q67 -243 252 -345q93 -51 212 -51q237 0 374 172.5t138 468t-126.5 475t-356.5 179.5t-376.5 -169.5t-147.5 -489.5q0 -127 31 -240z" glyph-name="Obreve" horiz-adv-x="1572" unicode="Ŏ"/>
<glyph d="M215 166q-111 157 -111 426q0 129 41.5 237.5t111.5 180.5q140 146 379 146t369 -180q112 -156 112 -420t-144.5 -418t-385.5 -154t-372 182zM948 561q0 327 -182 436q-64 38 -147 38q-163 0 -254 -116.5t-91 -328.5t84 -349.5t247 -137.5t253 122t90 336zM763.5 1366 q-64.5 -31 -145.5 -31t-146 31q-128 61 -173 196q-18 53 -18 86t1 46h118q0 -70 26 -115q66 -114 175 -114q176 0 228 147q15 43 15 82h114q1 -12 1 -45.5t-20.5 -92t-65.5 -109t-109.5 -81.5z" glyph-name="obreve" horiz-adv-x="1223" unicode="ŏ"/>
<glyph d="M496 38q-252 116 -343 408q-43 141 -43 321.5t57.5 329.5t151.5 245q190 196 492 196t475.5 -208t173.5 -544q0 -382 -194 -592t-503 -210q-148 0 -267 54zM312 510q67 -243 252 -345q93 -51 212 -51q237 0 374 172.5t138 468t-126.5 475t-356.5 179.5t-376.5 -169.5 t-147.5 -489.5q0 -127 31 -240zM819 1922q-127 -176 -261 -283l-95 53q65 72 142 179.5t84 118.5zM1287 1913q-117 -165 -261 -274l-96 53q75 84 151 182t82 107z" glyph-name="Ohungarumlaut" horiz-adv-x="1572" unicode="Ő"/>
<glyph d="M271 1408q7 9 27.5 40.5t47.5 73.5q138 210 189 295l124 -85q-82 -139 -235 -304q-42 -46 -74 -74zM763 1408q12 16 59 84.5t79 115t59.5 87.5t48.5 72t27 41l118 -85q-77 -134 -236 -296q-44 -46 -77 -73zM215 166q-111 157 -111 426q0 129 41.5 237.5t111.5 180.5 q140 146 379 146t369 -180q112 -156 112 -420t-144.5 -418t-385.5 -154t-372 182zM948 561q0 327 -182 436q-64 38 -147 38q-163 0 -254 -116.5t-91 -328.5t84 -349.5t247 -137.5t253 122t90 336z" glyph-name="ohungarumlaut" horiz-adv-x="1223" unicode="ő"/>
<glyph d="M1093 74q-137 -90 -304.5 -90t-291.5 56q-251 114 -345 410q-43 135 -43 293q0 381 201.5 588t520.5 207q150 0 262 -66v50h823v-131h-654v-539h485v-132h-485v-586h728v-134h-897v74zM1093 1323q-111 86 -282 86q-221 0 -366 -156q-166 -178 -166 -498 q0 -274 135 -458.5t378 -184.5q179 0 301 106v1105z" glyph-name="OE" horiz-adv-x="2057" unicode="Œ"/>
<glyph d="M1450 -16q-295 0 -421 231q-68 -113 -178.5 -172t-248 -59t-232.5 50q-184 96 -241 326q-25 102 -25 214q0 277 147 429.5t374 152.5q286 0 415 -236q136 236 430 236q179 0 289 -117.5t114 -310.5q0 -128 -8 -175h-748v-20q0 -222 112 -331q94 -91 262 -91q126 0 253 47 q37 13 60 28l33 -97q-92 -73 -278 -97q-56 -8 -109 -8zM1716 665q1 20 1 58q0 123 -51 207q-66 107 -213 107q-206 0 -289 -203q-29 -70 -40 -169h592zM954 561q0 327 -185 436q-65 38 -147 38q-163 0 -255.5 -117t-92.5 -328.5t84 -349t248 -137.5t256 122t92 336z" glyph-name="oe" horiz-adv-x="1979" unicode="œ"/>
<glyph d="M684 664q-78 -3 -153.5 -3t-155.5 2v-663h-169v1522h46l54 1q72 1 166.5 7t193.5 6q522 0 522 -420q0 -253 -182 -370q-57 -36 -127 -56q96 -59 197 -260q39 -78 87 -180.5t68.5 -139.5t34.5 -63t28 -47h-192q-34 46 -78.5 152.5t-71.5 165.5q-69 152 -118 222 q-73 104 -150 124zM807 1394q-71 17 -205.5 17t-226.5 -16v-612q54 -6 158 -6h126q253 3 330 186q26 62 26 144t-22 139.5t-68.5 94t-117.5 53.5zM583 1660q42 34 89 76.5t86 77.5q139 125 172 161l111 -102q-126 -126 -288 -229q-52 -32 -98 -55z" glyph-name="Racute" horiz-adv-x="1359" unicode="Ŕ"/>
<glyph d="M369 1383q227 247 337 398l120 -103q-71 -104 -251 -266q-76 -69 -120 -97zM675 1009q-191 0 -323 -132v-877h-167v1139h142l10 -152q76 98 237 151q54 18 120.5 18t97.5 -13v-157q-46 23 -117 23z" glyph-name="racute" horiz-adv-x="826" unicode="ŕ"/>
<glyph d="M709 -97q62 -28 87 -133q8 -35 8 -80q0 -86 -44.5 -157.5t-93.5 -92.5l-58 32v20q53 48 53 145.5t-45 140.5q-13 13 -27 17v38zM684 664q-78 -3 -153.5 -3t-155.5 2v-663h-169v1522h46l54 1q72 1 166.5 7t193.5 6q522 0 522 -420q0 -253 -182 -370q-57 -36 -127 -56 q96 -59 197 -260q39 -78 87 -180.5t68.5 -139.5t34.5 -63t28 -47h-192q-34 46 -78.5 152.5t-71.5 165.5q-69 152 -118 222q-73 104 -150 124zM807 1394q-71 17 -205.5 17t-226.5 -16v-612q54 -6 158 -6h126q253 3 330 186q26 62 26 144t-22 139.5t-68.5 94t-117.5 53.5z" glyph-name="Rcommaaccent" horiz-adv-x="1359" unicode="Ŗ"/>
<glyph d="M285 -97q62 -28 87 -133q8 -35 8 -80q0 -86 -44.5 -157.5t-93.5 -92.5l-58 32v20q53 48 53 145.5t-45 140.5q-13 13 -27 17v38zM675 1009q-191 0 -323 -132v-877h-167v1139h142l10 -152q76 98 237 151q54 18 120.5 18t97.5 -13v-157q-46 23 -117 23z" glyph-name="rcommaaccent" horiz-adv-x="826" unicode="ŗ"/>
<glyph d="M361 1936l97 46l244 -202l248 202l92 -44l-265 -271h-148zM684 664q-78 -3 -153.5 -3t-155.5 2v-663h-169v1522h46l54 1q72 1 166.5 7t193.5 6q522 0 522 -420q0 -253 -182 -370q-57 -36 -127 -56q96 -59 197 -260q39 -78 87 -180.5t68.5 -139.5t34.5 -63t28 -47h-192 q-34 46 -78.5 152.5t-71.5 165.5q-69 152 -118 222q-73 104 -150 124zM807 1394q-71 17 -205.5 17t-226.5 -16v-612q54 -6 158 -6h126q253 3 330 186q26 62 26 144t-22 139.5t-68.5 94t-117.5 53.5z" glyph-name="Rcaron" horiz-adv-x="1359" unicode="Ř"/>
<glyph d="M121 1669l97 43l274 -263l263 263l103 -44l-291 -346h-149zM675 1009q-191 0 -323 -132v-877h-167v1139h142l10 -152q76 98 237 151q54 18 120.5 18t97.5 -13v-157q-46 23 -117 23z" glyph-name="rcaron" horiz-adv-x="826" unicode="ř"/>
<glyph d="M956 1323q-128 82 -326 82q-135 0 -231.5 -57t-96.5 -169.5t88 -192.5q63 -59 194 -121.5t208 -104.5q276 -149 276 -375q0 -195 -136 -298t-352.5 -103t-380.5 60q-42 16 -63 30l41 139q99 -63 271 -87q55 -7 122 -7q150 0 241 62t91 182.5t-102 201.5 q-68 54 -202 114.5t-205.5 104t-127.5 99.5q-125 125 -125 279q0 253 261 340q106 36 204 36q260 0 386 -82zM498 1660q42 34 89 76.5t86 77.5q139 125 172 161l111 -102q-126 -126 -288 -229q-52 -32 -98 -55z" glyph-name="Sacute" horiz-adv-x="1154" unicode="Ś"/>
<glyph d="M393 1383q227 247 337 398l120 -103q-71 -104 -251 -266q-76 -69 -120 -97zM149 192q68 -47 225 -74q184 -32 283 34q70 47 70 133q0 112 -172 186q-49 21 -107.5 45t-117.5 56q-198 110 -198 291q0 144 113.5 218.5t265.5 74.5t268 -40q29 -10 44 -19l-28 -127 q-54 40 -177 56q-40 6 -82 6q-123 0 -186 -44t-63 -116q0 -114 147 -186q46 -22 102 -44q153 -58 230 -120q117 -94 117 -234t-107.5 -222t-281.5 -82t-307 51q-39 15 -64 31z" glyph-name="sacute" horiz-adv-x="984" unicode="ś"/>
<glyph d="M956 1323q-128 82 -326 82q-135 0 -231.5 -57t-96.5 -169.5t88 -192.5q63 -59 194 -121.5t208 -104.5q276 -149 276 -375q0 -195 -136 -298t-352.5 -103t-380.5 60q-42 16 -63 30l41 139q99 -63 271 -87q55 -7 122 -7q150 0 241 62t91 182.5t-102 201.5 q-68 54 -202 114.5t-205.5 104t-127.5 99.5q-125 125 -125 279q0 253 261 340q106 36 204 36q260 0 386 -82zM266 1684l277 298h149l280 -296l-110 -47l-244 223l-248 -223z" glyph-name="Scircumflex" horiz-adv-x="1154" unicode="Ŝ"/>
<glyph d="M143 1345l297 347h149l291 -346l-103 -44l-263 263l-274 -263zM149 192q68 -47 225 -74q184 -32 283 34q70 47 70 133q0 112 -172 186q-49 21 -107.5 45t-117.5 56q-198 110 -198 291q0 144 113.5 218.5t265.5 74.5t268 -40q29 -10 44 -19l-28 -127q-54 40 -177 56 q-40 6 -82 6q-123 0 -186 -44t-63 -116q0 -114 147 -186q46 -22 102 -44q153 -58 230 -120q117 -94 117 -234t-107.5 -222t-281.5 -82t-307 51q-39 15 -64 31z" glyph-name="scircumflex" horiz-adv-x="984" unicode="ŝ"/>
<glyph d="M313 -327q29 -18 89.5 -18t99.5 38q47 46 47 182q0 60 -14 110q-200 6 -341 61q-39 15 -58 28l41 139q99 -63 271 -87q55 -7 122 -7q150 0 241 62t91 182.5t-102 201.5q-68 54 -202 114.5t-205.5 104t-127.5 99.5q-125 125 -125 279q0 253 261 340q106 36 204 36 q260 0 386 -82l-35 -133q-128 82 -326 82q-135 0 -231.5 -57t-96.5 -169.5t88 -192.5q63 -59 194 -121.5t208 -104.5q276 -149 276 -375q0 -180 -116.5 -282t-312.5 -116q32 -68 32 -175q0 -217 -147 -264q-40 -12 -70 -12q-111 0 -153 28z" glyph-name="Scedilla" horiz-adv-x="1154" unicode="Ş"/>
<glyph d="M221 -327q29 -18 89.5 -18t99.5 38q47 46 47 182q0 60 -14 110q-153 9 -263 53q-35 13 -57 28l26 126q68 -47 225 -74q184 -32 283 34q70 47 70 133q0 112 -172 186q-49 21 -107.5 45t-117.5 56q-198 110 -198 291q0 144 113.5 218.5t265.5 74.5t268 -40q29 -10 44 -19 l-28 -127q-54 40 -177 56q-40 6 -82 6q-123 0 -186 -44t-63 -116q0 -114 147 -186q46 -22 102 -44q153 -58 230 -120q117 -94 117 -226.5t-89 -213.5t-247 -95q32 -66 32 -173q0 -219 -147 -266q-40 -12 -70 -12q-111 0 -153 28z" glyph-name="scedilla" horiz-adv-x="984" unicode="ş"/>
<glyph d="M956 1323q-128 82 -326 82q-135 0 -231.5 -57t-96.5 -169.5t88 -192.5q63 -59 194 -121.5t208 -104.5q276 -149 276 -375q0 -195 -136 -298t-352.5 -103t-380.5 60q-42 16 -63 30l41 139q99 -63 271 -87q55 -7 122 -7q150 0 241 62t91 182.5t-102 201.5 q-68 54 -202 114.5t-205.5 104t-127.5 99.5q-125 125 -125 279q0 253 261 340q106 36 204 36q260 0 386 -82zM277 1936l97 46l244 -202l248 202l92 -44l-265 -271h-148z" glyph-name="Scaron" horiz-adv-x="1154" unicode="Š"/>
<glyph d="M145 1669l97 43l274 -263l263 263l103 -44l-291 -346h-149zM149 192q68 -47 225 -74q184 -32 283 34q70 47 70 133q0 112 -172 186q-49 21 -107.5 45t-117.5 56q-198 110 -198 291q0 144 113.5 218.5t265.5 74.5t268 -40q29 -10 44 -19l-28 -127q-54 40 -177 56 q-40 6 -82 6q-123 0 -186 -44t-63 -116q0 -114 147 -186q46 -22 102 -44q153 -58 230 -120q117 -94 117 -234t-107.5 -222t-281.5 -82t-307 51q-39 15 -64 31z" glyph-name="scaron" horiz-adv-x="984" unicode="š"/>
<glyph d="M365 -327q29 -18 89.5 -18t99.5 38t44 127q2 33 2 82t-18 98h-29v1391h-491v131h1160v-131h-498v-1391h-40q39 -66 39 -189q0 -217 -147 -263q-40 -12 -70 -12q-111 0 -153 28z" glyph-name="uni0162" horiz-adv-x="1279" unicode="Ţ"/>
<glyph d="M183 -327q29 -18 89.5 -18t99.5 38q47 45 47 186q0 67 -17 115q-162 42 -162 276v744h-159v91q28 8 56 14t67.5 17.5t49 36t25 107t27.5 120.5h100v-260h354v-126h-354v-650q0 -161 34 -208q27 -38 110 -38q61 0 128.5 19t93.5 38l29 -97q-70 -57 -209 -84 q-43 -9 -81 -10q30 -68 30 -179q0 -149 -67.5 -209t-164 -60t-138.5 28z" glyph-name="uni0163" horiz-adv-x="849" unicode="ţ"/>
<glyph d="M293 1936l97 46l244 -202l248 202l92 -44l-265 -271h-148zM553 1391h-491v131h1160v-131h-498v-1391h-171v1391z" glyph-name="Tcaron" horiz-adv-x="1279" unicode="Ť"/>
<glyph d="M240 1014h-159v91q28 8 56 14t67.5 17.5t49 36t25 107t27.5 120.5h100v-260h354v-126h-354v-650q0 -161 34 -208q27 -38 110 -38q61 0 128.5 19t93.5 38l29 -97q-72 -59 -219 -86q-43 -8 -89 -8q-116 0 -175 52q-78 66 -78 234v744zM732 1766l10 37l133 41 q60 -53 60 -241t-73 -335q-22 -43 -46 -72l-84 26l-7 23q8 24 19 50q41 103 41 253.5t-53 217.5z" glyph-name="tcaron" horiz-adv-x="995" unicode="ť"/>
<glyph d="M553 666h-299v112h299v613h-491v131h1160v-131h-498v-613h301v-112h-301v-666h-171v666z" glyph-name="Tbar" horiz-adv-x="1279" unicode="Ŧ"/>
<glyph d="M240 617h-160v125h160v272h-159v91q28 8 56 14t67.5 17.5t49 36t25 107t27.5 120.5h100v-260h354v-126h-354v-272h353v-125h-353v-253q0 -161 34 -208q27 -38 110 -38q61 0 128.5 19t93.5 38l29 -97q-72 -59 -219 -86q-43 -8 -89 -8q-116 0 -175 52q-78 66 -78 234v347z " glyph-name="tbar" horiz-adv-x="849" unicode="ŧ"/>
<glyph d="M589 1821q-96 0 -185 -108l-66 54q32 72 109 124.5t164 52.5t162 -75q47 -47 75.5 -61t58.5 -14q100 0 186 105l67 -56q-32 -72 -110 -124t-138 -52t-90.5 11.5t-54 28.5t-42.5 37t-52.5 48.5t-83.5 28.5zM171 1523h169l-1 -839q0 -458 237 -540q77 -27 170 -27 q195 0 292.5 127.5t97.5 440.5v837h168v-877q0 -661 -560 -661q-439 0 -540 376q-33 123 -33 284v879z" glyph-name="Utilde" horiz-adv-x="1474" unicode="Ũ"/>
<glyph d="M916 117q-190 -133 -429 -133q-80 0 -146 35.5t-101 99.5q-57 104 -57 352v669h166v-676q0 -209 49 -275.5t177.5 -66.5t261.5 70q36 19 60 37v911h167v-1152h-64q-66 0 -78 32q-6 13 -6 36v61zM488 1512q-100 0 -191 -104l-66 54q32 69 104 122.5t160.5 53.5t163.5 -74 q49 -47 76.5 -60.5t58.5 -13.5q106 0 192 104l67 -56q-59 -118 -174 -160q-40 -15 -84.5 -15t-75.5 11t-55 27.5t-43 36t-50.5 47t-82.5 27.5z" glyph-name="utilde" horiz-adv-x="1249" unicode="ũ"/>
<glyph d="M479 1867h543v-124h-543v124zM171 1523h169l-1 -839q0 -458 237 -540q77 -27 170 -27q195 0 292.5 127.5t97.5 440.5v837h168v-877q0 -661 -560 -661q-439 0 -540 376q-33 123 -33 284v879z" glyph-name="Umacron" horiz-adv-x="1474" unicode="Ū"/>
<glyph d="M916 117q-190 -133 -429 -133q-80 0 -146 35.5t-101 99.5q-57 104 -57 352v669h166v-676q0 -209 49 -275.5t177.5 -66.5t261.5 70q36 19 60 37v911h167v-1152h-64q-66 0 -78 32q-6 13 -6 36v61zM372 1576h543v-124h-543v124z" glyph-name="umacron" horiz-adv-x="1249" unicode="ū"/>
<glyph d="M892.5 1668.5q-64.5 -26.5 -146 -26.5t-146.5 26q-130 53 -173 175q-17 48 -17 79.5t1 44.5h117q0 -99 78 -154q55 -39 135 -39q131 0 190 79q41 55 41 114h114q1 -10 1 -42t-20.5 -86.5t-65 -99t-109 -71zM171 1523h169l-1 -839q0 -458 237 -540q77 -27 170 -27 q195 0 292.5 127.5t97.5 440.5v837h168v-877q0 -661 -560 -661q-439 0 -540 376q-33 123 -33 284v879z" glyph-name="Ubreve" horiz-adv-x="1474" unicode="Ŭ"/>
<glyph d="M916 117q-190 -133 -429 -133q-80 0 -146 35.5t-101 99.5q-57 104 -57 352v669h166v-676q0 -209 49 -275.5t177.5 -66.5t261.5 70q36 19 60 37v911h167v-1152h-64q-66 0 -78 32q-6 13 -6 36v61zM785.5 1366q-64.5 -31 -145.5 -31t-146 31q-128 61 -173 196q-18 53 -18 86 t1 46h118q0 -70 26 -115q66 -114 175 -114q176 0 228 147q15 43 15 82h114q1 -12 1 -45.5t-20.5 -92t-65.5 -109t-109.5 -81.5z" glyph-name="ubreve" horiz-adv-x="1249" unicode="ŭ"/>
<glyph d="M171 1523h169l-1 -839q0 -458 237 -540q77 -27 170 -27q195 0 292.5 127.5t97.5 440.5v837h168v-877q0 -661 -560 -661q-439 0 -540 376q-33 123 -33 284v879zM860.5 1474q-56.5 -15 -122.5 -15t-124 18q-114 36 -157 135q-20 46 -20 76q0 100 28 149q77 135 290.5 135 t278.5 -144q22 -47 21.5 -112.5t-26.5 -114.5t-69 -80.5t-99.5 -46.5zM744 1556q137 0 179 87q15 31 15 73q0 80 -53 120.5t-138 40.5q-128 0 -174 -81q-17 -30 -17 -91t49 -104t139 -45z" glyph-name="Uring" horiz-adv-x="1474" unicode="Ů"/>
<glyph d="M756.5 1348q-56.5 -16 -122.5 -16t-124 19q-114 38 -157 139q-20 48 -20 78q0 100 28 150t72 80q86 60 211 60q220 0 286 -149q22 -48 21.5 -113t-26.5 -115.5t-69 -83.5t-99.5 -49zM640 1429q135 0 179 93q15 32 15 74q0 80 -53 123.5t-138 43.5q-127 0 -174 -86 q-17 -31 -17 -92.5t49 -107.5t139 -48zM916 117q-190 -133 -429 -133q-80 0 -146 35.5t-101 99.5q-57 104 -57 352v669h166v-676q0 -209 49 -275.5t177.5 -66.5t261.5 70q36 19 60 37v911h167v-1152h-64q-66 0 -78 32q-6 13 -6 36v61z" glyph-name="uring" horiz-adv-x="1249" unicode="ů"/>
<glyph d="M171 1523h169l-1 -839q0 -458 237 -540q77 -27 170 -27q195 0 292.5 127.5t97.5 440.5v837h168v-877q0 -661 -560 -661q-439 0 -540 376q-33 123 -33 284v879zM759 1922q-127 -176 -261 -283l-95 53q65 72 142 179.5t84 118.5zM1227 1913q-117 -165 -261 -274l-96 53 q75 84 151 182t82 107z" glyph-name="Uhungarumlaut" horiz-adv-x="1474" unicode="Ű"/>
<glyph d="M916 117q-190 -133 -429 -133q-80 0 -146 35.5t-101 99.5q-57 104 -57 352v669h166v-676q0 -209 49 -275.5t177.5 -66.5t261.5 70q36 19 60 37v911h167v-1152h-64q-66 0 -78 32q-6 13 -6 36v61zM293 1408q7 9 27.5 40.5t47.5 73.5q138 210 189 295l124 -85 q-82 -139 -235 -304q-42 -46 -74 -74zM785 1408q12 16 59 84.5t79 115t59.5 87.5t48.5 72t27 41l118 -85q-77 -134 -236 -296q-44 -46 -77 -73z" glyph-name="uhungarumlaut" horiz-adv-x="1249" unicode="ű"/>
<glyph d="M1065 -450q-83 -62 -242 -62t-216 116q-56 113 43 248q58 77 140 133q-11 -1 -22 -1h-24q-439 0 -540 376q-33 123 -33 284v879h169l-1 -839q0 -458 237 -540q77 -27 170 -27q195 0 292.5 127.5t97.5 440.5v837h168v-877q0 -529 -359 -635q-131 -105 -177 -211 q-15 -36 -15 -70q0 -128 149 -128q81 2 163 41v-92z" glyph-name="Uogonek" horiz-adv-x="1474" unicode="Ų"/>
<glyph d="M916 117q-190 -133 -429 -133q-80 0 -146 35.5t-101 99.5q-57 104 -57 352v669h166v-676q0 -209 49 -275.5t177.5 -66.5t261.5 70q36 19 60 37v911h167v-1152h-12q-216 -131 -216 -264q0 -123 149 -123q83 2 159 41v-92q-83 -62 -240.5 -62t-213.5 112q-19 37 -19 89 q0 94 80 179t182 134q-17 15 -17 54v61z" glyph-name="uogonek" horiz-adv-x="1249" unicode="ų"/>
<glyph d="M32 1522h174l249 -1006l69 -335l74 335l298 1006h125l301 -1006l85 -332l64 331l236 1007h171l-392 -1538h-166l-325 1096l-37 182l-37 -182l-329 -1096h-148zM603 1684l277 298h149l280 -296l-110 -47l-244 223l-248 -223z" glyph-name="Wcircumflex" horiz-adv-x="1909" unicode="Ŵ"/>
<glyph d="M454 1353l297 347h149l291 -346l-103 -44l-263 263l-274 -263zM39 1140h167l229 -783l43 -180l40 180l221 783h165l223 -783l42 -184l43 179l221 788h163l-355 -1158h-154l-237 837l-30 147l-32 -147l-232 -837h-158z" glyph-name="wcircumflex" horiz-adv-x="1635" unicode="ŵ"/>
<glyph d="M548 584l-517 938h181l374 -701l51 -115l44 115l359 701h179l-499 -935v-587h-172v584zM294 1684l277 298h149l280 -296l-110 -47l-244 223l-248 -223z" glyph-name="Ycircumflex" horiz-adv-x="1249" unicode="Ŷ"/>
<glyph d="M120 -356q41 -12 91 -12q107 0 188.5 82.5t133.5 285.5h-49l-428 1140h178l350 -1006l303 1006h180l-392 -1169q-105 -314 -237 -413q-87 -65 -228 -65q-71 0 -90 14v137zM211 1345l297 347h149l291 -346l-103 -44l-263 263l-274 -263z" glyph-name="ycircumflex" horiz-adv-x="1107" unicode="ŷ"/>
<glyph d="M548 584l-517 938h181l374 -701l51 -115l44 115l359 701h179l-499 -935v-587h-172v584zM894 1922q105 0 105 -109q0 -86 -75 -115q-22 -8 -56 -8t-64.5 27.5t-30.5 68.5q0 65 37 100.5t84 35.5zM415 1922q104 0 104 -109q0 -86 -75 -115q-22 -8 -55.5 -8t-64 27.5 t-30.5 68.5q0 66 36.5 101t84.5 35z" glyph-name="Ydieresis" horiz-adv-x="1249" unicode="Ÿ"/>
<glyph d="M914 1275l85 112h-810v135h995l36 -64l-805 -1219l-86 -106h849v-133h-1036l-36 66zM566 1660q42 34 89 76.5t86 77.5q139 125 172 161l111 -102q-126 -126 -288 -229q-52 -32 -98 -55z" glyph-name="Zacute" horiz-adv-x="1309" unicode="Ź"/>
<glyph d="M428 1383q227 247 337 398l120 -103q-71 -104 -251 -266q-76 -69 -120 -97zM93 65l665 947h-616v128h812l29 -74l-665 -944h655v-122h-846z" glyph-name="zacute" horiz-adv-x="1072" unicode="ź"/>
<glyph d="M800 1826q0 -95 -75 -126q-22 -9 -56 -9t-65 28.5t-31 68.5q0 64 37 101t88 37t76.5 -31t25.5 -69zM914 1275l85 112h-810v135h995l36 -64l-805 -1219l-86 -106h849v-133h-1036l-36 66z" glyph-name="Zdotaccent" horiz-adv-x="1309" unicode="Ż"/>
<glyph d="M93 65l665 947h-616v128h812l29 -74l-665 -944h655v-122h-846zM664 1527q0 -99 -77 -130q-22 -9 -45 -9q-47 0 -77.5 31.5t-30.5 70.5q0 67 38 103.5t88.5 36.5t77 -32t26.5 -71z" glyph-name="zdotaccent" horiz-adv-x="1072" unicode="ż"/>
<glyph d="M345 1936l97 46l244 -202l248 202l92 -44l-265 -271h-148zM914 1275l85 112h-810v135h995l36 -64l-805 -1219l-86 -106h849v-133h-1036l-36 66z" glyph-name="Zcaron" horiz-adv-x="1309" unicode="Ž"/>
<glyph d="M180 1669l97 43l274 -263l263 263l103 -44l-291 -346h-149zM93 65l665 947h-616v128h812l29 -74l-665 -944h655v-122h-846z" glyph-name="zcaron" horiz-adv-x="1072" unicode="ž"/>
<glyph d="M1037 1532q-29 19 -117.5 19t-130.5 -15q-138 -51 -163 -280l-14 -115h320l-9 -128h-321l-113 -1369h-164l115 1369h-221l6 88l225 40l8 68q30 247 148 362t294 115q110 0 147 -17z" glyph-name="florin" horiz-adv-x="1119" unicode="ƒ"/>
<glyph d="M899 1660q42 34 89 76.5t86 77.5q139 125 172 161l111 -102q-126 -126 -288 -229q-52 -32 -98 -55zM676 1522h1034v-131h-702v-541h526v-131h-526v-586h776v-133h-945v417h-506l-199 -417h-189zM839 544v866h-32l-414 -866h446z" glyph-name="AEacute" horiz-adv-x="1850" unicode="Ǽ"/>
<glyph d="M799 1383q227 247 337 398l120 -103q-71 -104 -251 -266q-76 -69 -120 -97zM889 188q-167 -204 -428 -204q-155 0 -253 85.5t-98 215t65 207.5q158 190 624 190v119q0 140 -69 190q-54 39 -182 39t-280 -66q-40 -17 -64 -33l-42 112q90 60 288 100q69 14 135 14 q139 0 222 -40.5t117 -141.5q141 181 395 181q178 0 288 -117.5t114 -310.5q0 -135 -8 -175h-748v-20q0 -225 113 -333q93 -89 262 -89q126 0 253 47q37 13 60 28l33 -97q-92 -73 -278 -97q-57 -8 -110 -8q-282 0 -409 204zM1564 665q1 21 1 58q0 125 -50 207 q-66 107 -213 107q-205 0 -290 -203q-29 -70 -40 -169h592zM448 522q-170 -63 -170 -193q0 -220 225 -220q103 0 201 54.5t140 118.5q-43 117 -43 283v10q-228 0 -353 -53z" glyph-name="aeacute" horiz-adv-x="1826" unicode="ǽ"/>
<glyph d="M602 -97q62 -28 87 -133q8 -35 8 -80q0 -86 -44.5 -157.5t-93.5 -92.5l-58 32v20q53 48 53 145.5t-45 140.5q-13 13 -27 17v38zM960 1323q-128 82 -326 82q-135 0 -231.5 -57t-96.5 -169.5t88 -192.5q63 -59 194 -121.5t208 -104.5q276 -149 276 -375q0 -195 -136 -298 t-352.5 -103t-380.5 60q-42 16 -63 30l41 139q99 -63 271 -87q55 -7 122 -7q150 0 241 62t91 182.5t-102 201.5q-68 54 -202 114.5t-205.5 104t-127.5 99.5q-125 125 -125 279q0 253 261 340q106 36 204 36q260 0 386 -82z" glyph-name="uni0218" horiz-adv-x="1161" unicode="Ș"/>
<glyph d="M511 -97q62 -28 87 -133q8 -35 8 -80q0 -86 -44.5 -157.5t-93.5 -92.5l-58 32v20q53 48 53 145.5t-45 140.5q-13 13 -27 17v38zM149 192q68 -47 225 -74q184 -32 283 34q70 47 70 133q0 112 -172 186q-49 21 -107.5 45t-117.5 56q-198 110 -198 291q0 144 113.5 218.5 t265.5 74.5t268 -40q29 -10 44 -19l-28 -127q-54 40 -177 56q-40 6 -82 6q-123 0 -186 -44t-63 -116q0 -114 147 -186q46 -22 102 -44q153 -58 230 -120q117 -94 117 -234t-107.5 -222t-281.5 -82t-307 51q-39 15 -64 31z" glyph-name="uni0219" horiz-adv-x="984" unicode="ș"/>
<glyph d="M657 -97q62 -28 87 -133q8 -35 8 -80q0 -86 -44.5 -157.5t-93.5 -92.5l-58 32v20q53 48 53 145.5t-45 140.5q-13 13 -27 17v38zM553 1391h-491v131h1160v-131h-498v-1391h-171v1391z" glyph-name="uni021A" horiz-adv-x="1279" unicode="Ț"/>
<glyph d="M474 -97q62 -28 87 -133q8 -35 8 -80q0 -86 -44.5 -157.5t-93.5 -92.5l-58 32v20q53 48 53 145.5t-45 140.5q-13 13 -27 17v38zM240 1014h-159v91q28 8 56 14t67.5 17.5t49 36t25 107t27.5 120.5h100v-260h354v-126h-354v-650q0 -161 34 -208q27 -38 110 -38 q61 0 128.5 19t93.5 38l29 -97q-72 -59 -219 -86q-43 -8 -89 -8q-116 0 -175 52q-78 66 -78 234v744z" glyph-name="uni021B" horiz-adv-x="849" unicode="ț"/>
<glyph d="M-95 -370q51 -19 116 -19q100 0 145 82.5t45 265.5v1180h166v-1116q0 -408 -191 -499q-63 -31 -159 -31t-122 13v124z" glyph-name="dotlessj" horiz-adv-x="562" unicode="ȷ"/>
<glyph d="M48 1345l297 347h149l291 -346l-103 -44l-263 263l-274 -263z" glyph-name="circumflex" horiz-adv-x="833" unicode="ˆ"/>
<glyph d="M48 1648l97 43l274 -263l263 263l103 -44l-291 -346h-149z" glyph-name="caron" horiz-adv-x="824" unicode="ˇ"/>
<glyph d="M50 1867h543v-124h-543v124z" glyph-name="uni02c9" horiz-adv-x="643" unicode="ˉ"/>
<glyph d="M530.5 1366q-64.5 -31 -145.5 -31t-146 31q-128 61 -173 196q-18 53 -18 86t1 46h118q0 -70 26 -115q66 -114 175 -114q176 0 228 147q15 43 15 82h114q1 -12 1 -45.5t-20.5 -92t-65.5 -109t-109.5 -81.5z" glyph-name="breve" horiz-adv-x="775" unicode="˘"/>
<glyph d="M280 1527q0 -99 -77 -130q-22 -9 -45 -9q-47 0 -77.5 31.5t-30.5 70.5q0 67 38 103.5t88.5 36.5t77 -32t26.5 -71z" glyph-name="dotaccent" horiz-adv-x="330" unicode="˙"/>
<glyph d="M469.5 1348q-56.5 -16 -122.5 -16t-124 19q-114 38 -157 139q-20 48 -20 78q0 100 28 150t72 80q86 60 211 60q220 0 286 -149q22 -48 21.5 -113t-26.5 -115.5t-69 -83.5t-99.5 -49zM353 1429q135 0 179 93q15 32 15 74q0 80 -53 123.5t-138 43.5q-127 0 -174 -86 q-17 -31 -17 -92.5t49 -107.5t139 -48z" glyph-name="ring" horiz-adv-x="713" unicode="˚"/>
<glyph d="M629 -438q-110 -73 -269 -73q-161 0 -226.5 123.5t72.5 263.5q80 81 189 125l74 6l73 -3q-87 -33 -153 -92q-124 -111 -124 -191q0 -122 151 -122q83 0 198 54z" glyph-name="ogonek" horiz-adv-x="619" unicode="˛"/>
<glyph d="M305 1512q-100 0 -191 -104l-66 54q32 69 104 122.5t160.5 53.5t163.5 -74q49 -47 76.5 -60.5t58.5 -13.5q106 0 192 104l67 -56q-59 -118 -174 -160q-40 -15 -84.5 -15t-75.5 11t-55 27.5t-43 36t-50.5 47t-82.5 27.5z" glyph-name="tilde" horiz-adv-x="917" unicode="˜"/>
<glyph d="M47 1387q7 9 27.5 40.5t47.5 73.5q138 210 189 295l124 -85q-82 -139 -235 -304q-42 -46 -74 -74zM539 1387q12 16 59 84.5t79 115t59.5 87.5t48.5 72t27 41l118 -85q-77 -134 -236 -296q-44 -46 -77 -73z" glyph-name="hungarumlaut" horiz-adv-x="1017" unicode="˝"/>
<glyph d="M743 1508h29l749 -1483l-15 -25h-1438l-13 21zM1294 133l-530 1086l-493 -1086h1023z" glyph-name="uni0394" horiz-adv-x="1577" unicode="Δ"/>
<glyph d="M209 118h352q-147 110 -255 317t-108 427v7q0 326 221 511q198 165 490 165t483.5 -179t191.5 -497q0 -230 -98 -432.5t-252 -318.5h385v-118h-561l-1 114q148 89 252.5 290t104.5 469t-164 419q-141 129 -357 129t-370.5 -143t-154.5 -415q0 -329 201 -586 q85 -108 171 -163v-114h-531v118z" glyph-name="uni03A9" horiz-adv-x="1815" unicode="Ω"/>
<glyph d="M955 138q-146 -154 -336 -154t-271 129l24 -484h-156v1511h166v-756q0 -267 263 -269q134 0 288 120v905h166v-912q0 -88 23 -102q8 -5 18 -5q40 0 90 42l24 -76q-15 -28 -72.5 -64t-118.5 -36q-108 0 -108 133v18z" glyph-name="uni03BC" horiz-adv-x="1359" unicode="μ"/>
<glyph d="M1133 -24q-193 0 -193 236q0 18 1 37l50 750l-351 1l-32 -572q-13 -221 -98 -314q-27 -31 -72.5 -72.5t-135.5 -65.5l-103 94q54 12 110 53q94 69 123 159q19 59 31 205l37 513h-71q-124 0 -187 -76q-19 -23 -27 -48l-86 39q0 46 40 111q78 114 287 114h723q62 0 100 16 t55 59h110q-10 -112 -74.5 -164t-195.5 -52h-46l-35 -748v-16q0 -128 87 -128q53 0 103 53.5t73 114.5l83 -36q-18 -102 -105 -182.5t-201 -80.5z" glyph-name="pi" horiz-adv-x="1567" unicode="π"/>
<glyph d="M761 1826q0 -95 -75 -126q-22 -9 -56 -9t-65 28.5t-31 68.5q0 64 37 101t88 37t76.5 -31t25.5 -69zM923 18.5q-115 -32.5 -242 -32.5t-386 14h-89v1523l92 -1l340 13q250 0 374 -94t124 -278.5t-130 -293.5q-47 -39 -114 -55q141 -6 245 -110t104 -251q0 -228 -133 -341 q-70 -61 -185 -93.5zM606 1415q-148 0 -232 -12v-555q40 -5 170 -5l177 1q117 8 184 90.5t67 220.5q0 260 -366 260zM703 723h-197q-94 0 -132 -4v-589q105 -20 244.5 -20t215.5 16q235 52 235 307q0 281 -366 290z" glyph-name="uni1E02" horiz-adv-x="1350" unicode="Ḃ"/>
<glyph d="M344 1016q147 140 345.5 140t325 -141t126.5 -412t-159 -445.5t-415 -174.5q-175 0 -330 57q-38 14 -53 24v1597h167v-475zM351 155q65 -49 230 -49t277.5 126.5t112.5 349.5q0 443 -325 443q-127 0 -243 -77q-31 -20 -52 -39v-754zM869 1527q0 -99 -77 -130 q-22 -9 -45 -9q-47 0 -77.5 31.5t-30.5 70.5q0 67 38 103.5t88.5 36.5t77 -32t26.5 -71z" glyph-name="uni1E03" horiz-adv-x="1244" unicode="ḃ"/>
<glyph d="M828 1826q0 -95 -75 -126q-22 -9 -56 -9t-65 28.5t-31 68.5q0 64 37 101t88 37t76.5 -31t25.5 -69zM317 -2l-93 2h-18v1522h60l60 1l338 13q358 0 539 -190t181 -555t-194.5 -586t-532.5 -221zM879 1377q-110 36 -234 36t-270 -14v-1271q337 -47 510 24q100 40 171 122 q152 174 152 515q0 480 -329 588z" glyph-name="uni1E0A" horiz-adv-x="1479" unicode="Ḋ"/>
<glyph d="M902 126q-142 -142 -341.5 -142t-329 138t-129.5 411.5t157.5 448t414.5 174.5q122 0 221 -38l-3 68v478h167v-1676h-72q-65 0 -79 32q-6 13 -6 37v69zM892 978q-65 56 -233.5 56t-277 -128.5t-108.5 -350t83.5 -331t243 -109.5t292.5 114v749zM490 1527q0 -99 -77 -130 q-22 -9 -45 -9q-47 0 -77.5 31.5t-30.5 70.5q0 67 38 103.5t88.5 36.5t77 -32t26.5 -71z" glyph-name="uni1E0B" horiz-adv-x="1239" unicode="ḋ"/>
<glyph d="M779 1826q0 -95 -75 -126q-22 -9 -56 -9t-65 28.5t-31 68.5q0 64 37 101t88 37t76.5 -31t25.5 -69zM206 1522h851v-131h-682v-561h509v-131h-509v-699h-169v1522z" glyph-name="uni1E1E" horiz-adv-x="1085" unicode="Ḟ"/>
<glyph d="M502 1885q0 -99 -77 -130q-22 -9 -45 -9q-47 0 -77.5 31.5t-30.5 70.5q0 67 38 103.5t88.5 36.5t77 -32t26.5 -71zM800 1528q-54 20 -151.5 20t-153.5 -70.5t-56 -209.5v-128h303v-126h-303v-1014h-167v1014h-196v92l196 34v92q0 233 128 352q106 98 264 98q80 0 136 -21 v-133z" glyph-name="uni1E1F" horiz-adv-x="801" unicode="ḟ"/>
<glyph d="M1077 1826q0 -95 -75 -126q-22 -9 -56 -9t-65 28.5t-31 68.5q0 64 37 101t88 37t76.5 -31t25.5 -69zM311 1522h240l337 -989l75 -286l73 286l318 989h228l196 -1522h-171l-106 947l-44 450l-124 -450l-323 -962h-93l-339 962l-136 450l-38 -450l-91 -947l-164 -1z" glyph-name="uni1E40" horiz-adv-x="1925" unicode="Ṁ"/>
<glyph d="M1073 894q13 -72 13 -186v-708h-167v697q0 182 -43 250.5t-168 68.5t-272 -86q-42 -24 -76 -52v-878h-167v1139h149l1 -146q122 99 299 147q65 17 122 17q113 0 178.5 -34t101.5 -119q124 97 293 138q64 15 139 15q165 0 240.5 -100.5t75.5 -353.5v-703h-166v695 q0 175 -44 248.5t-187 73.5t-322 -123zM1117 1527q0 -99 -77 -130q-22 -9 -45 -9q-47 0 -77.5 31.5t-30.5 70.5q0 67 38 103.5t88.5 36.5t77 -32t26.5 -71z" glyph-name="uni1E41" horiz-adv-x="1978" unicode="ṁ"/>
<glyph d="M792 1826q0 -95 -75 -126q-22 -9 -56 -9t-65 28.5t-31 68.5q0 64 37 101t88 37t76.5 -31t25.5 -69zM622 527l-247 8v-535h-169v1522h82l378 14q527 0 527 -491q0 -246 -151.5 -381t-419.5 -137zM798 1395q-73 19 -193.5 19t-229.5 -16v-734q92 -12 208 -12q217 1 329 94 t112 298q0 292 -226 351z" glyph-name="uni1E56" horiz-adv-x="1279" unicode="Ṗ"/>
<glyph d="M575 -16q-126 0 -225 38l3 -161v-367h-166v1646h150l1 -133q149 149 348 149t328.5 -138.5t129.5 -411.5t-157 -447.5t-412 -174.5zM888.5 917q-85.5 108 -243 108t-292.5 -116v-746q67 -57 235 -57t277 129t109 351.5t-85.5 330.5zM811 1527q0 -99 -77 -130 q-22 -9 -45 -9q-47 0 -77.5 31.5t-30.5 70.5q0 67 38 103.5t88.5 36.5t77 -32t26.5 -71z" glyph-name="uni1E57" horiz-adv-x="1247" unicode="ṗ"/>
<glyph d="M732 1826q0 -95 -75 -126q-22 -9 -56 -9t-65 28.5t-31 68.5q0 64 37 101t88 37t76.5 -31t25.5 -69zM956 1323q-128 82 -326 82q-135 0 -231.5 -57t-96.5 -169.5t88 -192.5q63 -59 194 -121.5t208 -104.5q276 -149 276 -375q0 -195 -136 -298t-352.5 -103t-380.5 60 q-42 16 -63 30l41 139q99 -63 271 -87q55 -7 122 -7q150 0 241 62t91 182.5t-102 201.5q-68 54 -202 114.5t-205.5 104t-127.5 99.5q-125 125 -125 279q0 253 261 340q106 36 204 36q260 0 386 -82z" glyph-name="uni1E60" horiz-adv-x="1154" unicode="Ṡ"/>
<glyph d="M149 192q68 -47 225 -74q184 -32 283 34q70 47 70 133q0 112 -172 186q-49 21 -107.5 45t-117.5 56q-198 110 -198 291q0 144 113.5 218.5t265.5 74.5t268 -40q29 -10 44 -19l-28 -127q-54 40 -177 56q-40 6 -82 6q-123 0 -186 -44t-63 -116q0 -114 147 -186 q46 -22 102 -44q153 -58 230 -120q117 -94 117 -234t-107.5 -222t-281.5 -82t-307 51q-39 15 -64 31zM629 1527q0 -99 -77 -130q-22 -9 -45 -9q-47 0 -77.5 31.5t-30.5 70.5q0 67 38 103.5t88.5 36.5t77 -32t26.5 -71z" glyph-name="uni1E61" horiz-adv-x="984" unicode="ṡ"/>
<glyph d="M748 1826q0 -95 -75 -126q-22 -9 -56 -9t-65 28.5t-31 68.5q0 64 37 101t88 37t76.5 -31t25.5 -69zM553 1391h-491v131h1160v-131h-498v-1391h-171v1391z" glyph-name="uni1E6A" horiz-adv-x="1279" unicode="Ṫ"/>
<glyph d="M240 1014h-159v91q28 8 56 14t67.5 17.5t49 36t25 107t27.5 120.5h100v-260h354v-126h-354v-650q0 -161 34 -208q27 -38 110 -38q61 0 128.5 19t93.5 38l29 -97q-72 -59 -219 -86q-43 -8 -89 -8q-116 0 -175 52q-78 66 -78 234v744zM467 1697q0 -99 -77 -130 q-22 -9 -45 -9q-47 0 -77.5 31.5t-30.5 70.5q0 67 38 103.5t88.5 36.5t77 -32t26.5 -71z" glyph-name="uni1E6B" horiz-adv-x="849" unicode="ṫ"/>
<glyph d="M1004 1589q-136 68 -303 206q-49 41 -84 78l111 102q33 -36 122 -116t136 -122.5t89 -76.5zM32 1522h174l249 -1006l69 -335l74 335l298 1006h125l301 -1006l85 -332l64 331l236 1007h171l-392 -1538h-166l-325 1096l-37 182l-37 -182l-329 -1096h-148z" glyph-name="Wgrave" horiz-adv-x="1909" unicode="Ẁ"/>
<glyph d="M39 1140h167l229 -783l43 -180l40 180l221 783h165l223 -783l42 -184l43 179l221 788h163l-355 -1158h-154l-237 837l-30 147l-32 -147l-232 -837h-158zM593 1789q90 -118 337 -398l-85 -68q-72 48 -192 162.5t-180 200.5z" glyph-name="wgrave" horiz-adv-x="1635" unicode="ẁ"/>
<glyph d="M836 1660q42 34 89 76.5t86 77.5q139 125 172 161l111 -102q-126 -126 -288 -229q-52 -32 -98 -55zM32 1522h174l249 -1006l69 -335l74 335l298 1006h125l301 -1006l85 -332l64 331l236 1007h171l-392 -1538h-166l-325 1096l-37 182l-37 -182l-329 -1096h-148z" glyph-name="Wacute" horiz-adv-x="1909" unicode="Ẃ"/>
<glyph d="M703 1391q227 247 337 398l120 -103q-71 -104 -251 -266q-76 -69 -120 -97zM39 1140h167l229 -783l43 -180l40 180l221 783h165l223 -783l42 -184l43 179l221 788h163l-355 -1158h-154l-237 837l-30 147l-32 -147l-232 -837h-158z" glyph-name="wacute" horiz-adv-x="1635" unicode="ẃ"/>
<glyph d="M1203 1922q105 0 105 -109q0 -86 -75 -115q-22 -8 -56 -8t-64.5 27.5t-30.5 68.5q0 65 37 100.5t84 35.5zM724 1922q104 0 104 -109q0 -86 -75 -115q-22 -8 -55.5 -8t-64 27.5t-30.5 68.5q0 66 36.5 101t84.5 35zM32 1522h174l249 -1006l69 -335l74 335l298 1006h125 l301 -1006l85 -332l64 331l236 1007h171l-392 -1538h-166l-325 1096l-37 182l-37 -182l-329 -1096h-148z" glyph-name="Wdieresis" horiz-adv-x="1909" unicode="Ẅ"/>
<glyph d="M1060 1641q99 0 99 -105q0 -54 -34.5 -87t-79.5 -33t-73.5 27.5t-28.5 66.5q0 63 36 97t81 34zM609 1641q99 0 99 -105q0 -54 -34.5 -87t-79.5 -33t-74 27.5t-29 66.5q0 63 36 97t82 34zM39 1140h167l229 -783l43 -180l40 180l221 783h165l223 -783l42 -184l43 179 l221 788h163l-355 -1158h-154l-237 837l-30 147l-32 -147l-232 -837h-158z" glyph-name="wdieresis" horiz-adv-x="1635" unicode="ẅ"/>
<glyph d="M548 584l-517 938h181l374 -701l51 -115l44 115l359 701h179l-499 -935v-587h-172v584zM694 1589q-136 68 -303 206q-49 41 -84 78l111 102q33 -36 122 -116t136 -122.5t89 -76.5z" glyph-name="Ygrave" horiz-adv-x="1249" unicode="Ỳ"/>
<glyph d="M120 -356q41 -12 91 -12q107 0 188.5 82.5t133.5 285.5h-49l-428 1140h178l350 -1006l303 1006h180l-392 -1169q-105 -314 -237 -413q-87 -65 -228 -65q-71 0 -90 14v137zM351 1781q90 -118 337 -398l-85 -68q-72 48 -192 162.5t-180 200.5z" glyph-name="ygrave" horiz-adv-x="1107" unicode="ỳ"/>
<glyph d="M240 840h1212v-135h-1212v135z" glyph-name="endash" horiz-adv-x="1692" unicode="–"/>
<glyph d="M240 840h1863v-135h-1863v135z" glyph-name="emdash" horiz-adv-x="2343" unicode="—"/>
<glyph d="M294 963q-87 29 -140 125.5t-53 198.5q0 168 66.5 283t143.5 167l72 -47v-25q-78 -63 -113 -221q-12 -52 -12 -98q0 -82 36 -151t86 -89v-47z" glyph-name="quoteleft" horiz-adv-x="498" unicode="‘"/>
<glyph d="M123 1010v25q68 68 99 222q11 51 11 97q0 86 -31 156t-76 92v47l108 88q72 -31 114 -112.5t42 -188.5q0 -180 -59.5 -298t-135.5 -175z" glyph-name="quoteright" horiz-adv-x="498" unicode="’"/>
<glyph d="M123 -488v25q68 68 99 222q11 51 11 97q0 86 -31 156t-76 92v47l108 88q72 -31 114 -112.5t42 -188.5q0 -180 -59.5 -298t-135.5 -175z" glyph-name="quotesinglbase" horiz-adv-x="498" unicode="‚"/>
<glyph d="M311 963q-133 87 -193 278q-22 70 -22 141q0 131 53 228.5t140 126.5l86 -96v-46q-79 -35 -112 -159q-10 -37 -10 -82q0 -93 40.5 -186t89.5 -133v-25z" glyph-name="quotereversed" horiz-adv-x="498" unicode="‛"/>
<glyph d="M294 963q-87 29 -140 125.5t-53 198.5q0 168 66.5 283t143.5 167l72 -47v-25q-78 -63 -113 -221q-12 -52 -12 -98q0 -82 36 -151t86 -89v-47zM782 963q-87 29 -140 125.5t-53 198.5q0 168 66.5 283t143.5 167l72 -47v-25q-78 -63 -113 -221q-12 -52 -12 -98 q0 -82 36 -151t86 -89v-47z" glyph-name="quotedblleft" horiz-adv-x="981" unicode="“"/>
<glyph d="M123 1010v25q68 68 99 222q11 51 11 97q0 86 -31 156t-76 92v47l108 88q72 -31 114 -112.5t42 -188.5q0 -180 -59.5 -298t-135.5 -175zM611 1010v25q68 68 99 222q11 51 11 97q0 86 -31 156t-76 92v47l108 88q72 -31 114 -112.5t42 -188.5q0 -180 -59.5 -298t-135.5 -175 z" glyph-name="quotedblright" horiz-adv-x="981" unicode="”"/>
<glyph d="M123 -469v25q68 68 99 222q11 51 11 97q0 86 -31 156t-76 92v47l108 88q72 -31 114 -112.5t42 -188.5q0 -180 -59.5 -298t-135.5 -175zM609 -469v25q68 68 99 222q11 51 11 97q0 86 -31 156t-76 92v47l108 88q72 -31 114 -112.5t42 -188.5q0 -180 -59.5 -298t-135.5 -175 z" glyph-name="quotedblbase" horiz-adv-x="981" unicode="„"/>
<glyph d="M438 1149l-312 -2l1 125l311 -3l-3 389h156l-3 -389l312 3v-125l-312 2l-9 -949h-133z" glyph-name="dagger" horiz-adv-x="1026" unicode="†"/>
<glyph d="M126 622l311 -2v529l-311 -2l1 125l310 -3l-3 389h157l-4 -389l313 3v-125l-313 2v-529l312 2v-125l-312 3l-12 -856h-126l-12 856l-311 -3v125z" glyph-name="daggerdbl" horiz-adv-x="1026" unicode="‡"/>
<glyph d="M417 548q-70 0 -116.5 50t-46.5 123t55 127t124 54q70 0 116.5 -48.5t46.5 -123t-54 -128.5t-125 -54z" glyph-name="bullet" horiz-adv-x="852" unicode="•"/>
<glyph d="M1570 18q-32 34 -34 75q-2 68 35.5 109.5t75.5 41.5q62 0 91 -34t30 -76q2 -69 -34.5 -109.5t-84 -40.5t-79.5 34zM910.5 202.5q37.5 41.5 74.5 41.5q64 0 93 -35.5t29 -85.5v-18q0 -42 -35.5 -81.5t-83.5 -39.5t-71 26q-40 44 -42 97.5t35.5 95zM251 202.5 q37 41.5 74 41.5q62 0 92 -35.5t30 -76.5q0 -68 -36 -108t-84 -40t-71 26q-41 44 -41.5 97.5t36.5 95z" glyph-name="ellipsis" horiz-adv-x="1983" unicode="…"/>
<glyph d="M2072.5 749.5q111.5 111.5 275 111.5t249 -110.5t85.5 -293t-111.5 -292t-267.5 -109.5t-249 114t-93 291t111.5 288.5zM2166.5 250.5q55.5 -82.5 151.5 -82.5t155.5 76.5t59.5 211.5q0 208 -117 274q-36 20 -61.5 20t-51 -0.5t-65 -21t-68.5 -58.5q-59 -78 -59 -207.5 t55.5 -212zM1225 1530h145l-658 -1530h-145zM694.5 795.5q-111.5 -109.5 -267 -109.5t-249 114.5t-93.5 291.5t111.5 288.5t274.5 111.5t249 -110t86 -293.5t-111.5 -293zM354 820q38 -22 86 -22q98 2 157.5 79t59.5 209q0 208 -117 274q-36 20 -61.5 20t-50.5 -0.5t-65 -21 t-69 -58.5q-60 -79 -60 -211q0 -199 120 -269zM1249.5 749.5q111.5 111.5 275.5 111.5t248.5 -110.5t84.5 -293t-111.5 -292t-267 -109.5t-248.5 114t-93 291t111.5 288.5zM1342.5 250.5q55.5 -82.5 150.5 -82.5q97 0 156.5 76.5t59.5 211.5q0 208 -116 274q-36 20 -61.5 20 t-51 -0.5t-65.5 -21t-69 -58.5q-59 -78 -59 -207.5t55.5 -212z" glyph-name="perthousand" horiz-adv-x="2767" unicode="‰"/>
<glyph d="M303 1790h175l-157 -600h-124z" glyph-name="minute" horiz-adv-x="643" unicode="′"/>
<glyph d="M303 1790h175l-157 -600h-124zM707 1790h175l-157 -600h-124z" glyph-name="second" horiz-adv-x="1048" unicode="″"/>
<glyph d="M245 683l653 448l44 -125l-534 -391l534 -388l-44 -121l-653 436v141z" glyph-name="guilsinglleft" horiz-adv-x="1204" unicode="‹"/>
<glyph d="M959.015 683l-652.96 448l-43.9971 -125l533.968 -391l-533.968 -388l43.9971 -121l652.96 436v141z" glyph-name="guilsinglright" horiz-adv-x="1204" unicode="›"/>
<glyph d="M240 1780h187l-18 -1307h-148zM446 135q0 -106 -75 -141q-22 -10 -57 -10t-68 35t-33 78q0 71 36.5 111.5t73.5 40.5q63 0 93 -35.5t30 -78.5zM911 1780h187l-18 -1307h-148zM1117 135q0 -106 -75 -141q-22 -10 -57 -10t-68 35t-33 78q0 71 36.5 111.5t73.5 40.5 q63 0 93 -35.5t30 -78.5z" glyph-name="exclamdbl" horiz-adv-x="1338" unicode="‼"/>
<glyph d="M699 1530h152l-541 -1530h-150z" glyph-name="fraction" horiz-adv-x="1026" unicode="⁄"/>
<glyph d="M112 947l474 832h52l99 -59l-384 -629l-56 -100h397v2l6 280l149 16v-298h192l1 -116h-193v-283h-156v283h-540z" glyph-name="foursuperior" horiz-adv-x="1151" unicode="⁴"/>
<glyph d="M940 95q224 0 385 92l46 -126q-33 -5 -67 -19q-163 -70 -338 -70t-276 40q-302 117 -365 515h-206v110h194q-2 40 -2 108t12 154h-173v109h193q60 246 228.5 388t436.5 142q144 0 270 -44q33 -11 64 -19l-41 -134q-127 70 -332 70q-252 0 -383 -225q-44 -75 -68 -178h587 v-109h-605q-7 -56 -7 -119t5 -143h574v-110h-562q71 -432 430 -432z" glyph-name="Euro" horiz-adv-x="1522" unicode="€"/>
<glyph d="M354 217q-82 -77 -182 -157l-132 89q156 104 288 228q-5 48 -5 153.5t21.5 246t59.5 271.5q79 275 214 453.5t284 178.5q125 0 160 -136q10 -41 10 -91q0 -259 -166 -554.5t-437 -570.5q17 -118 57 -171.5t84 -53.5q78 0 145.5 94t112.5 224l138 -25q-44 -139 -139 -265 q-121 -160 -257 -160q-190 0 -256 246zM459 508q220 238 346.5 492t126.5 453q0 65 -29 94q-10 10 -24 10q-90 0 -187.5 -171t-164 -421t-68.5 -457z" glyph-name="uni2113" horiz-adv-x="1214" unicode="ℓ"/>
<glyph d="M1635 614q-103 144 -103 396q0 119 38 219t102 167q130 136 349 136t341 -166q105 -145 105 -389.5t-133 -388t-355.5 -143.5t-343.5 169zM206 1522h149l634 -1030l128 -257l-8 226v1061h154v-1522h-146l-616 998l-151 285l10 -247v-1036h-154v1522zM1774 687.5 q77 -124.5 223 -124.5t226 110.5t80 306.5q0 300 -166 398q-58 34 -131 34t-129 -26.5t-97 -77.5q-83 -107 -83 -301.5t77 -319zM1596 213h816v-126h-816v126z" glyph-name="afii61352" horiz-adv-x="2569" unicode="№"/>
<glyph d="M1070 1546h221l188 -474l40 -139l33 138l177 475h208l67 -779h-136l-35 520l-9 169l-48 -136l-211 -558h-91l-285 695l-3 -152l-23 -538h-130zM458 1430l-269 -2v118h685v-118l-276 2v-663h-140v663z" glyph-name="trademark" horiz-adv-x="2218" unicode="™"/>
<glyph d="M211 118h352q-147 110 -255 317t-108 427v7q0 326 221 511q198 165 490 165t483.5 -179t191.5 -497q0 -230 -98 -432.5t-252 -318.5h385v-118h-561l-1 114q148 89 252.5 290t104.5 469t-164 419q-141 129 -357 129t-370.5 -143t-154.5 -415q0 -329 201 -586 q85 -108 171 -163v-114h-531v118z" glyph-name="Omega" horiz-adv-x="1815" unicode="Ω"/>
<glyph d="M1274 832q0 -153 -11 -205h-913v-368q124 -177 399 -177q152 0 309 66q42 18 68 34l37 -94q-99 -71 -313 -96q-62 -8 -118 -8q-294 0 -458.5 182t-164.5 495.5t164 504t475 190.5q215 0 366.5 -142t159.5 -382zM1051 1120q-103 137 -339.5 137t-361.5 -185v-335h701v383z " glyph-name="estimated" horiz-adv-x="1383" unicode="℮"/>
<glyph d="M781 1043q143 0 275 -49q-38 398 -299 520q-96 45 -252.5 45t-263.5 -73l-56 96q137 102 370 102q444 0 598 -428q67 -186 67 -432q0 -669 -364 -818q-86 -35 -193 -35q-212 0 -356.5 133.5t-144.5 378t168 402.5t451 158zM1063 864q-119 62 -302 62t-310 -117t-127 -311 t92 -299t253.5 -104t256.5 127q137 180 137 594v48z" glyph-name="partialdiff" horiz-adv-x="1366" unicode="∂"/>
<glyph d="M743 1508h29l749 -1483l-15 -25h-1438l-13 21zM1294 133l-530 1086l-493 -1086h1023z" glyph-name="Delta" horiz-adv-x="1577" unicode="∆"/>
<glyph d="M339 1396h-209v126h1369v-126h-209v-1567h-170v1566h-611v-1566h-170v1567z" glyph-name="product" horiz-adv-x="1629" unicode="∏"/>
<glyph d="M773 680l-573 779l24 63h1037v-126h-840l527 -712l-515 -735h841v-120l-1054 1l-20 42z" glyph-name="summation" horiz-adv-x="1508" unicode="∑"/>
<glyph d="M247 840h856v-135h-856v135z" glyph-name="minus" horiz-adv-x="1350" unicode="−"/>
<glyph d="M741 1599h147l-775 -1962h-147z" glyph-name="uni2215" horiz-adv-x="854" unicode="∕"/>
<glyph d="M222 614q-40 42 -40 90q0 79 45 127.5t92 48.5q77 0 114 -41t37 -103v-20t-11.5 -46t-32.5 -51q-45 -47 -104.5 -47t-99.5 42z" glyph-name="uni2219" horiz-adv-x="655" unicode="∙"/>
<glyph d="M97 599l188 115h146l351 -848l624 2004h165l-714 -2224h-137l-407 920l-144 -88z" glyph-name="radical" horiz-adv-x="1602" unicode="√"/>
<glyph d="M846 398q-155 -168 -340 -168t-294 107.5t-109 281t115.5 279.5t303 106t330.5 -172q40 -49 75 -101q121 184 282 248q60 24 95 24.5t38 0.5q193 0 295 -109t102 -279.5t-110 -278.5t-302.5 -108t-330.5 168q-40 48 -74 99q-33 -50 -76 -98zM1001 620q79 -123 134 -173 q111 -102 221.5 -102t171 82.5t60.5 191.5q0 170 -148 237q-51 23 -112 23q-102 0 -180.5 -72.5t-146.5 -186.5zM402 368q51 -22 111 -22q100 0 180 68t157 191q-77 123 -125 173q-99 101 -198 101q-132 0 -202.5 -79t-70.5 -191q0 -176 148 -241z" glyph-name="infinity" horiz-adv-x="1842" unicode="∞"/>
<glyph d="M165 -287q88 -106 228 -106t211 82t71 263.5t-111 421.5q-47 103 -102 206q-214 399 -214 628q0 334 240 440q79 36 154 36q128 0 207 -31.5t120 -100.5l-87 -86q-35 59 -134 84q-35 9 -92 9q-120 0 -187 -93t-67 -259q0 -216 212 -610q127 -234 170 -378t43 -249 q0 -224 -99 -356t-307 -132q-156 0 -265 76q-34 23 -55 53z" glyph-name="integral" horiz-adv-x="1042" unicode="∫"/>
<glyph d="M518 481q-124 0 -213 -126l-88 69q32 72 116 135.5t191 63.5t209 -86q64 -55 102 -70.5t76 -15.5q130 0 220 125l79 -76q-54 -127 -197 -175q-51 -17 -105.5 -17t-90.5 13t-66 32t-56 41q-98 87 -177 87zM518 936q-124 0 -213 -126l-88 69q32 72 116 135.5t191 63.5 t209 -86q64 -55 102 -70.5t76 -15.5q130 0 220 125l79 -76q-54 -127 -197 -175q-51 -17 -105.5 -17t-90.5 13t-66 32t-56 41q-98 87 -177 87z" glyph-name="approxequal" horiz-adv-x="1426" unicode="≈"/>
<glyph d="M510 428h-269v127h316l156 431h-472v128h521l77 205h133l-78 -205h262v-128h-311l-156 -431h467v-127h-515l-84 -225h-131z" glyph-name="notequal" horiz-adv-x="1397" unicode="≠"/>
<glyph d="M173 834l965 448v-154l-798 -355l798 -355v-155l-965 448v123zM173 124h965v-124h-965v124z" glyph-name="lessequal" horiz-adv-x="1368" unicode="≤"/>
<glyph d="M1195.01 834l-964.941 448v-154l797.951 -355l-797.951 -355v-155l964.941 448v123zM1195.01 124h-964.941v-124h964.941v124z" glyph-name="greaterequal" horiz-adv-x="1368" unicode="≥"/>
<glyph d="M84 762v13l536 741h4l535 -741v-13l-535 -762h-5zM623 224l370 544v4l-370 524h-3l-371 -524v-7l371 -541h3z" glyph-name="lozenge" horiz-adv-x="1243" unicode="◊"/>
<glyph d="M177 -97q62 -28 87 -133q8 -35 8 -80q0 -86 -44.5 -157.5t-93.5 -92.5l-58 32v20q53 48 53 145.5t-45 140.5q-13 13 -27 17v38z" glyph-name="commaaccent" horiz-adv-x="335" unicode=""/>
<glyph d="M437 1589q-136 68 -303 206q-49 41 -84 78l111 102q33 -36 122 -116t136 -122.5t89 -76.5z" glyph-name="grave.cap" horiz-adv-x="564"/>
<glyph d="M650 1922q105 0 105 -109q0 -86 -75 -115q-22 -8 -56 -8t-64.5 27.5t-30.5 68.5q0 65 37 100.5t84 35.5zM171 1922q104 0 104 -109q0 -86 -75 -115q-22 -8 -55.5 -8t-64 27.5t-30.5 68.5q0 66 36.5 101t84.5 35z" glyph-name="dieresis.cap" horiz-adv-x="805"/>
<glyph d="M49 1684l277 298h149l280 -296l-110 -47l-244 223l-248 -223z" glyph-name="circumflex.cap" horiz-adv-x="804"/>
<glyph d="M49 1936l97 46l244 -202l248 202l92 -44l-265 -271h-148z" glyph-name="caron.cap" horiz-adv-x="762"/>
<glyph d="M530.5 1668.5q-64.5 -26.5 -146 -26.5t-146.5 26q-130 53 -173 175q-17 48 -17 79.5t1 44.5h117q0 -99 78 -154q55 -39 135 -39q131 0 190 79q41 55 41 114h114q1 -10 1 -42t-20.5 -86.5t-65 -99t-109 -71z" glyph-name="breve.cap" horiz-adv-x="772"/>
<glyph d="M469.5 1474q-56.5 -15 -122.5 -15t-124 18q-114 36 -157 135q-20 46 -20 76q0 100 28 149q77 135 290.5 135t278.5 -144q22 -47 21.5 -112.5t-26.5 -114.5t-69 -80.5t-99.5 -46.5zM353 1556q137 0 179 87q15 31 15 73q0 80 -53 120.5t-138 40.5q-128 0 -174 -81 q-17 -30 -17 -91t49 -104t139 -45z" glyph-name="ring.cap" horiz-adv-x="713"/>
<glyph d="M299 1821q-96 0 -185 -108l-66 54q32 72 109 124.5t164 52.5t162 -75q47 -47 75.5 -61t58.5 -14q100 0 186 105l67 -56q-32 -72 -110 -124t-138 -52t-90.5 11.5t-54 28.5t-42.5 37t-52.5 48.5t-83.5 28.5z" glyph-name="tilde.cap" horiz-adv-x="917"/>
<glyph d="M410 1922q-127 -176 -261 -283l-95 53q65 72 142 179.5t84 118.5zM878 1913q-117 -165 -261 -274l-96 53q75 84 151 182t82 107z" glyph-name="hungarumlaut.cap" horiz-adv-x="955"/>
<glyph d="M56 1660q42 34 89 76.5t86 77.5q139 125 172 161l111 -102q-126 -126 -288 -229q-52 -32 -98 -55z" glyph-name="acute.cap" horiz-adv-x="564"/>
<glyph d="M278 1826q0 -95 -75 -126q-22 -9 -56 -9t-65 28.5t-31 68.5q0 64 37 101t88 37t76.5 -31t25.5 -69z" glyph-name="dotaccent.cap" horiz-adv-x="330"/>
<glyph d="M50 1867h543v-124h-543v124z" glyph-name="macron.cap" horiz-adv-x="643"/>
<glyph d="M62 1607l10 37l133 41q60 -53 60 -241t-73 -335q-22 -43 -46 -72l-84 26l-7 23q8 24 19 50q41 103 41 253.5t-53 217.5z" glyph-name="caronvertical" horiz-adv-x="305"/>
<glyph d="M211 1139h166v-1139h-166v1139zM413 1527q0 -99 -77 -130q-22 -9 -45 -9q-47 0 -77.5 31.5t-30.5 70.5q0 67 38 103.5t88.5 36.5t77 -32t26.5 -71z" glyph-name="i.cy" horiz-adv-x="588"/>
<glyph d="M211 1139h166v-1139h-166v1139zM413 1527q0 -99 -77 -130q-22 -9 -45 -9q-47 0 -77.5 31.5t-30.5 70.5q0 67 38 103.5t88.5 36.5t77 -32t26.5 -71z" glyph-name="i.dot" horiz-adv-x="588"/>
<glyph d="M221 1522h171v-1522h-171v1522zM427 1826q0 -95 -75 -126q-22 -9 -56 -9t-65 28.5t-31 68.5q0 64 37 101t88 37t76.5 -31t25.5 -69z" glyph-name="i.uc" horiz-adv-x="613"/>
<glyph d="M1012 1139h166v-1139h-166v1139zM1214 1527q0 -99 -77 -130q-22 -9 -45 -9q-47 0 -77.5 31.5t-30.5 70.5q0 67 38 103.5t88.5 36.5t77 -32t26.5 -71zM800 1528q-54 20 -151.5 20t-153.5 -70.5t-56 -209.5v-128h303v-126h-303v-1014h-167v1014h-196v92l196 34v92 q0 233 128 352q106 98 264 98q80 0 136 -21v-133z" glyph-name="fi_trk" horiz-adv-x="1389"/>
<glyph d="M1813 1139h166v-1139h-166v1139zM2015 1527q0 -99 -77 -130q-22 -9 -45 -9q-47 0 -77.5 31.5t-30.5 70.5q0 67 38 103.5t88.5 36.5t77 -32t26.5 -71zM800 1528q-54 20 -151.5 20t-153.5 -70.5t-56 -209.5v-128h303v-126h-303v-1014h-167v1014h-196v92l196 34v92 q0 233 128 352q106 98 264 98q80 0 136 -21v-133zM1601 1528q-54 20 -151.5 20t-153.5 -70.5t-56 -209.5v-128h303v-126h-303v-1014h-167v1014h-196v92l196 34v92q0 233 128 352q106 98 264 98q80 0 136 -21v-133z" glyph-name="ffi_dflt" horiz-adv-x="2190"/>
</font>
</defs>
</svg>
